<?xml version="1.0" encoding="utf-8"?>
<!-- Generator: Adobe Illustrator 16.0.0, SVG Export Plug-In . SVG Version: 6.00 Build 0)  -->
<!DOCTYPE svg PUBLIC "-//W3C//DTD SVG 1.1//EN" "http://www.w3.org/Graphics/SVG/1.1/DTD/svg11.dtd">
<svg version="1.1" id="Layer_2" xmlns="http://www.w3.org/2000/svg" xmlns:xlink="http://www.w3.org/1999/xlink" x="0px" y="0px"
	 width="375px" height="375px" viewBox="0 0 375 375" enable-background="new 0 0 375 375" xml:space="preserve">
<g>
	<rect x="37.299" y="206.777" fill="#9F8A7D" width="187.067" height="31.318"/>
	<rect x="37.299" y="237.928" fill="#8A796D" width="187.067" height="31.312"/>
	<rect x="37.299" y="176.333" fill="#8A796D" width="187.067" height="31.322"/>
	<rect x="37.299" y="145.023" fill="#9F8A7D" width="187.067" height="31.31"/>
	<rect x="37.299" y="269.24" fill="#9F8A7D" width="187.067" height="31.315"/>
	<polygon opacity="0.7" fill="#4E4035" points="186.366,284.719 58.344,156.698 80.488,134.561 208.509,262.579 	"/>
	<path fill="#826C5C" d="M37.299,114.581v4.689v26.623V269.24v31.069v0.246h187.067v-0.246V269.24V145.893V119.27v-4.689H37.299z
		 M193.051,269.24H68.614V145.893h124.437V269.24z"/>
	<g opacity="0.7">
		<g>
			<g>
				<polygon fill="#4E4035" points="68.614,145.893 68.614,269.24 193.051,269.24 193.051,265.149 72.706,265.149 72.706,145.893 
									"/>
			</g>
		</g>
	</g>
	
		<rect x="40.31" y="196.707" transform="matrix(0.7071 0.7071 -0.7071 0.7071 188.4865 -30.3128)" fill="#826C5C" width="181.048" height="31.313"/>
	<g>
		<polygon fill="#988477" points="224.366,238.096 337.53,197.023 337.53,165.711 224.366,206.777 		"/>
		<polygon fill="#7E6E62" points="224.366,269.24 337.53,228.174 337.53,196.855 224.366,237.928 		"/>
		<polygon fill="#7E6E62" points="224.366,207.655 337.53,166.583 337.53,135.266 224.366,176.333 		"/>
		<polygon fill="#988477" points="224.366,176.333 337.53,135.266 337.53,103.953 224.366,145.023 		"/>
		<polygon fill="#9F8A7D" points="224.366,300.556 337.53,259.486 337.53,228.174 224.366,269.24 		"/>
		<polygon opacity="0.7" fill="#32271D" points="262.371,270.889 321.501,121.65 299.357,107.566 240.229,256.806 		"/>
		<path fill="#695649" d="M224.366,114.581v4.689v26.623V269.24v31.069v0.246l113.164-41.069v-0.246v-31.066V104.823V78.197v-4.687
			L224.366,114.581z M255.681,134.498l55.551-19.917v123.347l-55.551,19.918V134.498z"/>
		<g opacity="0.7">
			<g>
				<g>
					<polygon fill="#32271D" points="311.231,114.581 311.231,237.928 255.681,257.846 255.681,253.754 307.141,235.326 
						307.141,116.07 					"/>
				</g>
			</g>
		</g>
		<polygon fill="#695649" points="264.965,272.668 319.079,125.069 316.604,110.523 301.949,109.351 242.82,258.585 		"/>
	</g>
	<polygon fill="#4E4035" points="150.462,73.511 37.299,114.581 224.366,114.581 337.53,73.511 	"/>
	<polygon fill="#5B4B3F" points="150.466,73.511 150.466,114.581 224.366,114.581 337.53,73.511 	"/>
	<polygon opacity="0.5" fill="#32271D" points="59.773,114.581 150.466,81.439 315.678,81.439 224.366,114.581 	"/>
</g>
</svg>
