<?xml version="1.0" encoding="utf-8"?>
<!-- Generator: Adobe Illustrator 16.0.0, SVG Export Plug-In . SVG Version: 6.00 Build 0)  -->
<!DOCTYPE svg PUBLIC "-//W3C//DTD SVG 1.1//EN" "http://www.w3.org/Graphics/SVG/1.1/DTD/svg11.dtd">
<svg version="1.1" id="Layer_2" xmlns="http://www.w3.org/2000/svg" xmlns:xlink="http://www.w3.org/1999/xlink" x="0px" y="0px"
	 width="375px" height="375px" viewBox="0 0 375 375" enable-background="new 0 0 375 375" xml:space="preserve">
<g>
	<g>
		<g>
			<rect x="187.333" y="269.982" fill="#9F8A7D" width="45.111" height="2.832"/>
			<polygon fill="#675243" points="187.333,269.982 302.425,209.481 347.539,209.481 232.444,269.982 			"/>
			<polygon fill="#3B2D22" points="232.444,272.814 232.444,269.982 347.539,209.481 347.539,212.307 			"/>
			<rect x="134.042" y="269.982" fill="#9F8A7D" width="45.112" height="2.832"/>
			<polygon fill="#675243" points="134.042,269.982 249.136,209.481 294.243,209.481 179.155,269.982 			"/>
			<polygon fill="#3B2D22" points="179.155,272.814 179.155,269.982 294.243,209.481 294.243,212.307 			"/>
			<rect x="80.753" y="269.982" fill="#9F8A7D" width="45.109" height="2.832"/>
			<polygon fill="#675243" points="80.753,269.982 195.844,209.481 240.954,209.481 125.862,269.982 			"/>
			<polygon fill="#3B2D22" points="125.862,272.814 125.862,269.982 240.954,209.481 240.954,212.307 			"/>
			<rect x="27.461" y="269.982" fill="#9F8A7D" width="45.112" height="2.832"/>
			<polygon fill="#675243" points="27.461,269.982 142.554,209.481 187.665,209.481 72.573,269.982 			"/>
			<polygon fill="#3B2D22" points="72.573,272.814 72.573,269.982 187.665,209.481 187.665,212.307 			"/>
		</g>
		<polygon fill="#2D2015" points="47.809,252.14 160.854,254.417 238.326,254.417 258.867,223.229 297.682,211.976 300.826,192.043 
			125.862,192.043 		"/>
		<rect x="44.502" y="246.534" fill="#48382C" width="177.903" height="18.925"/>
		<path fill="#3B2D22" d="M222.405,246.553v18.906l32.895-17.312c-0.009-0.014-0.014-0.027-0.025-0.043
			c-2.322-4.422,7.263-14.035,21.416-21.47c14.15-7.441,27.507-9.877,29.834-5.449l15.853-8.349v-18.907L222.405,246.553z"/>
		<g>
			<rect x="187.333" y="243.707" fill="#9F8A7D" width="45.111" height="2.827"/>
			<polygon fill="#887161" points="187.333,243.707 302.425,183.201 347.539,183.201 232.444,243.707 			"/>
			<polygon fill="#3B2D22" points="232.444,246.534 232.444,243.707 347.539,183.201 347.539,186.033 			"/>
			<rect x="134.042" y="243.707" fill="#9F8A7D" width="45.112" height="2.827"/>
			<polygon fill="#887161" points="134.042,243.707 249.136,183.201 294.243,183.201 179.155,243.707 			"/>
			<polygon fill="#3B2D22" points="179.155,246.534 179.155,243.707 294.243,183.201 294.243,186.033 			"/>
			<rect x="80.753" y="243.707" fill="#9F8A7D" width="45.109" height="2.827"/>
			<polygon fill="#887161" points="80.753,243.707 195.844,183.201 240.954,183.201 125.862,243.707 			"/>
			<polygon fill="#3B2D22" points="125.862,246.534 125.862,243.707 240.954,183.201 240.954,186.033 			"/>
			<rect x="27.461" y="243.707" fill="#9F8A7D" width="45.112" height="2.827"/>
			<polygon fill="#887161" points="27.461,243.707 142.554,183.201 187.665,183.201 72.573,243.707 			"/>
			<polygon fill="#3B2D22" points="72.573,246.534 72.573,243.707 187.665,183.201 187.665,186.033 			"/>
		</g>
		<path fill="#2D2015" d="M299.763,222.357l6.743-1.276c-2.479-4.283-15.732-1.829-29.775,5.553
			c-2.092,1.096-4.081,2.243-5.949,3.414c0.376-0.206,0.757-0.41,1.142-0.614C283.748,223.218,295.024,220.494,299.763,222.357z"/>
	</g>
	<g>
		<g>
			<rect x="187.333" y="229.475" fill="#9F8A7D" width="45.111" height="2.83"/>
			<polygon fill="#675243" points="187.333,229.475 302.425,168.973 347.539,168.973 232.444,229.475 			"/>
			<polygon fill="#3B2D22" points="232.444,232.305 232.444,229.475 347.539,168.973 347.539,171.801 			"/>
			<rect x="134.042" y="229.475" fill="#9F8A7D" width="45.112" height="2.83"/>
			<polygon fill="#675243" points="134.042,229.475 249.136,168.973 294.243,168.973 179.155,229.475 			"/>
			<polygon fill="#3B2D22" points="179.155,232.305 179.155,229.475 294.243,168.973 294.243,171.801 			"/>
			<rect x="80.753" y="229.475" fill="#9F8A7D" width="45.109" height="2.83"/>
			<polygon fill="#675243" points="80.753,229.475 195.844,168.973 240.954,168.973 125.862,229.475 			"/>
			<polygon fill="#3B2D22" points="125.862,232.305 125.862,229.475 240.954,168.973 240.954,171.801 			"/>
			<rect x="27.461" y="229.475" fill="#9F8A7D" width="45.112" height="2.83"/>
			<polygon fill="#675243" points="27.461,229.475 142.554,168.973 187.665,168.973 72.573,229.475 			"/>
			<polygon fill="#3B2D22" points="72.573,232.305 72.573,229.475 187.665,168.973 187.665,171.801 			"/>
		</g>
		<polygon fill="#2D2015" points="47.809,211.632 160.854,213.914 238.326,213.914 258.867,182.721 297.682,171.466 
			300.826,151.536 125.862,151.536 		"/>
		<rect x="44.502" y="206.031" fill="#48382C" width="177.903" height="18.921"/>
		<path fill="#3B2D22" d="M222.405,206.043v18.909l32.895-17.313c-0.009-0.014-0.014-0.027-0.025-0.041
			c-2.322-4.424,7.263-14.04,21.416-21.474c14.15-7.438,27.507-9.875,29.834-5.449l15.853-8.347v-18.909L222.405,206.043z"/>
		<g>
			<rect x="187.333" y="203.197" fill="#9F8A7D" width="45.111" height="2.834"/>
			<polygon fill="#887161" points="187.333,203.197 302.425,142.695 347.539,142.695 232.444,203.197 			"/>
			<polygon fill="#3B2D22" points="232.444,206.031 232.444,203.197 347.539,142.695 347.539,145.525 			"/>
			<rect x="134.042" y="203.197" fill="#9F8A7D" width="45.112" height="2.834"/>
			<polygon fill="#887161" points="134.042,203.197 249.136,142.695 294.243,142.695 179.155,203.197 			"/>
			<polygon fill="#3B2D22" points="179.155,206.031 179.155,203.197 294.243,142.695 294.243,145.525 			"/>
			<rect x="80.753" y="203.197" fill="#9F8A7D" width="45.109" height="2.834"/>
			<polygon fill="#887161" points="80.753,203.197 195.844,142.695 240.954,142.695 125.862,203.197 			"/>
			<polygon fill="#3B2D22" points="125.862,206.031 125.862,203.197 240.954,142.695 240.954,145.525 			"/>
			<rect x="27.461" y="203.197" fill="#9F8A7D" width="45.112" height="2.834"/>
			<polygon fill="#887161" points="27.461,203.197 142.554,142.695 187.665,142.695 72.573,203.197 			"/>
			<polygon fill="#3B2D22" points="72.573,206.031 72.573,203.197 187.665,142.695 187.665,145.525 			"/>
		</g>
		<path fill="#2D2015" d="M299.763,181.847l6.743-1.274c-2.479-4.285-15.732-1.827-29.775,5.551
			c-2.092,1.098-4.081,2.244-5.949,3.414c0.376-0.203,0.757-0.407,1.142-0.608C283.748,182.71,295.024,179.986,299.763,181.847z"/>
	</g>
	<g>
		<g>
			<rect x="187.333" y="188.965" fill="#9F8A7D" width="45.111" height="2.832"/>
			<polygon fill="#675243" points="187.333,188.965 302.425,128.463 347.539,128.463 232.444,188.965 			"/>
			<polygon fill="#3B2D22" points="232.444,191.797 232.444,188.965 347.539,128.463 347.539,131.293 			"/>
			<rect x="134.042" y="188.965" fill="#9F8A7D" width="45.112" height="2.832"/>
			<polygon fill="#675243" points="134.042,188.965 249.136,128.463 294.243,128.463 179.155,188.965 			"/>
			<polygon fill="#3B2D22" points="179.155,191.797 179.155,188.965 294.243,128.463 294.243,131.293 			"/>
			<rect x="80.753" y="188.965" fill="#9F8A7D" width="45.109" height="2.832"/>
			<polygon fill="#675243" points="80.753,188.965 195.844,128.463 240.954,128.463 125.862,188.965 			"/>
			<polygon fill="#3B2D22" points="125.862,191.797 125.862,188.965 240.954,128.463 240.954,131.293 			"/>
			<rect x="27.461" y="188.965" fill="#9F8A7D" width="45.112" height="2.832"/>
			<polygon fill="#675243" points="27.461,188.965 142.554,128.463 187.665,128.463 72.573,188.965 			"/>
			<polygon fill="#3B2D22" points="72.573,191.797 72.573,188.965 187.665,128.463 187.665,131.293 			"/>
		</g>
		<polygon fill="#2D2015" points="47.809,171.124 160.854,173.406 238.326,173.406 258.867,142.213 297.682,130.958 
			300.826,111.025 125.862,111.025 		"/>
		<rect x="44.502" y="165.519" fill="#48382C" width="177.903" height="18.925"/>
		<path fill="#3B2D22" d="M222.405,165.535v18.909l32.895-17.315c-0.009-0.014-0.014-0.025-0.025-0.041
			c-2.322-4.424,7.263-14.038,21.416-21.472c14.15-7.438,27.507-9.875,29.834-5.449l15.853-8.344v-18.912L222.405,165.535z"/>
		<g>
			<rect x="187.333" y="162.691" fill="#9F8A7D" width="45.111" height="2.828"/>
			<polygon fill="#887161" points="187.333,162.691 302.425,102.186 347.539,102.186 232.444,162.691 			"/>
			<polygon fill="#3B2D22" points="232.444,165.519 232.444,162.691 347.539,102.186 347.539,105.018 			"/>
			<rect x="134.042" y="162.691" fill="#9F8A7D" width="45.112" height="2.828"/>
			<polygon fill="#887161" points="134.042,162.691 249.136,102.186 294.243,102.186 179.155,162.691 			"/>
			<polygon fill="#3B2D22" points="179.155,165.519 179.155,162.691 294.243,102.186 294.243,105.018 			"/>
			<rect x="80.753" y="162.691" fill="#9F8A7D" width="45.109" height="2.828"/>
			<polygon fill="#887161" points="80.753,162.691 195.844,102.186 240.954,102.186 125.862,162.691 			"/>
			<polygon fill="#3B2D22" points="125.862,165.519 125.862,162.691 240.954,102.186 240.954,105.018 			"/>
			<rect x="27.461" y="162.691" fill="#9F8A7D" width="45.112" height="2.828"/>
			<polygon fill="#887161" points="27.461,162.691 142.554,102.186 187.665,102.186 72.573,162.691 			"/>
			<polygon fill="#3B2D22" points="72.573,165.519 72.573,162.691 187.665,102.186 187.665,105.018 			"/>
		</g>
		<path fill="#2D2015" d="M299.763,141.34l6.743-1.275c-2.479-4.285-15.732-1.829-29.775,5.551
			c-2.092,1.096-4.081,2.246-5.949,3.416c0.376-0.208,0.757-0.412,1.142-0.613C283.748,142.202,295.024,139.479,299.763,141.34z"/>
	</g>
</g>
</svg>
