<?xml version="1.0" encoding="utf-8"?>
<!-- Generator: Adobe Illustrator 16.0.0, SVG Export Plug-In . SVG Version: 6.00 Build 0)  -->
<!DOCTYPE svg PUBLIC "-//W3C//DTD SVG 1.1//EN" "http://www.w3.org/Graphics/SVG/1.1/DTD/svg11.dtd">
<svg version="1.1" id="Layer_2" xmlns="http://www.w3.org/2000/svg" xmlns:xlink="http://www.w3.org/1999/xlink" x="0px" y="0px"
	 width="375px" height="375px" viewBox="0 0 375 375" enable-background="new 0 0 375 375" xml:space="preserve">
<g>
	<g>
		<path fill="none" stroke="#FFFFFF" stroke-width="1.1606" stroke-linecap="round" stroke-miterlimit="10" d="M119.762,71.098
			c45.101-26.118,103.285-24.667,147.828,8.332"/>
		<path fill="none" stroke="#FFFFFF" stroke-width="1.1606" stroke-linecap="round" stroke-miterlimit="10" d="M65.739,245.802
			c-20.748-43.556-17.368-96.85,13.349-138.312"/>
		<path fill="none" stroke="#FFFFFF" stroke-width="1.1606" stroke-linecap="round" stroke-miterlimit="10" d="M246.24,308.971
			c-43.697,21.16-97.379,17.927-139.092-12.976"/>
		<path fill="none" stroke="#FFFFFF" stroke-width="1.1606" stroke-linecap="round" stroke-miterlimit="10" d="M309.145,129.941
			c20.592,43.488,17.156,96.625-13.49,137.993"/>
		<polyline fill="none" stroke="#FFFFFF" stroke-width="1.1606" stroke-linecap="round" stroke-miterlimit="10" points="
			49.06,112.917 79.081,107.488 84.521,137.509 		"/>
		<polyline fill="none" stroke="#FFFFFF" stroke-width="1.1606" stroke-linecap="round" stroke-miterlimit="10" points="
			292.086,237.609 295.631,267.917 325.939,264.371 		"/>
		<polyline fill="none" stroke="#FFFFFF" stroke-width="1.1606" stroke-linecap="round" stroke-miterlimit="10" points="
			137.18,292.128 106.877,295.677 110.419,325.981 		"/>
		<polyline fill="none" stroke="#FFFFFF" stroke-width="1.1606" stroke-linecap="round" stroke-miterlimit="10" points="
			237.369,82.871 267.67,79.323 264.129,49.019 		"/>
	</g>
	<g>
		
			<rect x="74.844" y="145.18" transform="matrix(0.7071 -0.7071 0.7071 0.7071 -64.8687 156.6077)" fill="#887161" width="163.524" height="22.853"/>
		
			<rect x="96.083" y="166.419" transform="matrix(0.7071 -0.7071 0.7071 0.7071 -73.6656 177.844)" fill="#887161" width="163.524" height="22.851"/>
		
			<rect x="117.319" y="187.657" transform="matrix(0.7071 -0.7071 0.7071 0.7071 -82.4629 199.0846)" fill="#887161" width="163.524" height="22.851"/>
		
			<rect x="138.557" y="208.893" transform="matrix(0.7071 -0.7071 0.7071 0.7071 -91.259 220.3203)" fill="#887161" width="163.525" height="22.851"/>
		<g>
			
				<rect x="140.361" y="159.671" transform="matrix(0.7071 -0.7071 0.7071 0.7071 -116.7628 171.3167)" fill="#675243" width="16.085" height="133.848"/>
			
				<rect x="218.554" y="81.481" transform="matrix(0.7071 -0.7071 0.7071 0.7071 -38.5716 203.6823)" fill="#675243" width="16.083" height="133.846"/>
		</g>
		
			<rect x="115.848" y="177.896" transform="matrix(-0.7071 0.7071 -0.7071 -0.7071 345.3643 235.5958)" opacity="0.7" fill="#281D16" width="16.084" height="22.854"/>
		
			<rect x="137.086" y="199.136" transform="matrix(-0.7071 0.7072 -0.7072 -0.7071 396.6425 256.8144)" opacity="0.7" fill="#281D16" width="16.084" height="22.851"/>
		
			<rect x="158.323" y="220.373" transform="matrix(-0.7071 0.7071 -0.7071 -0.7071 447.9073 278.0796)" opacity="0.7" fill="#281D16" width="16.085" height="22.851"/>
		
			<rect x="179.558" y="241.608" transform="matrix(-0.7071 0.7071 -0.7071 -0.7071 499.1764 299.3172)" opacity="0.7" fill="#281D16" width="16.086" height="22.854"/>
		
			<rect x="193.783" y="99.963" transform="matrix(-0.7071 0.7071 -0.7071 -0.7071 423.3024 47.4518)" opacity="0.7" fill="#281D16" width="16.083" height="22.852"/>
		
			<rect x="215.021" y="121.202" transform="matrix(-0.7071 0.7071 -0.7071 -0.7071 474.5734 68.6806)" opacity="0.7" fill="#281D16" width="16.084" height="22.851"/>
		
			<rect x="236.257" y="142.438" transform="matrix(-0.7071 0.7071 -0.7071 -0.7071 525.8437 89.9226)" opacity="0.7" fill="#281D16" width="16.084" height="22.851"/>
		
			<rect x="257.492" y="163.676" transform="matrix(-0.7072 0.707 -0.707 -0.7072 577.1184 111.1833)" opacity="0.7" fill="#281D16" width="16.085" height="22.853"/>
		
			<rect x="143.899" y="156.137" transform="matrix(0.7071 -0.7071 0.7071 0.7071 -113.2226 172.7594)" fill="#675243" width="16.083" height="133.847"/>
		
			<rect x="222.089" y="77.944" transform="matrix(0.7071 -0.7071 0.7071 0.7071 -35.0339 205.1584)" fill="#675243" width="16.084" height="133.849"/>
	</g>
</g>
</svg>
