<?xml version="1.0" encoding="utf-8"?>
<!-- Generator: Adobe Illustrator 16.0.0, SVG Export Plug-In . SVG Version: 6.00 Build 0)  -->
<!DOCTYPE svg PUBLIC "-//W3C//DTD SVG 1.1//EN" "http://www.w3.org/Graphics/SVG/1.1/DTD/svg11.dtd">
<svg version="1.1" id="Layer_2" xmlns="http://www.w3.org/2000/svg" xmlns:xlink="http://www.w3.org/1999/xlink" x="0px" y="0px"
	 width="375px" height="375px" viewBox="0 0 375 375" enable-background="new 0 0 375 375" xml:space="preserve">
<g>
	<g>
		<polygon fill="#887161" points="179.573,71.895 183.992,76.319 220.601,91.497 216.175,87.073 		"/>
		<polygon fill="#675243" points="183.992,283.041 179.573,278.622 179.573,71.895 183.992,76.319 		"/>
		<polygon fill="#8F7D70" points="198.55,234.103 198.55,191.262 210.436,199.61 210.436,131.067 220.601,135.438 220.601,91.497 
			183.992,76.319 183.992,283.041 220.601,298.221 220.601,254.037 		"/>
	</g>
	<polygon opacity="0.5" fill="#2D2015" points="200.276,107.839 194.662,105.19 183.992,127.768 183.992,152.652 202.389,113.726 	
		"/>
	<polygon opacity="0.5" fill="#2D2015" points="220.601,254.037 206.131,240.954 188.928,251.811 190.388,257.455 183.992,232.85 
		183.992,283.041 220.601,298.221 	"/>
	<g>
		<polygon fill="#887161" points="158.926,68.695 154.502,64.271 117.896,47.24 122.32,51.667 		"/>
		<polygon fill="#675243" points="122.32,51.667 122.32,258.388 117.896,253.964 117.896,47.24 		"/>
		<polygon fill="#948074" points="158.926,232.251 122.32,258.388 122.32,51.667 158.926,68.695 		"/>
	</g>
	<polygon opacity="0.5" fill="#2D2015" points="158.926,100.14 148.353,95.142 122.32,150.236 122.32,235.91 158.926,158.451 
		158.926,131.676 156.856,130.696 158.926,126.311 158.926,110.212 157.982,109.767 158.926,107.769 	"/>
	<g>
		<polygon fill="#675243" points="162.903,214.046 191.896,325.585 197.29,328.752 168.302,217.212 		"/>
		<polygon fill="#675243" points="290.143,210.914 284.744,207.747 270.832,208.466 276.223,211.635 		"/>
		<polygon fill="#887161" points="194.372,263.259 192.907,257.614 270.832,208.466 276.223,211.635 		"/>
		<polygon fill="#887161" points="182.214,216.491 176.818,213.325 162.903,214.046 168.302,217.212 		"/>
		<polygon fill="#A7978E" points="276.223,211.635 194.372,263.259 182.214,216.491 168.302,217.212 197.29,328.752 
			303.488,262.275 290.143,210.914 		"/>
	</g>
	<g>
		<polygon fill="#887161" points="188.743,126.486 186.636,120.594 192.251,123.248 194.358,129.136 		"/>
		<polygon fill="#887161" points="173.99,140.097 171.885,134.213 168.721,132.714 166.83,136.713 		"/>
		<polygon fill="#887161" points="172.507,160.858 170.395,154.973 167.592,153.645 165.699,157.643 		"/>
		<polygon fill="#887161" points="170.725,128.479 168.61,122.592 155.092,116.203 157.204,122.094 		"/>
		<polygon fill="#675243" points="72.941,300.411 70.834,294.521 155.092,116.203 157.204,122.094 		"/>
		<polygon fill="#675243" points="172.507,160.858 170.395,154.973 186.636,120.594 188.743,126.486 		"/>
		<polygon fill="#A4938A" points="188.743,126.486 172.507,160.858 165.699,157.643 173.99,140.097 166.83,136.713 170.725,128.479 
			157.204,122.094 72.941,300.411 106.04,316.048 194.358,129.136 		"/>
	</g>
</g>
</svg>
