<?xml version="1.0" encoding="utf-8"?>
<!-- Generator: Adobe Illustrator 16.0.0, SVG Export Plug-In . SVG Version: 6.00 Build 0)  -->
<!DOCTYPE svg PUBLIC "-//W3C//DTD SVG 1.1//EN" "http://www.w3.org/Graphics/SVG/1.1/DTD/svg11.dtd">
<svg version="1.1" id="Layer_2" xmlns="http://www.w3.org/2000/svg" xmlns:xlink="http://www.w3.org/1999/xlink" x="0px" y="0px"
	 width="375px" height="375px" viewBox="0 0 375 375" enable-background="new 0 0 375 375" xml:space="preserve">
<g>
	<g>
		<path fill="#675243" d="M294.974,248.37c2.746-3.099,7.388-1.483,10.313,3.59l13.393,23.215c2.926,5.073,5.32,14.016,5.32,19.872
			v12.265c0,5.856-4.792,10.648-10.648,10.648H301.3c-5.856,0-10.698-4.792-10.76-10.647l-0.448-42.661
			C290.03,258.795,292.228,251.469,294.974,248.37z"/>
	</g>
	<g>
		<path fill="#675243" d="M294.974,158.776c2.746-3.097,7.388-1.479,10.314,3.594l13.391,23.211
			c2.927,5.073,5.321,14.016,5.321,19.872v12.263c0,5.856-4.792,10.648-10.648,10.648H301.3c-5.856,0-10.698-4.792-10.76-10.647
			l-0.448-42.663C290.03,169.197,292.228,161.873,294.974,158.776z"/>
	</g>
	<g>
		<path fill="#675243" d="M294.974,66.825c2.746-3.099,7.388-1.483,10.314,3.59l13.391,23.213C321.605,98.701,324,107.644,324,113.5
			v12.268c0,5.856-4.792,10.648-10.648,10.648H301.3c-5.856,0-10.698-4.792-10.76-10.648l-0.448-42.661
			C290.03,77.25,292.228,69.924,294.974,66.825z"/>
	</g>
	<path fill="#675243" d="M306.755,298.398c0,14.693-12.018,26.711-26.708,26.711H83.104c-14.69,0-26.708-12.018-26.708-26.711
		V83.106c0-14.688,12.018-26.706,26.708-26.706h196.943c14.69,0,26.708,12.018,26.708,26.706V298.398z"/>
	<path fill="#887161" d="M300.662,292.306c0,14.693-12.018,26.711-26.708,26.711H77.014c-14.693,0-26.711-12.018-26.711-26.711
		V77.017c0-14.691,12.018-26.709,26.711-26.709h196.94c14.69,0,26.708,12.018,26.708,26.709V292.306z"/>
	<path opacity="0.05" fill="#FFFFFF" d="M273.954,50.307H77.014c-14.693,0-26.711,12.018-26.711,26.709v215.289
		c0,10.115,5.698,18.962,14.044,23.494L294.132,59.575C289.223,53.909,281.994,50.307,273.954,50.307z"/>
	<g>
		<path fill="#675243" d="M278.623,286.846c0,8.125-6.643,14.771-14.768,14.771H261.2c-8.124,0-14.771-6.646-14.771-14.771v-23.625
			c0-8.124,6.646-14.772,14.771-14.772h2.655c8.125,0,14.768,6.648,14.768,14.772V286.846z"/>
		<path fill="#48382C" d="M271.838,259.084c-8.127,0-14.77,6.643-14.77,14.77v23.628c0,1.265,0.178,2.483,0.479,3.655
			c1.17,0.301,2.394,0.479,3.653,0.479h2.655c8.125,0,14.768-6.646,14.768-14.771v-23.625c0-1.262-0.176-2.483-0.477-3.66
			c-1.169-0.302-2.394-0.477-3.652-0.477H271.838z"/>
	</g>
	<g>
		<path fill="#675243" d="M190.344,286.846c0,8.125-6.64,14.771-14.767,14.771h-2.656c-8.127,0-14.77-6.646-14.77-14.771v-23.625
			c0-8.124,6.643-14.772,14.77-14.772h2.656c8.127,0,14.767,6.648,14.767,14.772V286.846z"/>
		<path fill="#48382C" d="M183.553,259.084c-8.121,0-14.767,6.643-14.767,14.77v23.628c0,1.265,0.175,2.483,0.479,3.655
			c1.172,0.301,2.391,0.479,3.655,0.479h2.656c8.127,0,14.767-6.646,14.767-14.771v-23.625c0-1.262-0.178-2.483-0.479-3.66
			c-1.172-0.302-2.394-0.477-3.653-0.477H183.553z"/>
	</g>
	<g>
		<path fill="#675243" d="M102.068,286.846c0,8.125-6.648,14.771-14.772,14.771H84.64c-8.125,0-14.767-6.646-14.767-14.771v-23.625
			c0-8.124,6.643-14.772,14.767-14.772h2.656c8.125,0,14.772,6.648,14.772,14.772V286.846z"/>
		<path fill="#48382C" d="M95.277,259.084c-8.127,0-14.775,6.643-14.775,14.77v23.628c0,1.265,0.184,2.483,0.482,3.655
			c1.172,0.301,2.393,0.479,3.656,0.479h2.656c8.125,0,14.772-6.646,14.772-14.771v-23.625c0-1.262-0.181-2.483-0.484-3.66
			c-1.169-0.302-2.391-0.477-3.653-0.477H95.277z"/>
	</g>
	<g>
		<path fill="#675243" d="M278.623,198.731c0,8.124-6.643,14.772-14.768,14.772H261.2c-8.124,0-14.771-6.648-14.771-14.772v-23.63
			c0-8.119,6.646-14.767,14.771-14.767h2.655c8.125,0,14.768,6.648,14.768,14.767V198.731z"/>
		<path fill="#48382C" d="M271.838,170.968c-8.127,0-14.77,6.647-14.77,14.772v23.629c0,1.26,0.178,2.48,0.479,3.653
			c1.17,0.301,2.394,0.481,3.653,0.481h2.655c8.125,0,14.768-6.648,14.768-14.772v-23.63c0-1.261-0.176-2.479-0.477-3.656
			c-1.169-0.298-2.394-0.478-3.652-0.478H271.838z"/>
	</g>
	<g>
		<path fill="#675243" d="M190.344,198.731c0,8.124-6.64,14.772-14.767,14.772h-2.656c-8.127,0-14.77-6.648-14.77-14.772v-23.63
			c0-8.119,6.643-14.767,14.77-14.767h2.656c8.127,0,14.767,6.648,14.767,14.767V198.731z"/>
		<path fill="#48382C" d="M183.553,170.968c-8.121,0-14.767,6.647-14.767,14.772v23.629c0,1.26,0.175,2.48,0.479,3.653
			c1.172,0.301,2.391,0.481,3.655,0.481h2.656c8.127,0,14.767-6.648,14.767-14.772v-23.63c0-1.261-0.178-2.479-0.479-3.656
			c-1.172-0.298-2.394-0.478-3.653-0.478H183.553z"/>
	</g>
	<g>
		<path fill="#675243" d="M102.068,198.731c0,8.124-6.648,14.772-14.772,14.772H84.64c-8.125,0-14.767-6.648-14.767-14.772v-23.63
			c0-8.119,6.643-14.767,14.767-14.767h2.656c8.125,0,14.772,6.648,14.772,14.767V198.731z"/>
		<path fill="#48382C" d="M95.277,170.968c-8.127,0-14.775,6.647-14.775,14.772v23.629c0,1.26,0.184,2.48,0.482,3.653
			c1.172,0.301,2.393,0.481,3.656,0.481h2.656c8.125,0,14.772-6.648,14.772-14.772v-23.63c0-1.261-0.181-2.479-0.484-3.656
			c-1.169-0.298-2.391-0.478-3.653-0.478H95.277z"/>
	</g>
	<g>
		<path fill="#675243" d="M278.623,110.618c0,8.122-6.643,14.769-14.768,14.769H261.2c-8.124,0-14.771-6.647-14.771-14.769V86.985
			c0-8.119,6.646-14.766,14.771-14.766h2.655c8.125,0,14.768,6.646,14.768,14.766V110.618z"/>
		<path fill="#48382C" d="M271.838,82.857c-8.127,0-14.77,6.64-14.77,14.766v23.63c0,1.261,0.178,2.482,0.479,3.656
			c1.17,0.301,2.394,0.478,3.653,0.478h2.655c8.125,0,14.768-6.647,14.768-14.769V86.985c0-1.258-0.176-2.479-0.477-3.653
			c-1.169-0.301-2.394-0.475-3.652-0.475H271.838z"/>
	</g>
	<g>
		<path fill="#675243" d="M190.344,110.618c0,8.122-6.64,14.769-14.767,14.769h-2.656c-8.127,0-14.77-6.647-14.77-14.769V86.985
			c0-8.119,6.643-14.766,14.77-14.766h2.656c8.127,0,14.767,6.646,14.767,14.766V110.618z"/>
		<path fill="#48382C" d="M183.553,82.857c-8.121,0-14.767,6.64-14.767,14.766v23.63c0,1.261,0.175,2.482,0.479,3.656
			c1.172,0.301,2.391,0.478,3.655,0.478h2.656c8.127,0,14.767-6.647,14.767-14.769V86.985c0-1.258-0.178-2.479-0.479-3.653
			c-1.172-0.301-2.394-0.475-3.653-0.475H183.553z"/>
	</g>
	<g>
		<path fill="#675243" d="M102.068,110.618c0,8.122-6.648,14.769-14.772,14.769H84.64c-8.125,0-14.767-6.647-14.767-14.769V86.985
			c0-8.119,6.643-14.766,14.767-14.766h2.656c8.125,0,14.772,6.646,14.772,14.766V110.618z"/>
		<path fill="#48382C" d="M95.277,82.857c-8.127,0-14.775,6.64-14.775,14.766v23.63c0,1.261,0.184,2.482,0.482,3.656
			c1.172,0.301,2.393,0.478,3.656,0.478h2.656c8.125,0,14.772-6.647,14.772-14.769V86.985c0-1.258-0.181-2.479-0.484-3.653
			c-1.169-0.301-2.391-0.475-3.653-0.475H95.277z"/>
	</g>
</g>
</svg>
