<?xml version="1.0" encoding="utf-8"?>
<!-- Generator: Adobe Illustrator 16.0.0, SVG Export Plug-In . SVG Version: 6.00 Build 0)  -->
<!DOCTYPE svg PUBLIC "-//W3C//DTD SVG 1.1//EN" "http://www.w3.org/Graphics/SVG/1.1/DTD/svg11.dtd">
<svg version="1.1" id="Layer_2" xmlns="http://www.w3.org/2000/svg" xmlns:xlink="http://www.w3.org/1999/xlink" x="0px" y="0px"
	 width="375px" height="375px" viewBox="0 0 375 375" enable-background="new 0 0 375 375" xml:space="preserve">
<g>
	<g>
		<polygon fill="#B1CD61" points="19.15,229.896 267.754,229.896 307.209,136.109 56.89,136.109 		"/>
		<path fill="#B1CD61" d="M352.719,199.73h-17.441v-8.254c0-7.428-6.021-13.446-13.448-13.446h-19.113l-22.303,51.866h32.563h30.867
			l12.008-27.035C355.852,201.133,354.447,199.73,352.719,199.73z"/>
		<polygon fill="#93AC3C" points="302.715,178.03 280.412,229.896 293.898,229.896 315.719,178.03 		"/>
		<path fill="#93AC3C" d="M211.504,229.732c0,6.317,5.119,11.438,11.436,11.438c6.318,0,11.439-5.121,11.439-11.438H211.504z"/>
		<path fill="#93AC3C" d="M232.357,238.562c1.975,1.629,4.508,2.609,7.27,2.609c6.316,0,11.438-5.121,11.438-11.438h-15.198
			C235.865,233.148,234.527,236.249,232.357,238.562z"/>
		<path fill="#93AC3C" d="M296.145,241.172c6.318,0,11.438-5.121,11.438-11.438H284.71
			C284.709,236.051,289.828,241.172,296.145,241.172z"/>
		<path fill="#93AC3C" d="M329.568,241.172c6.32,0,11.438-5.121,11.438-11.438h-22.875
			C318.131,236.051,323.252,241.172,329.568,241.172z"/>
		<path fill="#93AC3C" d="M42.001,229.732c0,6.317,5.119,11.438,11.438,11.438c6.316,0,11.437-5.121,11.437-11.438H42.001z"/>
		<path fill="#93AC3C" d="M62.853,238.562c1.979,1.629,4.51,2.609,7.273,2.609c6.316,0,11.437-5.121,11.437-11.438H66.365
			C66.365,233.148,65.025,236.249,62.853,238.562z"/>
		<g>
			<polygon fill="#93AC3C" points="58.968,139.186 287.822,139.186 24.464,224.932 			"/>
			<path fill="#B1CD61" d="M268.436,142.263L29.779,219.965l31.268-77.702H268.436 M307.209,136.109H56.89l-37.74,93.788
				L307.209,136.109L307.209,136.109z"/>
		</g>
	</g>
	<circle fill="#281D16" cx="163.179" cy="183.003" r="34.701"/>
	<g>
		<g>
			<g>
				<defs>
					<path id="SVGID_1_" d="M157.593,165.159c-0.361-0.145-0.797-0.222-1.264-0.222c-0.688,0-1.389,0.16-1.975,0.453
						c-0.75,0.372-1.461,1.588-1.764,2.106c-0.09,0.15-0.16,0.269-0.207,0.34c-0.121,0.178-0.799,1.392-1.506,2.676l6.533,4.141
						l3.227-6.224C159.414,166.112,158.322,165.453,157.593,165.159z"/>
				</defs>
				<clipPath id="SVGID_2_">
					<use xlink:href="#SVGID_1_"  overflow="visible"/>
				</clipPath>
				<g clip-path="url(#SVGID_2_)">
				</g>
			</g>
		</g>
		<g>
			<g>
				<defs>
					<path id="SVGID_3_" d="M154.078,183.923l2.979,1.257l-4.168-7.363h-9.041l2.627,1.608l0.635,0.475l-0.344,0.713
						c-0.074,0.154-1.83,3.806-2.23,4.591c-0.217,0.425-0.461,2.222,0.158,2.877c1.096,1.161,2.289,1.749,3.553,1.749h2.297
						l3.072-5.135L154.078,183.923z"/>
				</defs>
				<clipPath id="SVGID_4_">
					<use xlink:href="#SVGID_3_"  overflow="visible"/>
				</clipPath>
				<g clip-path="url(#SVGID_4_)">
				</g>
			</g>
		</g>
		<g>
			<g>
				<defs>
					<path id="SVGID_5_" d="M175.109,188.98c3.137,0,4.428-0.688,4.959-1.267c0.98-1.068,1.34-2.244,1.012-3.313
						c-0.217-0.704-1.904-3.885-3.182-6.216l-7.016,4.305l3.648,6.484C174.697,188.979,174.892,188.98,175.109,188.98z"/>
				</defs>
				<clipPath id="SVGID_6_">
					<use xlink:href="#SVGID_5_"  overflow="visible"/>
				</clipPath>
				<g clip-path="url(#SVGID_6_)">
				</g>
			</g>
		</g>
		<path fill="#EF4824" d="M154.078,183.923l2.979,1.257l-4.168-7.363h-9.041l2.627,1.608l0.635,0.475l-0.344,0.713
			c-0.074,0.154-1.83,3.806-2.23,4.591c-0.217,0.425-0.461,2.222,0.158,2.877c1.096,1.161,2.289,1.749,3.553,1.749h2.297
			l3.072-5.135L154.078,183.923z"/>
		<path fill="#EF4824" d="M157.593,165.159c-0.361-0.145-0.797-0.222-1.264-0.222c-0.688,0-1.389,0.16-1.975,0.453
			c-0.75,0.372-1.461,1.588-1.764,2.106c-0.09,0.15-0.16,0.269-0.207,0.34c-0.121,0.178-0.799,1.392-1.506,2.676l6.533,4.141
			l3.227-6.224C159.414,166.112,158.322,165.453,157.593,165.159z"/>
		<path fill="#EF4824" d="M175.109,188.98c3.137,0,4.428-0.688,4.959-1.267c0.98-1.068,1.34-2.244,1.012-3.313
			c-0.217-0.704-1.904-3.885-3.182-6.216l-7.016,4.305l3.648,6.484C174.697,188.979,174.892,188.98,175.109,188.98z"/>
		<g>
			<path fill="#FFFFFF" d="M159.902,169.796c0,0,2.447,7.107,0.143,12.181c-2.133,4.698-9.264,7.908-9.264,7.908"/>
			<path fill="#FFFFFF" d="M159.902,169.796c0,0-6.963,2.836-9.264,7.908c-2.133,4.7,0.143,12.181,0.143,12.181"/>
		</g>
		<g>
			<path fill="#FFFFFF" d="M151.486,190.206"/>
			<path fill="#FFFFFF" d="M182.511,172.896c0,0-11.732-2.98-19.566,1.391c-7.258,4.05-11.459,15.919-11.459,15.919L182.511,172.896
				"/>
		</g>
		<path fill="#FFFFFF" d="M182.511,172.896l-31.025,17.31c0,0,12.309,2.657,19.564-1.392
			C178.882,184.445,182.511,172.896,182.511,172.896z"/>
		<g opacity="0.9">
			<path fill="#61932F" d="M159.902,169.796c0,0,2.447,7.107,0.143,12.181c-2.133,4.698-9.264,7.908-9.264,7.908"/>
			<path fill="#6DA335" d="M159.902,169.796c0,0-6.963,2.836-9.264,7.908c-2.133,4.7,0.143,12.181,0.143,12.181"/>
		</g>
		<g opacity="0.9">
			<path fill="#84C341" d="M151.486,190.206"/>
			<path fill="#79B23B" d="M182.511,172.896c0,0-11.732-2.98-19.566,1.391c-7.258,4.05-11.459,15.919-11.459,15.919L182.511,172.896
				"/>
		</g>
		<path opacity="0.9" fill="#84C341" enable-background="new    " d="M182.511,172.896l-31.025,17.31c0,0,12.309,2.657,19.564-1.392
			C178.882,184.445,182.511,172.896,182.511,172.896z"/>
		<g>
			<g>
				<defs>
					<path id="SVGID_7_" d="M171.931,170.788l-0.5-0.911c-0.102-0.187-1.027-1.862-2.16-3.68c-0.838-1.349-1.547-1.411-2.832-1.411
						h-7.672c0.619,0.71,1.584,1.597,2.289,2.882c0.279,0.515,0.6,1.095,0.979,1.766c1.266,2.222,1.855,3.277,2.129,3.772
						c0.354,0.642,0.754,1.37-0.074,1.843l-1.797,0.945l7.793,0.391l3.369-6.599L171.931,170.788z"/>
				</defs>
				<use xlink:href="#SVGID_7_"  overflow="visible" fill="#EF4824"/>
				<clipPath id="SVGID_8_">
					<use xlink:href="#SVGID_7_"  overflow="visible"/>
				</clipPath>
				<g clip-path="url(#SVGID_8_)">
				</g>
			</g>
		</g>
		<g>
			<g>
				<defs>
					<path id="SVGID_9_" d="M179.464,189.41c-1.221,0.449-2.352,0.449-2.873,0.449l-0.314-0.002h-8.74v-2.869l-4.344,7.168
						l4.344,7.063v-3.163h5.121c2.082,0,3.525-2.572,3.541-2.6C176.353,195.178,178.132,191.881,179.464,189.41z"/>
				</defs>
				<use xlink:href="#SVGID_9_"  overflow="visible" fill="#EF4824"/>
				<clipPath id="SVGID_10_">
					<use xlink:href="#SVGID_9_"  overflow="visible"/>
				</clipPath>
				<g clip-path="url(#SVGID_10_)">
				</g>
			</g>
		</g>
		<g>
			<g>
				<defs>
					<path id="SVGID_11_" d="M149.601,196.107c0.549,1.056,1.299,2.502,4.818,2.502h5.52v-7.803H148.49
						c-0.678,0-1.318-0.084-1.922-0.25c1.182,2.17,2.535,4.652,2.844,5.195C149.472,195.859,149.535,195.979,149.601,196.107z"/>
				</defs>
				<use xlink:href="#SVGID_11_"  overflow="visible" fill="#EF4824"/>
				<clipPath id="SVGID_12_">
					<use xlink:href="#SVGID_11_"  overflow="visible"/>
				</clipPath>
				<g clip-path="url(#SVGID_12_)">
				</g>
			</g>
		</g>
	</g>
</g>
</svg>
