<?xml version="1.0" encoding="utf-8"?>
<!-- Generator: Adobe Illustrator 16.0.0, SVG Export Plug-In . SVG Version: 6.00 Build 0)  -->
<!DOCTYPE svg PUBLIC "-//W3C//DTD SVG 1.1//EN" "http://www.w3.org/Graphics/SVG/1.1/DTD/svg11.dtd">
<svg version="1.1" id="Layer_2" xmlns="http://www.w3.org/2000/svg" xmlns:xlink="http://www.w3.org/1999/xlink" x="0px" y="0px"
	 width="375px" height="375px" viewBox="0 0 375 375" enable-background="new 0 0 375 375" xml:space="preserve">
<g>
	<polygon fill="#A4938A" points="232.885,79.759 344.052,89.111 138.935,294.228 27.768,284.876 	"/>
	<path fill="#7E726B" d="M186.157,172.182c-4.073-2.662-7.962-3.919-8.685-2.814c-0.081,0.124-0.112,0.274-0.111,0.444
		c-0.153,0.064-0.279,0.154-0.36,0.277c-0.644,0.983,1.437,3.506,4.765,5.926l-11.386,21.972l4.032,0.542l10.597-20.445
		c3.301,1.832,6.135,2.574,6.743,1.644c0.08-0.122,0.11-0.275,0.109-0.443c0.153-0.064,0.28-0.155,0.362-0.279
		C192.944,177.9,190.23,174.844,186.157,172.182z"/>
	<path fill="#7E726B" d="M222.297,175.056c-0.049,0.047-0.076,0.099-0.105,0.15c-0.102,0.035-0.199,0.083-0.279,0.163
		c-0.513,0.514-0.059,1.359,0.397,2.034c0.355,0.533,0.851,1.14,1.424,1.761l-0.611,0.775l-0.567-0.503l-0.738,0.825l0.614,0.55
		l-0.236,0.302l-0.758-0.679l-0.74,0.832l0.807,0.72l-0.302,0.382l-0.514-0.458l-0.742,0.826l0.567,0.505l-0.304,0.385l-0.797-0.712
		l-0.738,0.825l0.848,0.758l-0.361,0.456l-0.608-0.546l-0.741,0.823l0.661,0.591l-2.018,2.553l1.941,1.122l1.735-2.19l0.521,0.468
		l0.741-0.827l-0.574-0.514l0.361-0.452l0.332,0.301l0.74-0.827l-0.385-0.345l0.301-0.388l0.62,0.557l0.738-0.829l-0.668-0.597
		l0.305-0.383l0.375,0.336l0.741-0.826l-0.428-0.384l0.236-0.3l0.57,0.505l0.738-0.825l-0.617-0.555l0.548-0.696
		c1.27,1.125,2.831,2.221,3.52,1.532l0,0l0,0c0.038-0.039,0.078-0.09,0.111-0.147c0.101-0.035,0.195-0.084,0.275-0.165l0,0l0,0
		c0.511-0.517,0.057-1.355-0.397-2.033c-0.484-0.724-1.218-1.586-2.062-2.426C225.48,176.201,223.175,174.178,222.297,175.056z"/>
	<path fill="#7E726B" d="M269.179,128.473c-0.088,0.064-0.149,0.158-0.194,0.274c-0.123,0.003-0.232,0.032-0.319,0.096
		c-0.701,0.5,0.041,2.769,1.665,5.301l-18.264,12.619l-0.855,2.966l20.455-13.713c1.894,2.406,3.838,3.878,4.545,3.372
		c0.09-0.063,0.151-0.158,0.192-0.273c0.124-0.005,0.235-0.035,0.326-0.096c0.789-0.568-0.259-3.385-2.344-6.297
		C272.301,129.808,269.97,127.905,269.179,128.473z"/>
	<polygon fill="#7E726B" points="259.962,104.203 259.167,91.984 250.272,82.293 247.242,82.039 247.066,82.199 257.016,93.038 
		257.318,107.841 	"/>
	<polygon fill="#7E726B" points="195.221,118.988 193.877,120.331 196.751,138.845 198.258,137.978 	"/>
	<g>
		<polygon fill="#7E726B" points="134.751,194.525 136.757,185.03 138.116,185.31 138.38,184.018 137.03,183.742 137.138,183.238 
			138.384,183.494 138.647,182.202 137.409,181.949 137.507,181.484 139.088,181.808 139.352,180.519 137.781,180.196 
			137.89,179.679 139.205,179.948 139.471,178.659 138.161,178.389 138.272,177.873 139.324,178.088 139.588,176.798 
			138.544,176.586 138.647,176.087 139.662,176.294 139.926,175.004 139.328,174.881 135.101,179.108 135.328,179.153 
			135.249,179.676 134.654,179.555 134.054,180.155 133.933,180.752 135.049,180.981 134.978,181.451 133.491,181.146 
			133.228,182.437 134.777,182.754 134.697,183.264 133.225,182.961 132.961,184.251 134.497,184.567 133.044,194.016 		"/>
		<path fill="#7E726B" d="M141.709,173.891c1.083-0.017,2.348-0.155,2.513-1.059c0.016-0.086,0.023-0.174,0.016-0.267
			c0.085-0.114,0.154-0.238,0.183-0.391c0.072-0.388-0.026-0.867-0.97-1.415l-3.087,3.088
			C140.845,173.88,141.301,173.898,141.709,173.891z"/>
	</g>
	<g>
		<path fill="#7E726B" d="M142.891,236.365c-1.821-0.396-3.525,0.329-3.807,1.622c-0.283,1.291,0.965,2.663,2.786,3.061
			c1.822,0.398,3.526-0.327,3.807-1.622C145.961,238.136,144.712,236.765,142.891,236.365z"/>
		<path fill="#7E726B" d="M145.733,240.894L145.733,240.894c-0.917,0.918-2.462,1.271-4.033,0.929
			c-2.282-0.499-3.772-2.26-3.391-4.005c0.105-0.481,0.355-0.929,0.723-1.295c0.916-0.916,2.458-1.273,4.029-0.932
			c2.283,0.501,3.774,2.26,3.393,4.007C146.346,240.079,146.098,240.528,145.733,240.894z M140.15,237.642
			c-0.154,0.154-0.25,0.328-0.293,0.516c-0.185,0.846,0.815,1.817,2.183,2.116c1.014,0.223,2.048,0.021,2.572-0.501l0,0
			c0.152-0.152,0.25-0.327,0.291-0.516c0.186-0.848-0.813-1.816-2.179-2.116C141.707,236.919,140.672,237.12,140.15,237.642z"/>
	</g>
	<g>
		
			<rect x="244.145" y="132.669" transform="matrix(0.7069 -0.7073 0.7073 0.7069 -28.4557 215.3799)" fill="#58595B" width="3.063" height="18.717"/>
	</g>
	
		<line fill="none" stroke="#58595B" stroke-width="1.3173" stroke-miterlimit="10" x1="117.15" y1="185.169" x2="120.526" y2="181.132"/>
	
		<line fill="none" stroke="#58595B" stroke-width="1.3173" stroke-miterlimit="10" x1="118.568" y1="186.317" x2="121.946" y2="182.28"/>
	
		<line fill="none" stroke="#58595B" stroke-width="1.3173" stroke-miterlimit="10" x1="120.151" y1="187.304" x2="123.526" y2="183.267"/>
	
		<line fill="none" stroke="#58595B" stroke-width="1.3173" stroke-miterlimit="10" x1="121.731" y1="188.291" x2="125.108" y2="184.253"/>
	
		<line fill="none" stroke="#58595B" stroke-width="1.3173" stroke-miterlimit="10" x1="207.937" y1="181.035" x2="212.343" y2="178.157"/>
	
		<line fill="none" stroke="#58595B" stroke-width="1.3173" stroke-miterlimit="10" x1="208.872" y1="182.886" x2="213.278" y2="180.009"/>
	
		<line fill="none" stroke="#58595B" stroke-width="1.3173" stroke-miterlimit="10" x1="211.446" y1="186.474" x2="215.854" y2="183.596"/>
	
		<line fill="none" stroke="#58595B" stroke-width="1.3173" stroke-miterlimit="10" x1="213.128" y1="188.156" x2="217.536" y2="185.278"/>
	
		<line fill="none" stroke="#58595B" stroke-width="1.3173" stroke-miterlimit="10" x1="210.566" y1="184.411" x2="214.973" y2="181.535"/>
	
		<line fill="none" stroke="#58595B" stroke-width="1.3173" stroke-miterlimit="10" x1="122.881" y1="189.708" x2="126.258" y2="185.671"/>
	
		<line fill="none" stroke="#58595B" stroke-width="1.3173" stroke-miterlimit="10" x1="124.353" y1="190.807" x2="127.729" y2="186.769"/>
	<polygon fill="#58595B" points="134.751,194.525 116.972,179.472 115.059,181.866 133.491,195.786 	"/>
	
		<ellipse transform="matrix(0.6263 -0.7795 0.7795 0.6263 -97.8139 158.0752)" fill="#404041" stroke="#404041" stroke-width="1.3173" stroke-miterlimit="10" cx="115.987" cy="181.071" rx="5.981" ry="1.206"/>
	
		<ellipse transform="matrix(0.6264 -0.7795 0.7795 0.6264 -97.6143 157.4919)" fill="#58595B" stroke="#58595B" stroke-width="1.3173" stroke-miterlimit="10" cx="115.503" cy="180.586" rx="5.981" ry="1.207"/>
	
		<line fill="#58595B" stroke="#A6A8AB" stroke-width="0.383" stroke-miterlimit="10" x1="116.438" y1="177.866" x2="114.687" y2="182.864"/>
	
		<line fill="#58595B" stroke="#A6A8AB" stroke-width="0.383" stroke-miterlimit="10" x1="113.333" y1="181.795" x2="117.791" y2="178.936"/>
	<g>
		<polygon fill="#7E726B" points="92.26,254.421 83.166,246.624 58.107,256.103 62.018,252.19 83.624,243.99 93.755,252.674 		"/>
	</g>
	<polygon fill="#58595B" points="92.13,254.425 94.396,252.159 85.568,235.564 61.016,239.852 61.543,242.87 83.907,238.967 	"/>
	<path fill="#404041" stroke="#404041" stroke-width="1.3173" stroke-miterlimit="10" d="M58.349,242.431
		c0.745,2.601,2.842,4.277,4.686,3.75c1.844-0.526,2.738-3.06,1.995-5.659c-0.743-2.598-2.842-4.275-4.686-3.747
		C58.5,237.299,57.606,239.833,58.349,242.431z"/>
	
		<ellipse transform="matrix(-0.9614 0.2751 -0.2751 -0.9614 185.5685 457.4396)" fill="#58595B" stroke="#58595B" stroke-width="1.3173" stroke-miterlimit="10" cx="60.704" cy="241.734" rx="3.473" ry="4.892"/>
	<g>
		<polygon fill="#7E726B" points="141.287,264.176 128.205,258.295 142.191,237.303 144.105,238.577 131.667,257.246 
			143.479,261.985 		"/>
	</g>
	<polygon fill="#58595B" points="143.479,261.985 130.982,245.065 136.402,233.055 133.609,231.793 127.45,245.442 141.287,264.176 
			"/>
	
		<ellipse transform="matrix(0.2136 -0.9769 0.9769 0.2136 -122.0098 314.8949)" fill="#404041" stroke="#404041" stroke-width="1.3173" stroke-miterlimit="10" cx="134.577" cy="233.228" rx="3.473" ry="4.894"/>
	
		<ellipse transform="matrix(0.2135 -0.9769 0.9769 0.2135 -120.8483 314.3603)" fill="#58595B" stroke="#58595B" stroke-width="1.3173" stroke-miterlimit="10" cx="134.818" cy="232.236" rx="3.473" ry="4.892"/>
	<polygon fill="#58595B" points="174.461,198.441 163.454,175.103 159.99,176.737 171.584,201.318 	"/>
	<polygon fill="#58595B" points="198.258,137.978 169.541,126.708 168.98,128.137 197.075,139.161 	"/>
	<polygon fill="#58595B" points="254.964,74.37 262.111,92.384 257.318,107.841 261.97,103.19 265.358,92.257 257.812,73.24 	"/>
	<polygon fill="#58595B" points="218.432,189.469 208.228,175.743 206.997,176.656 217.337,190.563 	"/>
	
		<ellipse transform="matrix(0.7071 -0.7071 0.7071 0.7071 -25.8813 209.1787)" fill="#404041" cx="239.567" cy="135.832" rx="8.81" ry="2.395"/>
	<path fill="#58595B" d="M245.188,128.994c0.934,0.933-1.096,4.483-4.536,7.924c-3.44,3.44-6.988,5.468-7.922,4.535
		s1.096-4.481,4.535-7.921C240.705,130.09,244.254,128.061,245.188,128.994z"/>
	<path fill="#404041" d="M264.845,71.715c0.438,1.247-2.919,3.571-7.508,5.197c-4.585,1.623-8.662,1.93-9.102,0.681
		c-0.442-1.245,2.918-3.571,7.505-5.195C260.326,70.772,264.4,70.47,264.845,71.715z"/>
	<path fill="#58595B" d="M264.556,70.902c0.44,1.246-2.918,3.573-7.507,5.199c-4.585,1.623-8.661,1.927-9.102,0.682
		c-0.44-1.248,2.919-3.574,7.504-5.197C260.041,69.961,264.114,69.655,264.556,70.902z"/>
	
		<ellipse transform="matrix(0.9427 -0.3337 0.3337 0.9427 -49.5193 64.0588)" fill="#404041" cx="161.729" cy="176.19" rx="8.81" ry="2.394"/>
	
		<ellipse transform="matrix(0.9427 -0.3336 0.3336 0.9427 -49.2627 63.9129)" fill="#58595B" cx="161.442" cy="175.378" rx="8.809" ry="2.394"/>
	<path fill="#404041" d="M172.157,123.559c0.658,0.388,0.022,2.661-1.415,5.074c-1.434,2.409-3.127,4.046-3.786,3.658
		c-0.654-0.389-0.02-2.664,1.415-5.074C169.809,124.807,171.502,123.169,172.157,123.559z"/>
	
		<ellipse transform="matrix(0.5117 -0.8592 0.8592 0.5117 -27.0977 207.6645)" fill="#58595B" cx="169.132" cy="127.67" rx="5.082" ry="1.379"/>
	<path fill="#404041" stroke="#404041" stroke-width="1.3173" stroke-miterlimit="10" d="M212.873,173.401
		c0.336,0.572-1.707,2.386-4.562,4.047c-2.86,1.663-5.443,2.542-5.778,1.961c-0.335-0.575,1.709-2.389,4.564-4.05
		C209.953,173.701,212.538,172.822,212.873,173.401z"/>
	
		<ellipse transform="matrix(0.8645 -0.5026 0.5026 0.8645 -60.242 128.052)" fill="#58595B" stroke="#58595B" stroke-width="1.3173" stroke-miterlimit="10" cx="207.423" cy="175.779" rx="5.982" ry="1.207"/>
	
		<line fill="#58595B" stroke="#A6A8AB" stroke-width="0.383" stroke-miterlimit="10" x1="209.274" y1="173.574" x2="205.847" y2="177.612"/>
	
		<line fill="#58595B" stroke="#A6A8AB" stroke-width="0.383" stroke-miterlimit="10" x1="204.966" y1="176.129" x2="210.153" y2="175.057"/>
	<polygon fill="#675243" points="27.768,284.876 37.961,295.069 149.128,304.421 138.935,294.228 	"/>
	
		<rect x="239.382" y="51.726" transform="matrix(0.7071 0.7071 -0.7071 0.7071 211.3515 -116.7331)" fill="#887161" width="14.415" height="290.079"/>
</g>
</svg>
