<?xml version="1.0" encoding="utf-8"?>
<!-- Generator: Adobe Illustrator 16.0.0, SVG Export Plug-In . SVG Version: 6.00 Build 0)  -->
<!DOCTYPE svg PUBLIC "-//W3C//DTD SVG 1.1 Tiny//EN" "http://www.w3.org/Graphics/SVG/1.1/DTD/svg11-tiny.dtd">
<svg version="1.1" baseProfile="tiny" id="Layer_1" xmlns="http://www.w3.org/2000/svg" xmlns:xlink="http://www.w3.org/1999/xlink"
	 x="0px" y="0px" width="650px" height="237.888px" viewBox="0 0 650 237.888" xml:space="preserve">
<g>
	<g>
		<g>
			<path fill="#223D4A" d="M306.702,108.81c-0.332-0.109-0.678-0.164-1.035-0.164c-1.969,0-4.53,1.755-5.622,5.105
				c-0.595,1.825-0.592,3.763,0.008,5.325c0.293,0.764,1,2.115,2.459,2.589c0.333,0.11,0.683,0.165,1.038,0.165
				c1.967,0,4.531-1.755,5.624-5.105C310.307,113.241,309.176,109.617,306.702,108.81z"/>
			<path fill="#223D4A" d="M377.501,92.993c-0.859-3.636-4.643-5.725-10.378-5.725c-1.445,0.002-8.179,2.11-10.005,6.534
				c-0.479,1.159-0.556,2.391-0.334,3.65h19.977C377.145,97.227,378.055,95.351,377.501,92.993z"/>
			<path fill="#223D4A" d="M443.817,108.81c-0.331-0.109-0.681-0.164-1.036-0.164c-1.968,0-4.526,1.755-5.62,5.105
				c-0.594,1.825-0.593,3.765,0.006,5.325c0.292,0.764,1.004,2.115,2.463,2.589c0.332,0.11,0.679,0.165,1.036,0.165
				c1.968,0,4.528-1.755,5.622-5.105C447.424,113.241,446.292,109.617,443.817,108.81z"/>
			<path fill="#223D4A" d="M325.885,54.666c-109.585,0-198.74,26.293-198.74,58.609c0,32.32,89.155,58.613,198.74,58.613
				c109.584,0,198.738-26.293,198.738-58.613C524.623,80.959,435.469,54.666,325.885,54.666z M242.193,129.073h-11.189
				c-1.528,0-2.923-0.767-3.733-2.057c-0.845-1.346-2.875-4.58,7.745-28.812l-6.075,5.263c-0.925,0.798-2.194,1.071-3.365,0.73
				c-1.174-0.345-2.091-1.263-2.435-2.435l-1.818-6.201c-2.276,6.318-4.957,13.259-8.168,20.154
				c-0.422,0.913-0.841,1.834-1.26,2.755c-1.723,3.798-3.506,7.727-5.885,11.374c-2.281,3.496-8.481,11.824-16.798,13.65
				c-1.33,0.291-2.655,0.431-3.954,0.433c-7.286,0-13.717-4.42-15.511-11.173c-0.903-3.399-0.75-6.974-0.579-8.799
				c0.97-10.315,8.453-21.342,20.88-22.455c3.357-0.301,9.78-0.485,15.072,1.662c1.84,0.743,2.727,2.839,1.981,4.679
				c-0.748,1.837-2.845,2.722-4.68,1.98c-2.843-1.152-7.12-1.579-11.729-1.163c-8.429,0.753-13.694,8.791-14.369,15.97
				c-0.215,2.296-0.081,4.587,0.371,6.283c1.251,4.719,6.571,6.535,10.979,5.563c3.971-0.871,8.577-4.817,12.319-10.555
				c2.079-3.19,3.674-6.702,5.361-10.421c0.428-0.941,0.854-1.883,1.289-2.816c4.031-8.662,7.229-17.475,9.827-24.953
				c0.169-0.491,0.35-0.982,0.531-1.472c0.436-1.177,0.846-2.288,1.071-3.339c0.347-1.606,1.74-2.775,3.382-2.836
				c1.636-0.062,3.117,1.003,3.581,2.579l3.43,11.711l14.469-12.532c1.291-1.117,3.185-1.171,4.536-0.138
				c1.354,1.035,1.793,2.879,1.055,4.415c-6.498,13.478-13.276,29.565-14.639,35.77h8.311c1.982,0,3.592,1.608,3.592,3.593
				C245.786,127.468,244.176,129.073,242.193,129.073z M269.164,118.951c-1.931,5.928-7.053,10.063-12.457,10.063
				c-1.111,0-2.208-0.174-3.261-0.515c-3.134-1.02-5.667-3.518-6.945-6.852c-1.196-3.116-1.243-6.713-0.132-10.121
				c1.932-5.927,7.055-10.066,12.456-10.066c1.112,0,2.21,0.175,3.262,0.517C268.371,104.026,271.545,111.641,269.164,118.951z
				 M285.408,122.2c1.983,0,3.593,1.608,3.593,3.593s-1.609,3.593-3.593,3.593h-10.305c-1.319,0-2.529-0.664-3.237-1.781
				c-0.881-1.382-1.848-2.932,5.014-18.903h-3.132c-1.985,0-3.595-1.608-3.595-3.593c0-1.983,1.61-3.594,3.595-3.594h6.311
				c1.064-2.346,2.249-4.917,3.568-7.735c0.84-1.794,2.98-2.573,4.778-1.727c1.798,0.841,2.572,2.98,1.73,4.777
				c-0.717,1.529-1.444,3.103-2.164,4.686h2.117c1.984,0,3.593,1.611,3.593,3.594c0,1.985-1.608,3.593-3.593,3.593h-5.322
				c-2.355,5.399-4.393,10.353-5.494,13.499H285.408z M316.005,118.951c-1.933,5.928-7.054,10.063-12.456,10.063
				c-1.111,0-2.209-0.174-3.261-0.515c-3.137-1.02-5.667-3.518-6.946-6.852c-1.194-3.116-1.24-6.713-0.131-10.121
				c1.932-5.927,7.054-10.066,12.456-10.066c1.113,0,2.209,0.175,3.263,0.517C315.211,104.026,318.385,111.641,316.005,118.951z
				 M331.274,117.447h-8.181c-1.985,0-3.592-1.609-3.592-3.594c0-1.985,1.607-3.593,3.592-3.593h8.181
				c1.984,0,3.592,1.608,3.592,3.593C334.866,115.837,333.259,117.447,331.274,117.447z M363.551,108.008
				c7.983,7.983,9.442,12.562,9.442,18.701c0,0.145-0.007,0.288-0.024,0.43c-0.743,6.168-5.95,17.835-20.35,17.835
				c-13.392,0-17.727-10.752-17.727-15.96c0-18.788,10.543-20.815,15.075-20.815c1.986,0,3.595,1.608,3.595,3.593
				c0,1.984-1.608,3.591-3.595,3.591c-1.949,0-7.889,0-7.889,13.631c0,0.09,0.454,8.773,10.54,8.773
				c11.007,0,12.948-9.776,13.189-11.317c-0.024-3.788-0.637-6.675-7.34-13.382c-2.903-2.901-5.104-5.718-6.607-8.45h-11.018
				c-1.985,0-3.594-1.609-3.594-3.594c0-1.983,1.608-3.593,3.594-3.593h8.66c-0.2-2.21,0.125-4.349,0.978-6.405
				c3.235-7.809,13.081-10.963,16.642-10.963c7.132,0,11.254,2.458,13.46,4.52c2.758,2.583,4.273,6.082,4.273,9.861
				c0,5.706-3.556,10.175-8.096,10.175h-16.247C361.474,105.843,362.525,106.984,363.551,108.008z M399.223,129.223h-14.427
				c-5.163,0-6.832-8.273-6.832-12.279c0-5.964,3.652-15.43,13.457-15.43c4.246,0,6.573,1.786,7.779,3.282
				c2.768,3.439,1.875,7.99,1.766,8.498c-0.423,1.938-2.345,3.163-4.277,2.744c-1.928-0.42-3.153-2.317-2.752-4.244
				c0.104-0.535,0.157-1.895-0.342-2.5c-0.426-0.516-1.545-0.593-2.174-0.593c-6.001,0-6.271,8.162-6.271,8.243
				c0,1.972,0.539,4.015,1.001,5.093h13.071c1.983,0,3.592,1.609,3.592,3.592C402.814,127.613,401.206,129.223,399.223,129.223z
				 M427.335,118.952c-1.931,5.927-7.051,10.062-12.452,10.062c-1.112,0-2.209-0.174-3.26-0.515
				c-3.137-1.02-5.669-3.518-6.948-6.852c-1.193-3.118-1.241-6.713-0.129-10.121c1.933-5.927,7.053-10.066,12.452-10.066
				c1.115,0,2.211,0.175,3.262,0.517C426.545,104.026,429.72,111.642,427.335,118.952z M453.119,118.952
				c-1.932,5.927-7.052,10.062-12.453,10.062c-1.111,0-2.208-0.174-3.262-0.515c-3.135-1.02-5.668-3.518-6.946-6.852
				c-1.194-3.118-1.239-6.713-0.13-10.121c1.932-5.927,7.053-10.066,12.453-10.066c1.112,0,2.212,0.175,3.263,0.517
				C452.327,104.026,455.5,111.642,453.119,118.952z M474.479,108.701h-5.323c-2.354,5.399-4.392,10.353-5.494,13.499h6.137
				c1.983,0,3.593,1.608,3.593,3.593s-1.609,3.593-3.593,3.593h-10.304c-1.32,0-2.528-0.664-3.239-1.781
				c-0.881-1.382-1.846-2.932,5.016-18.903h-3.133c-1.984,0-3.592-1.608-3.592-3.593c0-1.983,1.607-3.594,3.592-3.594h6.312
				c1.065-2.346,2.249-4.917,3.569-7.735c0.841-1.794,2.979-2.573,4.777-1.727c1.796,0.841,2.57,2.98,1.73,4.777
				c-0.717,1.529-1.441,3.103-2.164,4.686h2.116c1.984,0,3.594,1.611,3.594,3.594C478.072,107.093,476.463,108.701,474.479,108.701z
				"/>
			<path fill="#223D4A" d="M539.213,113.275c0-28.595-36.527-45.674-67.167-54.964c-38.215-11.589-91.491-18.235-146.161-18.235
				c-54.612,0-106.133,6.392-145.076,18c-45.289,13.501-68.252,32.073-68.252,55.2c0,28.598,36.526,45.676,67.169,54.968
				c38.214,11.587,91.487,18.234,146.159,18.234c54.611,0,106.133-6.393,145.075-18.001
				C516.249,154.977,539.213,136.405,539.213,113.275z M468.014,158.592c-38.013,11.329-88.485,17.569-142.129,17.569
				c-53.641,0-104.118-6.24-142.128-17.569c-39.261-11.704-60.884-27.797-60.884-45.317c0-17.518,21.623-33.61,60.884-45.312
				c38.01-11.332,88.487-17.572,142.128-17.572c53.644,0,104.116,6.24,142.129,17.572c39.261,11.702,60.883,27.794,60.883,45.312
				C528.896,130.795,507.274,146.888,468.014,158.592z"/>
			<path fill="#223D4A" d="M418.032,108.81c-0.33-0.109-0.68-0.164-1.034-0.164c-1.966,0-4.527,1.755-5.62,5.105
				c-0.594,1.825-0.592,3.765,0.007,5.325c0.294,0.764,1.003,2.115,2.462,2.589c0.332,0.11,0.681,0.165,1.036,0.165
				c1.968,0,4.53-1.755,5.621-5.105C421.639,113.241,420.508,109.617,418.032,108.81z"/>
			<path fill="#223D4A" d="M259.862,108.81c-0.332-0.109-0.681-0.164-1.036-0.164c-1.968,0-4.53,1.755-5.623,5.105
				c-0.592,1.825-0.59,3.763,0.01,5.325c0.292,0.764,1,2.115,2.459,2.589c0.332,0.11,0.681,0.165,1.035,0.165
				c1.969,0,4.532-1.755,5.625-5.105C263.465,113.241,262.335,109.617,259.862,108.81z"/>
		</g>
		<g>
			<rect x="50.012" y="77.574" fill="#223D4A" width="88.203" height="4.515"/>
		</g>
		<g>
			<rect x="43.725" y="85.731" fill="#223D4A" width="88.203" height="4.514"/>
		</g>
		<g>
			<rect x="37.438" y="93.888" fill="#223D4A" width="88.203" height="4.513"/>
		</g>
		<g>
			<rect x="31.151" y="102.043" fill="#223D4A" width="88.203" height="4.513"/>
		</g>
		<g>
			<rect x="24.864" y="110.199" fill="#223D4A" width="88.202" height="4.514"/>
		</g>
		<g>
			<rect x="50.012" y="142.823" fill="#223D4A" width="88.203" height="4.516"/>
		</g>
		<g>
			<rect x="43.725" y="134.667" fill="#223D4A" width="88.203" height="4.515"/>
		</g>
		<g>
			<rect x="37.438" y="126.511" fill="#223D4A" width="88.203" height="4.514"/>
		</g>
		<g>
			<rect x="31.151" y="118.356" fill="#223D4A" width="88.203" height="4.513"/>
		</g>
		<g>
			<rect x="513.201" y="77.574" fill="#223D4A" width="88.209" height="4.515"/>
		</g>
		<g>
			<rect x="519.489" y="85.731" fill="#223D4A" width="88.208" height="4.514"/>
		</g>
		<g>
			<rect x="525.775" y="93.888" fill="#223D4A" width="88.208" height="4.513"/>
		</g>
		<g>
			<rect x="532.062" y="102.043" fill="#223D4A" width="88.208" height="4.513"/>
		</g>
		<g>
			<rect x="538.351" y="110.199" fill="#223D4A" width="88.207" height="4.514"/>
		</g>
		<g>
			<rect x="513.201" y="142.823" fill="#223D4A" width="88.209" height="4.516"/>
		</g>
		<g>
			<rect x="519.489" y="134.667" fill="#223D4A" width="88.208" height="4.515"/>
		</g>
		<g>
			<rect x="525.775" y="126.511" fill="#223D4A" width="88.208" height="4.514"/>
		</g>
		<g>
			<rect x="532.062" y="118.356" fill="#223D4A" width="88.208" height="4.513"/>
		</g>
	</g>
	<g>
		<path fill="#223D4A" d="M184.898,182.411c-1.527,2.227-3.066,4.447-4.617,6.662c-0.305-2.714-0.597-5.427-0.876-8.138
			c-0.665,2.456-1.329,4.913-1.994,7.369c-0.516-0.14-1.032-0.279-1.547-0.421c0.918-3.357,1.837-6.715,2.755-10.073
			c0.698,0.191,1.396,0.381,2.093,0.568c0.2,2.234,0.408,4.469,0.625,6.704c1.283-1.838,2.559-3.68,3.826-5.524
			c0.656,0.171,1.312,0.341,1.968,0.509c-0.866,3.372-1.731,6.743-2.597,10.115c-0.518-0.133-1.034-0.266-1.551-0.4
			C183.623,187.325,184.261,184.868,184.898,182.411z"/>
		<path fill="#223D4A" d="M203.469,184c0.511,0.114,1.021,0.229,1.532,0.342c-0.754,3.398-1.508,6.797-2.263,10.195
			c-0.52-0.115-1.041-0.231-1.56-0.349C201.942,190.792,202.706,187.396,203.469,184z"/>
		<path fill="#223D4A" d="M221.448,187.734c0.513,0.099,1.026,0.195,1.54,0.292c-0.547,2.914-1.094,5.829-1.642,8.744
			c1.469,0.276,2.938,0.546,4.409,0.81c-0.091,0.508-0.182,1.015-0.273,1.521c-1.998-0.358-3.994-0.728-5.989-1.108
			C220.144,194.574,220.796,191.154,221.448,187.734z"/>
		<path fill="#223D4A" d="M242.887,201.949c-0.343-3.569-0.671-7.139-0.982-10.707c0.553,0.084,1.106,0.168,1.66,0.25
			c0.212,3.012,0.435,6.023,0.668,9.035c1.064-2.823,2.118-5.648,3.163-8.477c0.566,0.081,1.133,0.16,1.699,0.239
			c0.242,3.009,0.495,6.019,0.758,9.027c1.036-2.833,2.061-5.669,3.077-8.508c0.567,0.075,1.134,0.149,1.702,0.223
			c-1.283,3.344-2.582,6.685-3.896,10.021c-0.738-0.099-1.476-0.199-2.213-0.301c-0.254-2.381-0.501-4.763-0.741-7.145
			c-0.887,2.223-1.781,4.444-2.683,6.663C244.361,202.166,243.624,202.058,242.887,201.949z"/>
		<path fill="#223D4A" d="M274.553,195.238c0.709,3.562,1.438,7.122,2.186,10.682c-0.567-0.05-1.134-0.1-1.7-0.15
			c-0.13-0.649-0.259-1.299-0.388-1.947c-1.328-0.121-2.656-0.247-3.984-0.377c-0.242,0.614-0.484,1.228-0.727,1.842
			c-0.573-0.057-1.146-0.114-1.718-0.173c1.403-3.356,2.786-6.717,4.151-10.082C273.099,195.101,273.826,195.17,274.553,195.238z
			 M271.338,201.73c0.985,0.096,1.97,0.189,2.955,0.28c-0.341-1.767-0.677-3.533-1.008-5.301
			C272.64,198.384,271.991,200.058,271.338,201.73z"/>
		<path fill="#223D4A" d="M296.146,207.313c-1.175-0.062-2.067-0.484-2.675-1.262s-0.869-1.851-0.788-3.218
			c0.123-2.064,0.245-4.128,0.367-6.191c0.52,0.03,1.039,0.061,1.558,0.09c-0.124,2.189-0.247,4.379-0.371,6.568
			c-0.049,0.866,0.107,1.485,0.469,1.857c0.361,0.373,0.873,0.577,1.532,0.612c0.633,0.033,1.134-0.118,1.501-0.452
			c0.367-0.334,0.57-0.934,0.613-1.8c0.107-2.19,0.215-4.381,0.323-6.571c0.52,0.025,1.039,0.05,1.559,0.074
			c-0.095,2.059-0.19,4.117-0.286,6.176c-0.063,1.369-0.417,2.413-1.065,3.13C298.234,207.044,297.321,207.375,296.146,207.313z"/>
		<path fill="#223D4A" d="M319.857,203.656c-0.521,0.742-1.044,1.483-1.569,2.224c-0.01,0.71-0.02,1.42-0.03,2.13
			c-0.529-0.007-1.059-0.016-1.589-0.024c0.058-3.48,0.115-6.961,0.173-10.441c0.52,0.009,1.04,0.017,1.56,0.023
			c-0.026,1.872-0.052,3.744-0.077,5.617c1.281-1.855,2.55-3.715,3.806-5.578c0.628,0.005,1.255,0.008,1.883,0.01
			c-1.026,1.505-2.062,3.006-3.104,4.505c1.087,1.983,2.187,3.963,3.298,5.939c-0.607-0.002-1.214-0.005-1.822-0.009
			C321.537,206.588,320.693,205.123,319.857,203.656z"/>
		<path fill="#223D4A" d="M340.423,197.437c1.87-0.048,3.74-0.105,5.61-0.172c0.019,0.515,0.037,1.029,0.055,1.545
			c-1.354,0.048-2.708,0.091-4.062,0.13c0.026,0.923,0.053,1.846,0.078,2.77c0.85-0.024,1.699-0.051,2.549-0.078
			c0.017,0.515,0.034,1.029,0.051,1.545c-0.852,0.028-1.703,0.054-2.556,0.078c0.029,1.012,0.058,2.022,0.087,3.034
			c1.372-0.039,2.743-0.083,4.115-0.132c0.019,0.515,0.036,1.03,0.055,1.545c-1.904,0.067-3.81,0.126-5.715,0.175
			C340.601,204.397,340.512,200.917,340.423,197.437z"/>
		<path fill="#223D4A" d="M362.224,196.452c1.868-0.121,3.735-0.251,5.603-0.391c0.038,0.514,0.077,1.027,0.115,1.542
			c-1.352,0.101-2.704,0.197-4.056,0.288c0.062,0.922,0.124,1.843,0.187,2.765c0.849-0.058,1.696-0.117,2.545-0.178
			c0.037,0.514,0.074,1.027,0.111,1.542c-0.851,0.062-1.701,0.12-2.552,0.178c0.068,1.01,0.136,2.019,0.204,3.028
			c1.37-0.093,2.74-0.19,4.109-0.292c0.038,0.514,0.077,1.027,0.115,1.541c-1.901,0.143-3.804,0.275-5.707,0.398
			C362.674,203.4,362.449,199.926,362.224,196.452z"/>
		<path fill="#223D4A" d="M385.622,206.006c0.251-0.091,0.43-0.22,0.535-0.389s0.153-0.424,0.144-0.764
			c-0.083,0.016-0.166,0.03-0.249,0.045c-0.258,0.027-0.471-0.054-0.641-0.245c-0.169-0.19-0.269-0.43-0.299-0.718
			c-0.03-0.287,0.024-0.542,0.163-0.765c0.139-0.224,0.336-0.349,0.593-0.376c0.217-0.023,0.427,0.059,0.629,0.246
			c0.201,0.187,0.317,0.424,0.349,0.711c0.03,0.288,0.031,0.568,0.002,0.844c-0.027,0.275-0.089,0.524-0.183,0.749
			c-0.093,0.226-0.226,0.416-0.398,0.574c-0.171,0.156-0.379,0.261-0.621,0.312C385.638,206.156,385.63,206.082,385.622,206.006z"/>
		<path fill="#223D4A" d="M426.288,199.219c-1.163,0.208-2.131,0-2.902-0.618c-0.771-0.618-1.271-1.604-1.503-2.954
			c-0.35-2.037-0.7-4.075-1.051-6.112c0.515-0.088,1.028-0.178,1.543-0.268c0.378,2.16,0.755,4.32,1.133,6.48
			c0.149,0.854,0.443,1.422,0.881,1.702c0.438,0.28,0.984,0.363,1.636,0.246c0.628-0.112,1.082-0.373,1.364-0.782
			c0.282-0.408,0.346-1.04,0.189-1.893c-0.394-2.157-0.787-4.314-1.181-6.473c0.514-0.094,1.027-0.188,1.541-0.283
			c0.376,2.026,0.751,4.053,1.127,6.079c0.249,1.348,0.141,2.445-0.329,3.291C428.268,198.482,427.449,199.012,426.288,199.219z"/>
		<path fill="#223D4A" d="M449.248,194.665c-0.571,0.127-1.124,0.185-1.659,0.172c-0.533-0.011-1.072-0.107-1.615-0.286
			c0.067-0.548,0.134-1.096,0.2-1.644c0.382,0.167,0.801,0.28,1.257,0.338c0.457,0.059,0.938,0.031,1.445-0.081
			c0.581-0.129,1.004-0.349,1.267-0.659s0.336-0.724,0.22-1.24c-0.083-0.368-0.318-0.634-0.706-0.8
			c-0.388-0.164-0.877-0.329-1.468-0.495c-0.325-0.096-0.684-0.181-1.075-0.256c-0.393-0.075-0.767-0.188-1.12-0.335
			c-0.355-0.148-0.671-0.361-0.947-0.636c-0.276-0.275-0.469-0.665-0.577-1.17c-0.17-0.788-0.015-1.479,0.464-2.072
			c0.479-0.594,1.203-0.997,2.175-1.212c0.522-0.116,1.029-0.175,1.519-0.175c0.49-0.002,0.933,0.089,1.327,0.27
			c-0.026,0.548-0.053,1.095-0.08,1.643c-0.364-0.162-0.731-0.261-1.1-0.294c-0.367-0.033-0.814,0.009-1.339,0.125
			c-0.437,0.097-0.807,0.248-1.107,0.457c-0.302,0.208-0.413,0.489-0.336,0.845c0.049,0.222,0.167,0.404,0.356,0.549
			c0.189,0.146,0.427,0.273,0.715,0.384c0.287,0.111,0.605,0.211,0.954,0.301c0.349,0.091,0.707,0.19,1.075,0.302
			c0.72,0.212,1.339,0.498,1.856,0.857s0.841,0.814,0.966,1.365c0.246,1.078,0.118,1.917-0.387,2.514
			C451.023,194.028,450.264,194.44,449.248,194.665z"/>
		<path fill="#223D4A" d="M470.572,178.627c1.906,3.093,3.832,6.179,5.774,9.256c-0.553,0.151-1.105,0.302-1.659,0.451
			c-0.349-0.563-0.695-1.127-1.043-1.69c-1.298,0.35-2.597,0.694-3.896,1.034c-0.016,0.66-0.031,1.32-0.048,1.98
			c-0.561,0.146-1.121,0.291-1.683,0.436c0.16-3.636,0.301-7.27,0.422-10.901C469.15,179.006,469.861,178.817,470.572,178.627z
			 M469.788,185.836c0.964-0.253,1.927-0.509,2.89-0.768c-0.936-1.538-1.866-3.077-2.793-4.619
			C469.856,182.245,469.824,184.041,469.788,185.836z"/>
	</g>
</g>
</svg>
