<?xml version="1.0" encoding="utf-8"?>
<!-- Generator: Adobe Illustrator 16.0.0, SVG Export Plug-In . SVG Version: 6.00 Build 0)  -->
<!DOCTYPE svg PUBLIC "-//W3C//DTD SVG 1.1//EN" "http://www.w3.org/Graphics/SVG/1.1/DTD/svg11.dtd">
<svg version="1.1" id="Layer_4_1_" xmlns="http://www.w3.org/2000/svg" xmlns:xlink="http://www.w3.org/1999/xlink" x="0px" y="0px"
	 width="375px" height="375px" viewBox="0 0 375 375" enable-background="new 0 0 375 375" xml:space="preserve">
<g>
	<g id="Layer_6_2_">
		<g>
			<g>
				<path fill="#C6D5AC" d="M188,317.114c-2.625,0-5.126-0.645-7.042-1.813l-94.336-57.632c-3.886-2.374-6.929-7.8-6.929-12.353
					V131.384c0-4.554,3.043-9.98,6.929-12.353L180.957,61.4c1.917-1.171,4.418-1.815,7.043-1.815s5.126,0.645,7.042,1.816
					l94.338,57.637c3.886,2.374,6.931,7.8,6.931,12.354v113.917c0,4.553-3.045,9.979-6.931,12.354L195.042,315.3
					C193.126,316.471,190.625,317.114,188,317.114L188,317.114z"/>
				<path fill="#828F74" d="M188,62.238c2.051,0,4.104,0.476,5.66,1.426l94.338,57.638c3.111,1.902,5.658,6.442,5.658,10.09v113.917
					c0,3.647-2.547,8.188-5.658,10.09l-94.338,57.639c-1.557,0.95-3.608,1.426-5.66,1.426s-4.103-0.476-5.66-1.425l-94.335-57.632
					c-3.113-1.902-5.66-6.442-5.66-10.09V131.384c0-3.647,2.546-8.188,5.66-10.089l94.336-57.631
					C183.896,62.713,185.948,62.238,188,62.238 M188,56.932c-3.107,0-6.098,0.783-8.425,2.204l-94.336,57.631
					c-4.674,2.856-8.199,9.139-8.199,14.617v113.933c0,5.478,3.525,11.761,8.199,14.617l94.336,57.63
					c2.327,1.422,5.32,2.203,8.425,2.203c3.107,0,6.1-0.781,8.427-2.204l94.337-57.639c4.674-2.857,8.198-9.141,8.198-14.615
					V131.392c0-5.478-3.524-11.761-8.198-14.617l-94.338-57.638C194.1,57.715,191.105,56.932,188,56.932L188,56.932z"/>
			</g>
			<g>
				<path fill="#D8E8BD" d="M187.996,62.238c-2.05,0-4.1,0.476-5.655,1.426l-94.336,57.632c-3.113,1.901-5.66,6.441-5.66,10.089
					v113.932c0,3.647,2.546,8.188,5.66,10.091l94.336,57.631c1.556,0.949,3.606,1.425,5.655,1.425V62.238L187.996,62.238z"/>
			</g>
			<path fill="none" stroke="#F9FBF9" stroke-width="2" stroke-miterlimit="10" d="M283.29,128.916L189.05,71.34
				c-0.125-0.047-0.505-0.15-1.05-0.15c-0.546,0-0.926,0.103-1.051,0.15l-94.277,57.595c-0.514,0.377-1.319,1.814-1.375,2.496
				l0.001,113.885c0.054,0.635,0.859,2.072,1.412,2.475l94.238,57.568c0.125,0.048,0.505,0.149,1.051,0.149
				c0.545,0,0.926-0.102,1.05-0.149l94.279-57.603c0.512-0.377,1.318-1.813,1.375-2.497l-0.002-113.869
				C284.648,130.756,283.843,129.318,283.29,128.916z"/>
		</g>
	</g>
	<g id="Layer_5">
		<g>
			<rect x="156.504" y="85.698" opacity="0.2" fill="#747A7E" enable-background="new    " width="113.577" height="153.157"/>
			<rect x="149.664" y="88.324" fill="#D1D8DC" width="117.792" height="157.705"/>
			<rect x="149.664" y="101.446" opacity="0.2" fill="#747A7E" enable-background="new    " width="105.049" height="145.003"/>
			<rect x="133.446" y="104.543" fill="#D5DEE2" width="117.792" height="157.705"/>
			<rect x="133.446" y="117.375" opacity="0.2" fill="#747A7E" enable-background="new    " width="105.05" height="145.002"/>
			<rect x="117.228" y="120.761" fill="#DBE3E7" width="117.792" height="157.706"/>
			<g>
				<polygon opacity="0.2" fill="#747A7E" enable-background="new    " points="221.957,278.359 117.333,278.359 117.333,133.822 
					195.623,133.822 221.957,160.158 				"/>
				<polygon fill="#E3EAEE" points="218.801,294.686 101.009,294.686 101.009,136.98 192.465,136.98 218.801,163.315 				"/>
				<polygon fill="#CFD6DA" points="192.465,163.315 218.801,163.315 192.465,136.98 				"/>
				<g>
					<path fill="#546F7E" d="M137.72,157.195h-27.194c-1.104,0-2-0.896-2-2s0.896-2,2-2h27.194c1.104,0,2,0.896,2,2
						S138.824,157.195,137.72,157.195z"/>
				</g>
				<g>
					<path fill="#546F7E" d="M137.72,164.582h-27.194c-1.104,0-2-0.896-2-2s0.896-2,2-2h27.194c1.104,0,2,0.896,2,2
						S138.824,164.582,137.72,164.582z"/>
				</g>
				<g>
					<path fill="#546F7E" d="M137.72,171.968h-27.194c-1.104,0-2-0.896-2-2s0.896-2,2-2h27.194c1.104,0,2,0.896,2,2
						S138.824,171.968,137.72,171.968z"/>
				</g>
				<g>
					<path fill="#546F7E" d="M187.042,188.715h-76.516c-1.104,0-2-0.896-2-2s0.896-2,2-2h76.516c1.104,0,2,0.896,2,2
						S188.146,188.715,187.042,188.715z"/>
				</g>
				<g>
					<path fill="#546F7E" d="M164.468,196.328h-53.942c-1.104,0-2-0.896-2-2s0.896-2,2-2h53.942c1.104,0,2,0.896,2,2
						S165.572,196.328,164.468,196.328z"/>
				</g>
				<g>
					<path fill="#A9B0B6" d="M204.104,206.352h-93.578c-0.552,0-1-0.447-1-1s0.448-1,1-1h93.578c0.553,0,1,0.447,1,1
						S204.656,206.352,204.104,206.352z"/>
				</g>
				<g>
					<path fill="#A9B0B6" d="M204.104,212.389h-93.578c-0.552,0-1-0.447-1-1s0.448-1,1-1h93.578c0.553,0,1,0.447,1,1
						S204.656,212.389,204.104,212.389z"/>
				</g>
				<g>
					<path fill="#A9B0B6" d="M204.104,218.427h-93.578c-0.552,0-1-0.447-1-1s0.448-1,1-1h93.578c0.553,0,1,0.447,1,1
						S204.656,218.427,204.104,218.427z"/>
				</g>
				<g>
					<path fill="#A9B0B6" d="M204.104,224.464h-93.578c-0.552,0-1-0.447-1-1s0.448-1,1-1h93.578c0.553,0,1,0.447,1,1
						S204.656,224.464,204.104,224.464z"/>
				</g>
				<g>
					<path fill="#A9B0B6" d="M204.104,230.501h-93.578c-0.552,0-1-0.447-1-1s0.448-1,1-1h93.578c0.553,0,1,0.447,1,1
						S204.656,230.501,204.104,230.501z"/>
				</g>
				<g>
					<path fill="#A9B0B6" d="M148.784,236.538h-38.258c-0.552,0-1-0.447-1-1s0.448-1,1-1h38.258c0.552,0,1,0.447,1,1
						S149.336,236.538,148.784,236.538z"/>
				</g>
				<g>
					<path fill="#A9B0B6" d="M204.104,248.613h-93.578c-0.552,0-1-0.447-1-1s0.448-1,1-1h93.578c0.553,0,1,0.447,1,1
						S204.656,248.613,204.104,248.613z"/>
				</g>
				<g>
					<path fill="#A9B0B6" d="M204.104,254.65h-93.578c-0.552,0-1-0.447-1-1s0.448-1,1-1h93.578c0.553,0,1,0.447,1,1
						S204.656,254.65,204.104,254.65z"/>
				</g>
				<g>
					<path fill="#A9B0B6" d="M204.104,260.688h-93.578c-0.552,0-1-0.447-1-1s0.448-1,1-1h93.578c0.553,0,1,0.447,1,1
						S204.656,260.688,204.104,260.688z"/>
				</g>
				<g>
					<path fill="#A9B0B6" d="M204.104,266.725h-93.578c-0.552,0-1-0.447-1-1s0.448-1,1-1h93.578c0.553,0,1,0.447,1,1
						S204.656,266.725,204.104,266.725z"/>
				</g>
				<g>
					<path fill="#A9B0B6" d="M176.018,272.764h-65.492c-0.552,0-1-0.447-1-1s0.448-1,1-1h65.492c0.552,0,1,0.447,1,1
						S176.57,272.764,176.018,272.764z"/>
				</g>
				<polygon opacity="0.2" fill="#747A7E" enable-background="new    " points="192.465,163.315 218.801,167.042 218.801,163.315 
									"/>
			</g>
		</g>
	</g>
</g>
</svg>
