<?xml version="1.0" encoding="utf-8"?>
<!-- Generator: Adobe Illustrator 16.0.0, SVG Export Plug-In . SVG Version: 6.00 Build 0)  -->
<!DOCTYPE svg PUBLIC "-//W3C//DTD SVG 1.1//EN" "http://www.w3.org/Graphics/SVG/1.1/DTD/svg11.dtd">
<svg version="1.1" id="Layer_3_1_" xmlns="http://www.w3.org/2000/svg" xmlns:xlink="http://www.w3.org/1999/xlink" x="0px" y="0px"
	 width="375px" height="375px" viewBox="0 0 375 375" enable-background="new 0 0 375 375" xml:space="preserve">
<g id="Layer_4">
	<g>
		<g>
			<g>
				<path fill="#C6D5AC" d="M186.932,317.42c-2.631,0-5.138-0.646-7.059-1.818l-94.56-57.769c-3.895-2.38-6.945-7.818-6.945-12.382
					V131.25c0-4.564,3.05-10.004,6.945-12.383l94.56-57.767c1.921-1.174,4.428-1.82,7.059-1.82c2.632,0,5.138,0.646,7.06,1.82
					l94.561,57.773c3.895,2.38,6.945,7.819,6.945,12.383v114.187c0,4.562-3.051,10.002-6.945,12.382L193.992,315.6
					C192.071,316.773,189.564,317.42,186.932,317.42L186.932,317.42z"/>
				<path fill="#828F74" d="M186.932,61.939c2.057,0,4.114,0.477,5.673,1.43l94.561,57.774c3.12,1.907,5.674,6.457,5.674,10.113
					v114.187c0,3.656-2.554,8.207-5.674,10.113l-94.561,57.774c-1.56,0.953-3.616,1.429-5.673,1.429
					c-2.056,0-4.112-0.477-5.672-1.429l-94.56-57.768c-3.121-1.907-5.674-6.456-5.674-10.113V131.25
					c0-3.656,2.553-8.208,5.674-10.113l94.559-57.769C182.82,62.416,184.876,61.939,186.932,61.939 M186.932,56.621
					c-3.113,0-6.112,0.784-8.445,2.209l-94.56,57.768c-4.685,2.863-8.218,9.161-8.218,14.652v114.202
					c0,5.491,3.533,11.789,8.218,14.652l94.56,57.766c2.333,1.426,5.333,2.209,8.445,2.209c3.115,0,6.115-0.783,8.447-2.21
					l94.561-57.773c4.686-2.864,8.219-9.161,8.219-14.651V131.256c0-5.49-3.533-11.789-8.219-14.652l-94.561-57.774
					C193.047,57.406,190.047,56.621,186.932,56.621L186.932,56.621z"/>
			</g>
			<g>
				<path fill="#D8E8BD" d="M186.929,61.939c-2.055,0-4.109,0.478-5.668,1.429l-94.56,57.769c-3.121,1.905-5.674,6.457-5.674,10.113
					v114.202c0,3.657,2.553,8.207,5.674,10.112l94.56,57.768c1.56,0.952,3.614,1.429,5.668,1.429V61.939z"/>
			</g>
			<path fill="none" stroke="#F9FBF9" stroke-width="2" stroke-miterlimit="10" d="M282.448,128.775l-94.462-57.712
				c-0.125-0.047-0.506-0.15-1.052-0.15c-0.548,0-0.928,0.103-1.054,0.15l-94.501,57.732c-0.515,0.377-1.323,1.818-1.378,2.501
				l0.001,114.154c0.055,0.637,0.862,2.077,1.416,2.48l94.461,57.706c0.125,0.046,0.506,0.149,1.053,0.149
				c0.547,0,0.928-0.102,1.053-0.149l94.501-57.739c0.517-0.377,1.325-1.818,1.38-2.502l-0.001-114.14
				C283.811,130.62,283.003,129.179,282.448,128.775z"/>
		</g>
		<rect x="68.411" y="127.953" opacity="0.4" fill="#A9B0B6" enable-background="new    " width="246.631" height="130.381"/>
		<rect x="63.618" y="123.16" fill="#E3EAEE" width="246.63" height="130.381"/>
		<g>
			<path fill="#A9B0B6" d="M310.248,123.16v130.381H63.618V123.16H310.248 M312.906,120.501h-2.658H63.618h-2.659v2.659v130.381
				v2.658h2.659h246.63h2.658v-2.658V123.16V120.501L312.906,120.501z"/>
		</g>
		<g>
			<line fill="none" stroke="#A9B0B6" stroke-miterlimit="10" x1="310.248" y1="134.397" x2="63.618" y2="134.397"/>
			<line fill="none" stroke="#A9B0B6" stroke-miterlimit="10" x1="310.248" y1="149.812" x2="63.618" y2="149.812"/>
			<line fill="none" stroke="#A9B0B6" stroke-miterlimit="10" x1="310.248" y1="165.227" x2="63.618" y2="165.227"/>
			<line fill="none" stroke="#A9B0B6" stroke-miterlimit="10" x1="310.248" y1="180.643" x2="63.618" y2="180.643"/>
			<line fill="none" stroke="#A9B0B6" stroke-miterlimit="10" x1="310.248" y1="196.057" x2="63.618" y2="196.057"/>
			<line fill="none" stroke="#A9B0B6" stroke-miterlimit="10" x1="310.248" y1="211.472" x2="63.618" y2="211.472"/>
			<line fill="none" stroke="#A9B0B6" stroke-miterlimit="10" x1="310.248" y1="226.887" x2="63.618" y2="226.887"/>
			<line fill="none" stroke="#A9B0B6" stroke-miterlimit="10" x1="310.248" y1="242.303" x2="63.618" y2="242.303"/>
		</g>
		<g>
			<line fill="none" stroke="#A9B0B6" stroke-miterlimit="10" x1="79.033" y1="123.16" x2="79.033" y2="253.541"/>
			<line fill="none" stroke="#A9B0B6" stroke-miterlimit="10" x1="94.448" y1="123.16" x2="94.448" y2="253.541"/>
			<line fill="none" stroke="#A9B0B6" stroke-miterlimit="10" x1="109.861" y1="123.16" x2="109.861" y2="253.541"/>
			<line fill="none" stroke="#A9B0B6" stroke-miterlimit="10" x1="125.276" y1="123.16" x2="125.276" y2="253.541"/>
			<line fill="none" stroke="#A9B0B6" stroke-miterlimit="10" x1="140.69" y1="123.16" x2="140.69" y2="253.541"/>
			<line fill="none" stroke="#A9B0B6" stroke-miterlimit="10" x1="156.105" y1="123.16" x2="156.105" y2="253.541"/>
			<line fill="none" stroke="#A9B0B6" stroke-miterlimit="10" x1="171.52" y1="123.16" x2="171.52" y2="253.541"/>
			<line fill="none" stroke="#A9B0B6" stroke-miterlimit="10" x1="186.935" y1="123.16" x2="186.935" y2="253.541"/>
			<line fill="none" stroke="#A9B0B6" stroke-miterlimit="10" x1="202.35" y1="123.16" x2="202.35" y2="253.541"/>
			<line fill="none" stroke="#A9B0B6" stroke-miterlimit="10" x1="217.765" y1="123.16" x2="217.765" y2="253.541"/>
			<line fill="none" stroke="#A9B0B6" stroke-miterlimit="10" x1="233.179" y1="123.16" x2="233.179" y2="253.541"/>
			<line fill="none" stroke="#A9B0B6" stroke-miterlimit="10" x1="248.595" y1="123.16" x2="248.595" y2="253.541"/>
			<line fill="none" stroke="#A9B0B6" stroke-miterlimit="10" x1="264.009" y1="123.16" x2="264.009" y2="253.541"/>
			<line fill="none" stroke="#A9B0B6" stroke-miterlimit="10" x1="279.423" y1="123.16" x2="279.423" y2="253.541"/>
			<line fill="none" stroke="#A9B0B6" stroke-miterlimit="10" x1="294.839" y1="123.16" x2="294.839" y2="253.541"/>
		</g>
		
			<polyline fill="none" stroke="#546F7E" stroke-width="10" stroke-linecap="round" stroke-linejoin="round" stroke-miterlimit="10" points="
			79.033,242.303 125.276,211.472 156.105,226.887 202.35,180.643 233.179,211.472 294.839,134.397 		"/>
		
			<polyline fill="none" stroke="#546F7E" stroke-width="10" stroke-linecap="round" stroke-linejoin="round" stroke-miterlimit="10" points="
			282.58,135.088 295.27,134.055 296.301,146.744 		"/>
		
			<circle fill="#F9FBF9" stroke="#1E303A" stroke-width="7" stroke-linecap="round" stroke-linejoin="round" stroke-miterlimit="10" cx="233.179" cy="211.473" r="8.598"/>
		
			<circle fill="#F9FBF9" stroke="#1E303A" stroke-width="7" stroke-linecap="round" stroke-linejoin="round" stroke-miterlimit="10" cx="202.35" cy="181.658" r="8.598"/>
		
			<circle fill="#F9FBF9" stroke="#1E303A" stroke-width="7" stroke-linecap="round" stroke-linejoin="round" stroke-miterlimit="10" cx="125.276" cy="211.473" r="8.598"/>
		
			<circle fill="#F9FBF9" stroke="#1E303A" stroke-width="7" stroke-linecap="round" stroke-linejoin="round" stroke-miterlimit="10" cx="156.105" cy="226.888" r="8.599"/>
	</g>
</g>
</svg>
