<?xml version="1.0" encoding="utf-8"?>
<!-- Generator: Adobe Illustrator 16.0.0, SVG Export Plug-In . SVG Version: 6.00 Build 0)  -->
<!DOCTYPE svg PUBLIC "-//W3C//DTD SVG 1.1//EN" "http://www.w3.org/Graphics/SVG/1.1/DTD/svg11.dtd">
<svg version="1.1" id="Layer_2" xmlns="http://www.w3.org/2000/svg" xmlns:xlink="http://www.w3.org/1999/xlink" x="0px" y="0px"
	 width="375px" height="375px" viewBox="0 0 375 375" enable-background="new 0 0 375 375" xml:space="preserve">
<g id="Layer_6_1_">
	<g>
		<g>
			<path fill="#C6D5AC" d="M188,318.051c-2.644,0-5.163-0.648-7.093-1.827l-95.023-58.05c-3.914-2.392-6.979-7.857-6.979-12.443
				V130.97c0-4.587,3.065-10.053,6.979-12.444l95.022-58.05c1.931-1.179,4.45-1.828,7.094-1.828c2.646,0,5.163,0.649,7.095,1.829
				l95.024,58.057c3.912,2.391,6.979,7.857,6.979,12.443v114.745c0,4.587-3.066,10.052-6.979,12.443l-95.024,58.058
				C193.163,317.402,190.646,318.051,188,318.051L188,318.051z"/>
			<path fill="#828F74" d="M188,61.32c2.066,0,4.135,0.479,5.701,1.437l95.023,58.057c3.136,1.916,5.7,6.489,5.7,10.163v114.745
				c0,3.675-2.564,8.247-5.7,10.163l-95.023,58.058c-1.567,0.958-3.635,1.437-5.701,1.437c-2.066,0-4.132-0.479-5.701-1.436
				l-95.021-58.051c-3.136-1.916-5.702-6.488-5.702-10.163V130.97c0-3.674,2.565-8.248,5.702-10.163l95.022-58.05
				C183.868,61.799,185.934,61.32,188,61.32 M188,55.976c-3.128,0-6.142,0.789-8.486,2.22l-95.023,58.05
				c-4.708,2.877-8.259,9.206-8.259,14.724v114.76c0,5.518,3.551,11.848,8.259,14.724l95.023,58.05
				c2.344,1.431,5.358,2.22,8.486,2.22c3.13,0,6.144-0.789,8.489-2.222l95.023-58.056c4.707-2.878,8.257-9.207,8.257-14.725V130.977
				c0-5.517-3.55-11.847-8.257-14.724l-95.025-58.057C194.144,56.765,191.13,55.976,188,55.976L188,55.976z"/>
		</g>
		<g>
			<path fill="#D8E8BD" d="M187.997,61.32c-2.065,0-4.129,0.48-5.696,1.437l-95.022,58.05c-3.136,1.915-5.702,6.489-5.702,10.163
				v114.76c0,3.675,2.565,8.248,5.702,10.163l95.022,58.05c1.567,0.957,3.632,1.436,5.696,1.436V61.32L187.997,61.32z"/>
		</g>
		<path fill="none" stroke="#F9FBF9" stroke-width="2" stroke-miterlimit="10" d="M283.983,128.484L189.06,70.489
			c-0.126-0.048-0.509-0.151-1.058-0.151c-0.551,0-0.934,0.103-1.059,0.151l-94.963,58.014c-0.518,0.379-1.329,1.827-1.386,2.514
			l0.001,114.713c0.055,0.641,0.867,2.087,1.422,2.492l94.923,57.988c0.125,0.048,0.509,0.151,1.059,0.151
			c0.549,0,0.934-0.103,1.058-0.151l94.966-58.021c0.515-0.379,1.327-1.828,1.384-2.515l-0.001-114.698
			C285.353,130.337,284.541,128.889,283.983,128.484z"/>
	</g>
</g>
<g id="Layer_8">
	<g>
		<g>
			<polygon fill="#546F7E" points="317.731,262.664 58.271,262.664 79.647,233.239 298.358,233.239 			"/>
			<polygon fill="#1E303A" points="106.252,246.662 116.72,233.239 99.555,233.269 98.254,246.012 			"/>
			<polygon fill="#1E303A" points="152.999,246.662 163.467,233.239 146.302,233.269 145.002,246.012 			"/>
			<polygon fill="#1E303A" points="199.748,246.662 210.215,233.239 193.051,233.269 191.751,246.012 			"/>
			<polygon fill="#1E303A" points="246.495,246.662 256.963,233.239 239.799,233.269 238.498,246.012 			"/>
			<polygon fill="#1E303A" points="300.809,236.961 298.365,233.248 286.546,233.269 285.246,246.012 293.244,246.662 			"/>
			<rect x="58.271" y="262.664" fill="#1E303A" width="259.461" height="8.187"/>
		</g>
		<g>
			<g>
				<rect x="89.426" y="182.878" fill="#E3EAEE" width="14.375" height="64.131"/>
				<polygon opacity="0.3" fill="#A9B0B6" enable-background="new    " points="103.801,187.19 103.801,182.878 89.426,182.878 
					89.426,185.034 89.426,187.19 89.426,242.698 89.426,245.472 89.426,247.01 103.801,247.01 103.801,242.698 93.262,242.698 
					93.262,187.19 				"/>
				<path fill="#F8FAFB" d="M108.354,182.051c0,1.133-0.928,2.06-2.06,2.06H86.933c-1.133,0-2.061-0.927-2.061-2.06v-0.84
					c0-1.133,0.927-2.06,2.061-2.06h19.362c1.132,0,2.061,0.927,2.061,2.06L108.354,182.051L108.354,182.051z"/>
				<g>
					<path fill="#F8FAFB" d="M108.354,248.372c0,1.133-0.928,2.061-2.06,2.061H86.933c-1.133,0-2.061-0.928-2.061-2.061v-0.841
						c0-1.132,0.927-2.06,2.061-2.06h19.362c1.132,0,2.061,0.928,2.061,2.06L108.354,248.372L108.354,248.372z"/>
				</g>
				<path opacity="0.5" fill="#A9B0B6" enable-background="new    " d="M108.181,180.391c-0.319-0.727-1.045-1.24-1.887-1.24H86.933
					c-0.842,0-1.569,0.513-1.887,1.24H108.181z"/>
			</g>
			<g>
				<rect x="135.653" y="182.877" fill="#E3EAEE" width="14.374" height="64.132"/>
				<polygon opacity="0.3" fill="#A9B0B6" enable-background="new    " points="150.027,187.19 150.027,182.877 135.653,182.877 
					135.653,185.034 135.653,187.19 135.653,242.698 135.653,245.472 135.653,247.01 150.027,247.01 150.027,242.698 
					139.488,242.698 139.488,187.19 				"/>
				<path fill="#F8FAFB" d="M154.582,182.051c0,1.133-0.927,2.059-2.06,2.059H133.16c-1.133,0-2.06-0.927-2.06-2.059v-0.841
					c0-1.134,0.927-2.06,2.06-2.06h19.362c1.133,0,2.06,0.926,2.06,2.06V182.051z"/>
				<g>
					<path fill="#F8FAFB" d="M154.582,248.372c0,1.133-0.927,2.061-2.06,2.061H133.16c-1.133,0-2.06-0.928-2.06-2.061v-0.841
						c0-1.132,0.927-2.06,2.06-2.06h19.362c1.133,0,2.06,0.928,2.06,2.06V248.372z"/>
				</g>
				<path opacity="0.5" fill="#A9B0B6" enable-background="new    " d="M154.408,180.391c-0.319-0.727-1.045-1.24-1.886-1.24
					h-19.362c-0.842,0-1.568,0.513-1.887,1.24H154.408z"/>
			</g>
			<g>
				<rect x="181.878" y="182.877" fill="#E3EAEE" width="14.375" height="64.132"/>
				<polygon opacity="0.3" fill="#A9B0B6" enable-background="new    " points="196.254,187.19 196.254,182.877 181.878,182.877 
					181.878,185.034 181.878,187.19 181.878,242.698 181.878,245.472 181.878,247.01 196.254,247.01 196.254,242.698 
					185.715,242.698 185.715,187.19 				"/>
				<path fill="#F8FAFB" d="M200.808,182.051c0,1.133-0.927,2.059-2.061,2.059h-19.361c-1.133,0-2.061-0.927-2.061-2.059v-0.841
					c0-1.134,0.927-2.06,2.061-2.06h19.361c1.134,0,2.061,0.926,2.061,2.06V182.051z"/>
				<g>
					<path fill="#F8FAFB" d="M200.808,248.372c0,1.133-0.927,2.061-2.061,2.061h-19.361c-1.133,0-2.061-0.928-2.061-2.061v-0.841
						c0-1.132,0.927-2.06,2.061-2.06h19.361c1.134,0,2.061,0.928,2.061,2.06V248.372z"/>
				</g>
				<path opacity="0.5" fill="#A9B0B6" enable-background="new    " d="M200.635,180.391c-0.319-0.727-1.045-1.24-1.888-1.24
					h-19.361c-0.842,0-1.569,0.513-1.887,1.24H200.635z"/>
			</g>
			<g>
				<rect x="228.106" y="182.877" fill="#E3EAEE" width="14.374" height="64.132"/>
				<polygon opacity="0.3" fill="#A9B0B6" enable-background="new    " points="242.48,187.19 242.48,182.877 228.106,182.877 
					228.106,185.034 228.106,187.19 228.106,242.698 228.106,245.472 228.106,247.01 242.48,247.01 242.48,242.698 231.941,242.698 
					231.941,187.19 				"/>
				<path fill="#F8FAFB" d="M247.034,182.051c0,1.133-0.927,2.059-2.059,2.059h-19.362c-1.134,0-2.061-0.927-2.061-2.059v-0.841
					c0-1.134,0.927-2.06,2.061-2.06h19.362c1.132,0,2.059,0.926,2.059,2.06V182.051z"/>
				<g>
					<path fill="#F8FAFB" d="M247.034,248.372c0,1.133-0.927,2.061-2.061,2.061h-19.36c-1.133,0-2.061-0.928-2.061-2.061v-0.841
						c0-1.132,0.928-2.06,2.061-2.06h19.36c1.134,0,2.061,0.928,2.061,2.06V248.372z"/>
				</g>
				<path opacity="0.5" fill="#A9B0B6" enable-background="new    " d="M246.861,180.391c-0.319-0.727-1.045-1.24-1.886-1.24
					h-19.362c-0.843,0-1.57,0.513-1.887,1.24H246.861z"/>
			</g>
			<g>
				<rect x="274.333" y="182.877" fill="#E3EAEE" width="14.374" height="64.132"/>
				<polygon opacity="0.3" fill="#A9B0B6" enable-background="new    " points="288.707,187.19 288.707,182.877 274.333,182.877 
					274.333,185.034 274.333,187.19 274.333,242.698 274.333,245.472 274.333,247.01 288.707,247.01 288.707,242.698 
					278.168,242.698 278.168,187.19 				"/>
				<path fill="#F8FAFB" d="M293.261,182.051c0,1.133-0.927,2.059-2.059,2.059H271.84c-1.134,0-2.061-0.927-2.061-2.059v-0.841
					c0-1.134,0.927-2.06,2.061-2.06h19.362c1.132,0,2.059,0.926,2.059,2.06V182.051z"/>
				<g>
					<path fill="#F8FAFB" d="M293.261,248.372c0,1.133-0.927,2.061-2.061,2.061h-19.36c-1.133,0-2.061-0.928-2.061-2.061v-0.841
						c0-1.132,0.928-2.06,2.061-2.06h19.36c1.134,0,2.061,0.928,2.061,2.06V248.372z"/>
				</g>
				<path opacity="0.5" fill="#A9B0B6" enable-background="new    " d="M293.088,180.391c-0.318-0.727-1.044-1.24-1.885-1.24
					h-19.362c-0.843,0-1.569,0.513-1.888,1.24H293.088z"/>
			</g>
		</g>
		<g>
			<path fill="#E3EAEE" d="M59.776,174.07l122.258-78.6c1.566-1.006,3.846-1.583,6.258-1.583c2.423,0,4.714,0.582,6.285,1.596
				l121.711,78.587H59.776z"/>
			<path fill="#546F7E" d="M188.293,98.896c1.614,0,2.955,0.399,3.565,0.794l107.435,69.368H76.834l107.91-69.374
				C185.354,99.292,186.687,98.896,188.293,98.896 M188.292,88.876c-3.25,0-6.499,0.793-8.967,2.379L51.709,173.299
				c-4.945,3.179-4.181,5.78,1.698,5.78h269.19c5.878,0,6.647-2.609,1.709-5.798L197.295,91.273
				C194.82,89.676,191.556,88.876,188.292,88.876L188.292,88.876z"/>
		</g>
		<polygon fill="#324853" points="76.507,169.167 188.315,97.28 190.88,98.935 81.807,169.167 		"/>
		<circle fill="#DCDEDD" cx="194.143" cy="142" r="19.688"/>
		<circle fill="#F8FAFB" cx="190.88" cy="142" r="19.688"/>
	</g>
</g>
</svg>
