<?xml version="1.0" encoding="utf-8"?>
<!-- Generator: Adobe Illustrator 16.0.0, SVG Export Plug-In . SVG Version: 6.00 Build 0)  -->
<!DOCTYPE svg PUBLIC "-//W3C//DTD SVG 1.1//EN" "http://www.w3.org/Graphics/SVG/1.1/DTD/svg11.dtd">
<svg version="1.1" id="Layer_5_1_" xmlns="http://www.w3.org/2000/svg" xmlns:xlink="http://www.w3.org/1999/xlink" x="0px" y="0px"
	 width="375px" height="375px" viewBox="0 0 375 375" enable-background="new 0 0 375 375" xml:space="preserve">
<g>
	<g id="Layer_6_3_">
		<g>
			<g>
				<path fill="#C6D5AC" d="M188,318.618c-2.627,0-5.131-0.645-7.048-1.815l-94.42-57.683c-3.889-2.376-6.936-7.807-6.936-12.363
					V132.724c0-4.557,3.046-9.988,6.936-12.364l94.418-57.682c1.918-1.172,4.422-1.817,7.049-1.817c2.627,0,5.13,0.645,7.049,1.817
					l94.421,57.688c3.888,2.376,6.935,7.807,6.935,12.364v114.017c0,4.558-3.047,9.988-6.935,12.364l-94.422,57.688
					C193.13,317.974,190.627,318.618,188,318.618L188,318.618z"/>
				<path fill="#828F74" d="M188,63.517c2.053,0,4.108,0.476,5.665,1.428l94.421,57.688c3.114,1.903,5.664,6.448,5.664,10.099
					v114.017c0,3.65-2.55,8.194-5.664,10.099l-94.421,57.688c-1.558,0.953-3.611,1.428-5.665,1.428s-4.107-0.476-5.665-1.426
					l-94.418-57.684c-3.115-1.903-5.665-6.447-5.665-10.098V132.724c0-3.651,2.548-8.195,5.665-10.098l94.419-57.682
					C183.893,63.993,185.946,63.517,188,63.517 M188,58.207c-3.109,0-6.104,0.783-8.433,2.206l-94.419,57.682
					c-4.678,2.858-8.206,9.147-8.206,14.629v114.033c0,5.482,3.528,11.771,8.206,14.629l94.419,57.683
					c2.33,1.423,5.325,2.205,8.433,2.205c3.11,0,6.105-0.783,8.434-2.208l94.42-57.688c4.679-2.859,8.206-9.148,8.206-14.63V132.731
					c0-5.482-3.527-11.771-8.206-14.63l-94.421-57.688C194.104,58.991,191.109,58.207,188,58.207L188,58.207z"/>
			</g>
			<g>
				<path fill="#D8E8BD" d="M187.996,63.517c-2.052,0.001-4.104,0.477-5.66,1.427l-94.419,57.683
					c-3.115,1.903-5.665,6.447-5.665,10.098v114.033c0,3.651,2.548,8.194,5.665,10.098l94.419,57.683
					c1.557,0.95,3.608,1.426,5.66,1.426V63.517L187.996,63.517z"/>
			</g>
			<path fill="none" stroke="#F9FBF9" stroke-width="2" stroke-miterlimit="10" d="M283.374,130.254l-94.322-57.627
				c-0.126-0.047-0.506-0.15-1.052-0.15c-0.546,0-0.927,0.103-1.052,0.15l-94.361,57.646c-0.514,0.377-1.321,1.815-1.376,2.498
				l0.001,113.985c0.054,0.635,0.861,2.073,1.414,2.476l94.32,57.62c0.125,0.048,0.506,0.15,1.052,0.15
				c0.546,0,0.927-0.102,1.051-0.15l94.362-57.652c0.513-0.377,1.32-1.816,1.377-2.498l-0.003-113.97
				C284.733,132.096,283.928,130.656,283.374,130.254z"/>
		</g>
	</g>
	<g id="Layer_7">
		<g>
			<polygon fill="#CFD6DA" points="236.668,263.001 183.849,232.504 183.849,86.294 236.668,116.788 			"/>
			<polygon fill="#455D6A" points="216.178,251.17 204.337,244.334 204.337,98.123 216.178,104.959 			"/>
			<polygon fill="#A9B0B6" points="236.668,263.001 289.487,232.504 289.487,86.294 236.668,116.788 			"/>
			<polygon fill="#324853" points="257.156,251.17 268.997,244.334 268.997,98.123 257.156,104.959 			"/>
			<polygon fill="#E3EAEE" points="236.668,116.788 289.487,86.294 236.668,55.798 183.849,86.294 			"/>
			<polygon fill="#546F7E" points="257.156,104.959 268.997,98.123 216.178,67.627 204.337,74.465 			"/>
			<polygon fill="#546F7E" points="216.179,104.959 204.338,98.123 257.158,67.627 268.997,74.465 			"/>
			<g>
				<path fill="#1E303A" d="M271.887,91.043c0.342,0.615,0.071,1.292-0.6,1.502l-5.707,1.794c-0.672,0.21-1.776,0.231-2.455,0.045
					l-22.29-6.108c-0.679-0.186-0.668-0.433,0.027-0.549l25.441-4.255c0.694-0.116,1.541,0.292,1.883,0.908L271.887,91.043z"/>
			</g>
			<path fill="#324853" d="M237.378,84.955c0.198-1.712,2.068-3.564,4.151-4.114l29.919-7.896c2.086-0.549,3.703,0.763,3.596,2.916
				l-0.656,13.203c-0.106,2.153-1.944,3.684-4.079,3.401l-29.407-3.884C238.765,88.299,237.179,86.667,237.378,84.955z"/>
			<g>
				<path fill="#1E303A" d="M202.612,89.208c-0.373,0.596-0.14,1.286,0.519,1.532l5.604,2.092c0.658,0.247,1.762,0.326,2.449,0.176
					l22.583-4.919c0.688-0.15,0.688-0.397,0.001-0.55l-25.181-5.596c-0.687-0.153-1.556,0.21-1.93,0.807L202.612,89.208z"/>
			</g>
			<g>
				<path fill="#324853" d="M237.395,84.956c-0.107-1.721-1.876-3.668-3.928-4.328l-29.459-9.468
					c-2.053-0.659-3.736,0.564-3.744,2.721l-0.044,13.219c-0.008,2.156,1.744,3.781,3.894,3.612l29.572-2.322
					C235.835,88.222,237.503,86.676,237.395,84.956z"/>
			</g>
			<polygon opacity="0.5" fill="#747A7E" enable-background="new    " points="239.172,89.953 229.272,112.518 229.272,127.951 
				226.436,123.266 225.09,107.834 236.669,88.992 			"/>
			<polygon opacity="0.5" fill="#747A7E" enable-background="new    " points="235.961,89.578 241.607,113.937 242.238,136.627 
				244.423,133.373 247.254,110.662 238.365,88.992 			"/>
			<path fill="#243740" d="M237.378,84.955c-0.199,1.712,1.387,3.344,3.523,3.626l2.573,0.339c1.166-1.041,1.892-2.5,1.892-4.118
				c0-1.762-0.862-3.338-2.217-4.389l-1.62,0.427C239.446,81.391,237.576,83.243,237.378,84.955z"/>
			<ellipse fill="#293D48" cx="237.26" cy="84.803" rx="6.193" ry="5.726"/>
			<path fill="#293D48" d="M237.197,81.827l-5.334-1.713c-1.598,1.035-2.643,2.749-2.643,4.689c0,1.466,0.596,2.801,1.575,3.815
				l6.796-0.533L237.197,81.827z"/>
			<path fill="#324853" d="M231.067,84.803c0,1.011,0.283,1.959,0.781,2.783c0.832,0.386,1.772,0.602,2.766,0.602
				c3.419,0,6.192-2.562,6.192-5.725c0-1.01-0.283-1.959-0.781-2.782c-0.832-0.385-1.77-0.604-2.766-0.604
				C233.84,79.077,231.067,81.641,231.067,84.803z"/>
			<polygon fill="#293D48" points="239.6,88.409 252.178,107.834 252.178,136.627 247.34,127.951 243.453,136.627 243.453,112.518 
				236.668,88.409 			"/>
			<polygon opacity="0.5" fill="#747A7E" enable-background="new    " points="251.212,133.128 251.212,136.627 246.155,129.051 
				247.254,125.87 			"/>
			<polygon fill="#324853" points="252.164,107.812 243.453,112.868 243.453,136.627 247.34,127.951 252.178,136.627 
				252.178,107.834 			"/>
			<polygon fill="#293D48" points="238.365,88.992 227.732,111.629 227.732,127.951 223.007,122.536 218.475,127.951 
				218.475,106.285 235.526,88.291 			"/>
			<polygon opacity="0.5" fill="#747A7E" enable-background="new    " points="219.699,124.735 219.699,127.951 225.09,122.22 
				221.66,118.856 			"/>
			<polygon fill="#324853" points="218.475,106.285 218.475,127.951 223.007,122.536 227.732,127.951 227.732,111.629 
				227.732,111.629 			"/>
			<polygon opacity="0.5" fill="#747A7E" enable-background="new    " points="236.668,263.001 183.849,232.504 183.849,162.625 
				236.668,193.119 			"/>
		</g>
		<g>
			<polygon fill="#CFD6DA" points="154.04,310.396 80.558,267.971 80.558,194.488 154.04,236.913 			"/>
			<polygon fill="#455D6A" points="125.535,293.938 109.062,284.428 109.062,210.945 125.535,220.456 			"/>
			<polygon fill="#A9B0B6" points="154.04,310.396 227.521,267.971 227.521,194.488 154.04,236.913 			"/>
			<polygon fill="#324853" points="182.545,293.938 199.019,284.428 199.019,210.945 182.545,220.456 			"/>
			<polygon fill="#E3EAEE" points="154.04,236.913 227.521,194.488 154.04,152.064 80.558,194.488 			"/>
			<polygon fill="#546F7E" points="182.545,220.456 199.019,210.945 125.535,168.52 109.062,178.031 			"/>
			<polygon fill="#546F7E" points="125.535,220.456 109.064,210.945 182.546,168.52 199.019,178.031 			"/>
			<g>
				<path fill="#1E303A" d="M203.036,201.095c0.476,0.857,0.101,1.798-0.833,2.091l-7.94,2.496
					c-0.933,0.294-2.471,0.322-3.415,0.064l-31.013-8.497c-0.944-0.259-0.927-0.603,0.04-0.764l35.395-5.919
					c0.967-0.161,2.145,0.407,2.621,1.263L203.036,201.095z"/>
			</g>
			<path fill="#324853" d="M155.028,192.627c0.277-2.383,2.876-4.958,5.776-5.723l41.624-10.982c2.899-0.766,5.151,1.06,5.001,4.055
				l-0.911,18.369c-0.151,2.993-2.703,5.122-5.679,4.73l-40.909-5.404C156.957,197.28,154.75,195.01,155.028,192.627z"/>
			<g>
				<path fill="#1E303A" d="M106.664,198.544c-0.52,0.829-0.196,1.789,0.722,2.131l7.795,2.912c0.917,0.343,2.45,0.453,3.407,0.245
					l31.417-6.845c0.957-0.207,0.958-0.552,0.002-0.764l-35.03-7.784c-0.956-0.212-2.164,0.293-2.684,1.122L106.664,198.544z"/>
			</g>
			<g>
				<path fill="#324853" d="M155.052,192.628c-0.151-2.394-2.61-5.103-5.465-6.021l-40.983-13.171
					c-2.855-0.918-5.199,0.785-5.209,3.784l-0.061,18.392c-0.01,2.999,2.428,5.261,5.417,5.025l41.139-3.231
					C152.88,197.172,155.203,195.021,155.052,192.628z"/>
			</g>
			<polygon opacity="0.5" fill="#747A7E" enable-background="new    " points="157.524,199.58 143.75,230.973 143.75,252.44 
				139.806,245.924 137.931,224.455 154.04,198.244 			"/>
			<polygon opacity="0.5" fill="#747A7E" enable-background="new    " points="153.055,199.058 160.911,232.946 161.792,264.515 
				164.829,259.985 168.766,228.39 156.403,198.244 			"/>
			<path fill="#243740" d="M155.028,192.627c-0.277,2.383,1.929,4.653,4.902,5.046l3.578,0.474c1.623-1.451,2.633-3.481,2.633-5.73
				c0-2.452-1.199-4.643-3.084-6.105l-2.253,0.594C157.904,187.669,155.305,190.243,155.028,192.627z"/>
			<ellipse fill="#293D48" cx="154.864" cy="192.415" rx="8.616" ry="7.966"/>
			<path fill="#293D48" d="M154.778,188.275l-7.421-2.384c-2.223,1.441-3.677,3.826-3.677,6.525c0,2.038,0.83,3.896,2.191,5.306
				l9.455-0.742L154.778,188.275z"/>
			<path fill="#324853" d="M146.25,192.415c0,1.405,0.394,2.725,1.085,3.871c1.159,0.537,2.465,0.841,3.848,0.841
				c4.758,0,8.616-3.569,8.616-7.966c0-1.406-0.396-2.726-1.087-3.872c-1.158-0.537-2.464-0.84-3.848-0.84
				C150.106,184.449,146.25,188.017,146.25,192.415z"/>
			<polygon fill="#293D48" points="158.118,197.432 175.617,224.455 175.617,264.515 168.885,252.441 163.48,264.515 
				163.48,230.973 154.04,197.432 			"/>
			<polygon opacity="0.5" fill="#747A7E" enable-background="new    " points="174.273,259.646 174.273,264.515 167.239,253.973 
				168.766,249.548 			"/>
			<polygon fill="#324853" points="175.599,224.426 163.48,231.458 163.48,264.515 168.885,252.441 175.617,264.515 
				175.617,224.455 			"/>
			<polygon fill="#293D48" points="156.403,198.244 141.608,229.737 141.608,252.44 135.036,244.91 128.732,252.44 128.732,222.301 
				152.452,197.269 			"/>
			<polygon opacity="0.5" fill="#747A7E" enable-background="new    " points="130.434,247.969 130.434,252.441 137.931,244.469 
				133.161,239.789 			"/>
			<polygon fill="#324853" points="128.732,222.301 128.732,252.44 135.036,244.91 141.608,252.44 141.608,229.737 141.608,229.737 
							"/>
		</g>
	</g>
</g>
</svg>
