<?xml version="1.0" encoding="utf-8"?>
<!-- Generator: Adobe Illustrator 16.0.0, SVG Export Plug-In . SVG Version: 6.00 Build 0)  -->
<!DOCTYPE svg PUBLIC "-//W3C//DTD SVG 1.1//EN" "http://www.w3.org/Graphics/SVG/1.1/DTD/svg11.dtd">
<svg version="1.1" id="Layer_6_4_" xmlns="http://www.w3.org/2000/svg" xmlns:xlink="http://www.w3.org/1999/xlink" x="0px" y="0px"
	 width="375px" height="375px" viewBox="0 0 375 375" enable-background="new 0 0 375 375" xml:space="preserve">
<g>
	<g id="Layer_6_5_">
		<g>
			<g>
				<path fill="#C6D5AC" d="M188,318.354c-2.65,0-5.175-0.65-7.109-1.832l-95.245-58.186c-3.923-2.396-6.997-7.875-6.997-12.471
					V130.836c0-4.597,3.073-10.076,6.997-12.472l95.243-58.186c1.936-1.182,4.46-1.833,7.111-1.833c2.651,0,5.176,0.651,7.112,1.834
					l95.245,58.191c3.921,2.397,6.994,7.875,6.994,12.472v115.012c0,4.598-3.073,10.076-6.994,12.474l-95.246,58.191
					C193.176,317.703,190.65,318.354,188,318.354L188,318.354z"/>
				<path fill="#828F74" d="M188,61.024c2.072,0,4.144,0.48,5.714,1.44l95.245,58.192c3.142,1.921,5.713,6.505,5.713,10.187v115.012
					c0,3.683-2.571,8.268-5.713,10.188l-95.245,58.192c-1.572,0.96-3.643,1.44-5.714,1.44c-2.071,0-4.143-0.48-5.714-1.439
					L87.042,256.05c-3.143-1.919-5.714-6.504-5.714-10.187V130.836c0-3.683,2.571-8.266,5.714-10.186l95.244-58.186
					C183.857,61.504,185.928,61.024,188,61.024 M188,55.667c-3.137,0-6.157,0.79-8.506,2.226l-95.244,58.186
					c-4.719,2.883-8.278,9.228-8.278,14.757v115.029c0,5.529,3.559,11.873,8.278,14.757l95.244,58.186
					c2.35,1.435,5.371,2.225,8.506,2.225c3.136,0,6.158-0.79,8.507-2.226l95.245-58.192c4.72-2.885,8.277-9.229,8.277-14.759
					V130.843c0-5.53-3.558-11.875-8.277-14.758l-95.245-58.191C194.157,56.458,191.136,55.667,188,55.667L188,55.667z"/>
			</g>
			<g>
				<path fill="#D8E8BD" d="M187.996,61.024c-2.07,0-4.139,0.48-5.709,1.439L87.042,120.65c-3.143,1.92-5.714,6.503-5.714,10.186
					v115.029c0,3.682,2.571,8.266,5.714,10.185l95.244,58.187c1.571,0.959,3.64,1.438,5.709,1.439V61.024L187.996,61.024z"/>
			</g>
			<path fill="none" stroke="#F9FBF9" stroke-width="2" stroke-miterlimit="10" d="M284.207,128.344l-95.146-58.13
				c-0.127-0.048-0.51-0.151-1.061-0.151c-0.551,0-0.935,0.104-1.061,0.151l-95.185,58.149c-0.519,0.38-1.333,1.831-1.389,2.519
				l0.001,114.98c0.055,0.642,0.868,2.093,1.426,2.498l95.144,58.124c0.126,0.047,0.51,0.15,1.062,0.15
				c0.551,0,0.935-0.103,1.06-0.15l95.187-58.157c0.518-0.38,1.332-1.831,1.389-2.521l-0.001-114.965
				C285.578,130.202,284.766,128.75,284.207,128.344z"/>
		</g>
	</g>
	<g id="Layer_2_1_">
		<g>
			<path fill="#324853" d="M259.299,211.99c0,3.683-2.809,7.784-6.241,9.116l-58.787,34.708c-3.435,1.331-9.052,1.332-12.485,0.003
				l-58.847-34.712c-3.433-1.332-6.243-5.433-6.243-9.115v-45.283c0-3.683,3.014-6.696,6.696-6.696h129.214
				c3.683,0,6.696,3.013,6.696,6.696v45.283H259.299z"/>
			<g>
				<g>
					<polygon id="SVGID_1_" fill="#1E303A" points="243.361,226.832 240.013,228.808 240.013,189.771 243.361,189.771 					"/>
				</g>
			</g>
			<polygon fill="#293D48" points="65.743,160.585 65.743,156.985 68.983,156.985 			"/>
			<polygon fill="#293D48" points="310.258,156.767 310.258,160.47 307.521,161.225 			"/>
			<path fill="#1E303A" d="M182.419,232.861c3.306,1.622,8.71,1.612,12.011-0.024l64.871-36.752v-26.63
				c0-3.683-3.014-6.696-6.696-6.696H123.391c-3.682,0-6.696,3.013-6.696,6.696v26.571L182.419,232.861z"/>
			<path fill="#293D48" d="M307.782,157.504c3.3,1.633,3.302,4.308,0.002,5.944L194.43,219.663
				c-3.301,1.637-8.705,1.647-12.011,0.025L68.223,163.646c-3.306-1.622-3.307-4.28-0.003-5.906l114.345-56.253
				c3.305-1.626,8.708-1.62,12.01,0.013L307.782,157.504z"/>
			<path fill="#546F7E" d="M307.782,153.796c3.3,1.633,3.302,4.308,0.002,5.944L194.43,215.956
				c-3.301,1.636-8.705,1.647-12.011,0.025L68.223,159.939c-3.306-1.623-3.307-4.28-0.003-5.906L182.565,97.78
				c3.305-1.626,8.708-1.62,12.01,0.013L307.782,153.796z"/>
			
				<polyline fill="none" stroke="#1E303A" stroke-width="2" stroke-linecap="round" stroke-linejoin="round" stroke-miterlimit="10" points="
				191.019,153.38 250.789,188.138 250.789,196.482 			"/>
			
				<polyline fill="none" stroke="#A9B0B6" stroke-width="5" stroke-linecap="round" stroke-linejoin="round" stroke-miterlimit="10" points="
				191.414,151.922 253.151,186.833 253.151,265.805 			"/>
		</g>
		<path fill="#A9B0B6" d="M258.021,262.807c0,2.69-4.869,11.775-4.869,11.775s-4.869-9.085-4.869-11.775
			c0-2.688,2.18-8.092,4.869-8.092C255.84,254.715,258.021,260.119,258.021,262.807z"/>
	</g>
</g>
</svg>
