<?xml version="1.0" encoding="utf-8"?>
<!-- Generator: Adobe Illustrator 16.0.0, SVG Export Plug-In . SVG Version: 6.00 Build 0)  -->
<!DOCTYPE svg PUBLIC "-//W3C//DTD SVG 1.1//EN" "http://www.w3.org/Graphics/SVG/1.1/DTD/svg11.dtd">
<svg version="1.1" id="Layer_1" xmlns="http://www.w3.org/2000/svg" xmlns:xlink="http://www.w3.org/1999/xlink" x="0px" y="0px"
	 width="375px" height="375px" viewBox="0 0 375 375" enable-background="new 0 0 375 375" xml:space="preserve">
<g>
	<g id="Layer_6">
		<g>
			<g>
				<path fill="#C6D5AC" d="M188,318.099c-2.645,0-5.165-0.649-7.096-1.828l-95.058-58.072c-3.916-2.392-6.982-7.859-6.982-12.447
					V130.949c0-4.588,3.066-10.056,6.982-12.448l95.057-58.071c1.932-1.18,4.452-1.83,7.097-1.83s5.166,0.65,7.097,1.83
					l95.058,58.078c3.915,2.393,6.982,7.859,6.982,12.448v114.787c0,4.588-3.067,10.055-6.982,12.447l-95.059,58.078
					C193.165,317.449,190.645,318.099,188,318.099L188,318.099z"/>
				<path fill="#828F74" d="M188,61.274c2.067,0,4.135,0.479,5.703,1.438l95.059,58.078c3.136,1.917,5.702,6.491,5.702,10.167
					v114.787c0,3.675-2.566,8.25-5.702,10.167l-95.059,58.078c-1.568,0.959-3.636,1.438-5.703,1.438
					c-2.067,0-4.135-0.479-5.703-1.437L87.24,255.917c-3.136-1.916-5.703-6.491-5.703-10.166V130.949
					c0-3.675,2.566-8.25,5.703-10.166l95.057-58.071C183.865,61.754,185.933,61.274,188,61.274 M188,55.928
					c-3.13,0-6.145,0.789-8.49,2.221l-95.057,58.072c-4.71,2.877-8.262,9.209-8.262,14.729v114.802
					c0,5.52,3.552,11.852,8.262,14.729l95.057,58.07c2.345,1.433,5.36,2.221,8.49,2.221c3.13,0,6.145-0.789,8.491-2.222
					l95.058-58.077c4.71-2.88,8.262-9.211,8.262-14.729V130.957c0-5.519-3.552-11.851-8.262-14.729L196.489,58.15
					C194.145,56.718,191.13,55.928,188,55.928L188,55.928z"/>
			</g>
			<g>
				<path fill="#D8E8BD" d="M187.996,61.274c-2.066,0-4.131,0.48-5.699,1.437L87.24,120.783c-3.136,1.916-5.703,6.491-5.703,10.166
					v114.802c0,3.676,2.566,8.251,5.703,10.167l95.057,58.071c1.568,0.957,3.633,1.436,5.699,1.437V61.274L187.996,61.274z"/>
			</g>
			<path fill="none" stroke="#F9FBF9" stroke-width="2" stroke-miterlimit="10" d="M284.018,128.462l-94.959-58.016
				c-0.127-0.048-0.509-0.151-1.059-0.151c-0.55,0-0.933,0.103-1.059,0.151l-94.998,58.035c-0.518,0.379-1.33,1.828-1.386,2.515
				l0.001,114.755c0.055,0.64,0.867,2.088,1.423,2.493l94.958,58.009c0.125,0.047,0.509,0.15,1.059,0.15
				c0.549,0,0.933-0.102,1.058-0.15l94.999-58.042c0.517-0.38,1.33-1.828,1.386-2.516l-0.001-114.74
				C285.387,130.316,284.575,128.868,284.018,128.462z"/>
		</g>
	</g>
	<g id="Layer_3">
		<g>
			<polygon opacity="0.4" fill="#828F74" enable-background="new    " points="122.642,273.462 139.582,283.811 301.146,236.719 
				301.146,221.758 			"/>
			<g>
				<g>
					<polygon fill="#546F7E" points="327.517,218.837 91.496,286.991 30.432,201.193 266.452,133.04 					"/>
					<polygon fill="#E3EAEE" points="308.869,216.481 101.002,276.504 49.08,203.551 256.946,143.526 					"/>
					<polygon fill="#455D6A" points="266.15,221.676 240.692,229.028 234.509,220.339 259.968,212.986 					"/>
					<polygon fill="#455D6A" points="135.292,259.464 160.751,252.112 154.565,243.424 129.107,250.775 					"/>
					<polygon fill="#546F7E" points="252.476,222.998 145.865,253.783 139.679,245.094 246.291,214.309 					"/>
					<g>
						<path fill="#546F7E" d="M206.22,248.296c-20.09,5.801-48.655-6.652-63.679-27.761c-15.023-21.106-10.9-42.999,9.188-48.8
							c20.089-5.801,48.655,6.651,63.679,27.759C230.432,220.601,226.31,242.495,206.22,248.296z"/>
						<path fill="#E3EAEE" d="M152.89,173.368c19.072-5.508,46.209,6.437,60.616,26.677c14.404,20.24,10.622,41.111-8.448,46.619
							c-19.07,5.507-46.209-6.437-60.615-26.676C130.038,199.748,133.819,178.875,152.89,173.368 M150.568,170.105
							c-10.394,3-17.098,10.051-18.873,19.852c-1.728,9.54,1.448,20.596,8.944,31.129c7.496,10.533,18.457,19.341,30.863,24.799
							c12.741,5.609,25.483,7.045,35.879,4.042c10.395-3.003,17.097-10.051,18.871-19.853c1.729-9.539-1.445-20.596-8.942-31.128
							s-18.457-19.342-30.863-24.8C173.706,168.538,160.963,167.103,150.568,170.105L150.568,170.105z"/>
					</g>
					<g>
						<path fill="#E3EAEE" d="M202.657,243.289c-17.37,5.015-42.123-5.83-55.18-24.179c-13.059-18.346-9.552-37.354,7.816-42.369
							c17.368-5.015,42.12,5.831,55.179,24.178C223.53,219.267,220.022,238.273,202.657,243.289z"/>
						<path fill="#455D6A" d="M155.756,177.395c16.975-4.902,41.132,5.729,53.956,23.745c12.822,18.017,9.454,36.595-7.521,41.498
							c-16.973,4.901-41.131-5.729-53.953-23.745C135.415,200.876,138.783,182.296,155.756,177.395 M154.829,176.089
							c-17.788,5.137-21.427,24.536-8.113,43.242c13.314,18.707,38.616,29.748,56.404,24.61
							c17.787-5.136,21.426-24.536,8.114-43.241C197.918,181.992,172.616,170.952,154.829,176.089L154.829,176.089z"/>
					</g>
					<path fill="#546F7E" d="M73.281,206.771c4.989,7.008,2.408,14.604-5.766,16.965c-8.172,2.36-18.842-1.409-23.83-8.419
						c-4.99-7.009-2.409-14.605,5.764-16.966C57.624,195.991,68.293,199.761,73.281,206.771z"/>
					<path fill="#E3EAEE" d="M69.385,207.896c3.675,5.164,1.774,10.759-4.248,12.496c-6.02,1.74-13.881-1.038-17.555-6.199
						c-3.676-5.165-1.775-10.761,4.246-12.499C57.85,199.954,65.71,202.732,69.385,207.896z"/>
					<path fill="#546F7E" d="M105.439,266.628c3.807,5.348,3.079,10.785-1.626,12.144c-4.704,1.359-11.603-1.877-15.409-7.224
						c-3.807-5.348-3.08-10.786,1.625-12.145S101.632,261.279,105.439,266.628z"/>
					<path fill="#E3EAEE" d="M103.196,267.275c2.804,3.94,2.268,7.946-1.198,8.946c-3.465,1.001-8.547-1.381-11.351-5.321
						c-2.805-3.94-2.269-7.946,1.196-8.946C95.308,260.952,100.391,263.335,103.196,267.275z"/>
					<path fill="#546F7E" d="M294.283,212.096c3.807,5.348,10.706,8.583,15.41,7.226c4.703-1.359,5.432-6.796,1.626-12.145
						c-3.808-5.349-10.707-8.583-15.412-7.225C291.204,201.312,290.476,206.747,294.283,212.096z"/>
					<path fill="#E3EAEE" d="M296.525,211.45c2.803,3.938,7.887,6.321,11.352,5.321c3.467-1.002,4.001-5.007,1.197-8.946
						c-2.803-3.94-7.887-6.323-11.351-5.324C294.258,203.503,293.721,207.51,296.525,211.45z"/>
					<path fill="#546F7E" d="M274.096,148.781c4.988,7.009,2.406,14.605-5.768,16.965s-18.843-1.408-23.831-8.418
						c-4.988-7.01-2.408-14.605,5.766-16.966C258.436,138.003,269.104,141.771,274.096,148.781z"/>
					<path fill="#E3EAEE" d="M270.197,149.906c3.676,5.165,1.773,10.759-4.246,12.498c-6.02,1.74-13.881-1.038-17.558-6.202
						c-3.674-5.163-1.774-10.759,4.248-12.497C258.663,141.966,266.523,144.743,270.197,149.906z"/>
					<g>
						<g>
							<polygon fill="#546F7E" points="106.268,217.035 107.814,215.228 110.85,216.396 113.169,215.181 115.79,216.955 
								118.657,216.453 120.606,218.657 123.739,218.916 124.826,221.334 127.919,222.331 128.037,224.724 130.787,226.359 
								129.925,228.498 132.062,230.61 130.305,232.283 131.623,234.67 129.14,235.714 129.507,238.135 126.545,238.447 
								125.924,240.672 122.771,240.22 121.226,242.029 118.189,240.858 115.87,242.075 113.25,240.301 110.383,240.803 
								108.434,238.599 105.299,238.34 104.214,235.922 101.121,234.926 101.002,232.531 98.251,230.897 99.115,228.757 
								96.976,226.646 98.734,224.972 97.417,222.587 99.9,221.544 99.533,219.119 102.495,218.809 103.115,216.585 							"/>
							<path fill="#546F7E" d="M126.217,240.981l-3.234-0.463l-1.585,1.854l-3.114-1.198l-2.379,1.246l-2.687-1.819l-2.942,0.515
								l-1.999-2.26l-3.215-0.268l-1.113-2.479l-3.174-1.022l-0.12-2.456l-2.821-1.676l0.885-2.194l-2.194-2.168l1.803-1.715
								l-1.351-2.447l2.547-1.069l-0.376-2.487l3.038-0.319l0.638-2.281l3.233,0.462l1.586-1.854l3.113,1.198l2.38-1.244
								l2.687,1.818l2.942-0.516l1.997,2.259l3.216,0.268l1.113,2.479l3.174,1.022l0.12,2.456l2.822,1.678l-0.886,2.192l2.194,2.166
								l-1.804,1.718l1.351,2.447l-2.546,1.07l0.376,2.485l-3.038,0.32L126.217,240.981z M122.558,239.923l3.073,0.438l0.604-2.165
								l2.886-0.303l-0.358-2.363l2.419-1.017l-1.284-2.322l1.713-1.632l-2.083-2.057l0.84-2.084l-2.68-1.593l-0.113-2.333
								l-3.016-0.972l-1.057-2.354l-3.054-0.254l-1.898-2.146l-2.793,0.49l-2.553-1.728l-2.261,1.183l-2.957-1.139l-1.506,1.761
								l-3.072-0.438l-0.604,2.166l-2.887,0.304l0.358,2.362l-2.42,1.017l1.284,2.321l-1.714,1.632l2.084,2.059l-0.841,2.082
								l2.68,1.593l0.113,2.336l3.016,0.97l1.057,2.353l3.055,0.254l1.897,2.148l2.794-0.488l2.553,1.727l2.26-1.183l2.957,1.138
								L122.558,239.923z"/>
						</g>
						<g>
							<path fill="#E3EAEE" d="M126.533,225.158c4.049,5.691,1.954,11.856-4.68,13.772c-6.635,1.915-15.297-1.146-19.345-6.834
								c-4.05-5.689-1.954-11.856,4.68-13.771C113.822,216.41,122.482,219.471,126.533,225.158z"/>
							<path fill="#546F7E" d="M122.038,239.189c-6.792,1.963-15.69-1.182-19.834-7.005c-4.146-5.825-1.993-12.158,4.798-14.118
								c6.791-1.962,15.688,1.18,19.833,7.005C130.981,230.895,128.829,237.229,122.038,239.189z M107.373,218.586
								c-6.458,1.863-8.504,7.886-4.562,13.424c3.941,5.538,12.4,8.525,18.856,6.66c6.457-1.863,8.504-7.886,4.562-13.424
								C122.29,219.709,113.828,216.721,107.373,218.586z"/>
						</g>
						<g>
							<path fill="#546F7E" d="M119.694,235.897c-4.673,1.35-10.797-0.813-13.65-4.822c-2.854-4.009-1.372-8.368,3.301-9.718
								c4.675-1.35,10.799,0.813,13.652,4.823C125.849,230.188,124.369,234.55,119.694,235.897z M110.085,222.398
								c-4.005,1.156-5.275,4.892-2.83,8.326c2.445,3.436,7.693,5.289,11.698,4.134c4.004-1.157,5.273-4.894,2.83-8.327
								C119.338,223.095,114.09,221.241,110.085,222.398z"/>
						</g>
						<g>
							<path fill="#546F7E" d="M120.52,237.06c-5.42,1.564-12.522-0.944-15.831-5.594c-3.31-4.648-1.591-9.703,3.829-11.27
								c5.421-1.564,12.521,0.944,15.831,5.595C127.66,230.439,125.94,235.493,120.52,237.06z M108.89,220.717
								c-5.086,1.469-6.698,6.212-3.593,10.575c3.104,4.361,9.768,6.716,14.854,5.247s6.698-6.213,3.593-10.574
								C120.64,221.602,113.976,219.246,108.89,220.717z"/>
						</g>
					</g>
					<g>
						<g>
							<polygon fill="#546F7E" points="237.576,179.117 239.122,177.31 242.155,178.479 244.477,177.264 247.098,179.037 
								249.965,178.535 251.915,180.738 255.046,180.999 256.131,183.416 259.227,184.413 259.345,186.807 262.095,188.442 
								261.231,190.58 263.37,192.694 261.613,194.367 262.93,196.752 260.447,197.795 260.812,200.22 257.85,200.531 
								257.232,202.756 254.078,202.303 252.532,204.112 249.497,202.944 247.178,204.156 244.558,202.385 241.689,202.887 
								239.739,200.684 236.605,200.423 235.521,198.005 232.426,197.011 232.311,194.614 229.558,192.979 230.422,190.841 
								228.284,188.727 230.041,187.055 228.724,184.669 231.208,183.625 230.838,181.203 233.804,180.892 234.423,178.667 							
								"/>
							<path fill="#546F7E" d="M257.524,203.064l-3.235-0.461l-1.584,1.854l-3.113-1.198l-2.38,1.243l-2.687-1.818l-2.941,0.516
								l-2.001-2.26l-3.213-0.267l-1.113-2.479l-3.174-1.021l-0.121-2.457l-2.82-1.677l0.885-2.194l-2.194-2.168l1.802-1.716
								l-1.35-2.445l2.545-1.071l-0.375-2.487l3.038-0.318l0.635-2.282l3.235,0.462l1.587-1.853l3.112,1.199l2.38-1.246l2.688,1.819
								l2.939-0.515l1.999,2.26l3.215,0.267l1.112,2.479l3.176,1.022l0.12,2.457l2.821,1.677l-0.886,2.194l2.195,2.167l-1.804,1.715
								l1.35,2.447l-2.546,1.07l0.376,2.487l-3.038,0.32L257.524,203.064z M253.866,202.006l3.071,0.439l0.605-2.167l2.885-0.304
								l-0.356-2.36l2.418-1.018l-1.283-2.322l1.713-1.63l-2.083-2.06l0.84-2.084l-2.68-1.593l-0.114-2.334l-3.017-0.97
								l-1.057-2.354l-3.052-0.254l-1.9-2.146l-2.793,0.489l-2.552-1.728l-2.262,1.182l-2.959-1.138l-1.504,1.761l-3.071-0.438
								l-0.605,2.167l-2.886,0.304l0.356,2.362l-2.417,1.015l1.282,2.325l-1.712,1.629l2.084,2.061l-0.842,2.083l2.681,1.592
								l0.113,2.334l3.016,0.971l1.057,2.354l3.054,0.254l1.897,2.146l2.795-0.489l2.553,1.729l2.26-1.184l2.958,1.139
								L253.866,202.006z"/>
						</g>
						<g>
							<path fill="#E3EAEE" d="M257.84,187.241c4.049,5.689,1.956,11.856-4.681,13.771c-6.635,1.917-15.296-1.145-19.344-6.833
								c-4.05-5.69-1.956-11.856,4.681-13.773C245.129,178.493,253.79,181.553,257.84,187.241z"/>
							<path fill="#546F7E" d="M253.346,201.273c-6.792,1.962-15.689-1.182-19.834-7.007c-4.147-5.823-1.995-12.157,4.797-14.118
								c6.793-1.961,15.688,1.181,19.835,7.006C262.288,192.979,260.137,199.312,253.346,201.273z M238.681,180.668
								c-6.458,1.864-8.506,7.886-4.563,13.423c3.942,5.539,12.4,8.527,18.858,6.662c6.457-1.864,8.504-7.886,4.562-13.424
								C253.597,181.792,245.137,178.804,238.681,180.668z"/>
						</g>
						<g>
							<path fill="#546F7E" d="M251,197.98c-4.673,1.351-10.797-0.814-13.65-4.821c-2.854-4.01-1.373-8.37,3.301-9.72
								c4.675-1.349,10.8,0.815,13.653,4.823C257.156,192.271,255.677,196.631,251,197.98z M241.394,184.481
								c-4.006,1.157-5.275,4.893-2.83,8.327s7.692,5.289,11.697,4.132s5.276-4.893,2.83-8.326
								C250.645,185.178,245.397,183.324,241.394,184.481z"/>
						</g>
						<g>
							<path fill="#546F7E" d="M251.828,199.142c-5.422,1.566-12.523-0.942-15.83-5.591c-3.311-4.651-1.593-9.706,3.828-11.272
								c5.424-1.564,12.523,0.943,15.832,5.593C258.966,192.521,257.248,197.577,251.828,199.142z M240.195,182.799
								c-5.086,1.469-6.697,6.212-3.594,10.575c3.105,4.362,9.769,6.717,14.855,5.248c5.087-1.468,6.699-6.213,3.594-10.575
								C251.947,183.685,245.282,181.331,240.195,182.799z"/>
						</g>
					</g>
					<path fill="#455D6A" d="M202.19,242.637c8.672-2.505,13.783-8.583,15.009-16.33l-4.383-4.615
						c-0.639-0.672-1.941-1.222-2.9-1.228l-8.234-0.038c-0.957-0.005-2.235-0.54-2.841-1.186c-0.603-0.648-1.79-1.213-2.637-1.257
						c-0.846-0.044-2.052-0.63-2.681-1.304l-1.011-1.082c-0.628-0.675-0.488-1.463,0.31-1.756c0,0,0.912-0.333,2.004-1.246
						c1.097-0.912-1.385-5.026-1.385-5.026c-0.443-0.733-0.484-1.834-0.097-2.445l0.808-1.262c0.391-0.61,0.63-1.39,0.53-1.731
						c-0.101-0.342-0.243-1.233-0.318-1.984l-0.042-0.411c-0.074-0.75-0.345-1.654-0.598-2.008
						c-0.252-0.355-1.146-1.076-1.984-1.603l-9.525-5.963c-0.838-0.526-2.305-1.23-3.257-1.567l-10.039-3.546
						c-0.954-0.338-2.473-0.507-3.377-0.376l-6.991,1c-0.904,0.13-1.95,0.744-2.326,1.362l-0.721,1.192
						c-0.375,0.618-1.076,1.339-1.56,1.603c-0.482,0.264-1.079,1.03-1.321,1.703l-1.402,3.89c-0.242,0.674-0.161,1.783,0.181,2.466
						c0.342,0.681,0.46,1.454,0.264,1.716c-0.197,0.264,0.059,1.064,0.569,1.78c0.51,0.716,0.809,1.879,0.666,2.585l-0.64,3.147
						c-0.144,0.708,0.517,1.566,1.466,1.914l4.317,1.578c0.951,0.347,2.527,0.715,3.502,0.82l0.222,0.024
						c0.977,0.104,2.283,0.745,2.903,1.424l0.123,0.136c0.62,0.679,1.887,1.172,2.818,1.099l0.453-0.035
						c3.319,7.112-2.248,14.747-2.248,14.747c-0.431,0.59-1.142,1.551-1.582,2.137l-1.265,1.689
						c-0.124,0.163-0.179,0.354-0.187,0.553C175.272,241.981,190.449,246.028,202.19,242.637z"/>
					<path fill="#E3EAEE" d="M156.686,178.699c16.11-4.652,39.214,5.611,51.504,22.88c12.291,17.268,9.184,35.102-6.928,39.752
						c-16.108,4.651-39.212-5.61-51.502-22.879C137.47,201.185,140.577,183.351,156.686,178.699 M155.756,177.395
						c-16.974,4.901-20.341,23.481-7.519,41.496c12.822,18.018,36.98,28.647,53.953,23.746c16.976-4.902,20.344-23.482,7.521-41.498
						C196.89,183.124,172.732,172.493,155.756,177.395L155.756,177.395z"/>
				</g>
				<polygon opacity="0.2" fill="#546F7E" enable-background="new    " points="46.583,196.529 99.567,270.974 319.436,207.483 
					266.452,133.04 				"/>
				<g>
					<polygon fill="#546F7E" points="336.541,197.17 100.521,265.325 39.457,179.527 275.478,111.374 					"/>
					<polygon fill="#E3EAEE" points="317.894,194.815 110.027,254.838 58.105,181.884 265.973,121.861 					"/>
					<polygon fill="#455D6A" points="275.176,200.011 249.717,207.362 243.534,198.673 268.992,191.321 					"/>
					<polygon fill="#455D6A" points="144.316,237.798 169.776,230.446 163.591,221.758 138.133,229.11 					"/>
					<polygon fill="#546F7E" points="261.5,201.332 154.89,232.116 148.706,223.429 255.316,192.644 					"/>
					<g>
						<path fill="#546F7E" d="M215.245,226.63c-20.09,5.801-48.655-6.65-63.678-27.76c-15.023-21.107-10.901-42.999,9.188-48.8
							c20.089-5.801,48.655,6.65,63.679,27.758C239.456,198.936,235.334,220.828,215.245,226.63z"/>
						<path fill="#E3EAEE" d="M161.916,151.701c19.072-5.507,46.21,6.437,60.616,26.676c14.405,20.242,10.622,41.113-8.449,46.622
							c-19.069,5.507-46.208-6.438-60.613-26.677C139.063,178.081,142.845,157.208,161.916,151.701 M159.593,148.439
							c-10.394,3.002-17.097,10.051-18.873,19.852c-1.729,9.54,1.448,20.596,8.944,31.13c7.497,10.532,18.457,19.34,30.863,24.799
							c12.741,5.608,25.484,7.043,35.879,4.041c10.394-3.002,17.098-10.051,18.873-19.852c1.729-9.54-1.447-20.597-8.944-31.13
							c-7.495-10.532-18.456-19.34-30.862-24.799C182.731,146.872,169.989,145.437,159.593,148.439L159.593,148.439z"/>
					</g>
					<g>
						<path fill="#E3EAEE" d="M211.682,221.623c-17.368,5.016-42.122-5.83-55.18-24.178c-13.059-18.348-9.552-37.354,7.817-42.369
							c17.368-5.016,42.121,5.831,55.178,24.177C232.556,197.601,229.049,216.607,211.682,221.623z"/>
						<path fill="#455D6A" d="M164.782,155.729c16.975-4.902,41.132,5.729,53.955,23.744c12.821,18.017,9.454,36.596-7.521,41.499
							c-16.975,4.9-41.132-5.729-53.955-23.746C144.44,179.21,147.809,160.63,164.782,155.729 M163.855,154.423
							c-17.788,5.137-21.427,24.535-8.113,43.243c13.314,18.706,38.618,29.746,56.406,24.609
							c17.785-5.136,21.425-24.534,8.112-43.242C206.945,160.327,181.642,149.287,163.855,154.423L163.855,154.423z"/>
					</g>
					<path fill="#546F7E" d="M82.307,185.104c4.989,7.008,2.408,14.605-5.766,16.964c-8.172,2.36-18.842-1.408-23.831-8.419
						c-4.989-7.01-2.408-14.606,5.765-16.965C66.649,174.324,77.318,178.095,82.307,185.104z"/>
					<path fill="#E3EAEE" d="M78.41,186.229c3.675,5.163,1.773,10.759-4.248,12.497c-6.021,1.738-13.881-1.038-17.555-6.201
						c-3.675-5.164-1.775-10.758,4.246-12.498C66.875,178.289,74.735,181.066,78.41,186.229z"/>
					<path fill="#546F7E" d="M114.465,244.963c3.807,5.346,3.079,10.784-1.627,12.144c-4.704,1.357-11.603-1.877-15.409-7.226
						c-3.807-5.348-3.08-10.785,1.624-12.144C103.758,236.381,110.658,239.613,114.465,244.963z"/>
					<path fill="#E3EAEE" d="M112.222,245.609c2.803,3.94,2.268,7.946-1.198,8.947c-3.465,1.001-8.547-1.382-11.352-5.322
						s-2.269-7.947,1.197-8.946C104.334,239.286,109.417,241.669,112.222,245.609z"/>
					<path fill="#546F7E" d="M303.31,190.431c3.806,5.348,10.704,8.582,15.41,7.225c4.703-1.358,5.433-6.796,1.624-12.145
						c-3.807-5.348-10.705-8.583-15.41-7.226C300.229,179.643,299.501,185.081,303.31,190.431z"/>
					<path fill="#E3EAEE" d="M305.552,189.783c2.802,3.939,7.887,6.322,11.352,5.322c3.466-1.002,4.001-5.007,1.196-8.946
						c-2.804-3.941-7.886-6.324-11.352-5.323C303.284,181.837,302.747,185.842,305.552,189.783z"/>
					<path fill="#546F7E" d="M283.119,127.115c4.989,7.01,2.408,14.604-5.764,16.965c-8.174,2.36-18.844-1.409-23.831-8.418
						c-4.991-7.009-2.408-14.604,5.764-16.966C267.461,116.337,278.131,120.106,283.119,127.115z"/>
					<path fill="#E3EAEE" d="M279.223,128.239c3.675,5.165,1.774,10.761-4.245,12.498c-6.022,1.74-13.884-1.037-17.557-6.201
						c-3.677-5.164-1.774-10.76,4.246-12.498C267.688,120.3,275.549,123.077,279.223,128.239z"/>
					<g>
						<g>
							<polygon fill="#546F7E" points="115.294,195.368 116.84,193.562 119.875,194.729 122.194,193.517 124.815,195.289 
								127.683,194.788 129.631,196.991 132.765,197.25 133.852,199.668 136.946,200.664 137.062,203.058 139.812,204.692 
								138.951,206.832 141.087,208.944 139.331,210.616 140.648,213.005 138.165,214.047 138.532,216.47 135.57,216.78 
								134.951,219.006 131.796,218.554 130.25,220.362 127.215,219.192 124.896,220.409 122.274,218.635 119.408,219.137 
								117.459,216.934 114.324,216.675 113.24,214.257 110.146,213.261 110.028,210.866 107.277,209.231 108.14,207.091 
								106.001,204.979 107.76,203.307 106.443,200.921 108.925,199.878 108.559,197.453 111.521,197.142 112.14,194.917 							"/>
							<path fill="#546F7E" d="M135.243,219.316l-3.235-0.463l-1.585,1.854l-3.114-1.198l-2.379,1.245l-2.687-1.819l-2.941,0.516
								l-1.999-2.263l-3.214-0.266l-1.113-2.479l-3.174-1.022l-0.12-2.456l-2.822-1.678l0.885-2.192l-2.193-2.167l1.804-1.716
								l-1.351-2.447l2.546-1.07l-0.376-2.488l3.039-0.318l0.638-2.282l3.233,0.462l1.586-1.853l3.113,1.2l2.38-1.245l2.687,1.817
								l2.942-0.516l1.998,2.26l3.215,0.267l1.113,2.48l3.174,1.021l0.12,2.456l2.822,1.677l-0.886,2.194l2.195,2.166l-1.805,1.716
								l1.351,2.447l-2.545,1.071l0.376,2.486l-3.04,0.32L135.243,219.316z M131.583,218.257l3.073,0.438l0.604-2.165l2.886-0.303
								l-0.358-2.362l2.42-1.017l-1.284-2.323l1.713-1.63l-2.083-2.059l0.84-2.083l-2.681-1.594l-0.113-2.334l-3.015-0.97
								l-1.057-2.354l-3.055-0.254l-1.898-2.146l-2.793,0.489l-2.553-1.727l-2.261,1.182l-2.957-1.138l-1.505,1.761l-3.072-0.438
								l-0.604,2.166l-2.886,0.303l0.358,2.362l-2.419,1.016l1.284,2.323l-1.714,1.632l2.084,2.059l-0.841,2.083l2.68,1.592
								l0.114,2.335l3.016,0.971l1.058,2.353l3.054,0.255l1.897,2.146l2.794-0.489l2.553,1.729l2.261-1.183l2.957,1.137
								L131.583,218.257z"/>
						</g>
						<g>
							<path fill="#E3EAEE" d="M135.559,203.492c4.049,5.69,1.955,11.857-4.681,13.772c-6.634,1.915-15.296-1.146-19.346-6.834
								c-4.049-5.688-1.954-11.856,4.681-13.771C122.847,194.744,131.508,197.805,135.559,203.492z"/>
							<path fill="#546F7E" d="M131.063,217.523c-6.792,1.963-15.689-1.181-19.834-7.004c-4.146-5.827-1.993-12.159,4.798-14.12
								c6.79-1.961,15.688,1.181,19.833,7.007C140.007,209.229,137.854,215.563,131.063,217.523z M116.398,196.919
								c-6.458,1.864-8.504,7.886-4.562,13.426c3.941,5.536,12.4,8.525,18.857,6.66c6.457-1.864,8.504-7.886,4.562-13.426
								C131.314,198.043,122.854,195.055,116.398,196.919z"/>
						</g>
						<g>
							<path fill="#546F7E" d="M128.719,214.232c-4.674,1.35-10.797-0.814-13.65-4.822c-2.854-4.008-1.372-8.368,3.302-9.719
								c4.674-1.35,10.798,0.814,13.651,4.823C134.874,208.523,133.395,212.883,128.719,214.232z M119.111,200.732
								c-4.005,1.157-5.275,4.892-2.83,8.327c2.444,3.435,7.692,5.288,11.698,4.133c4.005-1.158,5.274-4.893,2.83-8.327
								C128.364,201.429,123.116,199.575,119.111,200.732z"/>
						</g>
						<g>
							<path fill="#546F7E" d="M129.545,215.393c-5.42,1.566-12.522-0.943-15.832-5.593c-3.309-4.647-1.59-9.704,3.83-11.27
								c5.421-1.564,12.522,0.945,15.831,5.594C136.685,208.772,134.966,213.828,129.545,215.393z M117.914,199.051
								c-5.086,1.468-6.698,6.213-3.593,10.574c3.105,4.363,9.769,6.716,14.855,5.248c5.087-1.469,6.698-6.213,3.593-10.574
								C129.665,199.936,123,197.581,117.914,199.051z"/>
						</g>
					</g>
					<g>
						<g>
							<polygon fill="#546F7E" points="246.602,157.451 248.147,155.643 251.182,156.813 253.503,155.598 256.123,157.372 
								258.989,156.869 260.938,159.073 264.072,159.334 265.156,161.75 268.253,162.746 268.369,165.142 271.121,166.775 
								270.257,168.914 272.396,171.029 270.64,172.701 271.954,175.086 269.473,176.129 269.84,178.553 266.877,178.863 
								266.258,181.088 263.103,180.638 261.557,182.447 258.523,181.278 256.203,182.491 253.584,180.718 250.714,181.221 
								248.766,179.017 245.632,178.756 244.547,176.339 241.452,175.344 241.335,172.948 238.583,171.314 239.447,169.173 
								237.309,167.062 239.065,165.389 237.749,163.002 240.233,161.96 239.865,159.537 242.828,159.226 243.448,157.001 							
								"/>
							<path fill="#546F7E" d="M266.55,181.399l-3.236-0.463l-1.584,1.854l-3.112-1.199l-2.38,1.245l-2.687-1.818l-2.942,0.515
								l-2-2.26l-3.215-0.266l-1.113-2.48l-3.171-1.021l-0.123-2.457l-2.82-1.678l0.883-2.193l-2.192-2.167l1.803-1.716
								l-1.349-2.447l2.544-1.07l-0.375-2.487l3.039-0.318l0.636-2.281l3.233,0.46l1.587-1.853l3.112,1.2l2.38-1.246l2.688,1.819
								l2.941-0.515l1.998,2.259l3.215,0.267l1.113,2.479l3.174,1.022l0.12,2.457l2.822,1.676l-0.886,2.194l2.194,2.167
								l-1.803,1.716l1.351,2.447l-2.546,1.07l0.376,2.486l-3.04,0.32L266.55,181.399z M262.891,180.338l3.072,0.44l0.604-2.167
								l2.887-0.302l-0.359-2.362l2.419-1.016l-1.283-2.324l1.715-1.629l-2.085-2.059l0.842-2.084l-2.68-1.591l-0.115-2.335
								l-3.017-0.969l-1.057-2.354l-3.052-0.253l-1.899-2.147l-2.794,0.489l-2.553-1.728l-2.26,1.183l-2.959-1.138l-1.504,1.761
								l-3.073-0.439l-0.604,2.168l-2.886,0.303l0.356,2.363l-2.418,1.014l1.283,2.324l-1.714,1.63l2.085,2.059l-0.843,2.083
								l2.682,1.593l0.113,2.334l3.018,0.971l1.056,2.355l3.054,0.253l1.898,2.146l2.794-0.489l2.552,1.728l2.261-1.183l2.956,1.139
								L262.891,180.338z"/>
						</g>
						<g>
							<path fill="#E3EAEE" d="M266.866,165.576c4.048,5.689,1.953,11.856-4.681,13.771c-6.635,1.916-15.296-1.146-19.346-6.833
								c-4.05-5.689-1.954-11.856,4.681-13.772C254.153,156.827,262.816,159.886,266.866,165.576z"/>
							<path fill="#546F7E" d="M262.37,179.606c-6.792,1.963-15.688-1.181-19.835-7.005c-4.144-5.824-1.993-12.157,4.8-14.118
								c6.791-1.961,15.688,1.181,19.833,7.005C271.313,171.312,269.161,177.646,262.37,179.606z M247.705,159.003
								c-6.456,1.865-8.503,7.886-4.562,13.423c3.94,5.538,12.401,8.526,18.857,6.662s8.503-7.886,4.561-13.424
								C262.621,160.126,254.161,157.138,247.705,159.003z"/>
						</g>
						<g>
							<path fill="#546F7E" d="M260.026,176.314c-4.675,1.351-10.799-0.813-13.651-4.821c-2.854-4.009-1.371-8.369,3.302-9.719
								c4.674-1.349,10.8,0.815,13.652,4.823C266.182,170.605,264.7,174.965,260.026,176.314z M250.418,162.815
								c-4.005,1.156-5.273,4.893-2.829,8.327c2.443,3.436,7.693,5.289,11.698,4.133c4.004-1.157,5.273-4.893,2.83-8.327
								C259.672,163.512,254.423,161.659,250.418,162.815z"/>
						</g>
						<g>
							<path fill="#546F7E" d="M260.854,177.476c-5.422,1.565-12.523-0.942-15.832-5.592c-3.31-4.65-1.592-9.705,3.829-11.27
								c5.422-1.565,12.521,0.943,15.831,5.593C267.991,170.856,266.274,175.91,260.854,177.476z M249.22,161.133
								c-5.083,1.469-6.696,6.213-3.594,10.575c3.105,4.362,9.77,6.717,14.856,5.248c5.087-1.468,6.699-6.213,3.594-10.575
								C260.972,162.019,254.308,159.665,249.22,161.133z"/>
						</g>
					</g>
					<path fill="#455D6A" d="M211.217,220.972c8.674-2.506,13.784-8.582,15.008-16.328l-4.385-4.618
						c-0.637-0.671-1.94-1.221-2.898-1.227l-8.233-0.038c-0.957-0.005-2.237-0.54-2.842-1.186c-0.604-0.649-1.79-1.214-2.636-1.257
						c-0.846-0.044-2.052-0.63-2.683-1.304l-1.008-1.083c-0.632-0.674-0.492-1.462,0.307-1.755c0,0,0.915-0.332,2.007-1.245
						c1.094-0.913-1.387-5.027-1.387-5.027c-0.443-0.734-0.485-1.835-0.096-2.447l0.806-1.261c0.392-0.61,0.631-1.39,0.53-1.732
						c-0.1-0.341-0.24-1.233-0.318-1.983l-0.042-0.412c-0.073-0.75-0.343-1.654-0.596-2.007c-0.251-0.356-1.146-1.077-1.984-1.601
						l-9.525-5.965c-0.84-0.525-2.306-1.231-3.258-1.566l-10.039-3.547c-0.953-0.337-2.473-0.506-3.377-0.376l-6.99,1.002
						c-0.904,0.13-1.949,0.743-2.326,1.361l-0.721,1.192c-0.375,0.618-1.076,1.339-1.56,1.602c-0.483,0.264-1.078,1.03-1.321,1.703
						l-1.402,3.889c-0.242,0.674-0.162,1.784,0.181,2.466c0.342,0.682,0.46,1.455,0.263,1.717c-0.196,0.263,0.06,1.063,0.57,1.779
						c0.509,0.716,0.809,1.879,0.666,2.585l-0.64,3.149c-0.144,0.706,0.516,1.566,1.466,1.914l4.317,1.576
						c0.951,0.349,2.527,0.717,3.503,0.822l0.222,0.024c0.977,0.104,2.284,0.745,2.902,1.424l0.124,0.135
						c0.62,0.679,1.887,1.173,2.818,1.1l0.453-0.035c3.319,7.111-2.247,14.747-2.247,14.747c-0.432,0.59-1.143,1.551-1.582,2.137
						l-1.266,1.688c-0.124,0.164-0.178,0.355-0.186,0.555C184.298,220.316,199.474,224.362,211.217,220.972z"/>
					<path fill="#E3EAEE" d="M165.71,157.034c16.11-4.652,39.215,5.611,51.504,22.879c12.291,17.267,9.183,35.101-6.927,39.752
						c-16.109,4.653-39.214-5.611-51.504-22.879C146.495,179.52,149.603,161.686,165.71,157.034 M164.782,155.729
						c-16.973,4.901-20.342,23.481-7.519,41.497c12.822,18.017,36.979,28.646,53.955,23.746c16.975-4.903,20.341-23.482,7.52-41.499
						C205.914,161.458,181.757,150.826,164.782,155.729L164.782,155.729z"/>
				</g>
				<polygon opacity="0.2" fill="#546F7E" enable-background="new    " points="55.609,174.864 108.592,249.308 328.461,185.816 
					275.478,111.374 				"/>
				<g>
					<polygon fill="#546F7E" points="345.568,175.504 109.547,243.659 48.483,157.862 284.503,89.708 					"/>
					<polygon fill="#E3EAEE" points="326.92,173.149 119.053,233.173 67.13,160.219 274.997,100.195 					"/>
					<polygon fill="#455D6A" points="284.202,178.345 258.742,185.695 252.56,177.007 278.019,169.655 					"/>
					<polygon fill="#455D6A" points="153.343,216.132 178.802,208.78 172.616,200.092 147.158,207.443 					"/>
					<polygon fill="#546F7E" points="270.526,179.666 163.915,210.451 157.73,201.763 264.342,170.977 					"/>
					<g>
						<path fill="#546F7E" d="M224.27,204.964c-20.09,5.801-48.655-6.651-63.678-27.761c-15.023-21.106-10.901-42.999,9.188-48.799
							c20.09-5.8,48.656,6.65,63.68,27.759C248.482,177.27,244.359,199.163,224.27,204.964z"/>
						<path fill="#E3EAEE" d="M170.941,130.036c19.072-5.508,46.208,6.437,60.616,26.676c14.402,20.24,10.622,41.113-8.449,46.622
							c-19.07,5.507-46.209-6.438-60.615-26.679C148.088,156.416,151.871,135.542,170.941,130.036 M168.62,126.774
							c-10.395,3-17.098,10.05-18.874,19.851c-1.728,9.54,1.448,20.595,8.944,31.128c7.495,10.534,18.457,19.34,30.862,24.801
							c12.742,5.607,25.483,7.043,35.879,4.041c10.396-3.003,17.098-10.051,18.872-19.854c1.729-9.54-1.446-20.595-8.943-31.128
							s-18.456-19.34-30.864-24.799C191.757,125.206,179.015,123.771,168.62,126.774L168.62,126.774z"/>
					</g>
					<g>
						<path fill="#E3EAEE" d="M220.707,199.957c-17.369,5.017-42.122-5.83-55.18-24.178c-13.059-18.347-9.552-37.354,7.816-42.368
							c17.368-5.016,42.122,5.83,55.179,24.178C241.583,175.934,238.074,194.941,220.707,199.957z"/>
						<path fill="#455D6A" d="M173.808,134.062c16.975-4.902,41.132,5.73,53.955,23.745c12.823,18.016,9.454,36.595-7.521,41.498
							c-16.974,4.901-41.132-5.729-53.954-23.747C153.465,157.545,156.834,138.964,173.808,134.062 M172.88,132.758
							c-17.788,5.137-21.427,24.535-8.114,43.241c13.314,18.708,38.616,29.748,56.405,24.611
							c17.788-5.137,21.426-24.536,8.113-43.242C215.97,138.661,190.667,127.622,172.88,132.758L172.88,132.758z"/>
					</g>
					<path fill="#546F7E" d="M91.333,163.438c4.989,7.008,2.408,14.605-5.766,16.965c-8.172,2.359-18.841-1.409-23.83-8.419
						c-4.989-7.009-2.408-14.605,5.765-16.965C75.674,152.659,86.343,156.428,91.333,163.438z"/>
					<path fill="#E3EAEE" d="M87.436,164.563c3.675,5.164,1.773,10.759-4.248,12.497c-6.021,1.739-13.881-1.039-17.555-6.2
						c-3.676-5.165-1.774-10.76,4.246-12.499C75.9,156.622,83.761,159.399,87.436,164.563z"/>
					<path fill="#546F7E" d="M123.489,223.296c3.807,5.348,3.079,10.785-1.625,12.144c-4.705,1.359-11.603-1.877-15.409-7.225
						c-3.808-5.348-3.08-10.785,1.625-12.144C112.783,214.714,119.684,217.947,123.489,223.296z"/>
					<path fill="#E3EAEE" d="M121.248,223.943c2.803,3.94,2.268,7.946-1.198,8.946c-3.466,1.001-8.547-1.381-11.351-5.321
						c-2.806-3.94-2.269-7.946,1.196-8.946C113.359,217.619,118.442,220.003,121.248,223.943z"/>
					<path fill="#546F7E" d="M312.334,168.765c3.807,5.347,10.706,8.583,15.411,7.224c4.703-1.358,5.431-6.795,1.625-12.143
						c-3.807-5.35-10.706-8.584-15.411-7.225C309.255,157.978,308.526,163.415,312.334,168.765z"/>
					<path fill="#E3EAEE" d="M314.576,168.117c2.804,3.939,7.887,6.321,11.353,5.321c3.467-1.001,4.001-5.007,1.196-8.946
						c-2.803-3.94-7.887-6.323-11.351-5.323C312.309,160.17,311.772,164.177,314.576,168.117z"/>
					<path fill="#546F7E" d="M292.146,105.449c4.988,7.01,2.407,14.605-5.768,16.966c-8.174,2.36-18.841-1.408-23.831-8.418
						c-4.988-7.01-2.407-14.605,5.767-16.966C276.487,94.672,287.156,98.44,292.146,105.449z"/>
					<path fill="#E3EAEE" d="M288.248,106.574c3.676,5.165,1.774,10.759-4.245,12.498c-6.021,1.74-13.882-1.038-17.558-6.202
						c-3.674-5.164-1.773-10.759,4.247-12.497C276.714,98.635,284.573,101.411,288.248,106.574z"/>
					<g>
						<g>
							<polygon fill="#546F7E" points="124.319,173.702 125.866,171.896 128.9,173.064 131.22,171.849 133.841,173.623 
								136.708,173.122 138.657,175.324 141.791,175.584 142.877,178.001 145.971,178.998 146.088,181.392 148.837,183.027 
								147.976,185.167 150.113,187.279 148.356,188.951 149.673,191.338 147.191,192.381 147.558,194.804 144.595,195.115 
								143.976,197.341 140.822,196.888 139.276,198.696 136.241,197.526 133.921,198.742 131.3,196.97 128.433,197.472 
								126.485,195.268 123.35,195.008 122.265,192.591 119.171,191.596 119.053,189.201 116.302,187.565 117.165,185.426 
								115.026,183.312 116.786,181.641 115.468,179.255 117.951,178.212 117.583,175.787 120.546,175.477 121.165,173.252 							
								"/>
							<path fill="#546F7E" d="M144.268,197.651l-3.234-0.464l-1.585,1.854l-3.114-1.198l-2.379,1.245l-2.687-1.819l-2.941,0.516
								l-2-2.261l-3.214-0.268l-1.114-2.477l-3.174-1.023l-0.12-2.455l-2.822-1.677l0.885-2.194l-2.194-2.167l1.805-1.714
								l-1.351-2.448l2.546-1.069l-0.376-2.488l3.038-0.319l0.637-2.281l3.233,0.461l1.586-1.854l3.113,1.199l2.38-1.244
								l2.687,1.817l2.942-0.515l1.998,2.26l3.215,0.266l1.113,2.48l3.174,1.021l0.12,2.456l2.822,1.678l-0.884,2.194l2.193,2.166
								l-1.803,1.717l1.351,2.447l-2.546,1.071l0.377,2.485l-3.04,0.321L144.268,197.651z M140.609,196.59l3.072,0.438l0.605-2.165
								l2.885-0.303l-0.357-2.361l2.42-1.018l-1.285-2.322l1.713-1.631l-2.083-2.058l0.84-2.083l-2.681-1.593l-0.113-2.334
								l-3.016-0.971l-1.057-2.354l-3.054-0.253l-1.898-2.147l-2.793,0.49l-2.554-1.728l-2.261,1.183l-2.957-1.139l-1.505,1.761
								l-3.072-0.438l-0.604,2.166l-2.886,0.303l0.358,2.362l-2.42,1.016l1.284,2.323l-1.714,1.632l2.085,2.058l-0.841,2.083
								l2.681,1.592l0.113,2.336l3.016,0.97l1.057,2.354l3.054,0.253l1.898,2.147l2.794-0.489l2.553,1.728l2.26-1.182l2.957,1.138
								L140.609,196.59z"/>
						</g>
						<g>
							<path fill="#E3EAEE" d="M144.584,181.826c4.049,5.69,1.954,11.857-4.681,13.773c-6.634,1.915-15.296-1.146-19.345-6.834
								c-4.05-5.689-1.955-11.856,4.68-13.772C131.872,173.078,140.534,176.138,144.584,181.826z"/>
							<path fill="#546F7E" d="M140.089,195.857c-6.792,1.962-15.69-1.181-19.834-7.005c-4.146-5.826-1.993-12.159,4.799-14.12
								c6.79-1.961,15.688,1.182,19.833,7.006S146.879,193.897,140.089,195.857z M125.423,175.253
								c-6.458,1.864-8.503,7.886-4.562,13.424c3.941,5.538,12.4,8.525,18.856,6.661c6.457-1.864,8.504-7.886,4.563-13.425
								C140.34,176.377,131.88,173.389,125.423,175.253z"/>
						</g>
						<g>
							<path fill="#546F7E" d="M137.744,192.566c-4.673,1.351-10.796-0.813-13.65-4.822c-2.854-4.008-1.372-8.369,3.302-9.719
								s10.798,0.814,13.651,4.823C143.899,186.857,142.419,191.217,137.744,192.566z M128.136,179.066
								c-4.005,1.156-5.275,4.892-2.83,8.327c2.444,3.436,7.692,5.29,11.698,4.133c4.005-1.157,5.274-4.894,2.83-8.327
								C137.39,179.763,132.142,177.91,128.136,179.066z"/>
						</g>
						<g>
							<path fill="#546F7E" d="M138.571,193.728c-5.421,1.565-12.522-0.944-15.831-5.595c-3.31-4.647-1.591-9.703,3.829-11.268
								c5.421-1.566,12.522,0.944,15.831,5.593C145.71,187.107,143.991,192.163,138.571,193.728z M126.94,177.384
								c-5.086,1.469-6.698,6.213-3.593,10.576c3.104,4.362,9.769,6.716,14.855,5.247c5.086-1.469,6.698-6.213,3.593-10.576
								C138.69,178.27,132.026,175.915,126.94,177.384z"/>
						</g>
					</g>
					<g>
						<g>
							<polygon fill="#546F7E" points="255.625,135.785 257.173,133.978 260.206,135.146 262.526,133.932 265.148,135.705 
								268.015,135.203 269.965,137.407 273.097,137.667 274.182,140.084 277.277,141.08 277.395,143.476 280.146,145.11 
								279.282,147.249 281.421,149.362 279.664,151.035 280.98,153.421 278.498,154.463 278.864,156.888 275.901,157.198 
								275.282,159.422 272.129,158.971 270.584,160.781 267.549,159.612 265.228,160.825 262.609,159.052 259.74,159.554 
								257.791,157.351 254.657,157.091 253.572,154.673 250.477,153.678 250.36,151.282 247.609,149.648 248.473,147.508 
								246.334,145.396 248.092,143.723 246.775,141.337 249.258,140.293 248.891,137.871 251.854,137.56 252.474,135.335 							
								"/>
							<path fill="#546F7E" d="M275.575,159.732l-3.234-0.461l-1.585,1.853l-3.113-1.198l-2.38,1.245l-2.688-1.819l-2.941,0.516
								l-2-2.261l-3.213-0.265l-1.112-2.48l-3.176-1.021l-0.12-2.458l-2.821-1.676l0.886-2.194l-2.193-2.167l1.801-1.717
								l-1.349-2.445l2.546-1.071l-0.376-2.487l3.037-0.318l0.636-2.282l3.234,0.462l1.586-1.853l3.113,1.199l2.38-1.246
								l2.688,1.819l2.939-0.515l1.999,2.259l3.215,0.267l1.114,2.48l3.174,1.022l0.12,2.456l2.82,1.676l-0.884,2.194l2.194,2.168
								l-1.804,1.715l1.351,2.447l-2.546,1.07l0.376,2.486l-3.038,0.32L275.575,159.732z M271.917,158.673l3.071,0.439l0.604-2.167
								l2.886-0.303l-0.356-2.36l2.417-1.016l-1.281-2.324l1.712-1.631l-2.083-2.058l0.841-2.084l-2.681-1.593l-0.114-2.333
								l-3.015-0.971l-1.059-2.354l-3.053-0.254l-1.898-2.146l-2.794,0.489l-2.552-1.728l-2.262,1.182l-2.958-1.138l-1.505,1.761
								l-3.071-0.439l-0.605,2.167l-2.886,0.304l0.356,2.362l-2.419,1.015l1.285,2.325l-1.713,1.629l2.084,2.06l-0.842,2.083
								l2.681,1.593l0.113,2.334l3.016,0.97l1.058,2.354l3.053,0.254l1.897,2.146l2.795-0.489l2.553,1.728l2.26-1.184l2.959,1.139
								L271.917,158.673z"/>
						</g>
						<g>
							<path fill="#E3EAEE" d="M275.892,143.91c4.049,5.69,1.954,11.855-4.681,13.771s-15.297-1.145-19.346-6.833
								c-4.049-5.69-1.955-11.856,4.682-13.772C263.18,135.161,271.842,138.221,275.892,143.91z"/>
							<path fill="#546F7E" d="M271.396,157.941c-6.792,1.961-15.688-1.182-19.836-7.006c-4.145-5.824-1.993-12.158,4.799-14.118
								c6.794-1.961,15.688,1.181,19.835,7.005C280.338,149.646,278.188,155.981,271.396,157.941z M256.73,137.337
								c-6.458,1.864-8.504,7.885-4.562,13.423c3.941,5.539,12.4,8.526,18.859,6.662c6.455-1.865,8.503-7.885,4.562-13.424
								C271.647,138.46,263.188,135.473,256.73,137.337z"/>
						</g>
						<g>
							<path fill="#546F7E" d="M269.052,154.648c-4.674,1.35-10.798-0.813-13.65-4.821c-2.854-4.009-1.372-8.369,3.301-9.719
								c4.674-1.349,10.799,0.815,13.652,4.823C275.208,148.94,273.728,153.299,269.052,154.648z M259.443,141.149
								c-4.004,1.157-5.274,4.893-2.829,8.328c2.445,3.435,7.693,5.288,11.698,4.131c4.005-1.156,5.275-4.892,2.829-8.327
								C268.696,141.846,263.449,139.992,259.443,141.149z"/>
						</g>
						<g>
							<path fill="#546F7E" d="M269.878,155.81c-5.421,1.565-12.522-0.942-15.83-5.592c-3.31-4.65-1.592-9.704,3.829-11.271
								c5.423-1.563,12.522,0.944,15.831,5.594C277.018,149.189,275.3,154.244,269.878,155.81z M258.246,139.468
								c-5.085,1.469-6.697,6.212-3.593,10.574c3.104,4.361,9.768,6.716,14.854,5.248c5.087-1.469,6.698-6.213,3.593-10.575
								C269.998,140.353,263.333,137.999,258.246,139.468z"/>
						</g>
					</g>
					<path fill="#455D6A" d="M220.242,199.307c8.672-2.507,13.783-8.583,15.007-16.33l-4.382-4.617
						c-0.639-0.671-1.941-1.222-2.9-1.228l-8.234-0.038c-0.958-0.004-2.236-0.54-2.841-1.185c-0.603-0.649-1.789-1.213-2.636-1.257
						c-0.846-0.044-2.053-0.63-2.683-1.304l-1.009-1.083c-0.629-0.674-0.49-1.463,0.31-1.755c0,0,0.912-0.333,2.005-1.246
						c1.094-0.912-1.387-5.026-1.387-5.026c-0.443-0.734-0.484-1.834-0.097-2.446l0.808-1.261c0.391-0.611,0.63-1.391,0.53-1.732
						c-0.099-0.341-0.242-1.233-0.317-1.983l-0.043-0.412c-0.074-0.75-0.344-1.655-0.597-2.008
						c-0.252-0.356-1.146-1.076-1.984-1.602l-9.525-5.964c-0.84-0.525-2.306-1.231-3.257-1.567l-10.04-3.546
						c-0.953-0.337-2.472-0.507-3.377-0.376l-6.99,1c-0.904,0.129-1.949,0.744-2.326,1.361l-0.72,1.191
						c-0.375,0.62-1.076,1.339-1.561,1.603c-0.482,0.264-1.078,1.031-1.321,1.703l-1.402,3.89c-0.243,0.674-0.162,1.783,0.181,2.465
						c0.341,0.683,0.46,1.455,0.264,1.718c-0.197,0.264,0.059,1.064,0.568,1.78c0.51,0.716,0.81,1.879,0.667,2.585l-0.64,3.147
						c-0.144,0.707,0.517,1.566,1.466,1.914l4.317,1.576c0.951,0.348,2.527,0.716,3.503,0.822l0.222,0.024
						c0.977,0.103,2.283,0.744,2.902,1.423l0.124,0.136c0.619,0.677,1.886,1.173,2.817,1.099l0.453-0.035
						c3.32,7.111-2.248,14.748-2.248,14.748c-0.432,0.59-1.143,1.551-1.582,2.136l-1.265,1.688
						c-0.125,0.165-0.179,0.355-0.187,0.555C193.322,198.651,208.5,202.697,220.242,199.307z"/>
					<path fill="#E3EAEE" d="M174.737,135.367c16.11-4.652,39.214,5.611,51.503,22.878c12.29,17.269,9.184,35.103-6.927,39.753
						c-16.108,4.653-39.213-5.611-51.503-22.879C155.52,157.853,158.627,140.019,174.737,135.367 M173.808,134.062
						c-16.974,4.902-20.342,23.482-7.519,41.497c12.821,18.017,36.98,28.649,53.954,23.748c16.975-4.903,20.344-23.483,7.521-41.499
						S190.782,129.161,173.808,134.062L173.808,134.062z"/>
				</g>
			</g>
		</g>
	</g>
</g>
</svg>
