<?xml version="1.0" encoding="utf-8"?>
<!-- Generator: Adobe Illustrator 16.0.0, SVG Export Plug-In . SVG Version: 6.00 Build 0)  -->
<!DOCTYPE svg PUBLIC "-//W3C//DTD SVG 1.1//EN" "http://www.w3.org/Graphics/SVG/1.1/DTD/svg11.dtd">
<svg version="1.1" xmlns="http://www.w3.org/2000/svg" xmlns:xlink="http://www.w3.org/1999/xlink" x="0px" y="0px" width="36px"
	 height="36px" viewBox="0 0 36 36" enable-background="new 0 0 36 36" xml:space="preserve">
<g id="Layer_1">
	<g>
		<g>
			<path fill="#E90D8B" d="M18.001,34.902C8.681,34.902,1.098,27.32,1.098,18c0-9.32,7.583-16.902,16.903-16.902
				C27.32,1.098,34.902,8.68,34.902,18C34.902,27.32,27.32,34.902,18.001,34.902z M18.001,1.598C8.956,1.598,1.598,8.956,1.598,18
				c0,9.044,7.358,16.402,16.403,16.402c9.044,0,16.401-7.358,16.401-16.402C34.402,8.956,27.045,1.598,18.001,1.598z"/>
		</g>
	</g>
</g>
<g id="Layer_2">
	<g>
		<g>
			<g>
				<polygon fill="#FFFFFF" points="27.793,25.699 18.155,31.265 18.155,28.173 27.793,22.607 				"/>
				<path fill="#EC008C" d="M18.155,31.368c-0.019,0-0.036-0.005-0.052-0.015c-0.032-0.019-0.052-0.052-0.052-0.089v-3.092
					c0-0.037,0.02-0.07,0.052-0.09l9.639-5.564c0.032-0.019,0.071-0.019,0.103,0c0.032,0.019,0.053,0.053,0.053,0.089v3.092
					c0,0.037-0.021,0.071-0.053,0.09l-9.639,5.564C18.19,31.363,18.172,31.368,18.155,31.368z M18.258,28.232v2.854l9.432-5.446
					v-2.854L18.258,28.232z"/>
			</g>
			<g>
				<polygon fill="#EC008C" points="27.793,22.607 18.155,28.173 8.516,22.607 18.155,17.043 				"/>
				<path fill="#EC008C" d="M18.155,28.275c-0.019,0-0.036-0.004-0.052-0.014l-9.639-5.564c-0.032-0.018-0.051-0.052-0.051-0.09
					c0-0.036,0.019-0.07,0.051-0.089l9.639-5.564c0.032-0.019,0.071-0.019,0.103,0l9.639,5.564c0.032,0.019,0.053,0.053,0.053,0.089
					c0,0.038-0.021,0.072-0.053,0.09l-9.639,5.564C18.19,28.271,18.172,28.275,18.155,28.275z M8.722,22.607l9.433,5.446
					l9.433-5.446l-9.433-5.445L8.722,22.607z"/>
			</g>
			<g>
				<polygon fill="#FFFFFF" points="8.516,25.699 18.155,31.265 18.155,28.173 8.516,22.607 				"/>
				<path fill="#EC008C" d="M18.155,31.368c-0.019,0-0.036-0.005-0.052-0.015l-9.639-5.564c-0.032-0.019-0.051-0.053-0.051-0.09
					v-3.092c0-0.036,0.019-0.07,0.051-0.089c0.032-0.019,0.071-0.019,0.103,0l9.639,5.564c0.032,0.02,0.052,0.053,0.052,0.09v3.092
					c0,0.037-0.02,0.07-0.052,0.089C18.19,31.363,18.172,31.368,18.155,31.368z M8.619,25.64l9.433,5.446v-2.854l-9.433-5.446V25.64
					z"/>
			</g>
		</g>
		<g>
			<g>
				<polygon fill="#FFFFFF" points="27.793,20.221 18.155,25.785 18.155,22.693 27.793,17.129 				"/>
				<path fill="#EC008C" d="M18.155,25.89c-0.019,0-0.036-0.006-0.052-0.016c-0.032-0.018-0.052-0.052-0.052-0.089v-3.092
					c0-0.036,0.02-0.07,0.052-0.088l9.639-5.566c0.032-0.018,0.071-0.018,0.103,0c0.032,0.019,0.053,0.053,0.053,0.089v3.092
					c0,0.037-0.021,0.071-0.053,0.089l-9.639,5.564C18.19,25.884,18.172,25.89,18.155,25.89z M18.258,22.753v2.854l9.432-5.446
					v-2.854L18.258,22.753z"/>
			</g>
			<g>
				<polygon fill="#EC008C" points="27.793,17.129 18.155,22.693 8.516,17.129 18.155,11.564 				"/>
				<path fill="#EC008C" d="M18.155,22.797c-0.019,0-0.036-0.004-0.052-0.014l-9.639-5.564c-0.032-0.019-0.051-0.053-0.051-0.09
					c0-0.037,0.019-0.071,0.051-0.089l9.639-5.565c0.032-0.018,0.071-0.018,0.103,0l9.639,5.565
					c0.032,0.019,0.053,0.053,0.053,0.089c0,0.037-0.021,0.071-0.053,0.09l-9.639,5.564C18.19,22.793,18.172,22.797,18.155,22.797z
					 M8.722,17.129l9.433,5.446l9.433-5.446l-9.433-5.446L8.722,17.129z"/>
			</g>
			<g>
				<polygon fill="#FFFFFF" points="8.516,20.221 18.155,25.785 18.155,22.693 8.516,17.129 				"/>
				<path fill="#EC008C" d="M18.155,25.89c-0.019,0-0.036-0.006-0.052-0.016L8.464,20.31c-0.032-0.018-0.051-0.052-0.051-0.089
					v-3.092c0-0.037,0.019-0.071,0.051-0.089c0.032-0.018,0.071-0.018,0.103,0l9.639,5.566c0.032,0.018,0.052,0.052,0.052,0.088
					v3.092c0,0.037-0.02,0.071-0.052,0.089C18.19,25.884,18.172,25.89,18.155,25.89z M8.619,20.161l9.433,5.446v-2.854l-9.433-5.445
					V20.161z"/>
			</g>
		</g>
		<g>
			<g>
				<polygon fill="#FFFFFF" points="27.793,14.513 18.155,20.078 18.155,16.987 27.793,11.421 				"/>
				<path fill="#EC008C" d="M18.155,20.181c-0.019,0-0.036-0.004-0.052-0.013c-0.032-0.019-0.052-0.053-0.052-0.09v-3.091
					c0-0.037,0.02-0.072,0.052-0.09l9.639-5.564c0.032-0.019,0.071-0.019,0.103,0c0.032,0.018,0.053,0.052,0.053,0.088v3.092
					c0,0.036-0.021,0.071-0.053,0.089l-9.639,5.565C18.19,20.177,18.172,20.181,18.155,20.181z M18.258,17.046v2.853l9.432-5.446
					V11.6L18.258,17.046z"/>
			</g>
			<g>
				<polygon fill="#EC008C" points="27.793,11.421 18.155,16.987 8.516,11.421 18.155,5.856 				"/>
				<path fill="#EC008C" d="M18.155,17.089c-0.019,0-0.036-0.004-0.052-0.014l-9.639-5.564c-0.032-0.019-0.051-0.053-0.051-0.09
					c0-0.036,0.019-0.07,0.051-0.088l9.639-5.565c0.032-0.018,0.071-0.018,0.103,0l9.639,5.565c0.032,0.018,0.053,0.052,0.053,0.088
					c0,0.037-0.021,0.071-0.053,0.09l-9.639,5.564C18.19,17.085,18.172,17.089,18.155,17.089z M8.722,11.421l9.433,5.446
					l9.433-5.446l-9.433-5.445L8.722,11.421z"/>
			</g>
			<g>
				<polygon fill="#FFFFFF" points="8.516,14.513 18.155,20.078 18.155,16.987 8.516,11.421 				"/>
				<path fill="#EC008C" d="M18.155,20.181c-0.019,0-0.036-0.004-0.052-0.013l-9.639-5.565c-0.032-0.019-0.051-0.053-0.051-0.089
					v-3.092c0-0.036,0.019-0.07,0.051-0.088c0.032-0.019,0.071-0.019,0.103,0l9.639,5.564c0.032,0.018,0.052,0.053,0.052,0.09v3.091
					c0,0.037-0.02,0.071-0.052,0.09C18.19,20.177,18.172,20.181,18.155,20.181z M8.619,14.454l9.433,5.446v-2.853L8.619,11.6V14.454
					z"/>
			</g>
		</g>
	</g>
</g>
</svg>
