<?xml version="1.0" encoding="utf-8"?>
<!-- Generator: Adobe Illustrator 16.0.0, SVG Export Plug-In . SVG Version: 6.00 Build 0)  -->
<!DOCTYPE svg PUBLIC "-//W3C//DTD SVG 1.1//EN" "http://www.w3.org/Graphics/SVG/1.1/DTD/svg11.dtd">
<svg version="1.1" xmlns="http://www.w3.org/2000/svg" xmlns:xlink="http://www.w3.org/1999/xlink" x="0px" y="0px" width="36px"
	 height="36px" viewBox="0 0 36 36" enable-background="new 0 0 36 36" xml:space="preserve">
<g id="Layer_1">
	<g>
		<g>
			<path fill="#E90D8B" d="M18.001,34.902C8.681,34.902,1.098,27.32,1.098,18c0-9.32,7.583-16.902,16.903-16.902
				C27.32,1.098,34.902,8.68,34.902,18C34.902,27.32,27.32,34.902,18.001,34.902z M18.001,1.598C8.956,1.598,1.598,8.956,1.598,18
				c0,9.044,7.358,16.402,16.403,16.402c9.044,0,16.401-7.358,16.401-16.402C34.402,8.956,27.045,1.598,18.001,1.598z"/>
		</g>
	</g>
</g>
<g id="Layer_10">
	<g>
		<path fill="#EC008C" stroke="#EC008C" stroke-miterlimit="10" d="M18.294,8.323L9.626,27.765h2.993l1.71-4.014h7.86l1.686,4.014
			h3.087L18.294,8.323z M15.397,21.163l2.85-6.649l2.873,6.649H15.397z"/>
		<path fill="#FFFFFF" stroke="#EC008C" stroke-miterlimit="10" d="M17.416,7.444L8.748,26.886h2.992l1.71-4.014h7.86l1.686,4.014
			h3.087L17.416,7.444z M14.519,20.283l2.85-6.648l2.873,6.648H14.519z"/>
	</g>
</g>
</svg>
