<?xml version="1.0" encoding="utf-8"?>
<!-- Generator: Adobe Illustrator 16.0.0, SVG Export Plug-In . SVG Version: 6.00 Build 0)  -->
<!DOCTYPE svg PUBLIC "-//W3C//DTD SVG 1.1//EN" "http://www.w3.org/Graphics/SVG/1.1/DTD/svg11.dtd">
<svg version="1.1" xmlns="http://www.w3.org/2000/svg" xmlns:xlink="http://www.w3.org/1999/xlink" x="0px" y="0px" width="36px"
	 height="36px" viewBox="0 0 36 36" enable-background="new 0 0 36 36" xml:space="preserve">
<g id="Layer_1">
	<g>
		<g>
			<path fill="#E90D8B" d="M18.001,34.902C8.681,34.902,1.098,27.32,1.098,18c0-9.32,7.583-16.902,16.903-16.902
				C27.32,1.098,34.902,8.68,34.902,18C34.902,27.32,27.32,34.902,18.001,34.902z M18.001,1.598C8.956,1.598,1.598,8.956,1.598,18
				c0,9.044,7.358,16.402,16.403,16.402c9.044,0,16.401-7.358,16.401-16.402C34.402,8.956,27.045,1.598,18.001,1.598z"/>
		</g>
	</g>
</g>
<g id="Layer_4">
	<g>
		<g>
			<polygon fill="#EC008C" points="31.902,19.687 19,27.136 19,22.997 31.902,15.548 			"/>
			<path fill="#FFFFFF" d="M19,27.484c-0.06,0-0.121-0.016-0.174-0.047c-0.107-0.062-0.174-0.177-0.174-0.302v-4.139
				c0-0.124,0.066-0.239,0.174-0.301l12.903-7.45c0.107-0.062,0.24-0.062,0.348,0s0.174,0.177,0.174,0.301v4.139
				c0,0.125-0.066,0.239-0.174,0.302l-12.902,7.449C19.12,27.469,19.06,27.484,19,27.484z M19.348,23.198v3.335l12.206-7.048v-3.334
				L19.348,23.198z"/>
		</g>
		<g>
			<polygon fill="#EC008C" points="31.902,15.548 19,22.997 6.097,15.548 19,8.098 			"/>
			<path fill="#FFFFFF" d="M19,23.346c-0.06,0-0.121-0.016-0.174-0.047L5.922,15.85c-0.107-0.062-0.174-0.177-0.174-0.302
				c0-0.124,0.066-0.239,0.174-0.301l12.903-7.45c0.107-0.062,0.241-0.062,0.349,0l12.902,7.45c0.107,0.062,0.174,0.177,0.174,0.301
				c0,0.125-0.066,0.24-0.174,0.302l-12.902,7.449C19.12,23.33,19.06,23.346,19,23.346z M6.793,15.548L19,22.596l12.207-7.048
				L19,8.5L6.793,15.548z"/>
		</g>
		<g>
			<polygon fill="#EC008C" points="6.097,19.687 19,27.136 19,22.997 6.097,15.548 			"/>
			<path fill="#FFFFFF" d="M19,27.484c-0.06,0-0.121-0.016-0.174-0.047L5.922,19.988c-0.107-0.062-0.174-0.177-0.174-0.302v-4.139
				c0-0.124,0.066-0.239,0.174-0.301s0.241-0.062,0.348,0l12.903,7.45c0.107,0.062,0.174,0.177,0.174,0.301v4.139
				c0,0.125-0.066,0.239-0.174,0.302C19.12,27.469,19.06,27.484,19,27.484z M6.445,19.485l12.207,7.048v-3.335L6.445,16.151V19.485z
				"/>
		</g>
		<g>
			<polygon fill="#EC008C" points="27.688,15.052 19,20.069 19,17.282 27.688,12.265 			"/>
			<path fill="#FFFFFF" d="M19,20.418c-0.06,0-0.121-0.016-0.174-0.047c-0.107-0.062-0.174-0.177-0.174-0.302v-2.788
				c0-0.125,0.066-0.239,0.174-0.301l8.689-5.017c0.107-0.062,0.241-0.062,0.349,0s0.174,0.177,0.174,0.301v2.788
				c0,0.124-0.066,0.239-0.174,0.301l-8.689,5.018C19.12,20.402,19.06,20.418,19,20.418z M19.348,17.483v1.984l7.993-4.616v-1.983
				L19.348,17.483z"/>
		</g>
		<g>
			<polygon fill="#EC008C" points="27.688,12.265 19,17.282 10.31,12.265 19,7.248 			"/>
			<path fill="#FFFFFF" d="M19,17.63c-0.06,0-0.121-0.016-0.174-0.047l-8.689-5.017c-0.108-0.062-0.174-0.177-0.174-0.302
				s0.066-0.239,0.174-0.301l8.689-5.018c0.107-0.062,0.241-0.062,0.349,0l8.689,5.018c0.107,0.062,0.174,0.177,0.174,0.301
				s-0.066,0.239-0.174,0.302l-8.689,5.017C19.12,17.614,19.06,17.63,19,17.63z M11.006,12.265L19,16.88l7.993-4.615L19,7.649
				L11.006,12.265z"/>
		</g>
		<g>
			<polygon fill="#EC008C" points="10.31,15.052 19,20.069 19,17.282 10.31,12.265 			"/>
			<path fill="#FFFFFF" d="M19,20.418c-0.06,0-0.121-0.016-0.174-0.047l-8.689-5.018c-0.108-0.062-0.174-0.177-0.174-0.301v-2.788
				c0-0.125,0.066-0.239,0.174-0.301c0.107-0.062,0.241-0.062,0.348,0l8.69,5.017c0.107,0.062,0.174,0.177,0.174,0.301v2.788
				c0,0.125-0.066,0.239-0.174,0.302C19.12,20.402,19.06,20.418,19,20.418z M10.658,14.851l7.994,4.616v-1.984l-7.994-4.615V14.851z
				"/>
		</g>
		<g>
			<polygon fill="#EC008C" points="9.967,27.306 14.606,24.628 14.606,20.461 17.187,18.971 17.187,16.236 			"/>
			<path fill="#FFFFFF" d="M9.967,27.653c-0.093,0-0.185-0.037-0.253-0.108c-0.11-0.117-0.126-0.295-0.039-0.43l7.219-11.069
				c0.084-0.129,0.242-0.187,0.391-0.144c0.147,0.044,0.249,0.18,0.249,0.334v2.734c0,0.124-0.066,0.239-0.174,0.301l-2.407,1.391
				v3.966c0,0.124-0.066,0.239-0.174,0.301l-4.638,2.678C10.087,27.639,10.027,27.653,9.967,27.653z M14.258,21.364l-3.203,4.911
				l3.203-1.849V21.364z M16.839,17.407l-1.426,2.186l1.426-0.823V17.407z"/>
		</g>
		<g>
			<polygon fill="#EC008C" points="9.967,27.306 5.44,24.691 12.66,13.622 17.187,16.236 			"/>
			<path fill="#FFFFFF" d="M9.967,27.653c-0.06,0-0.119-0.015-0.174-0.047l-4.527-2.613c-0.083-0.048-0.143-0.128-0.165-0.221
				c-0.022-0.093-0.005-0.191,0.047-0.271l7.219-11.069c0.101-0.155,0.306-0.204,0.466-0.111l4.527,2.614
				c0.083,0.048,0.143,0.127,0.165,0.221c0.022,0.093,0.005,0.191-0.047,0.271l-7.219,11.069
				C10.192,27.598,10.081,27.653,9.967,27.653z M5.933,24.574l3.923,2.265l6.838-10.485l-3.923-2.265L5.933,24.574z"/>
		</g>
	</g>
</g>
</svg>
