<?xml version="1.0" encoding="utf-8"?>
<!-- Generator: Adobe Illustrator 16.0.0, SVG Export Plug-In . SVG Version: 6.00 Build 0)  -->
<!DOCTYPE svg PUBLIC "-//W3C//DTD SVG 1.1//EN" "http://www.w3.org/Graphics/SVG/1.1/DTD/svg11.dtd">
<svg version="1.1" xmlns="http://www.w3.org/2000/svg" xmlns:xlink="http://www.w3.org/1999/xlink" x="0px" y="0px" width="36px"
	 height="36px" viewBox="0 0 36 36" enable-background="new 0 0 36 36" xml:space="preserve">
<g id="Layer_1">
	<g>
		<g>
			<path fill="#E90D8B" d="M18.001,34.902C8.681,34.902,1.098,27.32,1.098,18c0-9.32,7.583-16.902,16.903-16.902
				C27.32,1.098,34.902,8.68,34.902,18C34.902,27.32,27.32,34.902,18.001,34.902z M18.001,1.598C8.956,1.598,1.598,8.956,1.598,18
				c0,9.044,7.358,16.402,16.403,16.402c9.044,0,16.401-7.358,16.401-16.402C34.402,8.956,27.045,1.598,18.001,1.598z"/>
		</g>
	</g>
</g>
<g id="Layer_9">
	<g>
		<g>
			<rect x="11.381" y="8.115" fill="#FFFFFF" width="13.58" height="20.891"/>
			<path fill="#EC008C" d="M25.104,29.149H11.238V7.972h13.866V29.149z M11.525,28.862h13.292V8.258H11.525V28.862z"/>
		</g>
		<g>
			<rect x="11.381" y="18.038" fill="#EC008C" width="13.58" height="10.968"/>
			<path fill="#EC008C" d="M25.104,29.149H11.238V17.895h13.866V29.149z M11.525,28.862h13.292v-10.68H11.525V28.862z"/>
		</g>
		<g>
			<g>
				<rect x="13.065" y="9.333" fill="#FFFFFF" width="2.379" height="4.236"/>
				<path fill="#EC008C" d="M15.515,13.642h-2.522V9.262h2.522V13.642z M13.137,13.498h2.236V9.405h-2.236V13.498z"/>
			</g>
			<g>
				<rect x="16.982" y="9.333" fill="#FFFFFF" width="2.379" height="4.236"/>
				<path fill="#EC008C" d="M19.433,13.642H16.91V9.262h2.523V13.642z M17.054,13.498h2.235V9.405h-2.235V13.498z"/>
			</g>
			<g>
				<rect x="20.898" y="9.333" fill="#FFFFFF" width="2.38" height="4.236"/>
				<path fill="#EC008C" d="M23.35,13.642h-2.522V9.262h2.522V13.642z M20.971,13.498h2.235V9.405h-2.235V13.498z"/>
			</g>
		</g>
		<g>
			<g>
				<rect x="13.065" y="15.92" fill="#FFFFFF" width="2.379" height="4.236"/>
				<path fill="#EC008C" d="M15.515,20.228h-2.522v-4.379h2.522V20.228z M13.137,20.085h2.236v-4.093h-2.236V20.085z"/>
			</g>
			<g>
				<rect x="16.982" y="15.92" fill="#FFFFFF" width="2.379" height="4.236"/>
				<path fill="#EC008C" d="M19.433,20.228H16.91v-4.379h2.523V20.228z M17.054,20.085h2.235v-4.093h-2.235V20.085z"/>
			</g>
			<g>
				<rect x="20.898" y="15.92" fill="#FFFFFF" width="2.38" height="4.236"/>
				<path fill="#EC008C" d="M23.35,20.228h-2.522v-4.379h2.522V20.228z M20.971,20.085h2.235v-4.093h-2.235V20.085z"/>
			</g>
		</g>
		<g>
			<g>
				<rect x="13.065" y="22.507" fill="#FFFFFF" width="2.379" height="4.236"/>
				<path fill="#EC008C" d="M15.515,26.814h-2.522v-4.38h2.522V26.814z M13.137,26.672h2.236v-4.094h-2.236V26.672z"/>
			</g>
			<g>
				<rect x="16.982" y="22.507" fill="#FFFFFF" width="2.379" height="4.236"/>
				<path fill="#EC008C" d="M19.433,26.814H16.91v-4.38h2.523V26.814z M17.054,26.672h2.235v-4.094h-2.235V26.672z"/>
			</g>
			<g>
				<rect x="20.898" y="22.507" fill="#FFFFFF" width="2.38" height="4.236"/>
				<path fill="#EC008C" d="M23.35,26.814h-2.522v-4.38h2.522V26.814z M20.971,26.672h2.235v-4.094h-2.235V26.672z"/>
			</g>
		</g>
	</g>
</g>
</svg>
