<?xml version="1.0" encoding="utf-8"?>
<!-- Generator: Adobe Illustrator 16.0.0, SVG Export Plug-In . SVG Version: 6.00 Build 0)  -->
<!DOCTYPE svg PUBLIC "-//W3C//DTD SVG 1.1//EN" "http://www.w3.org/Graphics/SVG/1.1/DTD/svg11.dtd">
<svg version="1.1" xmlns="http://www.w3.org/2000/svg" xmlns:xlink="http://www.w3.org/1999/xlink" x="0px" y="0px" width="36px"
	 height="36px" viewBox="0 0 36 36" enable-background="new 0 0 36 36" xml:space="preserve">
<g id="Layer_1">
	<g>
		<g>
			<path fill="#E90D8B" d="M18.001,34.902C8.681,34.902,1.098,27.32,1.098,18c0-9.32,7.583-16.902,16.903-16.902
				C27.32,1.098,34.902,8.68,34.902,18C34.902,27.32,27.32,34.902,18.001,34.902z M18.001,1.598C8.956,1.598,1.598,8.956,1.598,18
				c0,9.044,7.358,16.402,16.403,16.402c9.044,0,16.401-7.358,16.401-16.402C34.402,8.956,27.045,1.598,18.001,1.598z"/>
		</g>
	</g>
</g>
<g id="Layer_11">
	<g>
		<g>
			<g>
				<path fill="#FFFFFF" d="M29.913,18.335c-0.661-1.125-4.663-1.561-4.663-1.561s-0.104-4.375-0.104-5.004
					c0-0.63-1.698-1.349-2.399-1.503c-0.179-0.04-0.704,0.081-1.511,0.32l-0.05-0.041c0,0,0,0-0.475-0.112
					c-0.473-0.112-5.551,1.046-6.029,1.144c-0.781,0.159-1.691,0.622-1.865,0.999c-0.173,0.376-0.472,3.021-0.472,3.021
					s-1.735-0.801-4.342,0.352c-2.146,0.949-3.073,3.131-1.11,6.563c1.977,3.458,5.966,3.781,9.616,2.706
					c1.306-0.384,1.582-0.533,1.582-0.533l10.967-4.011C29.963,20.426,30.565,19.445,29.913,18.335z"/>
			</g>
		</g>
		<g>
			<g>
				<path fill="#FFFFFF" d="M12.345,15.598c0,0-1.735-0.801-4.342,0.352c-2.146,0.949-3.073,3.131-1.11,6.563
					c1.977,3.458,5.943,3.699,9.616,2.706c1.887-0.51,4.303-2.945,6.687-4.037c2.383-1.092,4.897-0.265,5.824-0.497
					c0.927-0.231,1.556-1.225,0.894-2.35c-0.661-1.125-4.663-1.561-4.663-1.561"/>
			</g>
			<g>
				<path fill="#E90D8B" d="M12.956,25.805c-3.618,0-5.35-1.91-6.121-3.259c-1.015-1.774-1.322-3.303-0.914-4.542
					c0.303-0.923,1.014-1.654,2.055-2.114c2.604-1.151,4.379-0.36,4.396-0.353l-0.055,0.12c-0.018-0.008-1.741-0.772-4.288,0.354
					c-1.006,0.444-1.692,1.147-1.983,2.034c-0.396,1.203-0.091,2.694,0.903,4.435c2.264,3.96,6.95,3.377,9.542,2.676
					c1.006-0.272,2.173-1.104,3.407-1.984c1.064-0.76,2.165-1.545,3.268-2.05c1.617-0.74,3.279-0.608,4.494-0.512
					c0.586,0.048,1.049,0.084,1.343,0.011c0.463-0.115,0.842-0.429,1.015-0.84c0.179-0.428,0.121-0.929-0.162-1.412
					c-0.638-1.084-4.574-1.523-4.614-1.527l0.015-0.132c0.165,0.018,4.043,0.452,4.713,1.593c0.307,0.519,0.366,1.062,0.171,1.53
					c-0.188,0.448-0.602,0.791-1.104,0.917c-0.315,0.078-0.788,0.041-1.386-0.007c-1.199-0.096-2.843-0.228-4.429,0.499
					c-1.091,0.501-2.187,1.282-3.245,2.037c-1.244,0.888-2.421,1.727-3.45,2.005C15.169,25.65,13.986,25.805,12.956,25.805z"/>
			</g>
		</g>
		<g>
			<g>
				<path fill="#FFFFFF" d="M13.222,16.268c0,0-2.14-1.364-5.042,0.063c-2.668,1.312-2.727,4.149-0.032,7.372"/>
			</g>
			<g>
				<path fill="#E90D8B" d="M13.188,16.303c0,0-0.012,0.004-0.034-0.01c-0.022-0.013-0.054-0.026-0.099-0.049
					c-0.088-0.047-0.223-0.106-0.398-0.175c-0.087-0.034-0.188-0.064-0.295-0.102c-0.11-0.027-0.226-0.068-0.355-0.094
					c-0.128-0.028-0.265-0.058-0.412-0.075c-0.145-0.026-0.3-0.035-0.461-0.047c-0.161-0.013-0.331-0.005-0.505-0.007
					c-0.087,0.007-0.176,0.014-0.266,0.021c-0.09,0.006-0.181,0.013-0.272,0.03c-0.183,0.03-0.373,0.055-0.561,0.107
					c-0.094,0.024-0.19,0.048-0.287,0.072c-0.094,0.032-0.189,0.064-0.286,0.097c-0.195,0.06-0.382,0.146-0.573,0.23
					c-0.097,0.042-0.191,0.081-0.285,0.134l-0.142,0.074l-0.136,0.081c-0.364,0.217-0.698,0.499-0.969,0.832
					c-0.13,0.17-0.25,0.35-0.344,0.542c-0.09,0.193-0.169,0.393-0.216,0.6c-0.102,0.41-0.109,0.835-0.063,1.236
					c0.05,0.401,0.153,0.782,0.281,1.132c0.128,0.35,0.279,0.67,0.434,0.957c0.158,0.284,0.312,0.542,0.462,0.76
					c0.072,0.111,0.145,0.212,0.212,0.306c0.066,0.094,0.129,0.178,0.187,0.253C7.92,23.361,8,23.478,8.065,23.557
					c0.064,0.08,0.084,0.121,0.084,0.121v0.001c0,0.017,0.025,0.041,0.009,0.055c-0.017,0.014-0.033,0.011-0.047-0.006
					c0,0-0.031-0.043-0.096-0.122s-0.159-0.194-0.274-0.349c-0.06-0.075-0.122-0.16-0.189-0.254
					c-0.068-0.094-0.141-0.195-0.214-0.307c-0.152-0.22-0.308-0.479-0.469-0.765c-0.158-0.289-0.312-0.612-0.443-0.967
					c-0.13-0.354-0.237-0.741-0.29-1.151c-0.049-0.411-0.042-0.848,0.06-1.271c0.047-0.214,0.128-0.421,0.221-0.621
					c0.096-0.199,0.219-0.386,0.354-0.562c0.279-0.347,0.621-0.638,0.995-0.862l0.14-0.084l0.142-0.075
					c0.092-0.052,0.194-0.096,0.29-0.138c0.194-0.086,0.384-0.176,0.583-0.236c0.098-0.033,0.194-0.067,0.29-0.1
					c0.099-0.025,0.196-0.05,0.292-0.074c0.192-0.056,0.385-0.082,0.572-0.112c0.093-0.019,0.187-0.025,0.278-0.032
					c0.092-0.008,0.183-0.015,0.271-0.021c0.178,0,0.351-0.008,0.517,0.004c0.165,0.012,0.324,0.021,0.473,0.047
					c0.15,0.018,0.291,0.047,0.422,0.076c0.132,0.025,0.252,0.066,0.365,0.096c0.111,0.037,0.213,0.068,0.303,0.104
					c0.181,0.069,0.32,0.133,0.412,0.182c0.047,0.022,0.083,0.044,0.106,0.058c0.023,0.013,0.036,0.021,0.036,0.021
					c0.031,0.019,0.042,0.038,0.023,0.069c-0.019,0.031-0.06,0.003-0.091,0.003h0L13.188,16.303z"/>
			</g>
		</g>
		<g>
			<g>
				<path fill="#FFFFFF" d="M11.975,18.535c0,0,0.669-5.583,0.842-5.959c0.174-0.377,1.084-0.839,1.865-0.999
					c0.479-0.098,5.557-1.256,6.029-1.144c0.475,0.112,0.783,0.337,0.783,0.337"/>
			</g>
			<g>
				<path fill="#E90D8B" d="M11.975,18.535c0.027-0.229,0.606-5.505,0.782-5.887c0.194-0.419,1.164-0.932,1.913-1.085
					c0.075-0.016,0.264-0.082,0.531-0.141c2.381-0.523,5.16-1.127,5.526-1.04c0.48,0.114,0.793,0.332,0.806,0.341
					c0.03,0.021,0.036,0.06,0.015,0.089c-0.021,0.03-0.062,0.035-0.092,0.013c-0.003-0.002-0.306-0.22-0.759-0.327
					c-0.383-0.089-4.21,0.751-5.468,1.027c-0.269,0.059-0.458,0.101-0.533,0.116c-0.795,0.162-1.662,0.621-1.819,0.962
					c-0.134,0.29-0.604,4.169-0.835,6.097C12.039,18.734,11.971,18.57,11.975,18.535z"/>
			</g>
		</g>
		<g>
			<g>
				<path fill="#FFFFFF" d="M25.279,18.799c0,0-0.133-6.399-0.133-7.029c0-0.63-1.698-1.349-2.399-1.503
					c-0.7-0.155-7.92,2.508-7.92,2.508s-0.42-0.414-0.172-0.662c0.249-0.248,6.343-1.455,6.343-1.455"/>
			</g>
			<g>
				<path fill="#E90D8B" d="M25.214,18.8c-0.001-0.063-0.133-6.406-0.133-7.03c0-0.573-1.63-1.281-2.348-1.439
					c-0.56-0.123-5.88,1.767-7.883,2.506l-0.04,0.015l-0.03-0.03c-0.011-0.01-0.269-0.268-0.27-0.519
					c0-0.092,0.186-0.172,0.251-0.237c0.255-0.255,5.434-1.349,6.528-1.473v0.001c0.548-0.268,1.427-0.436,1.625-0.392
					c0.591,0.13,2.375,0.85,2.375,1.568c0,0.622,0.093,6.963,0.095,7.027L25.214,18.8z M19.801,10.966
					c-2.283,0.466-4.935,1.045-5.099,1.194c-0.039,0.04-0.059,0.086-0.059,0.143c0,0.153,0.141,0.327,0.202,0.395
					C15.229,12.557,17.707,11.648,19.801,10.966z"/>
			</g>
		</g>
		<g>
			<path fill="#E90D8B" d="M20.998,10.658c0,0-6.094,1.207-6.343,1.455c-0.248,0.248-0.518,0.596,0.172,0.662
				C15.517,12.841,20.998,10.658,20.998,10.658z"/>
			<path fill="#E90D8B" d="M14.861,12.843c-0.021-0.002-0.028-0.001-0.04-0.002c-0.28-0.027-0.438-0.103-0.485-0.231
				c-0.063-0.176,0.113-0.383,0.273-0.543c0.255-0.255,5.75-1.349,6.375-1.473l0.037,0.126
				C20.804,10.806,15.683,12.843,14.861,12.843z M20.278,10.869c-2.374,0.479-5.401,1.131-5.576,1.291
				c-0.188,0.188-0.27,0.325-0.241,0.404c0.026,0.072,0.158,0.124,0.373,0.145c0.008,0,0.018,0.001,0.027,0.001
				C15.48,12.71,18.811,11.441,20.278,10.869z"/>
		</g>
		<g>
			<path fill="#E90D8B" d="M21.875,15.017c0,0-4.904,0.572-5.44,0.354c-0.537-0.218-0.666-0.936-0.329-1.485s7.032-2.792,7.21-2.398
				c0.177,0.394,0.938,1.353,0.144,1.75c-0.794,0.397-4.831-0.1-6.288,0.529c-1.235,0.534-0.736,1.604-0.736,1.604"/>
			<path fill="#E90D8B" d="M16.995,15.512c-0.285,0-0.494-0.026-0.585-0.026h-0.001c-0.237-0.133-0.416-0.318-0.501-0.577
				c-0.106-0.327-0.055-0.725,0.141-1.043c0.233-0.38,2.835-1.292,3.354-1.47c1.535-0.526,3.307-1.046,3.798-1.014
				c0.061,0.003,0.145,0.015,0.174,0.082c0.03,0.066,0.077,0.149,0.133,0.246c0.194,0.343,0.461,0.811,0.345,1.191
				c-0.052,0.169-0.174,0.303-0.364,0.398c-0.365,0.183-1.349,0.183-2.486,0.184c-1.409,0.001-3.006,0.002-3.805,0.347
				c-0.375,0.162-0.621,0.391-0.731,0.679c-0.138,0.362-0.019,0.715,0.019,0.81c0.525,0.152,4.047-0.211,5.383-0.367
				c0.035-0.004,0.069,0.021,0.073,0.059c0.005,0.036-0.021,0.082-0.058,0.087C21.716,15.114,18.412,15.512,16.995,15.512z
				 M23.166,11.507c-0.077,0-0.22,0.011-0.478,0.062c-1.834,0.358-6.287,1.962-6.526,2.352c-0.176,0.286-0.224,0.63-0.128,0.919
				c0.054,0.165,0.152,0.3,0.282,0.392c-0.048-0.176-0.089-0.468,0.026-0.771c0.122-0.323,0.393-0.577,0.802-0.753
				c0.824-0.356,2.436-0.357,3.857-0.358c1.075,0,2.09-0.001,2.428-0.17c0.158-0.079,0.255-0.183,0.296-0.318
				c0.1-0.326-0.15-0.767-0.333-1.088c-0.057-0.1-0.105-0.186-0.138-0.258C23.254,11.517,23.235,11.507,23.166,11.507z"/>
		</g>
		<g>
			<path fill="#E90D8B" d="M12.02,18.487c0-0.001,0.043,0.032,0.125,0.088c0.083,0.057,0.209,0.135,0.374,0.228
				c0.082,0.047,0.173,0.097,0.275,0.146c0.101,0.052,0.212,0.104,0.331,0.158c0.238,0.11,0.514,0.217,0.817,0.324
				c0.303,0.106,0.638,0.202,0.994,0.293c0.177,0.051,0.364,0.082,0.553,0.123c0.188,0.042,0.384,0.069,0.582,0.104
				C16.17,19.967,16.27,19.983,16.37,20c0.102,0.011,0.204,0.022,0.307,0.033c0.205,0.023,0.412,0.047,0.624,0.059
				c0.21,0.012,0.422,0.035,0.636,0.039c0.214,0.005,0.429,0.009,0.644,0.013l0.08,0.002l0.074-0.003l0.164-0.003l0.328-0.005
				c0.221,0.001,0.431-0.015,0.639-0.028c0.104-0.006,0.209-0.013,0.312-0.019c0.104-0.008,0.207-0.021,0.311-0.029
				c0.206-0.021,0.411-0.032,0.609-0.064c0.398-0.054,0.781-0.118,1.144-0.189c0.36-0.077,0.699-0.16,1.01-0.247
				c0.309-0.092,0.59-0.184,0.836-0.274c0.244-0.095,0.457-0.182,0.628-0.263c0.171-0.078,0.408-0.319,0.496-0.368
				c0.089-0.049,0.174,0.145,0.174,0.145s-0.104,0.127-0.185,0.194c-0.082,0.066-0.201,0.148-0.365,0.256
				c-0.161,0.111-0.364,0.229-0.605,0.356c-0.119,0.068-0.252,0.122-0.389,0.192c-0.139,0.067-0.288,0.122-0.443,0.188
				c-0.154,0.064-0.32,0.119-0.49,0.185c-0.172,0.059-0.353,0.107-0.536,0.165c-0.185,0.055-0.378,0.096-0.574,0.147
				c-0.196,0.049-0.4,0.078-0.606,0.119c-0.206,0.044-0.418,0.064-0.632,0.097c-0.213,0.035-0.433,0.049-0.654,0.066
				c-0.222,0.017-0.446,0.035-0.662,0.037c0,0-1.78-0.02-2-0.036c-0.22-0.014-0.436-0.064-0.65-0.096
				c-0.106-0.017-0.213-0.039-0.318-0.056c-0.104-0.021-0.208-0.046-0.312-0.066c-0.206-0.043-0.408-0.085-0.603-0.145
				c-0.195-0.057-0.388-0.104-0.569-0.17c-0.368-0.117-0.706-0.255-1.012-0.396c-0.307-0.139-0.577-0.29-0.81-0.434
				c-0.116-0.071-0.225-0.139-0.32-0.21c-0.098-0.066-0.184-0.132-0.261-0.193c-0.156-0.118-0.268-0.226-0.344-0.298
				c-0.077-0.075-0.113-0.118-0.113-0.118l-0.001-0.001c-0.023-0.027-0.02-0.069,0.008-0.093
				C11.961,18.468,11.996,18.468,12.02,18.487z"/>
		</g>
		<g>
			<g>
				<path fill="#E90D8B" d="M29.02,20.685c-0.927,0.232-3.441-0.595-5.824,0.497c-2.384,1.092-4.97,3.641-6.687,4.037l0.41-0.104
					l12.386-4.531L29.02,20.685z"/>
				<path fill="#E90D8B" d="M16.604,25.217c0.896-0.249,2.03-1.103,3.231-1.958c1.095-0.779,2.228-1.609,3.332-2.115
					c0.862-0.395,1.843-0.599,2.998-0.599c0.545,0,1.05,0.035,1.496,0.07c0.603,0.049,1.08,0.073,1.343,0.007l0.278-0.099
					c0.034-0.012,0.072,0.004,0.084,0.038c0.013,0.034-0.005,0.072-0.039,0.085 M26.165,20.666c-1.136,0-2.099,0.188-2.943,0.575
					c-1.093,0.501-2.22,1.305-3.311,2.081c-0.719,0.512-1.414,1.007-2.053,1.379l10.679-3.907c-0.253-0.001-0.547-0.024-0.887-0.052
					C27.207,20.707,26.705,20.666,26.165,20.666z"/>
			</g>
		</g>
		<g>
			<path fill="#E90D8B" d="M16.109,24.789c0,0,0.054-0.005,0.154-0.014c0.1-0.012,0.241-0.036,0.421-0.088
				c0.358-0.104,0.846-0.334,1.382-0.689c0.54-0.351,1.134-0.815,1.769-1.315c0.636-0.499,1.318-1.032,2.057-1.491
				c0.37-0.226,0.754-0.437,1.152-0.594c0.402-0.159,0.812-0.27,1.214-0.34c0.806-0.144,1.572-0.134,2.219-0.092
				c0.647,0.041,1.182,0.111,1.557,0.127c0.188,0.009,0.334,0.004,0.433-0.007c0.051-0.004,0.059,0.096,0.008,0.102
				c-0.102,0.016-0.252,0.003-0.441,0c-0.381-0.002-0.918-0.064-1.562-0.096c-0.322-0.014-0.671-0.024-1.04-0.011
				c-0.366,0.016-0.754,0.047-1.146,0.121c-0.394,0.071-0.794,0.184-1.182,0.337c-0.393,0.152-0.768,0.355-1.134,0.577
				c-0.73,0.449-1.409,0.981-2.051,1.474c-0.64,0.493-1.241,0.953-1.792,1.302c-0.549,0.349-1.05,0.573-1.42,0.671
				c-0.184,0.05-0.335,0.072-0.438,0.082c-0.101,0.007-0.154,0.011-0.154,0.011c-0.019,0.001-0.034-0.014-0.035-0.031
				C16.078,24.806,16.092,24.791,16.109,24.789z"/>
		</g>
	</g>
</g>
</svg>
