<?xml version="1.0" encoding="utf-8"?>
<!-- Generator: Adobe Illustrator 16.0.0, SVG Export Plug-In . SVG Version: 6.00 Build 0)  -->
<!DOCTYPE svg PUBLIC "-//W3C//DTD SVG 1.1//EN" "http://www.w3.org/Graphics/SVG/1.1/DTD/svg11.dtd">
<svg version="1.1" xmlns="http://www.w3.org/2000/svg" xmlns:xlink="http://www.w3.org/1999/xlink" x="0px" y="0px" width="36px"
	 height="36px" viewBox="0 0 36 36" enable-background="new 0 0 36 36" xml:space="preserve">
<g id="Layer_1">
	<g>
		<g>
			<path fill="#E90D8B" d="M18.001,34.902C8.681,34.902,1.098,27.32,1.098,18c0-9.32,7.583-16.902,16.903-16.902
				C27.32,1.098,34.902,8.68,34.902,18C34.902,27.32,27.32,34.902,18.001,34.902z M18.001,1.598C8.956,1.598,1.598,8.956,1.598,18
				c0,9.044,7.358,16.402,16.403,16.402c9.044,0,16.401-7.358,16.401-16.402C34.402,8.956,27.045,1.598,18.001,1.598z"/>
		</g>
	</g>
</g>
<g id="Layer_8">
	<g>
		<g>
			<polygon fill="#EC008C" points="28.9,24.215 17.991,30.514 17.991,19.604 28.9,13.307 			"/>
			<path fill="#FFFFFF" d="M17.991,30.971c-0.079,0-0.159-0.021-0.229-0.061c-0.142-0.082-0.229-0.233-0.229-0.396V19.604
				c0-0.164,0.087-0.315,0.229-0.396L28.67,12.91c0.143-0.083,0.317-0.083,0.459,0c0.142,0.082,0.229,0.233,0.229,0.396v10.908
				c0,0.165-0.087,0.315-0.229,0.396L18.22,30.91C18.149,30.95,18.07,30.971,17.991,30.971z M18.449,19.869v9.85l9.993-5.768v-9.851
				L18.449,19.869z"/>
		</g>
		<g>
			<path fill="#FFFFFF" d="M23.908,21.642c0,0.256-0.206,0.584-0.463,0.732c-0.257,0.147-0.464,0.059-0.464-0.197
				s0.207-0.582,0.464-0.73S23.908,21.386,23.908,21.642z"/>
		</g>
		<g>
			<polygon fill="#EC008C" points="28.9,13.224 17.991,19.522 7.083,13.183 17.991,6.885 			"/>
			<path fill="#FFFFFF" d="M17.991,19.98c-0.08,0-0.16-0.021-0.231-0.062L6.853,13.579c-0.142-0.082-0.229-0.233-0.228-0.397
				c0-0.164,0.087-0.314,0.229-0.396l10.909-6.298c0.142-0.083,0.317-0.082,0.459,0l10.908,6.339
				c0.142,0.083,0.228,0.233,0.228,0.397c0,0.164-0.087,0.314-0.229,0.396L18.22,19.918C18.149,19.96,18.07,19.98,17.991,19.98z
				 M7.998,13.184l9.994,5.809l9.993-5.77L17.99,7.415L7.998,13.184z"/>
		</g>
		<g>
			<path fill="#FFFFFF" d="M18.475,13.566c-0.211,0.146-0.599,0.16-0.865,0.034c-0.268-0.127-0.313-0.347-0.103-0.493
				c0.211-0.146,0.599-0.162,0.866-0.035C18.64,13.199,18.686,13.42,18.475,13.566z"/>
		</g>
		<g>
			<polygon fill="#EC008C" points="7.083,24.215 17.991,30.514 17.991,19.604 7.083,13.307 			"/>
			<path fill="#FFFFFF" d="M17.991,30.971c-0.079,0-0.159-0.021-0.229-0.061L6.854,24.611c-0.142-0.081-0.229-0.231-0.229-0.396
				V13.307c0-0.164,0.087-0.314,0.229-0.396c0.142-0.083,0.317-0.083,0.458,0l10.908,6.298c0.142,0.081,0.229,0.232,0.229,0.396
				v10.909c0,0.163-0.087,0.314-0.229,0.396C18.149,30.95,18.07,30.971,17.991,30.971z M7.541,23.951l9.992,5.768v-9.85
				l-9.992-5.769V23.951z"/>
		</g>
		<g>
			<path fill="#FFFFFF" d="M12.073,21.642c0,0.256,0.208,0.584,0.464,0.732C12.793,22.521,13,22.433,13,22.177
				s-0.208-0.582-0.463-0.73C12.281,21.298,12.073,21.386,12.073,21.642z"/>
		</g>
	</g>
</g>
</svg>
