<?xml version="1.0" encoding="utf-8"?>
<!-- Generator: Adobe Illustrator 16.0.0, SVG Export Plug-In . SVG Version: 6.00 Build 0)  -->
<!DOCTYPE svg PUBLIC "-//W3C//DTD SVG 1.1//EN" "http://www.w3.org/Graphics/SVG/1.1/DTD/svg11.dtd">
<svg version="1.1" xmlns="http://www.w3.org/2000/svg" xmlns:xlink="http://www.w3.org/1999/xlink" x="0px" y="0px" width="36px"
	 height="36px" viewBox="0 0 36 36" enable-background="new 0 0 36 36" xml:space="preserve">
<g id="Layer_1">
	<g>
		<g>
			<path fill="#E90D8B" d="M18.001,34.902C8.681,34.902,1.098,27.32,1.098,18c0-9.32,7.583-16.902,16.903-16.902
				C27.32,1.098,34.902,8.68,34.902,18C34.902,27.32,27.32,34.902,18.001,34.902z M18.001,1.598C8.956,1.598,1.598,8.956,1.598,18
				c0,9.044,7.358,16.402,16.403,16.402c9.044,0,16.401-7.358,16.401-16.402C34.402,8.956,27.045,1.598,18.001,1.598z"/>
		</g>
	</g>
</g>
<g id="Layer_7">
	<g>
		<g>
			<path fill="#EC008C" d="M18.398,31.246c-0.834,0-1.51-0.676-1.51-1.51V7.387c0-0.833,0.676-1.51,1.51-1.51s1.51,0.676,1.51,1.51
				v22.35C19.908,30.57,19.232,31.246,18.398,31.246z"/>
		</g>
		<g>
			<path fill="#EC008C" d="M18.398,17.555h-4.832c-0.834,0-1.51-0.676-1.51-1.51v-5.335c0-0.834,0.676-1.51,1.51-1.51
				s1.51,0.676,1.51,1.51v3.826h3.322c0.834,0,1.51,0.676,1.51,1.51C19.908,16.878,19.232,17.555,18.398,17.555z"/>
		</g>
		<g>
			<path fill="#EC008C" d="M22.934,22.991h-4.535c-0.834,0-1.51-0.677-1.51-1.51c0-0.835,0.676-1.511,1.51-1.511h3.025V8.695
				c0-0.833,0.677-1.51,1.51-1.51c0.834,0,1.51,0.676,1.51,1.51v12.786C24.443,22.314,23.768,22.991,22.934,22.991z"/>
		</g>
		<g>
			<path fill="#FFFFFF" d="M19.003,29.636c-0.084,0-0.151-0.068-0.151-0.151V7.387c0-0.083,0.067-0.151,0.151-0.151
				c0.083,0,0.15,0.068,0.15,0.151v22.098C19.153,29.567,19.086,29.636,19.003,29.636z"/>
		</g>
		<g>
			<path fill="#FFFFFF" d="M22.581,22.09h-2.235c-0.083,0-0.151-0.066-0.151-0.15s0.068-0.151,0.151-0.151h2.235
				c0.43,0,0.654-0.482,0.654-0.959V9.048c0-0.083,0.068-0.151,0.151-0.151s0.151,0.068,0.151,0.151v11.781
				C23.538,21.561,23.135,22.09,22.581,22.09z"/>
		</g>
		<g>
			<path fill="#FFFFFF" d="M15.731,16.609h-1.742c-0.587,0-1.027-0.517-1.027-0.98v-4.417c0-0.083,0.068-0.151,0.151-0.151
				s0.151,0.067,0.151,0.151v4.417c0,0.313,0.316,0.678,0.725,0.678h1.742c0.083,0,0.151,0.068,0.151,0.151
				S15.814,16.609,15.731,16.609z"/>
		</g>
		<g>
			<path fill="#EC008C" d="M24.212,21.771c-0.054,0-0.106-0.029-0.134-0.08c-0.039-0.074-0.011-0.166,0.063-0.205l0.796-0.421
				c0.074-0.039,0.165-0.01,0.205,0.063c0.038,0.073,0.01,0.165-0.063,0.204l-0.797,0.421C24.26,21.765,24.235,21.771,24.212,21.771
				z"/>
		</g>
		<g>
			<path fill="#EC008C" d="M24.212,20.19c-0.054,0-0.106-0.029-0.134-0.081c-0.039-0.073-0.011-0.165,0.063-0.203l0.796-0.421
				c0.074-0.04,0.165-0.012,0.205,0.062c0.038,0.073,0.01,0.165-0.063,0.203l-0.797,0.421C24.26,20.185,24.235,20.19,24.212,20.19z"
				/>
		</g>
		<g>
			<path fill="#EC008C" d="M24.212,18.61c-0.054,0-0.106-0.029-0.134-0.08c-0.039-0.074-0.011-0.166,0.063-0.205l0.796-0.421
				c0.074-0.039,0.165-0.011,0.205,0.063c0.038,0.074,0.01,0.165-0.063,0.204l-0.797,0.421C24.26,18.604,24.235,18.61,24.212,18.61z
				"/>
		</g>
		<g>
			<path fill="#EC008C" d="M24.212,17.03c-0.054,0-0.106-0.03-0.134-0.081c-0.039-0.074-0.011-0.165,0.063-0.204l0.796-0.421
				c0.074-0.039,0.165-0.011,0.205,0.063c0.038,0.074,0.01,0.166-0.063,0.204l-0.797,0.421C24.26,17.024,24.235,17.03,24.212,17.03z
				"/>
		</g>
		<g>
			<path fill="#EC008C" d="M24.212,15.45c-0.054,0-0.106-0.029-0.134-0.08c-0.039-0.074-0.011-0.166,0.063-0.205l0.796-0.42
				c0.074-0.04,0.165-0.011,0.205,0.062c0.038,0.074,0.01,0.166-0.063,0.204l-0.797,0.421C24.26,15.444,24.235,15.45,24.212,15.45z"
				/>
		</g>
		<g>
			<path fill="#EC008C" d="M24.212,13.87c-0.054,0-0.106-0.029-0.134-0.08c-0.039-0.074-0.011-0.166,0.063-0.205l0.796-0.421
				c0.074-0.039,0.165-0.011,0.205,0.063c0.038,0.074,0.01,0.165-0.063,0.204l-0.797,0.421C24.26,13.864,24.235,13.87,24.212,13.87z
				"/>
		</g>
		<g>
			<path fill="#EC008C" d="M24.212,12.29c-0.054,0-0.106-0.029-0.134-0.081c-0.039-0.074-0.011-0.165,0.063-0.204l0.796-0.421
				c0.074-0.039,0.165-0.011,0.205,0.063c0.038,0.074,0.01,0.165-0.063,0.204l-0.797,0.421C24.26,12.284,24.235,12.29,24.212,12.29z
				"/>
		</g>
		<g>
			<path fill="#EC008C" d="M24.212,10.709c-0.054,0-0.106-0.029-0.134-0.081c-0.039-0.074-0.011-0.165,0.063-0.204l0.796-0.421
				c0.074-0.039,0.165-0.011,0.205,0.063c0.038,0.074,0.01,0.166-0.063,0.204l-0.797,0.421
				C24.26,10.704,24.235,10.709,24.212,10.709z"/>
		</g>
		<g>
			<path fill="#EC008C" d="M24.212,9.129c-0.054,0-0.106-0.029-0.134-0.081c-0.039-0.074-0.011-0.165,0.063-0.204l0.796-0.421
				c0.074-0.039,0.165-0.011,0.205,0.063c0.038,0.074,0.01,0.165-0.063,0.204l-0.797,0.421C24.26,9.124,24.235,9.129,24.212,9.129z"
				/>
		</g>
		<g>
			<path fill="#EC008C" d="M16.924,30.068c-0.024,0-0.048-0.006-0.07-0.018l-0.797-0.421c-0.073-0.039-0.102-0.131-0.063-0.204
				c0.039-0.073,0.13-0.102,0.204-0.062l0.797,0.421c0.074,0.039,0.102,0.13,0.063,0.204C17.03,30.039,16.978,30.068,16.924,30.068z
				"/>
		</g>
		<g>
			<path fill="#EC008C" d="M16.924,28.488c-0.024,0-0.048-0.005-0.071-0.018l-0.797-0.421c-0.073-0.039-0.102-0.13-0.063-0.204
				c0.039-0.073,0.13-0.102,0.204-0.062l0.797,0.421c0.074,0.039,0.102,0.13,0.063,0.204C17.03,28.459,16.978,28.488,16.924,28.488z
				"/>
		</g>
		<g>
			<path fill="#EC008C" d="M16.924,26.908c-0.024,0-0.048-0.006-0.07-0.018l-0.797-0.421c-0.073-0.039-0.102-0.131-0.063-0.204
				c0.039-0.074,0.13-0.102,0.204-0.063l0.797,0.421c0.074,0.039,0.102,0.131,0.063,0.204C17.03,26.879,16.978,26.908,16.924,26.908
				z"/>
		</g>
		<g>
			<path fill="#EC008C" d="M16.924,25.328c-0.024,0-0.048-0.006-0.071-0.018l-0.797-0.421c-0.073-0.039-0.102-0.131-0.063-0.204
				c0.039-0.073,0.13-0.103,0.204-0.062l0.797,0.42c0.074,0.04,0.102,0.132,0.063,0.205C17.03,25.299,16.978,25.328,16.924,25.328z"
				/>
		</g>
		<g>
			<path fill="#EC008C" d="M16.924,23.748c-0.024,0-0.048-0.006-0.07-0.018l-0.797-0.421c-0.073-0.039-0.102-0.13-0.063-0.204
				c0.039-0.073,0.13-0.102,0.204-0.063l0.797,0.422c0.074,0.038,0.102,0.13,0.063,0.203C17.03,23.719,16.978,23.748,16.924,23.748z
				"/>
		</g>
		<g>
			<path fill="#EC008C" d="M16.924,22.168c-0.024,0-0.048-0.006-0.071-0.018l-0.797-0.421c-0.073-0.039-0.102-0.131-0.063-0.205
				c0.039-0.073,0.13-0.102,0.204-0.062l0.797,0.422c0.074,0.038,0.102,0.13,0.063,0.203C17.03,22.139,16.978,22.168,16.924,22.168z
				"/>
		</g>
		<g>
			<path fill="#EC008C" d="M16.924,20.588c-0.024,0-0.048-0.006-0.07-0.018l-0.797-0.421c-0.073-0.039-0.102-0.131-0.063-0.204
				c0.039-0.073,0.13-0.103,0.204-0.063l0.797,0.421c0.074,0.04,0.102,0.131,0.063,0.204C17.03,20.559,16.978,20.588,16.924,20.588z
				"/>
		</g>
		<g>
			<path fill="#EC008C" d="M16.924,19.008c-0.024,0-0.048-0.005-0.071-0.018l-0.797-0.421c-0.073-0.039-0.102-0.13-0.063-0.204
				c0.039-0.073,0.13-0.102,0.204-0.063l0.797,0.421c0.074,0.039,0.102,0.13,0.063,0.204C17.03,18.979,16.978,19.008,16.924,19.008z
				"/>
		</g>
		<g>
			<path fill="#EC008C" d="M16.924,15.377c-0.024,0-0.048-0.005-0.071-0.017l-0.797-0.421c-0.073-0.039-0.102-0.13-0.063-0.204
				c0.039-0.073,0.13-0.102,0.204-0.063l0.797,0.421c0.074,0.039,0.102,0.13,0.063,0.204C17.03,15.349,16.978,15.377,16.924,15.377z
				"/>
		</g>
		<g>
			<path fill="#EC008C" d="M16.924,13.797c-0.024,0-0.048-0.005-0.071-0.018l-0.797-0.421c-0.073-0.039-0.102-0.13-0.063-0.204
				c0.039-0.073,0.13-0.102,0.204-0.063l0.797,0.421c0.074,0.039,0.102,0.13,0.063,0.204C17.03,13.769,16.978,13.797,16.924,13.797z
				"/>
		</g>
		<g>
			<path fill="#EC008C" d="M16.924,12.218c-0.024,0-0.048-0.006-0.071-0.018l-0.797-0.42c-0.073-0.04-0.102-0.131-0.063-0.205
				c0.039-0.074,0.13-0.102,0.204-0.063l0.797,0.421c0.074,0.039,0.102,0.13,0.063,0.204C17.03,12.188,16.978,12.218,16.924,12.218z
				"/>
		</g>
		<g>
			<path fill="#EC008C" d="M16.924,10.637c-0.024,0-0.048-0.005-0.071-0.018l-0.797-0.421c-0.073-0.039-0.102-0.13-0.063-0.204
				c0.039-0.074,0.13-0.102,0.204-0.063l0.797,0.421c0.074,0.039,0.102,0.13,0.063,0.204C17.03,10.608,16.978,10.637,16.924,10.637z
				"/>
		</g>
		<g>
			<path fill="#EC008C" d="M16.924,9.057c-0.024,0-0.048-0.005-0.071-0.018l-0.797-0.421c-0.073-0.039-0.102-0.13-0.063-0.204
				c0.039-0.074,0.13-0.102,0.204-0.063l0.797,0.421c0.074,0.039,0.102,0.13,0.063,0.204C17.03,9.028,16.978,9.057,16.924,9.057z"/>
		</g>
		<g>
			<path fill="#EC008C" d="M16.924,7.477c-0.024,0-0.048-0.005-0.071-0.018l-0.797-0.421C15.983,7,15.955,6.908,15.993,6.834
				c0.039-0.074,0.13-0.102,0.204-0.063l0.797,0.421c0.074,0.039,0.102,0.13,0.063,0.204C17.03,7.448,16.978,7.477,16.924,7.477z"/>
		</g>
		<g>
			<path fill="#EC008C" d="M12.129,16.609c-0.024,0-0.048-0.005-0.07-0.018l-0.797-0.421c-0.074-0.039-0.102-0.13-0.063-0.204
				s0.13-0.102,0.204-0.063l0.797,0.421c0.073,0.039,0.102,0.131,0.063,0.204C12.236,16.58,12.184,16.609,12.129,16.609z"/>
		</g>
		<g>
			<path fill="#EC008C" d="M12.129,15.029c-0.024,0-0.048-0.006-0.07-0.018l-0.797-0.421c-0.074-0.039-0.102-0.13-0.063-0.204
				s0.13-0.102,0.204-0.063l0.797,0.422c0.073,0.039,0.102,0.13,0.063,0.204C12.236,15,12.184,15.029,12.129,15.029z"/>
		</g>
		<g>
			<path fill="#EC008C" d="M12.129,13.449c-0.024,0-0.048-0.006-0.07-0.018l-0.797-0.421c-0.074-0.039-0.102-0.13-0.063-0.205
				c0.039-0.073,0.13-0.102,0.204-0.062l0.797,0.421c0.073,0.039,0.102,0.13,0.063,0.204C12.236,13.419,12.184,13.449,12.129,13.449
				z"/>
		</g>
		<g>
			<path fill="#EC008C" d="M12.129,11.869c-0.024,0-0.048-0.006-0.07-0.018l-0.797-0.421c-0.074-0.039-0.102-0.13-0.063-0.204
				s0.13-0.102,0.204-0.063l0.797,0.421c0.073,0.039,0.102,0.13,0.063,0.204C12.236,11.839,12.184,11.869,12.129,11.869z"/>
		</g>
		<g>
			<path fill="#EC008C" d="M12.129,10.289c-0.024,0-0.048-0.005-0.07-0.018L11.262,9.85c-0.074-0.04-0.102-0.13-0.063-0.205
				c0.039-0.073,0.13-0.102,0.204-0.063l0.797,0.421c0.073,0.039,0.102,0.13,0.063,0.204C12.236,10.259,12.184,10.289,12.129,10.289
				z"/>
		</g>
	</g>
</g>
</svg>
