<?xml version="1.0" encoding="utf-8"?>
<!-- Generator: Adobe Illustrator 16.0.0, SVG Export Plug-In . SVG Version: 6.00 Build 0)  -->
<!DOCTYPE svg PUBLIC "-//W3C//DTD SVG 1.1//EN" "http://www.w3.org/Graphics/SVG/1.1/DTD/svg11.dtd">
<svg version="1.1" xmlns="http://www.w3.org/2000/svg" xmlns:xlink="http://www.w3.org/1999/xlink" x="0px" y="0px" width="36px"
	 height="36px" viewBox="0 0 36 36" enable-background="new 0 0 36 36" xml:space="preserve">
<g id="Layer_1">
	<g>
		<g>
			<path fill="#E90D8B" d="M18.001,34.902C8.681,34.902,1.098,27.32,1.098,18c0-9.32,7.583-16.902,16.903-16.902
				C27.32,1.098,34.902,8.68,34.902,18C34.902,27.32,27.32,34.902,18.001,34.902z M18.001,1.598C8.956,1.598,1.598,8.956,1.598,18
				c0,9.044,7.358,16.402,16.403,16.402c9.044,0,16.401-7.358,16.401-16.402C34.402,8.956,27.045,1.598,18.001,1.598z"/>
		</g>
	</g>
</g>
<g id="Layer_3">
	<g>
		<g>
			<polygon fill="#E90D8B" points="25.41,11.96 25.41,13.23 24.249,12.56 24.249,11.289 22.943,10.535 22.943,11.806 21.782,11.135 
				21.782,9.865 20.476,9.11 20.476,10.381 19.315,9.71 19.315,8.44 18.009,7.686 18.009,8.956 18.009,8.992 18.009,17.665 
				26.717,22.692 26.717,14.02 26.717,13.984 26.717,12.714 			"/>
			<path fill="#E90D8B" d="M26.717,22.76c-0.011,0-0.023-0.004-0.034-0.01l-8.707-5.027c-0.021-0.012-0.033-0.034-0.033-0.058V7.686
				c0-0.024,0.013-0.046,0.033-0.058c0.021-0.012,0.046-0.012,0.065,0l1.308,0.754c0.021,0.012,0.033,0.034,0.033,0.058v1.231
				l1.027,0.593V9.11c0-0.024,0.013-0.045,0.033-0.058c0.021-0.012,0.047-0.012,0.067,0l1.306,0.754
				c0.021,0.012,0.033,0.034,0.033,0.058v1.232l1.028,0.593v-1.155c0-0.023,0.013-0.045,0.033-0.057
				c0.021-0.012,0.046-0.012,0.067,0l1.306,0.754c0.021,0.012,0.033,0.034,0.033,0.058v1.232l1.027,0.594V11.96
				c0-0.024,0.013-0.046,0.033-0.058c0.021-0.012,0.047-0.012,0.067,0l1.306,0.754c0.021,0.012,0.033,0.034,0.033,0.058v9.979
				c0,0.024-0.012,0.046-0.033,0.058C26.739,22.756,26.729,22.76,26.717,22.76z M18.075,17.626l8.575,4.95v-9.824l-1.173-0.677
				v1.155c0,0.024-0.014,0.046-0.033,0.058c-0.021,0.012-0.046,0.012-0.067,0l-1.161-0.67c-0.021-0.012-0.033-0.034-0.033-0.058
				v-1.232l-1.173-0.677v1.155c0,0.024-0.013,0.045-0.032,0.058c-0.021,0.012-0.047,0.012-0.067,0l-1.162-0.67
				c-0.02-0.012-0.032-0.034-0.032-0.058V9.903l-1.173-0.677v1.155c0,0.023-0.014,0.045-0.033,0.058
				c-0.021,0.012-0.047,0.012-0.067,0l-1.161-0.67c-0.021-0.012-0.033-0.034-0.033-0.058V8.479l-1.173-0.677V17.626z"/>
		</g>
		<g>
			<polygon fill="#E90D8B" points="10.588,11.96 10.588,13.23 11.75,12.56 11.75,11.289 13.057,10.535 13.057,11.806 14.218,11.135 
				14.218,9.865 15.524,9.11 15.524,10.381 16.685,9.71 16.685,8.44 17.991,7.686 17.991,8.956 17.991,8.992 17.991,17.665 
				9.283,22.692 9.283,14.02 9.283,13.984 9.283,12.714 			"/>
			<path fill="#E90D8B" d="M9.283,22.76c-0.012,0-0.022-0.004-0.033-0.01c-0.021-0.012-0.033-0.033-0.033-0.058v-9.979
				c0-0.024,0.012-0.046,0.033-0.058l1.306-0.754c0.021-0.012,0.046-0.012,0.067,0c0.021,0.012,0.033,0.034,0.033,0.058v1.155
				l1.027-0.594v-1.232c0-0.024,0.013-0.046,0.033-0.058l1.306-0.754c0.021-0.012,0.047-0.012,0.067,0
				c0.021,0.012,0.033,0.034,0.033,0.057v1.155l1.027-0.593V9.865c0-0.024,0.014-0.045,0.034-0.058l1.306-0.754
				c0.021-0.012,0.047-0.012,0.067,0c0.021,0.012,0.033,0.034,0.033,0.058v1.155l1.027-0.593V8.44c0-0.024,0.013-0.046,0.033-0.058
				l1.306-0.754c0.021-0.012,0.047-0.012,0.067,0c0.021,0.012,0.033,0.034,0.033,0.058v9.979c0,0.024-0.013,0.046-0.033,0.058
				L9.317,22.75C9.306,22.756,9.294,22.76,9.283,22.76z M9.35,12.752v9.824l8.575-4.95V7.801l-1.173,0.677V9.71
				c0,0.024-0.014,0.046-0.033,0.058l-1.161,0.67c-0.021,0.012-0.047,0.012-0.067,0c-0.021-0.012-0.033-0.034-0.033-0.058V9.226
				l-1.173,0.677v1.232c0,0.024-0.013,0.046-0.034,0.058l-1.16,0.67c-0.021,0.012-0.046,0.012-0.067,0
				c-0.02-0.012-0.032-0.034-0.032-0.058v-1.155l-1.173,0.677v1.232c0,0.024-0.012,0.046-0.033,0.058l-1.161,0.67
				c-0.021,0.012-0.047,0.012-0.067,0c-0.021-0.012-0.033-0.034-0.033-0.058v-1.155L9.35,12.752z"/>
		</g>
		<g>
			<polygon fill="#FFFFFF" points="16.687,16.949 16.687,18.219 15.524,17.549 15.524,16.278 14.218,15.524 14.218,16.795 
				13.057,16.125 13.057,14.854 11.751,14.1 11.751,15.37 10.59,14.7 10.59,13.429 9.283,12.675 9.283,13.946 9.283,13.981 
				9.283,22.654 17.991,27.682 17.991,19.01 17.991,18.974 17.991,17.703 			"/>
			<path fill="#E90D8B" d="M17.991,27.748c-0.011,0-0.023-0.003-0.034-0.01L9.25,22.711c-0.021-0.012-0.033-0.033-0.033-0.057
				v-9.979c0-0.024,0.012-0.046,0.033-0.058c0.021-0.012,0.046-0.012,0.067,0l1.306,0.755c0.021,0.012,0.033,0.034,0.033,0.057
				v1.232l1.027,0.593V14.1c0-0.023,0.013-0.045,0.033-0.058c0.021-0.012,0.047-0.012,0.067,0l1.306,0.754
				c0.021,0.012,0.034,0.034,0.034,0.058v1.231l1.027,0.593v-1.155c0-0.024,0.013-0.046,0.033-0.058
				c0.021-0.012,0.046-0.012,0.067,0l1.306,0.754c0.021,0.012,0.033,0.034,0.033,0.058v1.232l1.027,0.593v-1.155
				c0-0.023,0.013-0.045,0.033-0.058c0.021-0.012,0.047-0.012,0.067,0l1.306,0.754c0.021,0.012,0.033,0.034,0.033,0.058v9.979
				c0,0.023-0.013,0.045-0.033,0.057C18.014,27.745,18.003,27.748,17.991,27.748z M9.35,22.615l8.575,4.951v-9.825l-1.173-0.677
				v1.155c0,0.024-0.013,0.046-0.033,0.058c-0.021,0.012-0.047,0.012-0.067,0l-1.161-0.67c-0.021-0.012-0.033-0.034-0.033-0.058
				v-1.232l-1.173-0.677v1.155c0,0.024-0.013,0.046-0.032,0.058c-0.021,0.012-0.047,0.012-0.067,0l-1.16-0.67
				c-0.021-0.012-0.034-0.034-0.034-0.058v-1.231l-1.173-0.677v1.154c0,0.024-0.012,0.046-0.033,0.058
				c-0.021,0.012-0.047,0.012-0.067,0l-1.161-0.67c-0.02-0.012-0.033-0.034-0.033-0.058v-1.232L9.35,12.791V22.615z"/>
		</g>
		<g>
			<polygon fill="#FFFFFF" points="19.313,16.949 19.313,18.219 20.476,17.549 20.476,16.278 21.782,15.524 21.782,16.795 
				22.943,16.125 22.943,14.854 24.249,14.1 24.249,15.37 25.41,14.7 25.41,13.429 26.717,12.675 26.717,13.946 26.717,13.981 
				26.717,22.654 18.009,27.682 18.009,19.01 18.009,18.974 18.009,17.703 			"/>
			<path fill="#E90D8B" d="M18.009,27.748c-0.012,0-0.024-0.003-0.033-0.01c-0.021-0.012-0.033-0.033-0.033-0.057v-9.979
				c0-0.024,0.013-0.045,0.033-0.058l1.306-0.754c0.021-0.012,0.047-0.012,0.067,0c0.02,0.012,0.033,0.034,0.033,0.058v1.155
				l1.027-0.593v-1.232c0-0.024,0.013-0.046,0.033-0.058l1.306-0.754c0.021-0.012,0.047-0.012,0.067,0
				c0.021,0.012,0.033,0.034,0.033,0.058v1.155l1.027-0.593v-1.231c0-0.024,0.014-0.046,0.034-0.058l1.306-0.754
				c0.021-0.012,0.047-0.012,0.067,0c0.021,0.012,0.033,0.034,0.033,0.058v1.155l1.027-0.593v-1.232
				c0-0.023,0.013-0.045,0.033-0.057l1.306-0.755c0.021-0.012,0.047-0.012,0.067,0c0.021,0.012,0.033,0.034,0.033,0.058v9.979
				c0,0.023-0.012,0.045-0.033,0.057l-8.707,5.027C18.031,27.745,18.02,27.748,18.009,27.748z M18.075,17.741v9.825l8.575-4.951
				v-9.824l-1.174,0.677V14.7c0,0.024-0.013,0.046-0.032,0.058l-1.161,0.67c-0.021,0.012-0.047,0.012-0.067,0
				c-0.021-0.012-0.033-0.034-0.033-0.058v-1.154l-1.173,0.677v1.231c0,0.024-0.013,0.046-0.034,0.058l-1.16,0.67
				c-0.021,0.012-0.046,0.012-0.067,0c-0.02-0.012-0.032-0.034-0.032-0.058V15.64l-1.173,0.677v1.232
				c0,0.024-0.014,0.046-0.033,0.058l-1.161,0.67c-0.021,0.012-0.047,0.012-0.067,0c-0.021-0.012-0.033-0.034-0.033-0.058v-1.155
				L18.075,17.741z"/>
		</g>
	</g>
</g>
</svg>
