<?xml version="1.0" encoding="utf-8"?>
<!-- Generator: Adobe Illustrator 16.0.0, SVG Export Plug-In . SVG Version: 6.00 Build 0)  -->
<!DOCTYPE svg PUBLIC "-//W3C//DTD SVG 1.1//EN" "http://www.w3.org/Graphics/SVG/1.1/DTD/svg11.dtd">
<svg version="1.1" xmlns="http://www.w3.org/2000/svg" xmlns:xlink="http://www.w3.org/1999/xlink" x="0px" y="0px" width="36px"
	 height="36px" viewBox="0 0 36 36" enable-background="new 0 0 36 36" xml:space="preserve">
<g id="Layer_1">
	<g>
		<g>
			<path fill="#E90D8B" d="M18.001,34.902C8.681,34.902,1.098,27.32,1.098,18c0-9.32,7.583-16.902,16.903-16.902
				C27.32,1.098,34.902,8.68,34.902,18C34.902,27.32,27.32,34.902,18.001,34.902z M18.001,1.598C8.956,1.598,1.598,8.956,1.598,18
				c0,9.044,7.358,16.402,16.403,16.402c9.044,0,16.401-7.358,16.401-16.402C34.402,8.956,27.045,1.598,18.001,1.598z"/>
		</g>
	</g>
</g>
<g id="Layer_5">
	<g>
		<g>
			<g>
				<polygon fill="#FFFFFF" points="30.004,19.071 20.484,24.567 20.484,21.515 30.004,16.017 				"/>
				<path fill="#EC008C" d="M20.484,24.669c-0.019,0-0.036-0.004-0.052-0.013c-0.031-0.019-0.051-0.053-0.051-0.089v-3.053
					c0-0.037,0.02-0.07,0.051-0.089l9.521-5.497c0.03-0.019,0.07-0.019,0.102,0c0.032,0.018,0.052,0.052,0.052,0.088v3.054
					c0,0.036-0.02,0.069-0.052,0.088l-9.521,5.497C20.52,24.665,20.501,24.669,20.484,24.669z M20.586,21.573v2.818l9.317-5.38
					v-2.818L20.586,21.573z"/>
			</g>
			<g>
				<polygon fill="#EC008C" points="30.004,16.017 20.484,21.515 10.963,16.017 20.484,10.52 				"/>
				<path fill="#EC008C" d="M20.484,21.616c-0.019,0-0.036-0.006-0.052-0.014l-9.52-5.498c-0.032-0.019-0.051-0.052-0.051-0.088
					c0-0.037,0.019-0.07,0.051-0.088l9.52-5.497c0.033-0.019,0.071-0.019,0.103,0l9.521,5.497c0.032,0.018,0.052,0.052,0.052,0.088
					c0,0.036-0.02,0.069-0.052,0.088l-9.521,5.498C20.52,21.61,20.501,21.616,20.484,21.616z M11.167,16.017l9.318,5.378
					l9.316-5.378l-9.316-5.379L11.167,16.017z"/>
			</g>
			<g>
				<polygon fill="#FFFFFF" points="10.963,19.071 20.484,24.567 20.484,21.515 10.963,16.017 				"/>
				<path fill="#EC008C" d="M20.484,24.669c-0.019,0-0.036-0.004-0.052-0.013l-9.52-5.497c-0.032-0.019-0.051-0.052-0.051-0.088
					v-3.054c0-0.037,0.019-0.07,0.051-0.088c0.031-0.019,0.07-0.019,0.101,0l9.521,5.497c0.03,0.019,0.051,0.052,0.051,0.089v3.053
					c0,0.036-0.021,0.07-0.051,0.089C20.52,24.665,20.501,24.669,20.484,24.669z M11.064,19.012l9.317,5.38v-2.818l-9.317-5.379
					V19.012z"/>
			</g>
		</g>
		<g>
			<g>
				<path fill="#EC008C" d="M8.482,20.152c-0.018,0-0.035-0.005-0.051-0.014l-0.814-0.471c-0.031-0.019-0.051-0.053-0.051-0.089
					v-4.111c0-0.037,0.02-0.071,0.051-0.088c0.031-0.018,0.07-0.018,0.102,0l0.815,0.47c0.031,0.019,0.051,0.052,0.051,0.089v4.112
					c0,0.035-0.02,0.07-0.051,0.088C8.518,20.147,8.5,20.152,8.482,20.152z M7.77,19.521l0.611,0.354v-3.877L7.77,15.644V19.521z"/>
			</g>
		</g>
		<g>
			<g>
				<line fill="#EC008C" x1="8.89" y1="16.11" x2="8.89" y2="19.519"/>
			</g>
			<g>
				<polygon fill="#EC008C" points="8.482,20.161 9.297,19.69 9.297,15.468 8.482,15.938 				"/>
			</g>
		</g>
		<g>
			<g>
				<polygon fill="#FFFFFF" points="20.891,27.117 20.077,26.647 20.077,22.536 20.891,23.007 				"/>
				<path fill="#EC008C" d="M20.891,27.22c-0.017,0-0.034-0.005-0.05-0.014l-0.815-0.472c-0.031-0.018-0.05-0.051-0.05-0.087v-4.111
					c0-0.038,0.019-0.07,0.05-0.09c0.031-0.018,0.071-0.018,0.102,0l0.815,0.471c0.031,0.019,0.052,0.053,0.052,0.09v4.11
					c0,0.037-0.021,0.07-0.052,0.089C20.928,27.215,20.909,27.22,20.891,27.22z M20.179,26.588l0.61,0.354v-3.877l-0.61-0.353
					V26.588z"/>
			</g>
		</g>
		<g>
			<g>
				<line fill="#EC008C" x1="21.299" y1="23.178" x2="21.299" y2="26.586"/>
			</g>
			<g>
				<polygon fill="#EC008C" points="20.891,27.229 21.706,26.76 21.706,22.536 20.891,23.007 				"/>
			</g>
		</g>
		<g>
			<g>
				<polygon fill="#EC008C" points="7.043,11.202 10.829,13.365 10.194,13.732 6.409,11.568 				"/>
				<path fill="#EC008C" d="M10.194,13.833c-0.018,0-0.035-0.004-0.051-0.013l-3.786-2.165c-0.031-0.018-0.051-0.052-0.051-0.088
					c0-0.036,0.02-0.07,0.051-0.088l0.634-0.366c0.031-0.018,0.07-0.018,0.102,0l3.785,2.163c0.032,0.019,0.052,0.052,0.052,0.088
					c0,0.037-0.019,0.07-0.051,0.089l-0.634,0.367C10.229,13.829,10.211,13.833,10.194,13.833z M6.613,11.567l3.582,2.046
					l0.43-0.249l-3.582-2.047L6.613,11.567z"/>
			</g>
			<g>
				<polygon fill="#EC008C" points="24.502,21.392 24.502,24.429 23.868,24.777 23.868,21.741 				"/>
				<path fill="#EC008C" d="M23.868,24.88c-0.02,0-0.036-0.004-0.053-0.014c-0.03-0.019-0.051-0.052-0.051-0.089v-3.036
					c0-0.036,0.021-0.072,0.054-0.09l0.634-0.349c0.032-0.018,0.07-0.017,0.102,0.001s0.05,0.053,0.05,0.088v3.037
					c0,0.037-0.02,0.071-0.053,0.089l-0.634,0.35C23.901,24.876,23.885,24.88,23.868,24.88z M23.97,21.801v2.805l0.431-0.238v-2.803
					L23.97,21.801z"/>
			</g>
			<g>
				<polygon fill="#EC008C" points="20.661,19.188 24.447,21.354 23.812,21.72 20.026,19.555 				"/>
				<path fill="#EC008C" d="M23.812,21.821c-0.018,0-0.034-0.004-0.051-0.013l-3.785-2.164c-0.031-0.019-0.052-0.052-0.052-0.088
					c0-0.038,0.02-0.071,0.052-0.089l0.634-0.366c0.031-0.019,0.07-0.019,0.102,0l3.786,2.163c0.031,0.018,0.052,0.052,0.052,0.088
					s-0.021,0.07-0.052,0.089l-0.635,0.367C23.847,21.817,23.828,21.821,23.812,21.821z M20.23,19.555l3.581,2.048l0.431-0.248
					l-3.581-2.048L20.23,19.555z"/>
			</g>
			<g>
				<g>
					<path fill="#FFFFFF" d="M6.478,14.741c-0.029-0.018-0.051-0.058-0.051-0.073v-3.051l3.733,2.157l4.915-0.835
						c-0.006,0.001,0.008,0.01,0.024,0.031l4.893,6.48l3.77,2.176c0.029,0.018,0.051,0.06,0.051,0.073v3.05L6.478,14.741z"/>
				</g>
				<g>
					<path fill="#EC008C" d="M6.529,11.796l3.548,2.048l0.063,0.037l0.073-0.012l4.818-0.82l4.866,6.446l0.025,0.033l0.035,0.021
						l3.749,2.164c0,0.001,0.002,0.003,0.003,0.003v2.857L6.532,14.655c-0.002,0-0.002-0.002-0.003-0.003V11.796 M6.375,11.486
						c-0.03,0-0.051,0.021-0.051,0.059v3.124c0,0.056,0.045,0.128,0.102,0.161l17.385,10.037c0.019,0.011,0.035,0.017,0.051,0.017
						c0.029,0,0.051-0.022,0.051-0.06v-3.124c0-0.057-0.045-0.128-0.102-0.161l-3.751-2.166l-4.88-6.463
						c-0.032-0.043-0.077-0.072-0.112-0.072c-0.003,0-0.007,0.001-0.01,0.001l-4.88,0.83l-3.752-2.166
						C6.408,11.491,6.391,11.486,6.375,11.486L6.375,11.486z"/>
				</g>
			</g>
			<g>
				<polygon fill="#EC008C" points="20.026,19.459 15.18,12.812 15.939,12.715 20.661,19.188 				"/>
				<path fill="#EC008C" d="M20.026,19.562c-0.032,0-0.063-0.016-0.083-0.043l-4.846-6.646c-0.021-0.029-0.025-0.067-0.011-0.1
					c0.015-0.034,0.045-0.056,0.081-0.061l0.76-0.097c0.037-0.005,0.074,0.011,0.095,0.041l4.72,6.475
					c0.019,0.024,0.024,0.058,0.017,0.087c-0.009,0.028-0.029,0.055-0.058,0.065l-0.636,0.271
					C20.052,19.559,20.039,19.562,20.026,19.562z M15.364,12.891l4.696,6.443l0.442-0.188l-4.61-6.322L15.364,12.891z"/>
			</g>
			<g>
				<polygon fill="#FFFFFF" points="10.829,13.365 15.939,12.715 14.999,12.918 10.178,13.667 				"/>
				<path fill="#EC008C" d="M10.178,13.77c-0.044,0-0.084-0.029-0.097-0.072c-0.015-0.048,0.008-0.101,0.054-0.122l0.65-0.303
					c0.009-0.004,0.02-0.007,0.03-0.008l5.111-0.65c0.053-0.005,0.104,0.03,0.113,0.084c0.009,0.054-0.025,0.105-0.079,0.117
					l-0.94,0.203l-4.826,0.75C10.189,13.769,10.184,13.77,10.178,13.77z"/>
			</g>
		</g>
		<g>
			<polygon fill="#FFFFFF" points="23.054,20.416 20.627,19.058 16.111,12.798 16.341,12.632 20.839,18.866 23.191,20.168 			"/>
		</g>
	</g>
</g>
</svg>
