<?xml version="1.0" encoding="utf-8"?>
<!-- Generator: Adobe Illustrator 16.0.0, SVG Export Plug-In . SVG Version: 6.00 Build 0)  -->
<!DOCTYPE svg PUBLIC "-//W3C//DTD SVG 1.1//EN" "http://www.w3.org/Graphics/SVG/1.1/DTD/svg11.dtd">
<svg version="1.1" xmlns="http://www.w3.org/2000/svg" xmlns:xlink="http://www.w3.org/1999/xlink" x="0px" y="0px" width="36px"
	 height="36px" viewBox="0 0 36 36" enable-background="new 0 0 36 36" xml:space="preserve">
<g id="Layer_1">
	<g>
		<g>
			<path fill="#E90D8B" d="M18.001,34.902C8.681,34.902,1.098,27.32,1.098,18c0-9.32,7.583-16.902,16.903-16.902
				C27.32,1.098,34.902,8.68,34.902,18C34.902,27.32,27.32,34.902,18.001,34.902z M18.001,1.598C8.956,1.598,1.598,8.956,1.598,18
				c0,9.044,7.358,16.402,16.403,16.402c9.044,0,16.401-7.358,16.401-16.402C34.402,8.956,27.045,1.598,18.001,1.598z"/>
		</g>
	</g>
</g>
<g id="Layer_6">
	<g>
		<g>
			<polyline fill="#EC008C" points="18.171,30.794 9.19,25.609 9.19,11.514 18.171,16.699 18.171,30.794 			"/>
			<path fill="#EC008C" d="M18.171,30.854c-0.01,0-0.02-0.003-0.029-0.009l-8.98-5.185c-0.018-0.01-0.03-0.029-0.03-0.051V11.514
				c0-0.021,0.012-0.04,0.03-0.051c0.018-0.01,0.04-0.01,0.059,0l8.98,5.185c0.018,0.011,0.029,0.03,0.029,0.05v14.095
				c0,0.021-0.011,0.041-0.029,0.051C18.191,30.851,18.181,30.854,18.171,30.854z M9.249,25.576l8.864,5.117v-13.96l-8.864-5.117
				V25.576z"/>
		</g>
		<g>
			<polygon fill="#FFFFFF" points="11.892,16.482 9.666,15.197 9.666,12.308 11.892,13.593 			"/>
			<path fill="#EC008C" d="M11.892,16.541c-0.01,0-0.021-0.002-0.029-0.008l-2.227-1.285c-0.018-0.01-0.029-0.029-0.029-0.051
				v-2.889c0-0.021,0.011-0.04,0.029-0.05c0.019-0.011,0.041-0.011,0.059,0l2.225,1.285c0.019,0.01,0.029,0.03,0.029,0.051v2.889
				c0,0.021-0.011,0.041-0.029,0.051C11.912,16.539,11.902,16.541,11.892,16.541z M9.725,15.163l2.108,1.217v-2.754l-2.108-1.217
				V15.163z"/>
		</g>
		<g>
			<polygon fill="#FFFFFF" points="14.762,18.139 12.536,16.854 12.536,13.965 14.762,15.25 			"/>
			<path fill="#EC008C" d="M14.762,18.198c-0.01,0-0.021-0.002-0.03-0.008l-2.226-1.285c-0.017-0.011-0.029-0.03-0.029-0.05v-2.89
				c0-0.021,0.012-0.041,0.029-0.051c0.019-0.01,0.041-0.01,0.059,0l2.226,1.285c0.018,0.011,0.029,0.03,0.029,0.051v2.89
				c0,0.021-0.011,0.04-0.029,0.051C14.782,18.195,14.771,18.198,14.762,18.198z M12.594,16.82l2.108,1.218v-2.754l-2.108-1.218
				V16.82z"/>
		</g>
		<g>
			<polygon fill="#FFFFFF" points="17.631,19.796 15.405,18.511 15.405,15.622 17.631,16.907 			"/>
			<path fill="#EC008C" d="M17.631,19.854c-0.01,0-0.02-0.002-0.029-0.008l-2.226-1.285c-0.017-0.01-0.029-0.03-0.029-0.05v-2.889
				c0-0.021,0.012-0.041,0.029-0.051c0.019-0.011,0.041-0.011,0.059,0l2.226,1.285c0.018,0.01,0.029,0.03,0.029,0.051v2.889
				c0,0.021-0.012,0.041-0.029,0.051C17.652,19.853,17.641,19.854,17.631,19.854z M15.464,18.477l2.109,1.217V16.94l-2.109-1.217
				V18.477z"/>
		</g>
		<g>
			<polygon fill="#FFFFFF" points="11.892,19.867 9.666,18.583 9.666,15.693 11.892,16.979 			"/>
			<path fill="#EC008C" d="M11.892,19.926c-0.01,0-0.021-0.002-0.029-0.007l-2.227-1.286c-0.018-0.01-0.029-0.03-0.029-0.051v-2.889
				c0-0.021,0.011-0.041,0.029-0.051c0.019-0.01,0.041-0.01,0.059,0l2.225,1.285c0.019,0.01,0.029,0.029,0.029,0.051v2.889
				c0,0.021-0.011,0.04-0.029,0.052C11.912,19.924,11.902,19.926,11.892,19.926z M9.725,18.549l2.108,1.217v-2.754l-2.108-1.217
				V18.549z"/>
		</g>
		<g>
			<polygon fill="#FFFFFF" points="14.762,21.524 12.536,20.24 12.536,17.351 14.762,18.635 			"/>
			<path fill="#EC008C" d="M14.762,21.584c-0.01,0-0.021-0.004-0.03-0.009l-2.226-1.285c-0.017-0.01-0.029-0.029-0.029-0.05v-2.89
				c0-0.021,0.012-0.041,0.029-0.051c0.019-0.011,0.041-0.011,0.059,0l2.226,1.285c0.018,0.01,0.029,0.03,0.029,0.051v2.889
				c0,0.021-0.011,0.041-0.029,0.051C14.782,21.58,14.771,21.584,14.762,21.584z M12.594,20.206l2.108,1.218v-2.755l-2.108-1.217
				V20.206z"/>
		</g>
		<g>
			<polygon fill="#FFFFFF" points="17.631,23.182 15.405,21.896 15.405,19.007 17.631,20.291 			"/>
			<path fill="#EC008C" d="M17.631,23.239c-0.01,0-0.02-0.002-0.029-0.007l-2.226-1.285c-0.017-0.011-0.029-0.03-0.029-0.051v-2.89
				c0-0.021,0.012-0.04,0.029-0.051c0.019-0.01,0.041-0.01,0.059,0l2.226,1.285c0.018,0.011,0.029,0.03,0.029,0.05v2.891
				c0,0.021-0.012,0.04-0.029,0.051C17.652,23.237,17.641,23.239,17.631,23.239z M15.464,21.862l2.109,1.218v-2.754l-2.109-1.218
				V21.862z"/>
		</g>
		<g>
			<polygon fill="#FFFFFF" points="11.892,23.254 9.666,21.968 9.666,19.078 11.892,20.363 			"/>
			<path fill="#EC008C" d="M11.892,23.312c-0.01,0-0.021-0.003-0.029-0.008l-2.227-1.285c-0.018-0.011-0.029-0.03-0.029-0.051v-2.89
				c0-0.02,0.011-0.04,0.029-0.05c0.019-0.012,0.041-0.012,0.059,0l2.225,1.284c0.019,0.012,0.029,0.03,0.029,0.051v2.891
				c0,0.021-0.011,0.039-0.029,0.05C11.912,23.309,11.902,23.312,11.892,23.312z M9.725,21.935l2.108,1.217v-2.754L9.725,19.18
				V21.935z"/>
		</g>
		<g>
			<polygon fill="#FFFFFF" points="14.762,24.91 12.536,23.625 12.536,20.735 14.762,22.021 			"/>
			<path fill="#EC008C" d="M14.762,24.969c-0.01,0-0.021-0.003-0.03-0.009l-2.226-1.284c-0.017-0.011-0.029-0.029-0.029-0.051v-2.89
				c0-0.021,0.012-0.04,0.029-0.051c0.019-0.01,0.041-0.01,0.059,0l2.226,1.286c0.018,0.009,0.029,0.029,0.029,0.05v2.89
				c0,0.021-0.011,0.04-0.029,0.05C14.782,24.966,14.771,24.969,14.762,24.969z M12.594,23.591l2.108,1.218v-2.754l-2.108-1.218
				V23.591z"/>
		</g>
		<g>
			<polygon fill="#FFFFFF" points="17.631,26.567 15.405,25.282 15.405,22.393 17.631,23.678 			"/>
			<path fill="#EC008C" d="M17.631,26.626c-0.01,0-0.02-0.003-0.029-0.008l-2.226-1.285c-0.017-0.012-0.029-0.03-0.029-0.051v-2.89
				c0-0.021,0.012-0.04,0.029-0.051c0.019-0.01,0.041-0.01,0.059,0l2.226,1.285c0.018,0.011,0.029,0.03,0.029,0.051v2.89
				c0,0.021-0.012,0.039-0.029,0.051C17.652,26.623,17.641,26.626,17.631,26.626z M15.464,25.248l2.109,1.217v-2.754l-2.109-1.218
				V25.248z"/>
		</g>
		<g>
			<polygon fill="#FFFFFF" points="11.892,26.639 9.666,25.354 9.666,22.464 11.892,23.749 			"/>
			<path fill="#EC008C" d="M11.892,26.697c-0.01,0-0.021-0.003-0.029-0.008l-2.227-1.285c-0.018-0.011-0.029-0.03-0.029-0.051v-2.89
				c0-0.021,0.011-0.04,0.029-0.051c0.019-0.009,0.041-0.009,0.059,0l2.225,1.285c0.019,0.011,0.029,0.03,0.029,0.051v2.89
				c0,0.021-0.011,0.039-0.029,0.051C11.912,26.694,11.902,26.697,11.892,26.697z M9.725,25.319l2.108,1.217v-2.753l-2.108-1.218
				V25.319z"/>
		</g>
		<g>
			<polygon fill="#FFFFFF" points="14.762,28.295 12.536,27.01 12.536,24.122 14.762,25.406 			"/>
			<path fill="#EC008C" d="M14.762,28.354c-0.01,0-0.021-0.003-0.03-0.008l-2.226-1.284c-0.017-0.01-0.029-0.03-0.029-0.052v-2.888
				c0-0.021,0.012-0.042,0.029-0.052c0.019-0.011,0.041-0.011,0.059,0l2.226,1.285c0.018,0.01,0.029,0.029,0.029,0.051v2.889
				c0,0.021-0.011,0.041-0.029,0.051C14.782,28.351,14.771,28.354,14.762,28.354z M12.594,26.978l2.108,1.216v-2.754l-2.108-1.217
				V26.978z"/>
		</g>
		<g>
			<polygon fill="#FFFFFF" points="17.631,29.952 15.405,28.667 15.405,25.778 17.631,27.063 			"/>
			<path fill="#EC008C" d="M17.631,30.01c-0.01,0-0.02-0.001-0.029-0.007l-2.226-1.284c-0.017-0.011-0.029-0.031-0.029-0.052v-2.889
				c0-0.021,0.012-0.04,0.029-0.052c0.019-0.01,0.041-0.01,0.059,0l2.226,1.285c0.018,0.012,0.029,0.03,0.029,0.052v2.889
				c0,0.021-0.012,0.04-0.029,0.051C17.652,30.009,17.641,30.01,17.631,30.01z M15.464,28.633l2.109,1.218v-2.754l-2.109-1.217
				V28.633z"/>
		</g>
		<g>
			<path fill="#EC008C" d="M18.171,30.854c-0.01,0-0.02-0.003-0.029-0.009c-0.018-0.01-0.029-0.029-0.029-0.051V16.699
				c0-0.021,0.011-0.04,0.029-0.05l8.98-5.185c0.018-0.01,0.041-0.01,0.059,0c0.019,0.011,0.029,0.03,0.029,0.051v14.095
				c0,0.021-0.011,0.041-0.029,0.051l-8.98,5.185C18.191,30.851,18.181,30.854,18.171,30.854z M18.229,16.733v13.96l8.865-5.117
				V11.615L18.229,16.733z"/>
		</g>
		<g>
			<polyline fill="#EC008C" points="18.171,6.329 27.151,11.514 18.171,16.699 9.19,11.514 18.171,6.329 			"/>
			<path fill="#EC008C" d="M18.171,16.757c-0.01,0-0.02-0.002-0.029-0.008l-8.98-5.185c-0.018-0.01-0.03-0.03-0.03-0.05
				c0-0.021,0.012-0.04,0.03-0.051l8.98-5.185c0.018-0.011,0.041-0.011,0.059,0l8.98,5.185c0.019,0.011,0.029,0.03,0.029,0.051
				c0,0.021-0.011,0.04-0.029,0.05L18.2,16.75C18.191,16.755,18.181,16.757,18.171,16.757z M9.308,11.514l8.863,5.117l8.864-5.117
				l-8.864-5.118L9.308,11.514z"/>
		</g>
		<g>
			<polygon fill="#EC008C" stroke="#FFFFFF" stroke-width="0.5" stroke-miterlimit="10" points="20.872,18.548 18.646,19.833 
				18.646,16.943 20.872,15.659 			"/>
			<path fill="#EC008C" stroke="#FFFFFF" stroke-width="0.5" stroke-miterlimit="10" d="M18.646,19.892
				c-0.01,0-0.021-0.003-0.029-0.009c-0.018-0.01-0.029-0.029-0.029-0.05v-2.89c0-0.021,0.011-0.04,0.029-0.05l2.226-1.285
				c0.019-0.01,0.04-0.01,0.059,0c0.018,0.011,0.03,0.03,0.03,0.051v2.889c0,0.021-0.013,0.04-0.03,0.051l-2.225,1.284
				C18.667,19.889,18.657,19.892,18.646,19.892z M18.705,16.978v2.755l2.108-1.218V15.76L18.705,16.978z"/>
		</g>
		<g>
			<polygon fill="#EC008C" stroke="#FFFFFF" stroke-width="0.5" stroke-miterlimit="10" points="23.742,16.891 21.517,18.176 
				21.517,15.287 23.742,14.002 			"/>
			<path fill="#EC008C" stroke="#FFFFFF" stroke-width="0.5" stroke-miterlimit="10" d="M21.517,18.234
				c-0.01,0-0.021-0.002-0.03-0.008c-0.018-0.01-0.028-0.029-0.028-0.051v-2.889c0-0.021,0.011-0.041,0.028-0.051l2.227-1.285
				c0.019-0.01,0.04-0.01,0.058,0c0.019,0.011,0.03,0.03,0.03,0.051v2.889c0,0.021-0.012,0.04-0.03,0.051l-2.226,1.285
				C21.537,18.232,21.525,18.234,21.517,18.234z M21.575,15.32v2.754l2.108-1.218v-2.754L21.575,15.32z"/>
		</g>
		<g>
			<polygon fill="#EC008C" stroke="#FFFFFF" stroke-width="0.5" stroke-miterlimit="10" points="26.611,15.234 24.387,16.519 
				24.387,13.63 26.611,12.345 			"/>
			<path fill="#EC008C" stroke="#FFFFFF" stroke-width="0.5" stroke-miterlimit="10" d="M24.387,16.578
				c-0.011,0-0.021-0.003-0.03-0.008c-0.019-0.01-0.029-0.03-0.029-0.051V13.63c0-0.021,0.011-0.041,0.029-0.051l2.227-1.285
				c0.018-0.01,0.04-0.01,0.058,0c0.019,0.01,0.03,0.03,0.03,0.051v2.889c0,0.021-0.012,0.04-0.03,0.05l-2.226,1.285
				C24.407,16.575,24.396,16.578,24.387,16.578z M24.444,13.664v2.754l2.109-1.217v-2.754L24.444,13.664z"/>
		</g>
		<g>
			<polygon fill="#EC008C" stroke="#FFFFFF" stroke-width="0.5" stroke-miterlimit="10" points="20.872,21.934 18.646,23.218 
				18.646,20.329 20.872,19.045 			"/>
			<path fill="#EC008C" stroke="#FFFFFF" stroke-width="0.5" stroke-miterlimit="10" d="M18.646,23.277
				c-0.01,0-0.021-0.003-0.029-0.008c-0.018-0.011-0.029-0.03-0.029-0.052v-2.889c0-0.021,0.011-0.041,0.029-0.05l2.226-1.286
				c0.019-0.01,0.04-0.01,0.059,0c0.018,0.011,0.03,0.03,0.03,0.052v2.889c0,0.021-0.013,0.04-0.03,0.051l-2.225,1.285
				C18.667,23.274,18.657,23.277,18.646,23.277z M18.705,20.363v2.754l2.108-1.217v-2.754L18.705,20.363z"/>
		</g>
		<g>
			<polygon fill="#EC008C" stroke="#FFFFFF" stroke-width="0.5" stroke-miterlimit="10" points="23.742,20.276 21.517,21.562 
				21.517,18.672 23.742,17.387 			"/>
			<path fill="#EC008C" stroke="#FFFFFF" stroke-width="0.5" stroke-miterlimit="10" d="M21.517,21.619
				c-0.01,0-0.021-0.002-0.03-0.007c-0.018-0.012-0.028-0.029-0.028-0.051v-2.889c0-0.021,0.011-0.041,0.028-0.051l2.227-1.285
				c0.019-0.011,0.04-0.011,0.058,0c0.019,0.01,0.03,0.03,0.03,0.051v2.889c0,0.021-0.012,0.04-0.03,0.051l-2.226,1.285
				C21.537,21.617,21.525,21.619,21.517,21.619z M21.575,18.706v2.754l2.108-1.218v-2.753L21.575,18.706z"/>
		</g>
		<g>
			<polygon fill="#EC008C" stroke="#FFFFFF" stroke-width="0.5" stroke-miterlimit="10" points="26.611,18.62 24.387,19.904 
				24.387,17.015 26.611,15.73 			"/>
			<path fill="#EC008C" stroke="#FFFFFF" stroke-width="0.5" stroke-miterlimit="10" d="M24.387,19.964
				c-0.011,0-0.021-0.003-0.03-0.009c-0.019-0.01-0.029-0.029-0.029-0.051v-2.89c0-0.021,0.011-0.04,0.029-0.05l2.227-1.285
				c0.018-0.011,0.04-0.011,0.058,0c0.019,0.01,0.03,0.029,0.03,0.051v2.889c0,0.021-0.012,0.041-0.03,0.051l-2.226,1.284
				C24.407,19.961,24.396,19.964,24.387,19.964z M24.444,17.049v2.754l2.109-1.217v-2.755L24.444,17.049z"/>
		</g>
		<g>
			<polygon fill="#EC008C" stroke="#FFFFFF" stroke-width="0.5" stroke-miterlimit="10" points="20.872,25.319 18.646,26.604 
				18.646,23.715 20.872,22.431 			"/>
			<path fill="#EC008C" stroke="#FFFFFF" stroke-width="0.5" stroke-miterlimit="10" d="M18.646,26.662
				c-0.01,0-0.021-0.002-0.029-0.008c-0.018-0.01-0.029-0.029-0.029-0.05v-2.89c0-0.021,0.011-0.04,0.029-0.052l2.226-1.284
				c0.019-0.011,0.04-0.011,0.059,0c0.018,0.011,0.03,0.03,0.03,0.052v2.889c0,0.021-0.013,0.04-0.03,0.05l-2.225,1.285
				C18.667,26.66,18.657,26.662,18.646,26.662z M18.705,23.748v2.755l2.108-1.218v-2.754L18.705,23.748z"/>
		</g>
		<g>
			<polygon fill="#EC008C" stroke="#FFFFFF" stroke-width="0.5" stroke-miterlimit="10" points="23.742,23.662 21.517,24.947 
				21.517,22.059 23.742,20.772 			"/>
			<path fill="#EC008C" stroke="#FFFFFF" stroke-width="0.5" stroke-miterlimit="10" d="M21.517,25.006
				c-0.01,0-0.021-0.003-0.03-0.008c-0.018-0.011-0.028-0.03-0.028-0.051v-2.889c0-0.021,0.011-0.041,0.028-0.052l2.227-1.285
				c0.019-0.01,0.04-0.01,0.058,0c0.019,0.011,0.03,0.029,0.03,0.051v2.89c0,0.021-0.012,0.04-0.03,0.051l-2.226,1.285
				C21.537,25.003,21.525,25.006,21.517,25.006z M21.575,22.091v2.754l2.108-1.217v-2.754L21.575,22.091z"/>
		</g>
		<g>
			<polygon fill="#EC008C" stroke="#FFFFFF" stroke-width="0.5" stroke-miterlimit="10" points="26.611,22.005 24.387,23.29 
				24.387,20.401 26.611,19.116 			"/>
			<path fill="#EC008C" stroke="#FFFFFF" stroke-width="0.5" stroke-miterlimit="10" d="M24.387,23.349
				c-0.011,0-0.021-0.003-0.03-0.008c-0.019-0.011-0.029-0.029-0.029-0.051v-2.889c0-0.021,0.011-0.041,0.029-0.051l2.227-1.285
				c0.018-0.011,0.04-0.011,0.058,0c0.019,0.01,0.03,0.029,0.03,0.051v2.889c0,0.021-0.012,0.041-0.03,0.051l-2.226,1.285
				C24.407,23.346,24.396,23.349,24.387,23.349z M24.444,20.435v2.754l2.109-1.217v-2.754L24.444,20.435z"/>
		</g>
		<g>
			<polygon fill="#EC008C" stroke="#FFFFFF" stroke-width="0.5" stroke-miterlimit="10" points="20.872,28.705 18.646,29.989 
				18.646,27.101 20.872,25.814 			"/>
			<path fill="#EC008C" stroke="#FFFFFF" stroke-width="0.5" stroke-miterlimit="10" d="M18.646,30.049
				c-0.01,0-0.021-0.004-0.029-0.01c-0.018-0.009-0.029-0.029-0.029-0.05v-2.889c0-0.021,0.011-0.041,0.029-0.051l2.226-1.285
				c0.019-0.011,0.04-0.011,0.059,0c0.018,0.011,0.03,0.03,0.03,0.05v2.891c0,0.021-0.013,0.04-0.03,0.05l-2.225,1.284
				C18.667,30.045,18.657,30.049,18.646,30.049z M18.705,27.134v2.755l2.108-1.218v-2.755L18.705,27.134z"/>
		</g>
		<g>
			<polygon fill="#EC008C" stroke="#FFFFFF" stroke-width="0.5" stroke-miterlimit="10" points="23.742,27.047 21.517,28.333 
				21.517,25.442 23.742,24.158 			"/>
			<path fill="#EC008C" stroke="#FFFFFF" stroke-width="0.5" stroke-miterlimit="10" d="M21.517,28.391
				c-0.01,0-0.021-0.002-0.03-0.008c-0.018-0.011-0.028-0.029-0.028-0.05v-2.891c0-0.021,0.011-0.04,0.028-0.05l2.227-1.285
				c0.019-0.011,0.04-0.011,0.058,0c0.019,0.011,0.03,0.03,0.03,0.051v2.889c0,0.021-0.012,0.041-0.03,0.051l-2.226,1.285
				C21.537,28.389,21.525,28.391,21.517,28.391z M21.575,25.477v2.754l2.108-1.218v-2.754L21.575,25.477z"/>
		</g>
		<g>
			<polygon fill="#EC008C" stroke="#FFFFFF" stroke-width="0.5" stroke-miterlimit="10" points="26.611,25.391 24.387,26.676 
				24.387,23.786 26.611,22.502 			"/>
			<path fill="#EC008C" stroke="#FFFFFF" stroke-width="0.5" stroke-miterlimit="10" d="M24.387,26.734
				c-0.011,0-0.021-0.003-0.03-0.009c-0.019-0.01-0.029-0.029-0.029-0.05v-2.89c0-0.021,0.011-0.04,0.029-0.051l2.227-1.285
				c0.018-0.011,0.04-0.011,0.058,0c0.019,0.011,0.03,0.03,0.03,0.052v2.889c0,0.021-0.012,0.04-0.03,0.051l-2.226,1.284
				C24.407,26.731,24.396,26.734,24.387,26.734z M24.444,23.82v2.755l2.109-1.218v-2.755L24.444,23.82z"/>
		</g>
	</g>
</g>
</svg>
