<?xml version="1.0" encoding="utf-8"?>
<!-- Generator: Adobe Illustrator 16.0.0, SVG Export Plug-In . SVG Version: 6.00 Build 0)  -->
<!DOCTYPE svg PUBLIC "-//W3C//DTD SVG 1.1//EN" "http://www.w3.org/Graphics/SVG/1.1/DTD/svg11.dtd">
<svg version="1.1" id="Layer_1" xmlns="http://www.w3.org/2000/svg" xmlns:xlink="http://www.w3.org/1999/xlink" x="0px" y="0px"
	 width="300px" height="300px" viewBox="0 0 300 300" enable-background="new 0 0 300 300" xml:space="preserve">
<g>
	<path fill="#5B5B5B" d="M150.008,294.997C70.055,294.997,5,229.947,5,149.998C5,70.048,70.055,5.003,150.008,5.003
		C229.959,5.003,295,70.048,295,149.998C295,229.947,229.959,294.997,150.008,294.997z M150.008,7.765
		C71.579,7.765,7.766,71.57,7.766,149.998c0,78.427,63.813,142.229,142.242,142.229c78.428,0,142.229-63.802,142.229-142.229
		C292.236,71.57,228.436,7.765,150.008,7.765z"/>
	<path fill="#5B5B5B" d="M61.248,216.693h2.239v8.814H74.94v-8.814h2.242v19.843H74.94v-8.925H63.487v8.925h-2.239V216.693z"/>
	<path fill="#5B5B5B" d="M100.585,226.672v-0.057c0-5.473,4.111-10.261,10.147-10.261c6.041,0,10.095,4.733,10.095,10.209v0.052
		c0,5.471-4.111,10.262-10.151,10.262C104.639,236.877,100.585,232.146,100.585,226.672z M118.501,226.672v-0.057
		c0-4.51-3.289-8.19-7.825-8.19c-4.535,0-7.767,3.63-7.767,8.139v0.052c0,4.507,3.288,8.197,7.823,8.197
		C115.27,234.812,118.501,231.182,118.501,226.672z"/>
	<path fill="#5B5B5B" d="M144.23,216.149h2.27l7.228,10.827l7.229-10.827h2.268v19.843h-2.24v-16.07l-7.228,10.631h-0.115
		l-7.228-10.605v16.045h-2.184V216.149z"/>
	<path fill="#5B5B5B" d="M187.508,216.693h14.343v2.039h-12.104v6.775h10.834v2.044h-10.834v6.946h12.251v2.038h-14.489V216.693z"/>
	<path fill="#5B5B5B" d="M223.867,233.646l1.39-1.644c2.069,1.871,4.054,2.811,6.803,2.811c2.67,0,4.422-1.421,4.422-3.376v-0.058
		c0-1.846-0.989-2.894-5.157-3.768c-4.564-0.996-6.661-2.469-6.661-5.733v-0.052c0-3.119,2.749-5.414,6.521-5.414
		c2.891,0,4.961,0.822,6.974,2.436l-1.305,1.727c-1.842-1.498-3.687-2.149-5.727-2.149c-2.58,0-4.223,1.415-4.223,3.2v0.056
		c0,1.872,1.02,2.922,5.384,3.858c4.424,0.965,6.465,2.58,6.465,5.611v0.057c0,3.404-2.835,5.619-6.775,5.619
		C228.827,236.826,226.247,235.773,223.867,233.646z"/>
	<g>
		<path fill="#5B5B5B" d="M149.926,146.803c-9.134,0-14.926,7.219-14.926,16.059v0.146c0,8.84,5.939,16.206,15.073,16.206
			S165,171.995,165,163.156v-0.148C165,154.169,159.061,146.803,149.926,146.803z"/>
		<path fill="#5B5B5B" d="M95.791,147H87v16h9.012c5.672,0,8.988-3.159,8.988-7.578v-0.148C105,150.191,101.462,147,95.791,147z"/>
		<path fill="#5B5B5B" d="M207.605,147H199v16h8.827c5.672,0,9.173-3.159,9.173-7.578v-0.148C217,150.191,213.277,147,207.605,147z"
			/>
		<path fill="#5B5B5B" d="M149.828,50.953L93,97.177V62H72v51.974l-13,11.087V210h182v-84.939L149.828,50.953z M117,155.2
			c0,11.933-9.792,17.8-21.357,17.8H87v16H76v-52h20.748c12.301,0,20.252,7.52,20.252,18.053V155.2z M177,163.008
			c0,14.659-11.162,26.666-27.073,26.666S123,177.814,123,163.156v-0.148c0-14.658,11.163-26.664,27.074-26.664
			c15.91,0,26.926,11.859,26.926,26.518V163.008z M228,155.2c0,11.933-8.977,17.8-20.542,17.8H199v16h-12v-52h21.563
			c12.301,0,19.437,7.52,19.437,18.053V155.2z"/>
	</g>
</g>
</svg>
