<?xml version="1.0" encoding="utf-8"?>
<!-- Generator: Adobe Illustrator 16.0.0, SVG Export Plug-In . SVG Version: 6.00 Build 0)  -->
<!DOCTYPE svg PUBLIC "-//W3C//DTD SVG 1.1//EN" "http://www.w3.org/Graphics/SVG/1.1/DTD/svg11.dtd">
<svg version="1.1" id="Layer_1" xmlns="http://www.w3.org/2000/svg" xmlns:xlink="http://www.w3.org/1999/xlink" x="0px" y="0px"
	 width="572px" height="240px" viewBox="0 0 572 240" enable-background="new 0 0 572 240" xml:space="preserve">
<g>
	<polygon fill="#414042" points="79.367,197.898 84.739,203.293 86.212,207.956 92.862,207.314 159.858,207.966 172.692,200.991 
		385.074,201.268 403.071,211.425 466.979,201.268 477.958,197.477 471.412,138.755 105.973,133.362 72.013,174.791 	"/>
	<path fill="#4981AC" d="M527.88,161.39c0-3.833-3.833-6.621-6.272-10.456c-2.442-3.834-2.788-28.229-6.971-34.153
		c-4.184-5.925-25.44-5.576-36.942-7.667c-11.502-2.093-49.838-20.911-79.46-32.414c-29.623-11.5-119.888-9.756-148.464,0
		c-28.58,9.759-75.279,41.823-75.279,41.823c-13.244,0.698-9.062-2.44-9.062-2.44s-87.825,13.591-104.204,18.82
		c-16.38,5.228-16.381,16.38-20.215,24.396c-3.834,8.015,1.743,30.32,1.394,32.411c-0.348,2.092-2.787,2.091-5.228,4.184
		c-2.439,2.091,12.547,4.18,18.122,3.833c5.578-0.349,29.276,3.483,29.276,3.483l0.163,0.083c-1.238-3.991-1.906-8.232-1.906-12.63
		c0-23.48,19.036-42.518,42.518-42.518c23.481,0,40.747,19.103,42.519,42.518c0.667,8.81,2.144,18.355,2.787,18.124
		c4.88-1.742,10.804-2.44,10.804-2.44s178.785-1.038,194.817,0c10.765,0.698,13.243,2.44,13.243,2.44s1.395-10.666,1.395-16.379
		c0-22.905,18.567-41.474,41.473-41.474c22.905,0,41.472,18.569,41.472,41.474c0,3.041-0.336,6.002-0.958,8.859
		c1.037-0.285,1.726-0.566,2.003-0.844c3.834-3.833,35.548-8.365,44.61-12.199C528.577,184.392,527.88,165.224,527.88,161.39z"/>
	<path opacity="0.3" fill="#F1F2F2" d="M125.152,143.823c-26.831,0-48.579,21.75-48.579,48.58c0,2.713,0.581,6.674,1.115,9.746
		c3.997,0.593,6.888,1.061,6.888,1.061l0.163,0.083c-1.238-3.991-1.906-8.232-1.906-12.63c0-23.48,19.036-42.518,42.518-42.518
		c23.481,0,40.747,19.103,42.519,42.518c0.667,8.81,2.144,18.355,2.787,18.124c1.571-0.562,3.248-1.014,4.803-1.368
		c-0.65-4.026-1.321-9.64-1.728-15.016C171.708,165.648,151.982,143.823,125.152,143.823z"/>
	<path opacity="0.3" fill="#F1F2F2" d="M77.54,142.389c0,0,138.769-15.651,243.454-16.346
		c104.684-0.695,159.982-2.434,168.678-2.434c8.694,0,13.215-4.403-9.044-4.984c-22.257-0.582-228.498,0.115-303.967,8.462
		C101.19,135.435,77.54,142.389,77.54,142.389z"/>
	<g opacity="0.3">
		<path fill="#F1F2F2" d="M186.051,174.498c0-1.235,1.01-2.272,2.244-2.306l194.536-5.31c1.234-0.034,1.922,0.896,1.528,2.066
			l-0.396,1.177c-0.394,1.17-1.725,2.152-2.959,2.182l-192.71,4.718c-1.234,0.03-2.244-0.955-2.244-2.19V174.498z"/>
	</g>
	<g opacity="0.6">
		
			<line fill="none" stroke="#1E415A" stroke-width="1.0434" stroke-linecap="round" stroke-miterlimit="10" x1="188.15" y1="172.741" x2="382.673" y2="167.393"/>
	</g>
	<path fill="none" stroke="#1E415A" stroke-width="0.5217" stroke-miterlimit="10" d="M307.606,117.513c0,0-5.48,39.918-5.48,54.003
		s0,17.997,0,17.997s0.528,7.827,5.48,7.827c4.953,0,56.077,0,59.99,0s7.826-2.087,11.216-10.434
		c3.391-8.347,19.302-38.083,22.955-42.778c3.652-4.696,9.913-14.869,10.956-16.434c1.043-1.564,4.955-5.484,0-11.611"/>
	<path fill="none" stroke="#1E415A" stroke-width="0.5217" stroke-miterlimit="10" d="M172.692,118.598
		c0,0,8.925,2.314,13.358,2.053"/>
	<path fill="none" stroke="#1E415A" stroke-width="0.5217" stroke-miterlimit="10" d="M186.051,120.651c0,0-6.68,3.972-6.68,26.868
		c0,12,0.104,34.952,0,39.647c-0.102,4.695-1.406,10.173,9.549,10.173c10.956,0,121.031,0,121.031,0"/>
	<g>
		<path fill="#6D6E71" d="M165.072,116.441l0.358-0.358C165.43,116.083,165.242,116.225,165.072,116.441z"/>
		<path fill="#6D6E71" d="M174.492,118.523c0,0,43.637-29.96,72.36-40.772l0,0c-21.294,5.164-81.421,38.332-81.421,38.332
			l-0.358,0.358C164.44,117.243,164.057,119.073,174.492,118.523z"/>
	</g>
	
		<line fill="none" stroke="#1E415A" stroke-width="0.5217" stroke-miterlimit="10" x1="167.87" y1="190.664" x2="391.156" y2="187.939"/>
	<path opacity="0.5" fill="#1E415A" d="M168.508,197.34c0.725,6.346,1.669,11.62,2.149,11.447c4.88-1.742,10.804-2.44,10.804-2.44
		s178.785-1.038,194.817,0c10.765,0.698,13.243,2.44,13.243,2.44s0.788-6.027,1.18-11.447H168.508z"/>
	<path opacity="0.5" fill="#1E415A" d="M474.907,200.424c3.834-3.833,35.548-8.365,44.61-12.199
		c8.081-3.418,8.4-19.031,8.375-25.086c-16.818,5.95-46.487,9.97-58.078,11.381c2.594,5.417,4.047,11.481,4.047,17.888
		c0,3.041-0.336,6.002-0.958,8.859C473.94,200.982,474.629,200.701,474.907,200.424z"/>
	<path fill="none" stroke="#1E415A" stroke-width="0.5217" stroke-miterlimit="10" d="M463.047,164.479c0,0,38.102-3.31,41.579-3.31
		c3.478,0,10.435-0.695,9.043-11.129c-1.391-10.433-3.825-26.431-3.825-26.431l5.697-5.139"/>
	<g opacity="0.3">
		<path fill="#F1F2F2" d="M478.075,172.023c-0.064-0.542,0.32-1.076,0.855-1.187l36.309-7.517c0.535-0.111,0.996,0.245,1.024,0.79
			l0.181,3.453c0.029,0.545-0.389,1.063-0.927,1.152l-36.133,5.921c-0.539,0.088-1.032-0.283-1.097-0.825L478.075,172.023z"/>
	</g>
	<path opacity="0.3" fill="#F1F2F2" d="M390.916,192.47H168.016c0.144,1.646,0.31,3.292,0.492,4.871h222.193
		C390.828,195.576,390.914,193.877,390.916,192.47z"/>
	<path opacity="0.3" fill="#F1F2F2" d="M448.632,102.394c-5.547-2.377-38.113-16.061-53.469-22.51
		c15.501,7.446,32.925,20.513,39.297,25.292c2.18,1.634,4.952,4.061,4.388,6.489c3.907,0.174,7.394,0.293,9.785,0.304
		C458.479,112.009,455.936,105.523,448.632,102.394z"/>
	<path opacity="0.5" fill="#1E415A" d="M40.323,177.08c0.869,7.098,2.263,13.553,2.083,14.63c-0.348,2.092-2.787,2.091-5.228,4.184
		c-2.439,2.091,12.547,4.18,18.122,3.833c5.578-0.349,29.276,3.483,29.276,3.483l0.163,0.083c-1.238-3.991-1.906-8.232-1.906-12.63
		c0-4.75,0.792-9.316,2.229-13.583H40.323z"/>
	<g>
		<path fill="none" stroke="#1E415A" stroke-width="0.5217" stroke-miterlimit="10" d="M41.036,193.535l14.481-2.682
			c1.975-0.366,3.869-2.285,4.209-4.264l0.642-3.735c0.34-1.979-1.024-3.599-3.033-3.599h-16.73"/>
	</g>
	<path fill="#E6E7E8" d="M69.628,143.269c0,0-19.793-1.505-22.233,1.206c-2.439,2.711-8.382,14.035-5.827,13.582
		c2.554-0.451,10.39-3.868,14.307-3.702c3.916,0.167,8.835-0.5,10.001-0.333c1.167,0.167,2.354-0.614,2.923-1.789
		c0.568-1.173,2.37-4.776,2.819-5.683C72.033,145.715,72.81,143.465,69.628,143.269z"/>
	<path opacity="0.5" fill="#1E415A" d="M296.855,132.067c0,4.018-3.287,7.304-7.304,7.304h-5.261c-4.018,0-7.305-3.286-7.305-7.304
		H296.855z"/>
	<g>
		<path fill="#264C68" d="M296.855,132.034c0,1.405-1.174,2.554-2.608,2.554h-14.653c-1.435,0-2.608-1.149-2.608-2.554
			s1.174-2.554,2.608-2.554h14.653C295.682,129.48,296.855,130.629,296.855,132.034z"/>
	</g>
	
		<line opacity="0.4" fill="#1E415A" stroke="#F1F2F2" stroke-width="0.5217" stroke-linecap="round" stroke-miterlimit="10" x1="279.391" y1="131.091" x2="295.167" y2="131.091"/>
	<path opacity="0.5" fill="#1E415A" d="M400.636,129.711c0,4.017-3.287,7.304-7.304,7.304h-5.262c-4.016,0-7.303-3.287-7.303-7.304
		H400.636z"/>
	<g>
		<path fill="#264C68" d="M400.636,129.677c0,1.405-1.174,2.555-2.608,2.555h-14.653c-1.435,0-2.608-1.149-2.608-2.555
			s1.174-2.555,2.608-2.555h14.653C399.462,127.123,400.636,128.272,400.636,129.677z"/>
	</g>
	
		<line opacity="0.4" fill="#1E415A" stroke="#F1F2F2" stroke-width="0.5217" stroke-linecap="round" stroke-miterlimit="10" x1="383.171" y1="128.734" x2="398.948" y2="128.734"/>
	<path opacity="0.1" fill="#F1F2F2" d="M328.993,114.13l-79.279,91.902c52.349-0.188,117.203-0.292,126.564,0.314
		c10.765,0.698,13.243,2.44,13.243,2.44s1.395-10.666,1.395-16.379c0-22.905,18.567-41.474,41.473-41.474
		c22.905,0,41.472,18.569,41.472,41.474c0,3.041-0.336,6.002-0.958,8.859c1.037-0.285,1.726-0.566,2.003-0.844
		c3.834-3.833,35.548-8.365,44.61-12.199c9.061-3.833,8.364-23.001,8.364-26.834c0-3.833-3.833-6.621-6.272-10.456
		c-2.442-3.834-2.788-28.229-6.971-34.153c-3.219-4.559-16.548-5.404-27.764-6.505c-9.859,2.226-18.559,3.783-23.827,3.854
		C443.763,114.393,328.993,114.13,328.993,114.13z"/>
	<path fill="#414042" d="M434.46,105.176c-7.504-5.627-30.337-22.753-47.307-28.656c-13.285-4.62-61.401-4.966-68.205-4.991
		l-0.002-0.002h-0.732c-0.001,0-0.002,0-0.002,0h-5.77l0,0c-4.601,0.014-34.775,0.387-57.922,7.713
		c-27.372,8.662-69.183,40.055-69.601,40.37c-0.456,0.345-0.635,0.943-0.444,1.479c0.186,0.521,0.679,0.868,1.228,0.868
		c0.017,0,0.035,0,0.051-0.001l112.813-4.315L318,117.368c0.071,0.01,0.139,0.021,0.211,0.021c0.009,0,0.018,0,0.027-0.002
		c1.054-0.02,105.418-2.212,109.875-2.212c6.721,0,9.913-0.971,10.671-3.249C439.623,109.411,436.717,106.869,434.46,105.176z"/>
	<path fill="#6D6E71" d="M191.441,118.565c0,0,34.953-27.301,62.429-35.997c24.865-7.869,58.081-7.652,58.081-7.652l-11.477,39.78
		L191.441,118.565z"/>
	<path fill="#6D6E71" d="M318.211,75.438v36.472c0,0,91.816-0.125,96.338-0.125s24.384,1.282,19.129-2.958
		c-9.474-7.646-30.955-22.902-46.953-28.466C372.768,75.506,318.211,75.438,318.211,75.438z"/>
	
		<line fill="none" stroke="#414042" stroke-width="2.6084" stroke-miterlimit="10" x1="390.701" y1="79.884" x2="412.984" y2="114.13"/>
	<path opacity="0.1" fill="#F1F2F2" d="M244.675,116.678l55.799-1.98l11.096-38.462C290.678,88.705,263.057,105.479,244.675,116.678
		z"/>
	<path opacity="0.1" fill="#F1F2F2" d="M433.678,108.827c-7.258-5.857-21.562-16.178-35.051-23.188
		c-25.364,6.486-65.11,16.589-80.416,20.153v6.118c0,0,91.816-0.125,96.338-0.125S438.933,113.068,433.678,108.827z"/>
	<path fill="#E4CDA3" d="M43.605,150.462c-2.019,3.833-3.584,7.869-2.038,7.595c2.554-0.451,10.39-3.868,14.307-3.702
		c3.916,0.167,8.835-0.5,10.001-0.333c1.167,0.167,2.354-0.614,2.923-1.789c0.188-0.387,0.51-1.041,0.873-1.771H43.605z"/>
	<path fill="#ED1C24" stroke="#ED1C24" stroke-width="0.5217" stroke-miterlimit="10" d="M520.333,136.322h-8.597l-1.892-12.713
		l6.442-5.875c0,0,3.578,5.571,4.047,9.793C520.802,131.75,520.333,136.322,520.333,136.322z"/>
	<path opacity="0.1" fill="#F1F2F2" d="M517.304,119.466l-6.007,13.915l0.438,2.941h8.597c0,0,0.469-4.572,0-8.795
		C520.025,124.773,518.398,121.447,517.304,119.466z"/>
	<path fill="none" stroke="#1E415A" stroke-width="0.5217" stroke-miterlimit="10" d="M72.671,144.475
		c0,0-7.999,15.416-8.347,18.664c-0.346,3.248,1.74,8.654,8.347,9.603c6.609,0.948,14.116,0,14.116,0"/>
	<path opacity="0.6" fill="#F1F2F2" d="M71.823,144.283c-0.279-0.52-0.913-0.934-2.195-1.014c0,0-19.793-1.505-22.233,1.206
		c-1.325,1.473-3.681,5.484-5.15,8.771C48.735,151.255,63.219,146.826,71.823,144.283z"/>
	<g>
		<circle fill="#58595B" cx="432.286" cy="192.47" r="37.213"/>
		<circle fill="#D1D3D4" cx="432.285" cy="192.47" r="29.214"/>
		<circle fill="#6D6E71" cx="432.286" cy="192.47" r="23.509"/>
		<g>
			<path fill="#A7A9AC" d="M431.252,168.989c-0.141,0.006-0.28,0.015-0.421,0.022C430.972,169.003,431.111,168.996,431.252,168.989z
				"/>
			<path fill="#A7A9AC" d="M435.546,169.193c-0.417-0.059-0.838-0.105-1.263-0.141C434.707,169.09,435.129,169.134,435.546,169.193z
				"/>
			<path fill="#A7A9AC" d="M433.741,169.011c-0.14-0.008-0.281-0.017-0.422-0.022C433.46,168.996,433.601,169.003,433.741,169.011z"
				/>
			<path fill="#A7A9AC" d="M449.956,176.973c-0.338-0.383-0.681-0.76-1.042-1.121C449.278,176.217,449.623,176.592,449.956,176.973z
				"/>
			<path fill="#A7A9AC" d="M448.904,175.841c-0.361-0.357-0.735-0.702-1.118-1.038C448.167,175.137,448.542,175.48,448.904,175.841z
				"/>
			<path fill="#A7A9AC" d="M430.288,169.053c-0.423,0.036-0.843,0.082-1.261,0.141C429.444,169.134,429.865,169.09,430.288,169.053z
				"/>
			<path fill="#A7A9AC" d="M451.082,206.585c-0.301,0.403-0.622,0.795-0.951,1.18c2.85-3.321,4.787-7.442,5.427-11.985
				c-7.399-0.007-13.392-2.52-13.393-3.31c0-0.713,5.994-3.3,13.393-3.31c-0.64-4.541-2.578-8.663-5.426-11.983
				c0.33,0.386,0.649,0.777,0.95,1.178c-5.238,5.227-11.251,7.687-11.809,7.129c-0.505-0.505,1.903-6.571,7.129-11.811
				c0.399,0.301,0.792,0.62,1.174,0.949c-3.318-2.848-7.439-4.784-11.98-5.424c-0.009,7.401-2.521,13.392-3.309,13.392
				c-0.714,0-3.302-5.991-3.311-13.392c-4.545,0.641-8.672,2.583-11.995,5.436c0.39-0.333,0.785-0.656,1.188-0.958
				c5.228,5.237,7.688,11.25,7.13,11.809c-0.503,0.506-6.571-1.903-11.81-7.129c0.303-0.403,0.624-0.796,0.956-1.182
				c-2.852,3.32-4.791,7.444-5.431,11.987c7.399,0.009,13.392,2.521,13.392,3.31c0.002,0.715-5.993,3.303-13.392,3.31
				c0.641,4.547,2.582,8.673,5.435,11.994c-0.333-0.387-0.654-0.783-0.959-1.188c5.238-5.226,11.252-7.685,11.81-7.127
				c0.505,0.503-1.902,6.571-7.13,11.81c-0.402-0.305-0.794-0.624-1.182-0.955c3.643,3.128,8.253,5.156,13.323,5.578
				c-0.448-0.039-0.894-0.086-1.333-0.148c0.008-7.398,2.52-13.391,3.31-13.392c0.713-0.001,3.3,5.994,3.309,13.393
				c4.543-0.64,8.666-2.58,11.989-5.43c-0.388,0.33-0.781,0.649-1.183,0.954c-5.226-5.239-7.687-11.252-7.129-11.81
				C439.776,198.952,445.844,201.359,451.082,206.585z M455.055,198.311c-0.271,1.059-0.618,2.109-1.046,3.149
				c-0.431,1.038-0.931,2.026-1.484,2.967c-6.834-2.836-11.41-7.449-11.11-8.178C441.688,195.589,448.214,195.489,455.055,198.311z
				 M452.515,180.5c0.556,0.94,1.056,1.929,1.486,2.967c0.431,1.038,0.775,2.091,1.05,3.148c-6.838,2.826-13.335,2.799-13.639,2.071
				C441.138,188.028,445.684,183.341,452.515,180.5z M409.517,186.63c0.272-1.057,0.617-2.11,1.047-3.148
				c0.43-1.04,0.931-2.027,1.484-2.967c6.834,2.835,11.409,7.449,11.108,8.178C422.884,189.353,416.358,189.452,409.517,186.63z
				 M412.056,204.441c-0.556-0.94-1.055-1.928-1.486-2.966c-0.431-1.039-0.776-2.09-1.049-3.147
				c6.838-2.826,13.336-2.801,13.638-2.072C423.434,196.914,418.888,201.6,412.056,204.441z M426.445,215.239
				c-1.057-0.272-2.109-0.618-3.147-1.047c-1.039-0.43-2.026-0.929-2.968-1.483c2.837-6.834,7.45-11.411,8.178-11.109
				C429.168,201.872,429.268,208.399,426.445,215.239z M428.502,183.343c-0.659,0.276-5.346-4.27-8.188-11.103
				c0.941-0.555,1.929-1.054,2.967-1.486c1.038-0.43,2.09-0.774,3.147-1.05C429.256,176.545,429.23,183.041,428.502,183.343z
				 M444.258,212.7c-0.943,0.558-1.93,1.056-2.968,1.486c-1.039,0.431-2.09,0.775-3.148,1.049c-2.825-6.838-2.8-13.336-2.07-13.639
				C436.729,201.323,441.414,205.868,444.258,212.7z M436.063,183.341c-0.659-0.272-0.759-6.8,2.063-13.639
				c1.057,0.271,2.109,0.617,3.148,1.046c1.04,0.43,2.026,0.931,2.968,1.484C441.405,179.067,436.792,183.643,436.063,183.341z"/>
			<path fill="#A7A9AC" d="M430.814,215.928c0.15,0.01,0.301,0.019,0.454,0.025C431.115,215.946,430.964,215.938,430.814,215.928z"
				/>
			<path fill="#A7A9AC" d="M455.746,193.927c0.008-0.142,0.018-0.283,0.023-0.424C455.762,193.644,455.754,193.786,455.746,193.927z
				"/>
			<path fill="#A7A9AC" d="M434.283,215.889c0.431-0.037,0.858-0.082,1.282-0.144C435.141,215.807,434.714,215.852,434.283,215.889z
				"/>
			<path fill="#A7A9AC" d="M433.307,215.953c0.148-0.007,0.295-0.016,0.442-0.025C433.602,215.938,433.456,215.946,433.307,215.953z
				"/>
			<path fill="#A7A9AC" d="M432.287,215.979c-0.025,0-0.05-0.002-0.074-0.002C432.237,215.978,432.261,215.979,432.287,215.979
				c0.024,0,0.048-0.002,0.073-0.002C432.335,215.978,432.311,215.979,432.287,215.979z"/>
			<path fill="#A7A9AC" d="M408.869,194.468c0.036,0.431,0.083,0.858,0.142,1.282C408.951,195.326,408.905,194.898,408.869,194.468z
				"/>
			<path fill="#A7A9AC" d="M408.802,191.455c0.008-0.155,0.016-0.307,0.027-0.461C408.818,191.147,408.81,191.299,408.802,191.455z"
				/>
			<path fill="#A7A9AC" d="M408.803,193.492c0.007,0.147,0.014,0.294,0.024,0.441C408.817,193.787,408.81,193.64,408.803,193.492z"
				/>
			<path fill="#A7A9AC" d="M448.908,209.094c-0.367,0.366-0.745,0.714-1.129,1.051c0.771-0.679,1.499-1.406,2.178-2.179
				C449.621,208.35,449.274,208.728,448.908,209.094z"/>
			<path fill="#A7A9AC" d="M415.662,209.094c-0.368-0.368-0.717-0.749-1.055-1.138c0.681,0.777,1.411,1.508,2.187,2.189
				C416.41,209.809,416.03,209.46,415.662,209.094z"/>
			<path fill="#A7A9AC" d="M455.702,190.456c-0.035-0.417-0.081-0.83-0.137-1.241C455.622,189.626,455.666,190.042,455.702,190.456z
				"/>
			<path fill="#A7A9AC" d="M455.769,191.434c-0.005-0.137-0.014-0.273-0.023-0.41C455.754,191.161,455.762,191.297,455.769,191.434z
				"/>
			<path fill="#A7A9AC" d="M455.562,195.75c0.058-0.424,0.105-0.851,0.141-1.283C455.666,194.899,455.621,195.328,455.562,195.75z"
				/>
			<path fill="#A7A9AC" d="M415.662,175.848c0.369-0.369,0.75-0.717,1.137-1.058c-0.776,0.682-1.506,1.413-2.189,2.188
				C414.949,176.594,415.296,176.215,415.662,175.848z"/>
			<path fill="#A7A9AC" d="M408.866,190.5c0.037-0.44,0.084-0.879,0.145-1.313C408.95,189.622,408.903,190.059,408.866,190.5z"/>
			<path fill="#A7A9AC" d="M408.778,192.47c0-0.024,0.001-0.05,0.001-0.073C408.779,192.42,408.778,192.445,408.778,192.47
				c0,0.027,0.001,0.049,0.001,0.074C408.779,192.521,408.778,192.497,408.778,192.47z"/>
		</g>
		<circle fill="#D1D3D4" cx="432.287" cy="192.47" r="2.038"/>
		<circle fill="#D1D3D4" cx="432.286" cy="186.359" r="0.684"/>
		<circle fill="#D1D3D4" cx="436.608" cy="188.149" r="0.684"/>
		<circle fill="#D1D3D4" cx="438.397" cy="192.471" r="0.683"/>
		<circle fill="#D1D3D4" cx="436.607" cy="196.793" r="0.684"/>
		<circle fill="#D1D3D4" cx="432.285" cy="198.583" r="0.684"/>
		<circle fill="#D1D3D4" cx="427.965" cy="196.793" r="0.684"/>
		<circle fill="#D1D3D4" cx="426.175" cy="192.47" r="0.684"/>
		<circle fill="#D1D3D4" cx="427.965" cy="188.149" r="0.684"/>
		<path opacity="0.4" fill="#F1F2F2" d="M450.371,169.537l-36.109,45.917c4.965,3.899,11.222,6.23,18.025,6.23
			c16.134,0,29.213-13.079,29.213-29.215C461.5,183.167,457.146,174.885,450.371,169.537z"/>
	</g>
	<g>
		<circle fill="#58595B" cx="126.016" cy="192.47" r="37.214"/>
		<circle fill="#D1D3D4" cx="126.015" cy="192.47" r="29.214"/>
		<circle fill="#6D6E71" cx="126.016" cy="192.47" r="23.508"/>
		<g>
			<path fill="#A7A9AC" d="M124.982,168.989c-0.141,0.006-0.281,0.015-0.422,0.022C124.701,169.003,124.841,168.996,124.982,168.989
				z"/>
			<path fill="#A7A9AC" d="M129.276,169.193c-0.417-0.059-0.837-0.105-1.261-0.141C128.438,169.09,128.859,169.134,129.276,169.193z
				"/>
			<path fill="#A7A9AC" d="M127.471,169.011c-0.14-0.008-0.281-0.017-0.423-0.022C127.19,168.996,127.331,169.003,127.471,169.011z"
				/>
			<path fill="#A7A9AC" d="M143.686,176.973c-0.338-0.383-0.681-0.76-1.042-1.121C143.007,176.217,143.352,176.592,143.686,176.973z
				"/>
			<path fill="#A7A9AC" d="M142.635,175.841c-0.362-0.357-0.738-0.702-1.12-1.038C141.896,175.137,142.271,175.48,142.635,175.841z"
				/>
			<path fill="#A7A9AC" d="M124.017,169.053c-0.422,0.036-0.844,0.082-1.26,0.141C123.173,169.134,123.595,169.09,124.017,169.053z"
				/>
			<path fill="#A7A9AC" d="M144.812,206.585c-0.301,0.403-0.621,0.795-0.952,1.18c2.85-3.321,4.788-7.442,5.429-11.985
				c-7.402-0.007-13.394-2.52-13.395-3.31c0-0.713,5.993-3.3,13.395-3.31c-0.642-4.541-2.579-8.663-5.428-11.983
				c0.331,0.386,0.649,0.777,0.951,1.178c-5.238,5.227-11.252,7.687-11.809,7.129c-0.505-0.505,1.903-6.571,7.128-11.811
				c0.4,0.301,0.791,0.62,1.176,0.949c-3.319-2.848-7.441-4.784-11.981-5.424c-0.009,7.401-2.522,13.392-3.31,13.392
				c-0.714,0-3.302-5.991-3.311-13.392c-4.545,0.641-8.671,2.583-11.994,5.436c0.39-0.333,0.783-0.656,1.188-0.958
				c5.228,5.237,7.687,11.25,7.13,11.809c-0.504,0.506-6.572-1.903-11.81-7.129c0.302-0.403,0.624-0.796,0.955-1.182
				c-2.853,3.32-4.792,7.444-5.431,11.987c7.4,0.009,13.392,2.521,13.392,3.31c0.001,0.715-5.992,3.303-13.392,3.31
				c0.64,4.547,2.582,8.673,5.435,11.994c-0.334-0.387-0.654-0.783-0.959-1.188c5.237-5.226,11.251-7.685,11.81-7.127
				c0.506,0.503-1.903,6.571-7.13,11.81c-0.402-0.305-0.796-0.624-1.183-0.955c3.644,3.128,8.254,5.156,13.324,5.578
				c-0.448-0.039-0.894-0.086-1.333-0.148c0.007-7.398,2.52-13.391,3.309-13.392c0.713-0.001,3.301,5.994,3.309,13.393
				c4.544-0.64,8.666-2.58,11.989-5.43c-0.388,0.33-0.78,0.649-1.183,0.954c-5.225-5.239-7.686-11.252-7.128-11.81
				C133.506,198.952,139.574,201.359,144.812,206.585z M148.784,198.311c-0.271,1.059-0.617,2.109-1.045,3.149
				c-0.431,1.038-0.931,2.026-1.485,2.967c-6.835-2.836-11.411-7.449-11.11-8.178C135.417,195.589,141.943,195.489,148.784,198.311z
				 M146.244,180.5c0.557,0.94,1.057,1.929,1.487,2.967c0.43,1.038,0.775,2.091,1.05,3.148c-6.84,2.826-13.336,2.799-13.639,2.071
				C134.868,188.028,139.414,183.341,146.244,180.5z M103.246,186.63c0.272-1.057,0.618-2.11,1.049-3.148
				c0.428-1.04,0.928-2.027,1.482-2.967c6.835,2.835,11.411,7.449,11.109,8.178C116.615,189.353,110.088,189.452,103.246,186.63z
				 M105.787,204.441c-0.557-0.94-1.056-1.928-1.486-2.966c-0.431-1.039-0.776-2.09-1.05-3.147
				c6.839-2.826,13.336-2.801,13.639-2.072C117.164,196.914,112.618,201.6,105.787,204.441z M120.175,215.239
				c-1.058-0.272-2.109-0.618-3.147-1.047c-1.038-0.43-2.026-0.929-2.968-1.483c2.837-6.834,7.449-11.411,8.179-11.109
				C122.898,201.872,122.998,208.399,120.175,215.239z M122.232,183.343c-0.66,0.276-5.346-4.27-8.186-11.103
				c0.939-0.555,1.927-1.054,2.966-1.486c1.037-0.43,2.089-0.774,3.146-1.05C122.986,176.545,122.96,183.041,122.232,183.343z
				 M137.987,212.7c-0.942,0.558-1.93,1.056-2.968,1.486c-1.039,0.431-2.091,0.775-3.148,1.049
				c-2.826-6.838-2.799-13.336-2.071-13.639C130.459,201.323,135.144,205.868,137.987,212.7z M129.792,183.341
				c-0.659-0.272-0.759-6.8,2.062-13.639c1.059,0.271,2.11,0.617,3.149,1.046c1.039,0.43,2.027,0.931,2.968,1.484
				C135.135,179.067,130.522,183.643,129.792,183.341z"/>
			<path fill="#A7A9AC" d="M124.544,215.928c0.151,0.01,0.301,0.019,0.454,0.025C124.845,215.946,124.695,215.938,124.544,215.928z"
				/>
			<path fill="#A7A9AC" d="M149.475,193.927c0.008-0.142,0.018-0.283,0.023-0.424C149.492,193.644,149.484,193.786,149.475,193.927z
				"/>
			<path fill="#A7A9AC" d="M128.013,215.889c0.43-0.037,0.857-0.082,1.281-0.144C128.871,215.807,128.443,215.852,128.013,215.889z"
				/>
			<path fill="#A7A9AC" d="M127.038,215.953c0.148-0.007,0.293-0.016,0.44-0.025C127.333,215.938,127.185,215.946,127.038,215.953z"
				/>
			<path fill="#A7A9AC" d="M126.016,215.979c-0.025,0-0.049-0.002-0.075-0.002C125.967,215.978,125.991,215.979,126.016,215.979
				c0.023,0,0.049-0.002,0.074-0.002C126.065,215.978,126.04,215.979,126.016,215.979z"/>
			<path fill="#A7A9AC" d="M102.599,194.468c0.036,0.431,0.083,0.858,0.142,1.282C102.681,195.326,102.635,194.898,102.599,194.468z
				"/>
			<path fill="#A7A9AC" d="M102.532,191.455c0.008-0.155,0.016-0.307,0.025-0.461C102.548,191.147,102.539,191.299,102.532,191.455z
				"/>
			<path fill="#A7A9AC" d="M102.533,193.492c0.005,0.147,0.015,0.294,0.024,0.441C102.548,193.787,102.54,193.64,102.533,193.492z"
				/>
			<path fill="#A7A9AC" d="M142.638,209.094c-0.367,0.366-0.745,0.714-1.129,1.051c0.773-0.679,1.5-1.406,2.178-2.179
				C143.351,208.35,143.005,208.728,142.638,209.094z"/>
			<path fill="#A7A9AC" d="M109.394,209.094c-0.369-0.368-0.718-0.749-1.058-1.138c0.681,0.777,1.412,1.508,2.188,2.189
				C110.139,209.809,109.76,209.46,109.394,209.094z"/>
			<path fill="#A7A9AC" d="M149.434,190.456c-0.038-0.417-0.082-0.83-0.139-1.241C149.352,189.626,149.396,190.042,149.434,190.456z
				"/>
			<path fill="#A7A9AC" d="M149.499,191.434c-0.006-0.137-0.015-0.273-0.023-0.41C149.484,191.161,149.492,191.297,149.499,191.434z
				"/>
			<path fill="#A7A9AC" d="M149.292,195.75c0.059-0.424,0.105-0.851,0.142-1.283C149.396,194.899,149.351,195.328,149.292,195.75z"
				/>
			<path fill="#A7A9AC" d="M109.394,175.848c0.368-0.369,0.75-0.717,1.136-1.058c-0.776,0.682-1.507,1.413-2.188,2.188
				C108.678,176.594,109.026,176.215,109.394,175.848z"/>
			<path fill="#A7A9AC" d="M102.596,190.5c0.037-0.44,0.084-0.879,0.145-1.313C102.68,189.622,102.632,190.059,102.596,190.5z"/>
			<path fill="#A7A9AC" d="M102.508,192.47c0-0.024,0.001-0.05,0.001-0.073C102.509,192.42,102.508,192.445,102.508,192.47
				c0,0.027,0.001,0.049,0.001,0.074C102.509,192.521,102.508,192.497,102.508,192.47z"/>
		</g>
		<circle fill="#D1D3D4" cx="126.016" cy="192.47" r="2.037"/>
		<circle fill="#D1D3D4" cx="126.015" cy="186.359" r="0.685"/>
		<circle fill="#D1D3D4" cx="130.338" cy="188.149" r="0.684"/>
		<circle fill="#D1D3D4" cx="132.127" cy="192.471" r="0.683"/>
		<circle fill="#D1D3D4" cx="130.336" cy="196.793" r="0.683"/>
		<circle fill="#D1D3D4" cx="126.015" cy="198.583" r="0.685"/>
		<circle fill="#D1D3D4" cx="121.695" cy="196.793" r="0.684"/>
		<circle fill="#D1D3D4" cx="119.904" cy="192.47" r="0.684"/>
		<circle fill="#D1D3D4" cx="121.695" cy="188.149" r="0.684"/>
		<path opacity="0.4" fill="#F1F2F2" d="M144.101,169.537l-36.109,45.917c4.966,3.899,11.221,6.23,18.024,6.23
			c16.134,0,29.213-13.079,29.213-29.215C155.229,183.167,150.876,174.885,144.101,169.537z"/>
	</g>
</g>
</svg>
