<?xml version="1.0" encoding="utf-8"?>
<!-- Generator: Adobe Illustrator 16.0.0, SVG Export Plug-In . SVG Version: 6.00 Build 0)  -->
<!DOCTYPE svg PUBLIC "-//W3C//DTD SVG 1.1//EN" "http://www.w3.org/Graphics/SVG/1.1/DTD/svg11.dtd">
<svg version="1.1" id="Layer_1" xmlns="http://www.w3.org/2000/svg" xmlns:xlink="http://www.w3.org/1999/xlink" x="0px" y="0px"
	 width="205.5px" height="185.5px" viewBox="0 0 205.5 185.5" enable-background="new 0 0 205.5 185.5" xml:space="preserve">
<g>
	<circle fill="#808C98" cx="112.917" cy="92.75" r="86.767"/>
	<circle fill="#A0AEBB" cx="107.506" cy="92.75" r="86.767"/>
	<path opacity="0.1" fill="#FFFFFF" d="M107.507,92.75l82.271-27.555c-5.825-17.401-17.006-32.337-31.597-42.858L107.507,92.75z"/>
	<circle fill="#808C98" cx="107.506" cy="92.75" r="45.386"/>
	<path fill="#717C86" d="M67.128,92.75c0-24.227,18.98-44.015,42.882-45.313c-0.829-0.045-1.664-0.072-2.503-0.072
		c-25.065,0-45.387,20.319-45.387,45.386s20.321,45.386,45.387,45.386c0.839,0,1.674-0.027,2.503-0.072
		C86.108,136.765,67.128,116.977,67.128,92.75z"/>
	<circle fill="#717C86" cx="111.313" cy="92.75" r="34.375"/>
	<circle fill="#919EAA" cx="105.973" cy="92.75" r="34.374"/>
	<linearGradient id="SVGID_1_" gradientUnits="userSpaceOnUse" x1="131.6318" y1="89.9619" x2="118.2465" y2="82.2339">
		<stop  offset="0" style="stop-color:#919EAA;stop-opacity:0"/>
		<stop  offset="0.193" style="stop-color:#909DA9;stop-opacity:0.0043"/>
		<stop  offset="0.4298" style="stop-color:#88949F;stop-opacity:0.2965"/>
		<stop  offset="0.8257" style="stop-color:#747D86;stop-opacity:0.7849"/>
		<stop  offset="1" style="stop-color:#697178"/>
	</linearGradient>
	<path fill="url(#SVGID_1_)" d="M119.627,82.983l7.525,10.332l4.34-3.111l-7.525-10.334c-0.859-1.197-2.528-1.473-3.726-0.614
		C119.044,80.115,118.769,81.784,119.627,82.983z"/>
	<linearGradient id="SVGID_2_" gradientUnits="userSpaceOnUse" x1="131.6328" y1="112.4385" x2="118.2475" y2="104.7104">
		<stop  offset="0" style="stop-color:#919EAA;stop-opacity:0"/>
		<stop  offset="0.193" style="stop-color:#909DA9;stop-opacity:0.0043"/>
		<stop  offset="0.4298" style="stop-color:#88949F;stop-opacity:0.2965"/>
		<stop  offset="0.8257" style="stop-color:#747D86;stop-opacity:0.7849"/>
		<stop  offset="1" style="stop-color:#697178"/>
	</linearGradient>
	<path fill="url(#SVGID_2_)" d="M119.627,105.46l7.525,10.333l4.34-3.111l-7.525-10.335c-0.859-1.197-2.528-1.473-3.726-0.613
		C119.044,102.592,118.769,104.263,119.627,105.46z"/>
	<linearGradient id="SVGID_3_" gradientUnits="userSpaceOnUse" x1="103.0879" y1="112.4375" x2="89.7034" y2="104.71">
		<stop  offset="0" style="stop-color:#919EAA;stop-opacity:0"/>
		<stop  offset="0.193" style="stop-color:#909DA9;stop-opacity:0.0043"/>
		<stop  offset="0.4298" style="stop-color:#88949F;stop-opacity:0.2965"/>
		<stop  offset="0.8257" style="stop-color:#747D86;stop-opacity:0.7849"/>
		<stop  offset="1" style="stop-color:#697178"/>
	</linearGradient>
	<path fill="url(#SVGID_3_)" d="M91.083,105.46l7.527,10.333l4.337-3.111l-7.523-10.335c-0.86-1.197-2.526-1.473-3.727-0.613
		C90.5,102.592,90.225,104.263,91.083,105.46z"/>
	<g>
		<path fill="#9EA8B1" d="M121.851,78.757h-6.264v5.34h6.264c1.473,0,2.671-1.196,2.671-2.671
			C124.521,79.953,123.323,78.757,121.851,78.757z"/>
		<circle fill="#B7C2CB" cx="115.586" cy="81.426" r="2.67"/>
	</g>
	<g>
		<path fill="#9EA8B1" d="M121.851,101.233h-6.264v5.34h6.264c1.473,0,2.671-1.196,2.671-2.67
			C124.521,102.428,123.323,101.233,121.851,101.233z"/>
		<circle fill="#B7C2CB" cx="115.586" cy="103.903" r="2.67"/>
	</g>
	<linearGradient id="SVGID_4_" gradientUnits="userSpaceOnUse" x1="121.9775" y1="105.5049" x2="101.0424" y2="93.418">
		<stop  offset="0" style="stop-color:#919EAA;stop-opacity:0"/>
		<stop  offset="0.193" style="stop-color:#909DA9;stop-opacity:0.0043"/>
		<stop  offset="0.4298" style="stop-color:#88949F;stop-opacity:0.2965"/>
		<stop  offset="0.8257" style="stop-color:#747D86;stop-opacity:0.7849"/>
		<stop  offset="1" style="stop-color:#697178"/>
	</linearGradient>
	<path fill="url(#SVGID_4_)" d="M103.2,94.589l11.772,16.163l6.785-4.867l-11.77-16.164c-1.344-1.873-3.954-2.304-5.828-0.959
		C102.287,90.104,101.855,92.718,103.2,94.589z"/>
	<g>
		<path fill="#9EA8B1" d="M106.678,87.979h-9.797v8.353h9.797c2.306,0,4.176-1.87,4.176-4.175
			C110.854,89.849,108.983,87.979,106.678,87.979z"/>
		<circle fill="#B7C2CB" cx="96.88" cy="92.156" r="4.175"/>
	</g>
	<path opacity="0.2" fill="#626C76" d="M64.858,40.745l-6.13-6.13l-19.477,6.13h-1.204C27.181,55.238,20.739,73.241,20.739,92.75
		c0,19.293,6.305,37.108,16.954,51.517h7.099h12.527c-18.294-15.781,3.163-37.731,3.163-54.039
		C60.482,68.62,42.172,57.604,64.858,40.745z"/>
	<g>
		<path fill="#9EA8B1" d="M93.192,101.233h-6.264v5.34h6.264c1.474,0,2.671-1.196,2.671-2.67
			C95.863,102.428,94.666,101.233,93.192,101.233z"/>
		<circle fill="#B7C2CB" cx="86.928" cy="103.903" r="2.67"/>
	</g>
	<path fill="#ACAD43" d="M58.729,34.615H31.797C20.346,51.117,13.341,71.143,13.341,92.75c0,16.31,3.843,31.712,10.645,45.386
		h27.203c-18.293-15.781,3.163-37.731,3.163-54.039C54.352,62.489,36.042,51.474,58.729,34.615z"/>
	<g>
		<linearGradient id="SVGID_5_" gradientUnits="userSpaceOnUse" x1="103.0879" y1="89.9609" x2="89.7042" y2="82.2339">
			<stop  offset="0" style="stop-color:#919EAA;stop-opacity:0"/>
			<stop  offset="0.193" style="stop-color:#909DA9;stop-opacity:0.0043"/>
			<stop  offset="0.4298" style="stop-color:#88949F;stop-opacity:0.2965"/>
			<stop  offset="0.8257" style="stop-color:#747D86;stop-opacity:0.7849"/>
			<stop  offset="1" style="stop-color:#697178"/>
		</linearGradient>
		<path fill="url(#SVGID_5_)" d="M91.083,82.983l7.527,10.332l4.337-3.111L95.424,79.87c-0.86-1.197-2.526-1.473-3.727-0.614
			C90.5,80.115,90.225,81.784,91.083,82.983z"/>
		<path fill="#9EA8B1" d="M93.192,78.757h-6.264v5.34h6.264c1.474,0,2.671-1.196,2.671-2.671
			C95.863,79.953,94.666,78.757,93.192,78.757z"/>
		<circle fill="#B7C2CB" cx="86.928" cy="81.426" r="2.67"/>
	</g>
	<path fill="#E3E993" d="M51.204,34.615H24.001C12.546,51.117,5.816,71.143,5.816,92.75c0,16.31,3.844,31.712,10.642,45.386h27.203
		c-18.293-15.781,3.164-37.731,3.164-54.039C46.825,62.489,28.515,51.474,51.204,34.615z"/>
	<circle fill="#ACAD43" cx="23.135" cy="84.097" r="10.466"/>
	<path fill="#818330" d="M15.272,84.097c0-5.339,3.999-9.734,9.166-10.376c-0.428-0.054-0.862-0.091-1.302-0.091
		c-5.781,0-10.468,4.686-10.468,10.467c0,5.779,4.687,10.466,10.468,10.466c0.439,0,0.874-0.035,1.302-0.09
		C19.271,93.831,15.272,89.435,15.272,84.097z"/>
</g>
</svg>
