<?xml version="1.0" encoding="utf-8"?>
<!-- Generator: Adobe Illustrator 16.0.0, SVG Export Plug-In . SVG Version: 6.00 Build 0)  -->
<!DOCTYPE svg PUBLIC "-//W3C//DTD SVG 1.1//EN" "http://www.w3.org/Graphics/SVG/1.1/DTD/svg11.dtd">
<svg version="1.1" id="Layer_1" xmlns="http://www.w3.org/2000/svg" xmlns:xlink="http://www.w3.org/1999/xlink" x="0px" y="0px"
	 width="664px" height="240px" viewBox="0 0 664 240" enable-background="new 0 0 664 240" xml:space="preserve">
<g>
	<path fill="#414042" d="M83.152,185.771l11.948,3.658l9.56,5.303c0,0,45.137,21.666,61.392,21.666
		c9.691,0,15.877-11.647,15.877-11.647l172.366-3.617l7.265-2.437h23.104v2.822l30.386-0.385c0,0,3.598,13.816,16.748,13.816
		c10.018,0,60.405-29.475,60.405-29.475h22.931l-11.424-45.524l-295.891-5.081h-85.523l-54.356,26.595L83.152,185.771z"/>
	<g>
		<path fill="#919396" d="M519.202,198.596c-0.299,0-0.603-0.034-0.907-0.099l-9.246-2.012h-15.822c-2.346,0-4.245-1.9-4.245-4.246
			c0-2.343,1.899-4.245,4.245-4.245h16.735l10.14,2.206c2.289,0.499,3.744,2.761,3.246,5.051
			C522.914,197.237,521.155,198.596,519.202,198.596z"/>
	</g>
	<path fill="#58595B" d="M522.979,194.347c0,1.954-1.583,3.538-3.536,3.538c-1.956,0-3.537-1.584-3.537-3.538
		c0-1.953,1.581-3.537,3.537-3.537C521.396,190.811,522.979,192.395,522.979,194.347z"/>
	<path fill="#86888A" d="M507.663,192.239c0-2.619,2.422-4.219,2.422-4.219l-0.123-0.026h-16.735c-2.346,0-4.245,1.902-4.245,4.245
		c0,2.346,1.899,4.246,4.245,4.246h15.822l0.039,0.009C508.883,195.676,507.663,194.733,507.663,192.239z"/>
	<circle fill="#58595B" cx="458.489" cy="192.822" r="36.862"/>
	<path fill="#919396" d="M478.352,192.822c0,10.969-8.893,19.861-19.861,19.861c-10.966,0-19.861-8.892-19.861-19.861
		s8.896-19.861,19.861-19.861C469.459,172.961,478.352,181.853,478.352,192.822z"/>
	<path fill="#F1F2F2" d="M330.326,92.443c-3.149-5.134-6.583-7.901-10.2-8.228c-1.993-0.179-41.01-0.009-42.671-0.002l-0.2,0.001
		l-37.256,36.585c0.456,0.016,105.406,2.497,105.761,2.498C343.154,117.888,333.134,97.017,330.326,92.443z"/>
	<path fill="#BCBEC0" d="M334.252,121.54c0,0,12.023,0.02,13.861,0.024c-0.053-0.099-14.924-28.61-16.786-31.319
		c-1.864-2.712-5.257-8.139-13.734-8.139c-8.479,0-42.222,0-42.222,0l-37.173,36.968c2.168,0.073,4.457,0.15,6.854,0.227
		l31.741-31.564v32.531c0.662,0.017,1.329,0.035,1.997,0.054V87.101h38.803c5.538,0,7.681,3.139,9.404,5.66l0.212,0.312
		c0.988,1.459,6.941,12.642,11.944,22.148C340.338,117.473,334.252,121.54,334.252,121.54z"/>
	<path fill="#E6E7E8" d="M330.326,92.443c-3.149-5.134-6.583-7.901-10.2-8.228c-1.993-0.179-41.01-0.009-42.671-0.002l-0.2,0.001
		l-35.703,34.973c0.454,0.016,0.917,0.031,1.381,0.045l34.729-34.021c3.113-0.013,40.5-0.17,42.372,0
		c3.289,0.297,6.466,2.906,9.442,7.753c2.675,4.359,11.568,22.702,14.411,28.594c0.384,0,0.756,0,1.108,0.001
		C342.391,116.149,333.134,97.017,330.326,92.443z"/>
	<path fill="#3A906B" d="M219.32,112.488c0,0,0.816,0.391,0.466,3.459c-0.35,3.067-8.049,1.901-8.049,1.901l0.353-3.118l4.949-2.155
		L219.32,112.488z"/>
	<path fill="#A3D8C3" d="M218.557,116.919c0,0-141.403,6.714-155.53,14.788c-14.128,8.072-10.089,6.054-10.595,11.603
		c-0.502,5.551,19.171,43.893,19.171,43.893h22.198c0,0,0.941-15.648,3.532-22.078c1.922-4.768,5.046-11.724,17.657-12.733
		c12.614-1.009,30.692,0,36.83,0c9.789,0,18.927,14.261,24.951,23.797c3.614,5.717,12.887,22.114,12.887,22.114l225.012-4.542
		c0,0,1.008-16.144,2.016-21.189c1.011-5.044,4.037-11.603,18.165-14.629c14.126-3.028,40.36-2.019,48.935,0
		c8.577,2.018,16.648,9.584,19.173,15.134c2.521,5.55,3.532,12.613,3.532,12.613l81.73-2.019c0,0,19.172-20.685,19.676-25.728
		c0.502-5.046,0-23.072,0-23.072L591.752,119.6l-196.759-10.596c0,0-2.992,6.677-11.981,11.005
		C374.021,124.336,218.557,116.919,218.557,116.919z"/>
	<path fill="#53BD8D" d="M52.432,143.31c-0.189,2.082,0.677,26.155,0.677,26.155l18.494,17.738h22.198
		c0,0,0.941-15.648,3.532-22.078c1.922-4.768,5.046-11.724,17.657-12.733c12.614-1.009,30.692,0,36.83,0
		c9.789,0,18.927,14.261,24.951,23.797c3.614,5.717,12.887,22.114,12.887,22.114l225.012-4.542c0,0,1.008-16.144,2.016-21.189
		c1.011-5.044,4.037-11.603,18.165-14.629c14.126-3.028,40.36-2.019,48.935,0c8.577,2.018,16.648,9.584,19.173,15.134
		c2.521,5.55,3.532,12.613,3.532,12.613l81.73-2.019c0,0,19.172-20.685,19.676-25.728c0.277-2.78,0.25-9.488,0.169-14.96H52.457
		C52.447,143.092,52.442,143.196,52.432,143.31z"/>
	<g>
		<path fill="#BCBEC0" d="M611.1,154.469c0,0.824-0.674,1.499-1.498,1.499h-5.996c-0.824,0-1.498-0.674-1.498-1.499v-15.315
			c0-0.824,0.674-1.499,1.498-1.499h5.996c0.824,0,1.498,0.674,1.498,1.499V154.469z"/>
	</g>
	<g>
		<path fill="none" stroke="#3A906B" stroke-width="0.9989" stroke-miterlimit="10" d="M542.841,160.796
			c0,1.374-1.124,2.498-2.497,2.498h-13.987c-1.373,0-2.497-1.124-2.497-2.498v-9.324c0-1.374,1.124-2.498,2.497-2.498h13.987
			c1.373,0,2.497,1.124,2.497,2.498V160.796z"/>
	</g>
	<path fill="none" stroke="#3A906B" stroke-width="0.9989" stroke-miterlimit="10" d="M231.787,115.556
		c0,0-15.597,16.105-15.931,24.097c-0.331,7.99-1.663,24.252,0,32.234c1.666,7.984,3.996,18.044,3.996,18.044l195.196-1.634"/>
	<path fill="none" stroke="#3A906B" stroke-width="0.9989" stroke-miterlimit="10" d="M350.254,120.144
		c0,0,7.119,8.278,7.783,14.727c0.666,6.447,0,53.904,0,53.904"/>
	<path fill="#31805F" d="M596.021,174.882h-92.312c0.381,0.995,0.716,2.008,1.016,2.996h88.697
		C594.242,176.943,595.119,175.934,596.021,174.882z"/>
	<path fill="#31805F" d="M415.908,178.374H178.116c0.551,0.906,1.152,1.917,1.791,2.996h235.708
		C415.711,180.348,415.808,179.339,415.908,178.374z"/>
	<path fill="#808285" d="M239.171,119.106l36.507-36.25h41.915c7.779,0,10.989,4.703,12.909,7.511l0.208,0.303
		c1.268,1.845,10.106,18.695,16.448,30.893c0.566,0.002,1.131,0.002,1.689,0.003c-4.553-8.762-15.399-29.553-16.902-31.743
		l-0.205-0.301c-1.949-2.853-5.579-8.164-14.147-8.164h-42.53l-37.948,37.68C237.787,119.06,238.472,119.083,239.171,119.106z"/>
	<path fill="#58595B" d="M228.208,118.729c2.917,0.103,6.274,0.219,9.99,0.345l37.173-36.968c0,0,33.743,0,42.222,0
		c8.478,0,11.87,5.427,13.734,8.139c1.862,2.709,16.733,31.22,16.786,31.319c18.656,0.038,32.424-0.367,34.898-1.556
		c8.989-4.328,11.981-11.005,11.981-11.005l-45.015-31.476c0,0-4.577-0.847-11.699-2.035c-7.122-1.188-39.678-1.188-50.701-1.016
		c-11.021,0.168-24.078,6.952-24.078,6.952h6.783L228.208,118.729z"/>
	<polygon fill="#F1F2F2" points="270.283,81.429 263.5,81.429 218.557,116.919 228.208,118.729 	"/>
	<path fill="#F1F2F2" d="M98.219,125.441"/>
	<polygon fill="#3A906B" points="228.208,118.729 75.988,128.243 150.349,118.068 210.693,115.279 221.89,114.286 	"/>
	<g>
		<path fill="#53BD8D" d="M65.572,130.663c-0.005,0.002-0.012,0.002-0.014,0.005l0,0C65.565,130.665,65.567,130.665,65.572,130.663z
			"/>
	</g>
	<g>
		<path fill="#53BD8D" d="M212.159,117.238c0,0,1.617-4.193,6.9-4.71c5.271-0.514-71.129,4.216-78.411,5.026
			c-6.783,0.756-51.068,6.509-72.71,12.438C92.754,123.711,186.703,118.545,212.159,117.238z"/>
		<path fill="#53BD8D" d="M65.572,130.663c-0.005,0.002-0.012,0.002-0.014,0.005l0,0C65.565,130.665,65.567,130.665,65.572,130.663z
			"/>
	</g>
	<path fill="#BCBEC0" d="M192.268,196.827c-0.383-0.671-9.352-16.524-12.964-22.238c-6.339-10.034-15.92-25.194-27.483-25.194
		c-1.576,0-4.064-0.072-6.943-0.153c-4.581-0.132-10.281-0.295-16.096-0.295l0,0c-5.588,0-10.177,0.15-14.03,0.458
		c-14.787,1.184-18.44,10.246-20.195,14.6c-2.745,6.804-3.706,22.36-3.745,23.021l-0.011,0.179h3.001c0,0,0.941-15.648,3.532-22.078
		c1.922-4.768,5.046-11.724,17.657-12.733c0.476-0.038,0.958-0.071,1.447-0.104c0.146-0.01,0.297-0.019,0.444-0.029
		c0.36-0.022,0.726-0.044,1.095-0.062c0.147-0.009,0.296-0.018,0.447-0.025c0.493-0.024,0.992-0.049,1.497-0.068
		c0.015-0.001,0.033-0.001,0.049-0.002c0.506-0.021,1.014-0.037,1.526-0.053c0.163-0.007,0.328-0.009,0.492-0.015
		c0.377-0.011,0.756-0.021,1.137-0.03c0.168-0.003,0.333-0.008,0.501-0.011c0.494-0.01,0.989-0.018,1.485-0.024
		c0.066-0.001,0.13-0.002,0.194-0.003c0.5-0.006,0.996-0.011,1.495-0.016c0.178-0.001,0.353-0.001,0.529-0.002
		c0.377-0.001,0.752-0.001,1.126-0.003c0.108,0,0.217-0.002,0.325-0.002c0.112,0,0.225,0.001,0.338,0.001c0.075,0,0.149,0,0.226,0
		c0.822,0.003,1.64,0.006,2.454,0.014c0.07,0,0.141,0.001,0.212,0.002c0.817,0.008,1.631,0.018,2.437,0.031
		c0.062,0,0.127,0.001,0.188,0.002c0.807,0.013,1.604,0.027,2.39,0.043c0.059,0.002,0.119,0.004,0.179,0.004
		c0.797,0.017,1.58,0.035,2.348,0.055c0.029,0,0.061,0,0.092,0.001c0.791,0.019,1.561,0.04,2.309,0.06c0.012,0,0.021,0,0.029,0.001
		c1.258,0.035,2.455,0.07,3.567,0.101c0.179,0.006,0.356,0.011,0.528,0.016c0.1,0.002,0.196,0.005,0.293,0.008
		c0.238,0.008,0.474,0.014,0.703,0.02c0.086,0.002,0.17,0.004,0.255,0.008c0.228,0.005,0.452,0.012,0.671,0.018
		c0.082,0.001,0.164,0.004,0.246,0.005c0.229,0.007,0.459,0.013,0.68,0.017c0.039,0.001,0.076,0.003,0.115,0.003
		c0.229,0.004,0.45,0.01,0.665,0.015c0.056,0,0.11,0.002,0.165,0.003c0.455,0.008,0.878,0.015,1.266,0.019
		c0.047,0.002,0.094,0.002,0.139,0.002c0.191,0.001,0.375,0.002,0.547,0.002c9.789,0,18.927,14.261,24.951,23.797
		c3.614,5.717,12.887,22.114,12.887,22.114l3.404-0.071L192.268,196.827z"/>
	<path fill="#BCBEC0" d="M509.458,185.266c-0.043-0.307-1.103-7.557-3.772-13.429c-2.893-6.366-11.824-14.604-21.211-16.812
		c-5.061-1.19-15.438-1.99-25.831-1.99l0,0c-9.801,0-18.473,0.703-24.421,1.978c-6.956,1.489-12.022,3.901-15.492,7.369
		c-3.43,3.431-4.485,7.124-4.981,9.605c-1.036,5.183-2.028,20.921-2.07,21.589l-0.017,0.246l3.008-0.06
		c0,0,1.008-16.144,2.016-21.189c1.011-5.044,4.037-11.603,18.165-14.629c0.42-0.092,0.854-0.178,1.297-0.261
		c0.144-0.028,0.298-0.054,0.446-0.08c0.3-0.055,0.602-0.108,0.91-0.16c0.182-0.03,0.37-0.059,0.555-0.087
		c0.283-0.045,0.57-0.088,0.861-0.131c0.199-0.029,0.4-0.057,0.602-0.083c0.284-0.041,0.572-0.079,0.868-0.116
		c0.208-0.026,0.421-0.052,0.632-0.077c0.292-0.036,0.586-0.068,0.883-0.102c0.216-0.025,0.432-0.047,0.651-0.071
		c0.305-0.032,0.61-0.062,0.918-0.092c0.215-0.02,0.433-0.041,0.65-0.062c0.319-0.028,0.644-0.055,0.968-0.08
		c0.211-0.019,0.419-0.037,0.632-0.052c0.354-0.027,0.709-0.054,1.065-0.078c0.188-0.014,0.374-0.026,0.56-0.04
		c0.46-0.03,0.923-0.055,1.388-0.082c0.088-0.004,0.174-0.01,0.265-0.015c0.557-0.03,1.118-0.057,1.684-0.082
		c0.142-0.007,0.285-0.011,0.426-0.017c0.42-0.018,0.839-0.033,1.262-0.047c0.205-0.008,0.409-0.011,0.613-0.018
		c0.361-0.011,0.723-0.021,1.087-0.03c0.225-0.004,0.446-0.01,0.67-0.015c0.349-0.008,0.699-0.013,1.049-0.019
		c0.227-0.003,0.45-0.005,0.68-0.007c0.346-0.004,0.691-0.006,1.036-0.01c0.229-0.001,0.458-0.002,0.686-0.002
		c0.15,0,0.301-0.002,0.451-0.002c0.894,0,1.785,0.007,2.67,0.018c0.042,0,0.083,0,0.126,0.002c0.532,0.007,1.063,0.017,1.59,0.027
		c0.07,0.002,0.141,0.003,0.21,0.005c0.517,0.011,1.03,0.026,1.54,0.04c0.07,0.002,0.142,0.004,0.212,0.008
		c0.512,0.017,1.02,0.032,1.521,0.052c0.063,0.002,0.126,0.005,0.189,0.007c0.516,0.021,1.025,0.043,1.533,0.067
		c0.027,0.001,0.05,0.002,0.076,0.003c0.529,0.025,1.054,0.052,1.568,0.081c0.006,0.001,0.012,0.001,0.016,0.001
		c0.502,0.029,0.999,0.059,1.492,0.091c0.047,0.003,0.096,0.005,0.144,0.009c0.467,0.032,0.931,0.063,1.384,0.098
		c0.063,0.004,0.127,0.008,0.191,0.014c0.445,0.033,0.884,0.069,1.315,0.105c0.064,0.006,0.125,0.011,0.189,0.016
		c0.433,0.038,0.857,0.076,1.274,0.116c0.045,0.004,0.088,0.009,0.133,0.013c0.432,0.041,0.857,0.084,1.268,0.13
		c0.011,0.001,0.024,0.002,0.034,0.002c0.416,0.045,0.822,0.091,1.214,0.14c0.024,0.002,0.049,0.005,0.072,0.008
		c0.381,0.047,0.75,0.095,1.111,0.144c0.043,0.006,0.087,0.013,0.133,0.018c0.345,0.049,0.68,0.097,1.001,0.146
		c0.051,0.008,0.102,0.017,0.152,0.023c0.316,0.051,0.624,0.101,0.916,0.152c0.043,0.007,0.086,0.016,0.13,0.023
		c0.298,0.052,0.581,0.106,0.854,0.16c0.026,0.005,0.053,0.011,0.084,0.019c0.281,0.056,0.548,0.113,0.798,0.174
		c8.577,2.018,16.648,9.584,19.173,15.134c2.521,5.55,3.532,12.613,3.532,12.613l3.016-0.074L509.458,185.266z"/>
	<path fill="#BCBEC0" d="M597.113,158.299l-8.893,25.372c0,0,4.232,4.061,8.893,0c4.664-4.061,11.008-15.382,11.008-15.382
		s3.678-8.325,0-8.657C604.438,159.297,597.113,158.299,597.113,158.299z"/>
	<path fill="#ED1C24" d="M610.932,139.951h-6.618v13.501h6.618c1.373,0,2.498-1.123,2.498-2.497v-8.505
		C613.43,141.077,612.305,139.951,610.932,139.951z"/>
	<path fill="#BCBEC0" d="M66.542,161.466H46.743v7.173c0,0,11.414,17.879,15.961,17.879c4.546,0,10.503-0.708,10.503-0.708
		L66.542,161.466z"/>
	<circle fill="none" stroke="#F1F2F2" stroke-width="2.4973" stroke-miterlimit="10" cx="458.49" cy="192.822" r="26.693"/>
	<circle fill="none" stroke="#A7A9AC" stroke-width="0.4995" stroke-miterlimit="10" cx="458.492" cy="192.822" r="22.403"/>
	<circle fill="#414042" cx="458.49" cy="192.822" r="14.643"/>
	<circle fill="none" stroke="#F1F2F2" stroke-width="0.2595" stroke-miterlimit="10" cx="458.49" cy="192.822" r="10.319"/>
	<path fill="#B1B3B6" d="M475.529,182.62l-14.565,8.476c-0.521-0.745-1.369-1.241-2.337-1.284l-0.624-16.838
		c-1.495,0.036-2.95,0.234-4.346,0.585l3.897,16.396c-0.881,0.287-1.581,0.967-1.896,1.83l-16.25-4.467
		c-0.4,1.385-0.654,2.833-0.741,4.323l16.805,1.213c0.013,0.98,0.491,1.847,1.22,2.391l-8.888,14.315
		c1.229,0.785,2.546,1.442,3.936,1.943l5.926-15.779c0.262,0.074,0.538,0.116,0.825,0.116c0.618,0,1.193-0.186,1.672-0.504
		l10.447,13.215c1.163-0.898,2.225-1.917,3.162-3.044l-12.832-10.925c0.357-0.496,0.569-1.102,0.569-1.76
		c0-0.255-0.034-0.501-0.095-0.74l15.939-5.472C476.891,185.204,476.279,183.868,475.529,182.62z"/>
	<circle fill="#58595B" cx="461.764" cy="186.992" r="1.219"/>
	<circle fill="#58595B" cx="465.442" cy="194.347" r="1.22"/>
	<circle fill="#58595B" cx="459.71" cy="199.915" r="1.22"/>
	<circle fill="#58595B" cx="452.866" cy="195.841" r="1.221"/>
	<circle fill="#58595B" cx="453.592" cy="188.211" r="1.22"/>
	<path fill="none" stroke="#A7A9AC" stroke-width="0.4995" stroke-miterlimit="10" d="M478.352,192.822
		c0,10.969-8.893,19.861-19.861,19.861c-10.966,0-19.861-8.892-19.861-19.861s8.896-19.861,19.861-19.861
		C469.459,172.961,478.352,181.853,478.352,192.822z"/>
	<path opacity="0.3" fill="#FFFFFF" d="M470.198,176.783l-26.214,29.598c3.624,3.877,8.779,6.303,14.506,6.303
		c10.969,0,19.861-8.892,19.861-19.861C478.352,186.234,475.142,180.396,470.198,176.783z"/>
	<circle fill="#58595B" cx="136.938" cy="192.822" r="36.862"/>
	<circle fill="#919396" cx="136.937" cy="192.822" r="19.86"/>
	<circle fill="none" stroke="#F1F2F2" stroke-width="2.4973" stroke-miterlimit="10" cx="136.938" cy="192.822" r="26.693"/>
	<circle fill="none" stroke="#A7A9AC" stroke-width="0.4995" stroke-miterlimit="10" cx="136.937" cy="192.822" r="22.404"/>
	<circle fill="#414042" cx="136.936" cy="192.822" r="14.641"/>
	<circle fill="none" stroke="#F1F2F2" stroke-width="0.2595" stroke-miterlimit="10" cx="136.938" cy="192.822" r="10.316"/>
	<path fill="#B1B3B6" d="M153.978,182.62l-14.566,8.476c-0.521-0.745-1.369-1.241-2.338-1.284l-0.622-16.838
		c-1.495,0.036-2.951,0.234-4.351,0.585L136,189.955c-0.88,0.287-1.578,0.967-1.896,1.83l-16.25-4.467
		c-0.399,1.385-0.653,2.833-0.739,4.323l16.806,1.213c0.009,0.98,0.487,1.847,1.22,2.391l-8.89,14.315
		c1.229,0.785,2.544,1.442,3.935,1.943l5.927-15.779c0.263,0.074,0.539,0.116,0.823,0.116c0.618,0,1.193-0.186,1.672-0.504
		l10.451,13.215c1.161-0.898,2.224-1.917,3.158-3.044l-12.829-10.925c0.356-0.496,0.568-1.102,0.568-1.76
		c0-0.255-0.035-0.501-0.095-0.74l15.939-5.472C155.339,185.204,154.727,183.868,153.978,182.62z"/>
	<circle fill="#58595B" cx="140.211" cy="186.992" r="1.22"/>
	<circle fill="#58595B" cx="143.89" cy="194.347" r="1.22"/>
	<circle fill="#58595B" cx="138.157" cy="199.915" r="1.221"/>
	<circle fill="#58595B" cx="131.313" cy="195.841" r="1.22"/>
	<circle fill="#58595B" cx="132.039" cy="188.211" r="1.22"/>
	<circle fill="none" stroke="#A7A9AC" stroke-width="0.4995" stroke-miterlimit="10" cx="136.937" cy="192.822" r="19.86"/>
	<path opacity="0.3" fill="#FFFFFF" d="M148.646,176.783l-26.216,29.598c3.627,3.877,8.783,6.303,14.506,6.303
		c10.969,0,19.861-8.892,19.861-19.861C156.797,186.234,153.587,180.396,148.646,176.783z"/>
</g>
</svg>
