<?xml version="1.0" encoding="utf-8"?>
<!-- Generator: Adobe Illustrator 16.0.0, SVG Export Plug-In . SVG Version: 6.00 Build 0)  -->
<!DOCTYPE svg PUBLIC "-//W3C//DTD SVG 1.1//EN" "http://www.w3.org/Graphics/SVG/1.1/DTD/svg11.dtd">
<svg version="1.1" id="Layer_1" xmlns="http://www.w3.org/2000/svg" xmlns:xlink="http://www.w3.org/1999/xlink" x="0px" y="0px"
	 width="187px" height="211px" viewBox="0 0 187 211" enable-background="new 0 0 187 211" xml:space="preserve">
<g>
	<g>
		<path fill="#919EAA" d="M76.396,203.783h-4.246v-5.131c0-3.998,3.333-7.252,7.43-7.252h90.278c1.757,0,3.185-1.428,3.185-3.186
			v-0.707c0-1.756-1.428-3.184-3.185-3.184H17.143c-4.097,0-7.431-3.174-7.431-7.076s3.334-7.076,7.431-7.076h84.908
			c1.756,0,3.185-1.43,3.185-3.186v-15.303h4.246v15.303c0,4.098-3.334,7.43-7.431,7.43H17.143c-1.756,0-3.185,1.271-3.185,2.832
			s1.429,2.83,3.185,2.83h152.715c4.097,0,7.431,3.334,7.431,7.43v0.707c0,4.098-3.334,7.432-7.431,7.432H79.579
			c-1.756,0-3.184,1.348-3.184,3.006V203.783z"/>
	</g>
	<polygon fill="#B7C2CB" points="66.011,7.217 66.011,74.619 82.729,93.726 82.729,152.105 118.022,152.105 118.022,93.726 
		134.74,74.619 134.74,7.217 	"/>
	<rect x="134.74" y="7.217" fill="#919EAA" width="18.841" height="67.402"/>
	<rect x="118.022" y="93.738" fill="#919EAA" width="18.841" height="58.367"/>
	<rect x="74.272" y="13.585" fill="#697178" width="52.209" height="53.206"/>
	<polygon fill="#717C86" points="136.863,93.738 153.581,74.619 134.74,74.619 118.022,93.726 	"/>
	<polygon opacity="0.6" fill="#FFFFFF" points="95.779,66.791 126.481,31.318 126.481,13.585 126.386,13.585 80.336,66.791 	"/>
	<polygon fill="#474C52" points="76.66,15.841 126.481,15.841 126.481,13.585 74.272,13.585 74.272,66.791 76.66,66.791 	"/>
	<g>
		<rect x="89.154" y="95.485" fill="#D1D383" width="5.885" height="3.704"/>
		<polygon fill="#ACAD43" points="95.039,95.485 95.591,96.038 95.591,99.741 89.706,99.741 89.154,99.189 95.039,99.189 		"/>
	</g>
	<g>
		<rect x="97.154" y="95.485" fill="#D1D383" width="5.884" height="3.704"/>
		<polygon fill="#ACAD43" points="103.044,95.485 103.596,96.038 103.596,99.741 97.71,99.741 97.158,99.189 103.044,99.189 		"/>
	</g>
	<g>
		<rect x="105.152" y="95.485" fill="#D1D383" width="5.886" height="3.704"/>
		<polygon fill="#ACAD43" points="111.046,95.485 111.598,96.038 111.598,99.741 105.712,99.741 105.16,99.189 111.046,99.189 		"/>
	</g>
	<g>
		<rect x="83.968" y="78.939" fill="#D1D383" width="8.605" height="5.416"/>
		<polygon fill="#ACAD43" points="92.573,78.939 93.38,79.748 93.38,85.162 84.774,85.162 83.968,84.355 92.573,84.355 		"/>
	</g>
	<g>
		<rect x="95.663" y="78.939" fill="#D1D383" width="8.606" height="5.416"/>
		<polygon fill="#ACAD43" points="104.275,78.939 105.082,79.748 105.082,85.162 96.476,85.162 95.67,84.355 104.275,84.355 		"/>
	</g>
	<g>
		<rect x="107.358" y="78.939" fill="#D1D383" width="8.605" height="5.416"/>
		<polygon fill="#ACAD43" points="115.979,78.939 116.785,79.748 116.785,85.162 108.179,85.162 107.373,84.355 115.979,84.355 		
			"/>
	</g>
	<g>
		<rect x="89.154" y="101.586" fill="#D1D383" width="5.885" height="3.705"/>
		<polygon fill="#ACAD43" points="95.039,101.586 95.591,102.139 95.591,105.842 89.706,105.842 89.154,105.291 95.039,105.291 		
			"/>
	</g>
	<g>
		<rect x="97.154" y="101.586" fill="#D1D383" width="5.884" height="3.705"/>
		<polygon fill="#ACAD43" points="103.044,101.586 103.596,102.139 103.596,105.842 97.71,105.842 97.158,105.291 103.044,105.291 
					"/>
	</g>
	<g>
		<rect x="105.152" y="101.586" fill="#D1D383" width="5.886" height="3.705"/>
		<polygon fill="#ACAD43" points="111.046,101.586 111.598,102.139 111.598,105.842 105.712,105.842 105.16,105.291 
			111.046,105.291 		"/>
	</g>
	<g>
		<rect x="89.154" y="107.688" fill="#D1D383" width="5.885" height="3.701"/>
		<polygon fill="#ACAD43" points="95.039,107.688 95.591,108.238 95.591,111.941 89.706,111.941 89.154,111.389 95.039,111.389 		
			"/>
	</g>
	<g>
		<rect x="97.154" y="107.688" fill="#D1D383" width="5.884" height="3.701"/>
		<polygon fill="#ACAD43" points="103.044,107.688 103.596,108.238 103.596,111.941 97.71,111.941 97.158,111.389 103.044,111.389 
					"/>
	</g>
	<g>
		<rect x="105.152" y="107.688" fill="#D1D383" width="5.886" height="3.701"/>
		<polygon fill="#ACAD43" points="111.046,107.688 111.598,108.238 111.598,111.941 105.712,111.941 105.16,111.389 
			111.046,111.389 		"/>
	</g>
	<g>
		<rect x="89.154" y="113.787" fill="#D1D383" width="5.885" height="3.703"/>
		<polygon fill="#ACAD43" points="95.039,113.787 95.591,114.34 95.591,118.043 89.706,118.043 89.154,117.49 95.039,117.49 		"/>
	</g>
	<g>
		<rect x="97.154" y="113.787" fill="#D1D383" width="5.884" height="3.703"/>
		<polygon fill="#ACAD43" points="103.044,113.787 103.596,114.34 103.596,118.043 97.71,118.043 97.158,117.49 103.044,117.49 		
			"/>
	</g>
	<g>
		<rect x="105.152" y="113.787" fill="#D1D383" width="5.886" height="3.703"/>
		<polygon fill="#ACAD43" points="111.046,113.787 111.598,114.34 111.598,118.043 105.712,118.043 105.16,117.49 111.046,117.49 		
			"/>
	</g>
	<g>
		<rect x="89.154" y="119.887" fill="#D1D383" width="5.885" height="3.703"/>
		<polygon fill="#ACAD43" points="95.039,119.887 95.591,120.439 95.591,124.143 89.706,124.143 89.154,123.59 95.039,123.59 		"/>
	</g>
	<g>
		<rect x="97.154" y="119.887" fill="#D1D383" width="5.884" height="3.703"/>
		<polygon fill="#ACAD43" points="103.044,119.887 103.596,120.439 103.596,124.143 97.71,124.143 97.158,123.59 103.044,123.59 		
			"/>
	</g>
	<g>
		<rect x="105.152" y="119.887" fill="#D1D383" width="5.886" height="3.703"/>
		<polygon fill="#ACAD43" points="111.046,119.887 111.598,120.439 111.598,124.143 105.712,124.143 105.16,123.59 111.046,123.59 
					"/>
	</g>
	<g>
		<rect x="89.154" y="125.988" fill="#D1D383" width="5.885" height="3.701"/>
		<polygon fill="#ACAD43" points="95.039,125.988 95.591,126.541 95.591,130.242 89.706,130.242 89.154,129.689 95.039,129.689 		
			"/>
	</g>
	<g>
		<rect x="97.154" y="125.988" fill="#D1D383" width="5.884" height="3.701"/>
		<polygon fill="#ACAD43" points="103.044,125.988 103.596,126.541 103.596,130.242 97.71,130.242 97.158,129.689 103.044,129.689 
					"/>
	</g>
	<g>
		<rect x="105.152" y="125.988" fill="#D1D383" width="5.886" height="3.701"/>
		<polygon fill="#ACAD43" points="111.046,125.988 111.598,126.541 111.598,130.242 105.712,130.242 105.16,129.689 
			111.046,129.689 		"/>
	</g>
	<g>
		<rect x="89.154" y="132.088" fill="#D1D383" width="5.885" height="3.703"/>
		<polygon fill="#ACAD43" points="95.039,132.088 95.591,132.639 95.591,136.344 89.706,136.344 89.154,135.791 95.039,135.791 		
			"/>
	</g>
	<g>
		<rect x="97.154" y="132.088" fill="#D1D383" width="5.884" height="3.703"/>
		<polygon fill="#ACAD43" points="103.044,132.088 103.596,132.639 103.596,136.344 97.71,136.344 97.158,135.791 103.044,135.791 
					"/>
	</g>
	<g>
		<rect x="105.152" y="132.088" fill="#D1D383" width="5.886" height="3.703"/>
		<polygon fill="#ACAD43" points="111.046,132.088 111.598,132.639 111.598,136.344 105.712,136.344 105.16,135.791 
			111.046,135.791 		"/>
	</g>
	<g>
		<rect x="89.154" y="138.188" fill="#D1D383" width="5.885" height="3.703"/>
		<polygon fill="#ACAD43" points="95.039,138.188 95.591,138.74 95.591,142.443 89.706,142.443 89.154,141.891 95.039,141.891 		"/>
	</g>
	<g>
		<rect x="97.154" y="138.188" fill="#D1D383" width="5.884" height="3.703"/>
		<polygon fill="#ACAD43" points="103.044,138.188 103.596,138.74 103.596,142.443 97.71,142.443 97.158,141.891 103.044,141.891 		
			"/>
	</g>
	<g>
		<rect x="105.152" y="138.188" fill="#D1D383" width="5.886" height="3.703"/>
		<polygon fill="#ACAD43" points="111.046,138.188 111.598,138.74 111.598,142.443 105.712,142.443 105.16,141.891 111.046,141.891 
					"/>
	</g>
	<rect x="105.235" y="152.105" fill="#717C86" width="4.246" height="2.982"/>
</g>
</svg>
