<?xml version="1.0" encoding="utf-8"?>
<!-- Generator: Adobe Illustrator 16.0.0, SVG Export Plug-In . SVG Version: 6.00 Build 0)  -->
<!DOCTYPE svg PUBLIC "-//W3C//DTD SVG 1.1//EN" "http://www.w3.org/Graphics/SVG/1.1/DTD/svg11.dtd">
<svg version="1.1" id="Layer_1" xmlns="http://www.w3.org/2000/svg" xmlns:xlink="http://www.w3.org/1999/xlink" x="0px" y="0px"
	 width="309.5px" height="134px" viewBox="0 0 309.5 134" enable-background="new 0 0 309.5 134" xml:space="preserve">
<g>
	<g>
		<path fill="#B7C2CB" d="M288.904,15.121c-11.567-6.608-21.97-10.166-23.239-7.944l-11.883,20.801l41.885,23.93l11.883-20.802
			C308.819,28.886,300.472,21.728,288.904,15.121z"/>
		
			<ellipse transform="matrix(0.8683 0.4961 -0.4961 0.8683 55.9998 -131.0214)" fill="#798188" cx="274.725" cy="39.942" rx="24.119" ry="4.633"/>
	</g>
	
		<ellipse transform="matrix(0.8683 0.4961 -0.4961 0.8683 55.9998 -131.0214)" fill="#798188" cx="274.725" cy="39.942" rx="24.119" ry="4.633"/>
	<path opacity="0.4" fill="#58595B" d="M281.194,45.004c-0.664,1.176-6.301-0.752-10.533-3.144c-4.229-2.393-7.12-5.285-6.454-6.461
		c0.669-1.177,6.491,0.217,10.72,2.609C279.156,40.401,281.858,43.828,281.194,45.004z"/>
	<path opacity="0.4" fill="#FFFFFF" d="M284.963,40.873l12.751-20.191c-1.876-1.314-3.949-2.666-6.186-4.015l-12.791,20.256
		C280.968,38.245,283.063,39.574,284.963,40.873z"/>
	<g>
		<path fill="#B7C2CB" d="M207.154,6.15c-12.713,3.982-22.396,9.188-21.632,11.628l7.163,22.862l46.032-14.421l-7.162-22.861
			C230.792,0.919,219.867,2.167,207.154,6.15z"/>
		
			<ellipse transform="matrix(0.9543 -0.299 0.299 0.9543 -0.1294 66.0132)" fill="#798188" cx="215.702" cy="33.43" rx="24.119" ry="4.631"/>
	</g>
	<path opacity="0.5" fill="#585F65" d="M231.556,3.358c-0.764-2.438-11.688-1.19-24.401,2.792s-22.396,9.188-21.632,11.628
		l7.163,22.862c0.763,2.439,11.688,1.19,24.399-2.791c12.714-3.982,22.398-9.188,21.633-11.63L231.556,3.358z"/>
	<g>
		<polygon fill="#B7C2CB" points="230.202,95.619 209.001,36.665 223.282,32.973 244.483,91.93 		"/>
	</g>
	<path fill="#B7C2CB" d="M223.353,33.036c0.25,0.982-3.84,2.865-7.399,3.768c-3.562,0.901-6.649,0.835-6.899-0.149
		c-0.246-0.982,3.666-3.251,7.225-4.154C219.839,31.6,223.104,32.051,223.353,33.036z"/>
	<path opacity="0.5" fill="#585F65" d="M223.351,33.165c0.004-0.044,0.013-0.089,0.002-0.129c-0.248-0.984-3.514-1.436-7.074-0.536
		c-3.555,0.9-7.462,3.165-7.225,4.15l-0.053,0.015l21.201,58.955l14.281-3.689L223.351,33.165z"/>
	<path fill="#808C98" d="M264.688,99.627c0-8.993-7.291-16.285-16.285-16.285h-13.52l1.182,5.675
		c-2.453,2.852-3.946,6.554-3.946,10.61h-15.978c0,13.453,8.238,24.979,19.943,29.821l-1.201,2.44h13.52
		c17.818,0,32.263-14.444,32.263-32.262H264.688z"/>
	<g>
		<polygon fill="#ABB6BF" points="243.103,96.964 229.804,90.586 266.44,37.265 279.142,44.513 		"/>
	</g>
	<path fill="#B7C2CB" d="M251.169,99.627c0-8.993-7.291-16.285-16.285-16.285c-8.992,0-16.284,7.292-16.284,16.285h-15.978
		c0,17.817,14.445,32.262,32.262,32.262c17.818,0,32.263-14.444,32.263-32.262H251.169z"/>
	<path fill="#ABB6BF" d="M279.159,44.523c-0.502,0.881-4.727-0.584-7.895-2.39c-3.166-1.809-5.326-3.987-4.824-4.868
		c0.504-0.881,4.869,0.183,8.036,1.989C277.643,41.062,279.661,43.642,279.159,44.523z"/>
	
		<line opacity="0.2" fill="none" stroke="#FFFFFF" stroke-width="3.6871" stroke-miterlimit="10" x1="270.69" y1="48.007" x2="246.458" y2="83.138"/>
	<g>
		<path fill="#E3E993" d="M237.343,116.833H170.36c-3.055,0-5.531-2.476-5.531-5.53s2.477-5.53,5.531-5.53h66.982
			c3.055,0,5.53,2.476,5.53,5.53S240.397,116.833,237.343,116.833z"/>
	</g>
	<path opacity="0.2" fill="#798188" d="M208.852,118.677h30.642c3.055,0,5.531-2.476,5.531-5.53c0-2.181-1.272-4.048-3.105-4.948
		c0.602,0.885,0.954,1.953,0.954,3.104c0,3.055-2.476,5.53-5.53,5.53H207.6C207.997,117.462,208.413,118.078,208.852,118.677z"/>
	<g>
		<path fill="#B7C2CB" d="M227.686,15.121c-11.567-6.608-21.97-10.166-23.239-7.944l-11.883,20.801l41.885,23.93l11.883-20.802
			C247.6,28.886,239.252,21.728,227.686,15.121z"/>
		
			<ellipse transform="matrix(0.8683 0.4961 -0.4961 0.8683 47.9363 -100.6526)" fill="#798188" cx="213.506" cy="39.942" rx="24.119" ry="4.633"/>
	</g>
	
		<ellipse transform="matrix(0.8683 0.4961 -0.4961 0.8683 47.9363 -100.6526)" fill="#798188" cx="213.506" cy="39.942" rx="24.119" ry="4.633"/>
	<path opacity="0.4" fill="#58595B" d="M219.976,45.004c-0.664,1.176-6.302-0.752-10.533-3.144c-4.229-2.393-7.12-5.285-6.454-6.461
		c0.669-1.177,6.491,0.217,10.72,2.609C217.937,40.401,220.64,43.828,219.976,45.004z"/>
	<path opacity="0.4" fill="#FFFFFF" d="M223.744,40.873l12.751-20.191c-1.876-1.314-3.949-2.666-6.186-4.015l-12.791,20.256
		C219.749,38.245,221.844,39.574,223.744,40.873z"/>
	<g>
		<path fill="#B7C2CB" d="M145.935,6.15c-12.713,3.982-22.396,9.188-21.632,11.628l7.163,22.862l46.033-14.421l-7.162-22.861
			C169.573,0.919,158.648,2.167,145.935,6.15z"/>
		
			<ellipse transform="matrix(0.9543 -0.2989 0.2989 0.9543 -2.9291 47.7112)" fill="#798188" cx="154.483" cy="33.43" rx="24.119" ry="4.631"/>
	</g>
	<path opacity="0.5" fill="#585F65" d="M170.337,3.358c-0.764-2.438-11.688-1.19-24.402,2.792
		c-12.713,3.982-22.396,9.188-21.632,11.628l7.163,22.862c0.763,2.439,11.688,1.19,24.4-2.791
		c12.714-3.982,22.398-9.188,21.633-11.63L170.337,3.358z"/>
	<g>
		<polygon fill="#B7C2CB" points="168.983,95.619 147.782,36.665 162.063,32.973 183.264,91.93 		"/>
	</g>
	<path fill="#B7C2CB" d="M162.134,33.036c0.25,0.982-3.84,2.865-7.4,3.768c-3.562,0.901-6.649,0.835-6.899-0.149
		c-0.247-0.982,3.666-3.251,7.225-4.154C158.62,31.6,161.886,32.051,162.134,33.036z"/>
	<path opacity="0.5" fill="#585F65" d="M162.132,33.165c0.004-0.044,0.013-0.089,0.002-0.129c-0.248-0.984-3.514-1.436-7.074-0.536
		c-3.555,0.9-7.462,3.165-7.225,4.15l-0.053,0.015l21.202,58.955l14.28-3.689L162.132,33.165z"/>
	<path fill="#808C98" d="M203.47,99.627c0-8.993-7.291-16.285-16.285-16.285h-13.52l1.182,5.675
		c-2.453,2.852-3.946,6.554-3.946,10.61h-15.978c0,13.453,8.239,24.979,19.944,29.821l-1.201,2.44h13.52
		c17.818,0,32.263-14.444,32.263-32.262H203.47z"/>
	<g>
		<polygon fill="#ABB6BF" points="181.884,96.964 168.585,90.586 205.222,37.265 217.923,44.513 		"/>
	</g>
	<path fill="#B7C2CB" d="M189.95,99.627c0-8.993-7.291-16.285-16.285-16.285c-8.992,0-16.284,7.292-16.284,16.285h-15.978
		c0,17.817,14.446,32.262,32.262,32.262c17.818,0,32.263-14.444,32.263-32.262H189.95z"/>
	<path fill="#ABB6BF" d="M217.939,44.523c-0.501,0.881-4.727-0.584-7.894-2.39c-3.166-1.809-5.326-3.987-4.824-4.868
		c0.504-0.881,4.869,0.183,8.035,1.989C216.424,41.062,218.442,43.642,217.939,44.523z"/>
	
		<line opacity="0.2" fill="none" stroke="#FFFFFF" stroke-width="3.6871" stroke-miterlimit="10" x1="209.472" y1="48.007" x2="185.239" y2="83.138"/>
	<g>
		<path fill="#E3E993" d="M176.124,116.833h-66.983c-3.055,0-5.531-2.476-5.531-5.53s2.477-5.53,5.531-5.53h66.983
			c3.055,0,5.53,2.476,5.53,5.53S179.179,116.833,176.124,116.833z"/>
	</g>
	<path opacity="0.2" fill="#798188" d="M147.631,118.677h30.643c3.055,0,5.531-2.476,5.531-5.53c0-2.181-1.273-4.048-3.105-4.948
		c0.602,0.885,0.954,1.953,0.954,3.104c0,3.055-2.476,5.53-5.53,5.53H146.38C146.778,117.462,147.194,118.078,147.631,118.677z"/>
	<g>
		<path fill="#B7C2CB" d="M166.467,15.121c-11.568-6.608-21.971-10.166-23.24-7.944l-11.883,20.801l41.884,23.93l11.884-20.802
			C186.381,28.886,178.033,21.728,166.467,15.121z"/>
		<path fill="#798188" d="M173.229,51.907c-1.267,2.22-11.671-1.336-23.24-7.942c-11.566-6.608-19.915-13.767-18.645-15.987
			c1.268-2.22,11.67,1.335,23.238,7.943C166.151,42.529,174.499,49.687,173.229,51.907z"/>
	</g>
	<path fill="#798188" d="M173.229,51.907c-1.267,2.22-11.671-1.336-23.24-7.942c-11.566-6.608-19.915-13.767-18.645-15.987
		c1.268-2.22,11.67,1.335,23.238,7.943C166.151,42.529,174.499,49.687,173.229,51.907z"/>
	<path opacity="0.4" fill="#58595B" d="M158.757,45.004c-0.664,1.176-6.302-0.752-10.534-3.144c-4.229-2.393-7.12-5.285-6.454-6.461
		c0.669-1.177,6.491,0.217,10.72,2.609C156.718,40.401,159.421,43.828,158.757,45.004z"/>
	<path opacity="0.4" fill="#FFFFFF" d="M162.524,40.873l12.752-20.191c-1.876-1.314-3.95-2.666-6.186-4.015L156.3,36.922
		C158.529,38.245,160.625,39.574,162.524,40.873z"/>
	<g>
		<path fill="#B7C2CB" d="M84.715,6.15c-12.713,3.982-22.396,9.188-21.631,11.628l7.162,22.862l46.033-14.421l-7.162-22.861
			C108.354,0.919,97.428,2.167,84.715,6.15z"/>
		
			<ellipse transform="matrix(0.9543 -0.2989 0.2989 0.9543 -5.7287 29.4094)" fill="#798188" cx="93.263" cy="33.43" rx="24.12" ry="4.631"/>
	</g>
	<path opacity="0.5" fill="#585F65" d="M109.118,3.358c-0.764-2.438-11.689-1.19-24.402,2.792S62.32,15.337,63.084,17.778
		l7.162,22.862c0.764,2.439,11.688,1.19,24.4-2.791c12.714-3.982,22.398-9.188,21.633-11.63L109.118,3.358z"/>
	<g>
		<polygon fill="#B7C2CB" points="107.764,95.619 86.563,36.665 100.843,32.973 122.044,91.93 		"/>
	</g>
	<path fill="#B7C2CB" d="M100.915,33.036c0.25,0.982-3.84,2.865-7.4,3.768c-3.562,0.901-6.648,0.835-6.898-0.149
		c-0.247-0.982,3.666-3.251,7.225-4.154C97.401,31.6,100.667,32.051,100.915,33.036z"/>
	<path opacity="0.5" fill="#585F65" d="M100.913,33.165c0.004-0.044,0.013-0.089,0.002-0.129c-0.248-0.984-3.514-1.436-7.074-0.536
		c-3.555,0.9-7.462,3.165-7.225,4.15l-0.053,0.015l21.201,58.955l14.28-3.689L100.913,33.165z"/>
	<path fill="#808C98" d="M142.25,99.627c0-8.993-7.291-16.285-16.285-16.285h-13.52l1.182,5.675
		c-2.453,2.852-3.947,6.554-3.947,10.61H93.704c0,13.453,8.238,24.979,19.943,29.821l-1.201,2.44h13.52
		c17.817,0,32.262-14.444,32.262-32.262H142.25z"/>
	<g>
		<polygon fill="#ABB6BF" points="120.665,96.964 107.366,90.586 144.002,37.265 156.704,44.513 		"/>
	</g>
	<path fill="#B7C2CB" d="M128.731,99.627c0-8.993-7.291-16.285-16.285-16.285c-8.993,0-16.284,7.292-16.284,16.285H80.184
		c0,17.817,14.445,32.262,32.262,32.262c17.818,0,32.263-14.444,32.263-32.262H128.731z"/>
	<path fill="#ABB6BF" d="M156.721,44.523c-0.502,0.881-4.727-0.584-7.894-2.39c-3.166-1.809-5.327-3.987-4.824-4.868
		c0.504-0.881,4.869,0.183,8.035,1.989C155.204,41.062,157.224,43.642,156.721,44.523z"/>
	
		<line opacity="0.2" fill="none" stroke="#FFFFFF" stroke-width="3.6871" stroke-miterlimit="10" x1="148.252" y1="48.007" x2="124.02" y2="83.138"/>
	<g>
		<path fill="#E3E993" d="M114.905,116.833H47.922c-3.055,0-5.531-2.476-5.531-5.53s2.476-5.53,5.531-5.53h66.983
			c3.055,0,5.53,2.476,5.53,5.53S117.959,116.833,114.905,116.833z"/>
	</g>
	<path opacity="0.2" fill="#798188" d="M86.413,118.677h30.643c3.055,0,5.53-2.476,5.53-5.53c0-2.181-1.272-4.048-3.104-4.948
		c0.602,0.885,0.954,1.953,0.954,3.104c0,3.055-2.476,5.53-5.53,5.53H85.161C85.559,117.462,85.975,118.078,86.413,118.677z"/>
	<g>
		<path fill="#B7C2CB" d="M105.247,15.121C93.679,8.512,83.277,4.955,82.008,7.176L70.125,27.977l41.884,23.93l11.884-20.802
			C125.161,28.886,116.814,21.728,105.247,15.121z"/>
		
			<ellipse transform="matrix(0.8683 0.4961 -0.4961 0.8683 31.8099 -39.9153)" fill="#798188" cx="91.067" cy="39.942" rx="24.119" ry="4.633"/>
	</g>
	
		<ellipse transform="matrix(0.8683 0.4961 -0.4961 0.8683 31.8099 -39.9153)" fill="#798188" cx="91.067" cy="39.942" rx="24.119" ry="4.633"/>
	<path opacity="0.4" fill="#58595B" d="M97.537,45.004c-0.663,1.176-6.301-0.752-10.533-3.144c-4.228-2.393-7.12-5.285-6.454-6.461
		c0.67-1.177,6.492,0.217,10.72,2.609C95.499,40.401,98.202,43.828,97.537,45.004z"/>
	<path opacity="0.4" fill="#FFFFFF" d="M101.305,40.873l12.752-20.191c-1.877-1.314-3.95-2.666-6.187-4.015l-12.79,20.256
		C97.31,38.245,99.406,39.574,101.305,40.873z"/>
	<g>
		<path fill="#B7C2CB" d="M23.497,6.15C10.784,10.132,1.101,15.337,1.865,17.778L9.028,40.64l46.032-14.421L47.899,3.358
			C47.134,0.919,36.21,2.167,23.497,6.15z"/>
		
			<ellipse transform="matrix(0.9543 -0.299 0.299 0.9543 -8.5284 11.1085)" fill="#798188" cx="32.044" cy="33.43" rx="24.119" ry="4.631"/>
	</g>
	<path opacity="0.5" fill="#585F65" d="M47.899,3.358C47.134,0.919,36.21,2.167,23.497,6.15S1.101,15.337,1.865,17.778L9.028,40.64
		c0.763,2.439,11.688,1.19,24.399-2.791c12.714-3.982,22.399-9.188,21.633-11.63L47.899,3.358z"/>
	<g>
		<polygon fill="#B7C2CB" points="46.545,95.619 25.344,36.665 39.625,32.973 60.825,91.93 		"/>
	</g>
	<path fill="#B7C2CB" d="M39.695,33.036c0.25,0.982-3.839,2.865-7.399,3.768c-3.562,0.901-6.649,0.835-6.899-0.149
		c-0.247-0.982,3.666-3.251,7.224-4.154C36.182,31.6,39.447,32.051,39.695,33.036z"/>
	<path opacity="0.5" fill="#585F65" d="M39.693,33.165c0.005-0.044,0.013-0.089,0.002-0.129c-0.249-0.984-3.513-1.436-7.074-0.536
		c-3.555,0.9-7.461,3.165-7.224,4.15l-0.053,0.015l21.201,58.955l14.28-3.689L39.693,33.165z"/>
	<path fill="#808C98" d="M81.032,99.627c0-8.993-7.292-16.285-16.285-16.285h-13.52l1.181,5.675
		c-2.453,2.852-3.946,6.554-3.946,10.61H32.484c0,13.453,8.238,24.979,19.943,29.821l-1.2,2.44h13.52
		c17.817,0,32.262-14.444,32.262-32.262H81.032z"/>
	<g>
		<polygon fill="#ABB6BF" points="59.446,96.964 46.146,90.586 82.784,37.265 95.485,44.513 		"/>
	</g>
	<path fill="#B7C2CB" d="M67.512,99.627c0-8.993-7.291-16.285-16.285-16.285c-8.993,0-16.285,7.292-16.285,16.285H18.965
		c0,17.817,14.445,32.262,32.262,32.262s32.262-14.444,32.262-32.262H67.512z"/>
	<path fill="#ABB6BF" d="M95.501,44.523c-0.502,0.881-4.727-0.584-7.894-2.39c-3.167-1.809-5.327-3.987-4.824-4.868
		c0.504-0.881,4.869,0.183,8.035,1.989C93.985,41.062,96.004,43.642,95.501,44.523z"/>
	
		<line opacity="0.2" fill="none" stroke="#FFFFFF" stroke-width="3.6871" stroke-miterlimit="10" x1="87.034" y1="48.007" x2="62.801" y2="83.138"/>
</g>
</svg>
