<?xml version="1.0" encoding="utf-8"?>
<!-- Generator: Adobe Illustrator 16.0.0, SVG Export Plug-In . SVG Version: 6.00 Build 0)  -->
<!DOCTYPE svg PUBLIC "-//W3C//DTD SVG 1.1//EN" "http://www.w3.org/Graphics/SVG/1.1/DTD/svg11.dtd">
<svg version="1.1" id="Layer_1" xmlns="http://www.w3.org/2000/svg" xmlns:xlink="http://www.w3.org/1999/xlink" x="0px" y="0px"
	 width="336.333px" height="120px" viewBox="0 0 336.333 120" enable-background="new 0 0 336.333 120" xml:space="preserve">
<g>
	<g>
		<polygon fill="#CFDAE4" points="153.937,85.512 153.937,62.823 227.191,62.823 282.756,6.707 328.351,6.707 328.351,29.395 
			292.217,29.395 236.654,85.512 		"/>
	</g>
	<polygon opacity="0.3" fill="#EAECEE" points="289.449,18.054 328.351,18.054 328.351,6.707 282.756,6.707 227.191,62.823 
		153.937,62.823 153.937,74.167 233.543,74.167 	"/>
	<path opacity="0.3" fill="#89929A" d="M177.471,85.512c0.252-3.594,0.392-7.4,0.392-11.35c0-3.945-0.14-7.748-0.392-11.34h-23.535
		v22.689H177.471z"/>
	<path fill="#808C98" d="M328.351,29.406c-1.461,0-2.642-5.086-2.646-11.352c0.005-6.271,1.189-11.35,2.65-11.348
		c1.461,0,2.646,5.081,2.646,11.348C331.001,24.324,329.816,29.406,328.351,29.406z"/>
	<path fill="#525B63" d="M327.031,8.281c-0.789,1.967-1.326,5.583-1.326,9.773c0,4.189,0.537,7.808,1.326,9.774
		c0.785-1.967,1.32-5.583,1.32-9.774C328.351,13.866,327.821,10.248,327.031,8.281z"/>
	<path fill="#E3E993" d="M161.534,74.163c0-21.609-4.086-39.131-9.13-39.131H63.708v78.263h88.696
		C157.448,113.294,161.534,95.775,161.534,74.163z"/>
	<ellipse fill="#C3C56A" cx="63.708" cy="74.163" rx="9.132" ry="39.131"/>
	<g>
		<path fill="#F3F5CF" d="M161.47,69.692H72.773c0.039,1.471,0.064,2.958,0.064,4.471h88.696
			C161.534,72.65,161.513,71.163,161.47,69.692z"/>
		<path fill="#F3F5CF" d="M161.115,62.424c-0.443-6.042-1.218-11.456-2.233-15.84H70.184c1.018,4.384,1.792,9.798,2.235,15.84
			H161.115z"/>
	</g>
	<path opacity="0.3" fill="#89929A" d="M66.812,76.461c0-7.535-1.425-13.646-3.184-13.646h-8.661
		c-0.254,3.592-0.392,7.4-0.392,11.348c0,5.684,0.285,11.078,0.793,15.951h8.26C65.388,90.114,66.812,84.002,66.812,76.461z"/>
	<path fill="#CFDAE4" d="M36.959,85.514H60.96c1.463,0,2.647-5.082,2.647-11.352c0-6.267-1.185-11.348-2.647-11.348H25.94
		L5.55,89.522l16.05,16.055L36.959,85.514z"/>
	<path opacity="0.3" fill="#89929A" d="M63.607,74.163c0-6.267-1.185-11.348-2.647-11.348H48.183
		c-0.252,3.594-0.392,7.4-0.392,11.348c0,3.951,0.14,7.758,0.392,11.352H60.96C62.423,85.514,63.607,80.432,63.607,74.163z"/>
	<path fill="#AEBDCB" d="M21.6,105.577c-1.035,1.033-5.465-1.723-9.899-6.154c-4.43-4.437-7.186-8.867-6.15-9.9
		c1.033-1.033,5.466,1.723,9.896,6.152C19.88,100.111,22.633,104.542,21.6,105.577z"/>
	<path fill="#89929A" d="M7.007,89.462c0.593,1.903,2.938,5.171,6.21,8.44c3.274,3.275,6.539,5.622,8.44,6.213
		c-0.592-1.904-2.938-5.166-6.212-8.441C12.173,92.404,8.908,90.057,7.007,89.462z"/>
</g>
</svg>
