<?xml version="1.0" encoding="utf-8"?>
<!-- Generator: Adobe Illustrator 16.0.0, SVG Export Plug-In . SVG Version: 6.00 Build 0)  -->
<!DOCTYPE svg PUBLIC "-//W3C//DTD SVG 1.1//EN" "http://www.w3.org/Graphics/SVG/1.1/DTD/svg11.dtd">
<svg version="1.1" id="Layer_1" xmlns="http://www.w3.org/2000/svg" xmlns:xlink="http://www.w3.org/1999/xlink" x="0px" y="0px"
	 width="309.5px" height="134px" viewBox="0 0 309.5 134" enable-background="new 0 0 309.5 134" xml:space="preserve">
<g>
	<g>
		<g>
			<path fill="#A0AEBB" d="M240.098,4.527h-16.635c34.502,0,41.996,27.971,41.996,62.473c0,34.504-8.955,62.473-43.459,62.473
				h18.098c34.502,0,62.471-27.969,62.471-62.473C302.568,32.498,274.6,4.527,240.098,4.527z"/>
		</g>
		<g opacity="0.6">
			<defs>
				<path id="SVGID_1_" opacity="0.6" d="M240.098,4.527h-16.635c34.502,0,41.996,27.971,41.996,62.473
					c0,34.504-8.955,62.473-43.459,62.473h18.098c34.502,0,62.471-27.969,62.471-62.473C302.568,32.498,274.6,4.527,240.098,4.527z"
					/>
			</defs>
			<clipPath id="SVGID_2_">
				<use xlink:href="#SVGID_1_"  overflow="visible"/>
			</clipPath>
			<g clip-path="url(#SVGID_2_)">
				<line fill="none" stroke="#7C8A96" stroke-width="3.3834" stroke-miterlimit="10" x1="206.623" y1="4.6" x2="342.34" y2="4.6"/>
				
					<line fill="none" stroke="#7C8A96" stroke-width="3.3834" stroke-miterlimit="10" x1="186.146" y1="10.844" x2="321.863" y2="10.844"/>
				
					<line fill="none" stroke="#7C8A96" stroke-width="3.3834" stroke-miterlimit="10" x1="186.146" y1="17.088" x2="321.863" y2="17.088"/>
				
					<line fill="none" stroke="#7C8A96" stroke-width="3.3834" stroke-miterlimit="10" x1="186.146" y1="23.332" x2="321.863" y2="23.332"/>
				
					<line fill="none" stroke="#7C8A96" stroke-width="3.3834" stroke-miterlimit="10" x1="186.146" y1="29.574" x2="321.863" y2="29.574"/>
				
					<line fill="none" stroke="#7C8A96" stroke-width="3.3834" stroke-miterlimit="10" x1="186.146" y1="35.818" x2="321.863" y2="35.818"/>
				
					<line fill="none" stroke="#7C8A96" stroke-width="3.3834" stroke-miterlimit="10" x1="186.146" y1="42.061" x2="321.863" y2="42.061"/>
				
					<line fill="none" stroke="#7C8A96" stroke-width="3.3834" stroke-miterlimit="10" x1="186.146" y1="48.305" x2="321.863" y2="48.305"/>
				
					<line fill="none" stroke="#7C8A96" stroke-width="3.3834" stroke-miterlimit="10" x1="186.146" y1="54.549" x2="321.863" y2="54.549"/>
				
					<line fill="none" stroke="#7C8A96" stroke-width="3.3834" stroke-miterlimit="10" x1="186.146" y1="60.793" x2="321.863" y2="60.793"/>
				
					<line fill="none" stroke="#7C8A96" stroke-width="3.3834" stroke-miterlimit="10" x1="186.146" y1="67.035" x2="321.863" y2="67.035"/>
				
					<line fill="none" stroke="#7C8A96" stroke-width="3.3834" stroke-miterlimit="10" x1="186.146" y1="73.281" x2="321.863" y2="73.281"/>
				
					<line fill="none" stroke="#7C8A96" stroke-width="3.3834" stroke-miterlimit="10" x1="186.146" y1="79.523" x2="321.863" y2="79.523"/>
				
					<line fill="none" stroke="#7C8A96" stroke-width="3.3834" stroke-miterlimit="10" x1="186.146" y1="85.768" x2="321.863" y2="85.768"/>
				
					<line fill="none" stroke="#7C8A96" stroke-width="3.3834" stroke-miterlimit="10" x1="186.146" y1="92.012" x2="321.863" y2="92.012"/>
				
					<line fill="none" stroke="#7C8A96" stroke-width="3.3834" stroke-miterlimit="10" x1="186.146" y1="98.254" x2="321.863" y2="98.254"/>
				
					<line fill="none" stroke="#7C8A96" stroke-width="3.3834" stroke-miterlimit="10" x1="186.146" y1="104.498" x2="321.863" y2="104.498"/>
				
					<line fill="none" stroke="#7C8A96" stroke-width="3.3834" stroke-miterlimit="10" x1="186.146" y1="110.742" x2="321.863" y2="110.742"/>
				
					<line fill="none" stroke="#7C8A96" stroke-width="3.3834" stroke-miterlimit="10" x1="186.146" y1="116.986" x2="321.863" y2="116.986"/>
				
					<line fill="none" stroke="#7C8A96" stroke-width="3.3834" stroke-miterlimit="10" x1="186.146" y1="123.229" x2="321.863" y2="123.229"/>
				
					<line fill="none" stroke="#7C8A96" stroke-width="3.3834" stroke-miterlimit="10" x1="205.16" y1="129.473" x2="340.877" y2="129.473"/>
			</g>
		</g>
		<circle fill="#B0BFCD" cx="223.462" cy="67" r="62.472"/>
		<g>
			<circle fill="#90A0AE" cx="223.462" cy="67" r="38.993"/>
			<path fill="#7C8A96" d="M190.955,67c0-20.443,15.734-37.199,35.75-38.848c-1.068-0.09-2.15-0.145-3.242-0.145
				c-21.537,0-38.994,17.457-38.994,38.992c0,21.537,17.457,38.994,38.994,38.994c1.092,0,2.174-0.057,3.242-0.146
				C206.689,104.199,190.955,87.443,190.955,67z"/>
			<g>
				<path fill="#B0BFCD" d="M229.852,92.814c-2.715,0-5.414-1.135-7.334-3.352l-27.9-32.24c-3.504-4.047-3.062-10.168,0.984-13.672
					c4.049-3.504,10.168-3.061,13.672,0.986l27.902,32.24c3.504,4.049,3.062,10.168-0.986,13.674
					C234.359,92.035,232.1,92.814,229.852,92.814z"/>
			</g>
			<path fill="#A0AEBB" d="M248.109,76.777l-27.904-32.24c-1.807-2.09-4.314-3.217-6.873-3.338c-0.299-0.016-0.604-0.016-0.904,0
				l-10.691-0.01v0.002c2.783-0.059,5.57,1.076,7.537,3.346l27.902,32.24c3.504,4.049,3.062,10.168-0.986,13.674
				c-1.83,1.584-4.09,2.363-6.338,2.363h10.934c2.246,0,4.504-0.779,6.338-2.363C251.17,86.945,251.613,80.826,248.109,76.777z"/>
		</g>
		<circle fill="#ACAD43" cx="177.292" cy="46.007" r="3.244"/>
		<circle fill="#ACAD43" cx="190.097" cy="28.763" r="3.243"/>
		<path fill="#ACAD43" d="M209.818,21.461c-1.717,0.516-3.525-0.457-4.041-2.172c-0.518-1.715,0.455-3.521,2.17-4.039
			s3.525,0.455,4.041,2.172C212.504,19.133,211.533,20.945,209.818,21.461z"/>
		<path fill="#E3E993" d="M229.859,19.859c-1.775-0.242-3.021-1.873-2.781-3.648c0.238-1.775,1.871-3.02,3.645-2.779
			c1.775,0.234,3.023,1.871,2.781,3.645C233.268,18.85,231.633,20.1,229.859,19.859z"/>
		<path fill="#E3E993" d="M248.771,26.686c-1.518-0.955-1.979-2.955-1.025-4.473c0.951-1.518,2.951-1.975,4.469-1.023
			c1.52,0.947,1.979,2.953,1.025,4.471C252.291,27.174,250.285,27.637,248.771,26.686z"/>
		<path fill="#E3E993" d="M263.168,40.719c-0.986-1.496-0.58-3.508,0.916-4.496c1.492-0.99,3.504-0.578,4.492,0.916
			c0.99,1.49,0.58,3.508-0.914,4.494C266.17,42.619,264.154,42.213,263.168,40.719z"/>
		<path fill="#E3E993" d="M270.477,59.447c-0.279-1.768,0.922-3.432,2.691-3.715s3.43,0.922,3.713,2.691
			c0.285,1.768-0.922,3.434-2.691,3.715C272.424,62.42,270.756,61.217,270.477,59.447z"/>
		<g>
			<path fill="#E3E993" d="M270.727,74.75l6.211,1.74l-0.379,1.35l-2.465-0.689l-0.66,2.355l2.467,0.689l-0.379,1.352l-6.211-1.74
				l0.377-1.35l2.682,0.75l0.66-2.355l-2.682-0.75L270.727,74.75z"/>
			<path fill="#E3E993" d="M274.408,85.52l-6.211-1.738l0.379-1.352l6.209,1.74L274.408,85.52z"/>
		</g>
		<g>
			<path fill="#ACAD43" d="M169.514,72.586l0.021-1.402l5.344,0.078l0.037-2.6l1.105,0.018l-0.059,4L169.514,72.586z"/>
			<path fill="#ACAD43" d="M169.633,63.734c0.008-0.459,0.086-0.881,0.236-1.268c0.152-0.387,0.367-0.719,0.645-0.994
				c0.279-0.275,0.621-0.49,1.027-0.645s0.867-0.229,1.383-0.223c0.502,0.008,0.951,0.098,1.346,0.268s0.729,0.4,1.002,0.689
				c0.273,0.291,0.482,0.633,0.625,1.029c0.143,0.395,0.211,0.82,0.205,1.277s-0.084,0.881-0.232,1.266
				c-0.148,0.387-0.361,0.719-0.639,0.994c-0.279,0.275-0.619,0.49-1.021,0.645s-0.863,0.229-1.379,0.221
				c-0.502-0.008-0.951-0.096-1.35-0.266s-0.736-0.398-1.014-0.689c-0.275-0.291-0.486-0.633-0.629-1.027
				C169.693,64.617,169.627,64.191,169.633,63.734z M172.852,65.512c0.365,0.006,0.686-0.037,0.955-0.125
				c0.271-0.088,0.5-0.209,0.682-0.363c0.18-0.154,0.316-0.336,0.408-0.543c0.09-0.207,0.139-0.43,0.141-0.668
				c0.004-0.232-0.037-0.453-0.121-0.662c-0.086-0.211-0.217-0.391-0.393-0.543c-0.178-0.152-0.402-0.275-0.67-0.369
				c-0.27-0.092-0.586-0.141-0.951-0.146c-0.377-0.006-0.705,0.035-0.98,0.125c-0.275,0.086-0.504,0.207-0.686,0.361
				c-0.18,0.154-0.314,0.336-0.402,0.543s-0.135,0.43-0.137,0.668c-0.004,0.24,0.039,0.463,0.127,0.668s0.221,0.387,0.398,0.539
				s0.4,0.275,0.672,0.367C172.17,65.457,172.488,65.506,172.852,65.512z"/>
		</g>
	</g>
	<g>
		<path fill="#A0AEBB" d="M86.038,4.527H69.404c34.501,0,41.995,27.971,41.995,62.473c0,34.504-8.955,62.473-43.458,62.473h18.097
			c34.502,0,62.471-27.969,62.471-62.473C148.508,32.498,120.54,4.527,86.038,4.527z"/>
	</g>
	<g opacity="0.6">
		<defs>
			<path id="SVGID_3_" opacity="0.6" d="M86.038,4.527H69.404c34.501,0,41.995,27.971,41.995,62.473
				c0,34.504-8.955,62.473-43.458,62.473h18.097c34.502,0,62.471-27.969,62.471-62.473C148.508,32.498,120.54,4.527,86.038,4.527z"
				/>
		</defs>
		<clipPath id="SVGID_4_">
			<use xlink:href="#SVGID_3_"  overflow="visible"/>
		</clipPath>
		<g clip-path="url(#SVGID_4_)">
			<line fill="none" stroke="#7C8A96" stroke-width="3.3834" stroke-miterlimit="10" x1="52.564" y1="4.6" x2="188.279" y2="4.6"/>
			
				<line fill="none" stroke="#7C8A96" stroke-width="3.3834" stroke-miterlimit="10" x1="32.087" y1="10.844" x2="167.803" y2="10.844"/>
			
				<line fill="none" stroke="#7C8A96" stroke-width="3.3834" stroke-miterlimit="10" x1="32.087" y1="17.088" x2="167.803" y2="17.088"/>
			
				<line fill="none" stroke="#7C8A96" stroke-width="3.3834" stroke-miterlimit="10" x1="32.087" y1="23.332" x2="167.803" y2="23.332"/>
			
				<line fill="none" stroke="#7C8A96" stroke-width="3.3834" stroke-miterlimit="10" x1="32.087" y1="29.574" x2="167.803" y2="29.574"/>
			
				<line fill="none" stroke="#7C8A96" stroke-width="3.3834" stroke-miterlimit="10" x1="32.087" y1="35.818" x2="167.803" y2="35.818"/>
			
				<line fill="none" stroke="#7C8A96" stroke-width="3.3834" stroke-miterlimit="10" x1="32.087" y1="42.061" x2="167.803" y2="42.061"/>
			
				<line fill="none" stroke="#7C8A96" stroke-width="3.3834" stroke-miterlimit="10" x1="32.087" y1="48.305" x2="167.803" y2="48.305"/>
			
				<line fill="none" stroke="#7C8A96" stroke-width="3.3834" stroke-miterlimit="10" x1="32.087" y1="54.549" x2="167.803" y2="54.549"/>
			
				<line fill="none" stroke="#7C8A96" stroke-width="3.3834" stroke-miterlimit="10" x1="32.087" y1="60.793" x2="167.803" y2="60.793"/>
			
				<line fill="none" stroke="#7C8A96" stroke-width="3.3834" stroke-miterlimit="10" x1="32.087" y1="67.035" x2="167.803" y2="67.035"/>
			
				<line fill="none" stroke="#7C8A96" stroke-width="3.3834" stroke-miterlimit="10" x1="32.087" y1="73.281" x2="167.803" y2="73.281"/>
			
				<line fill="none" stroke="#7C8A96" stroke-width="3.3834" stroke-miterlimit="10" x1="32.087" y1="79.523" x2="167.803" y2="79.523"/>
			
				<line fill="none" stroke="#7C8A96" stroke-width="3.3834" stroke-miterlimit="10" x1="32.087" y1="85.768" x2="167.803" y2="85.768"/>
			
				<line fill="none" stroke="#7C8A96" stroke-width="3.3834" stroke-miterlimit="10" x1="32.087" y1="92.012" x2="167.803" y2="92.012"/>
			
				<line fill="none" stroke="#7C8A96" stroke-width="3.3834" stroke-miterlimit="10" x1="32.087" y1="98.254" x2="167.803" y2="98.254"/>
			
				<line fill="none" stroke="#7C8A96" stroke-width="3.3834" stroke-miterlimit="10" x1="32.087" y1="104.498" x2="167.803" y2="104.498"/>
			
				<line fill="none" stroke="#7C8A96" stroke-width="3.3834" stroke-miterlimit="10" x1="32.087" y1="110.742" x2="167.803" y2="110.742"/>
			
				<line fill="none" stroke="#7C8A96" stroke-width="3.3834" stroke-miterlimit="10" x1="32.087" y1="116.986" x2="167.803" y2="116.986"/>
			
				<line fill="none" stroke="#7C8A96" stroke-width="3.3834" stroke-miterlimit="10" x1="32.087" y1="123.229" x2="167.803" y2="123.229"/>
			
				<line fill="none" stroke="#7C8A96" stroke-width="3.3834" stroke-miterlimit="10" x1="51.101" y1="129.473" x2="186.816" y2="129.473"/>
		</g>
	</g>
	<circle fill="#B0BFCD" cx="69.402" cy="67" r="62.471"/>
	<g>
		<circle fill="#90A0AE" cx="69.402" cy="67" r="38.993"/>
		<path fill="#7C8A96" d="M36.896,67c0-20.443,15.734-37.199,35.75-38.848c-1.068-0.09-2.15-0.145-3.242-0.145
			C47.867,28.008,30.41,45.465,30.41,67c0,21.537,17.457,38.994,38.994,38.994c1.092,0,2.174-0.057,3.242-0.146
			C52.63,104.199,36.896,87.443,36.896,67z"/>
		<g>
			<path fill="#B0BFCD" d="M75.792,92.814c-2.715,0-5.414-1.135-7.334-3.352l-27.9-32.24c-3.504-4.047-3.062-10.168,0.984-13.672
				c4.049-3.504,10.168-3.061,13.672,0.986l27.901,32.24c3.504,4.049,3.062,10.168-0.986,13.674
				C80.299,92.035,78.04,92.814,75.792,92.814z"/>
		</g>
		<path fill="#A0AEBB" d="M94.049,76.777l-27.903-32.24c-1.807-2.09-4.314-3.217-6.873-3.338c-0.299-0.016-0.604-0.016-0.904,0
			l-10.691-0.01v0.002c2.783-0.059,5.57,1.076,7.537,3.346l27.901,32.24c3.504,4.049,3.062,10.168-0.986,13.674
			c-1.83,1.584-4.09,2.363-6.337,2.363h10.933c2.246,0,4.506-0.779,6.338-2.363C97.11,86.945,97.553,80.826,94.049,76.777z"/>
	</g>
	<g>
		<path fill="#ACAD43" d="M63.751,10.309l1.729,13.32c1.881-0.17,3.787-0.219,5.719-0.137l1.076-13.387
			C69.392,9.959,66.546,10.031,63.751,10.309z"/>
		<path fill="#ACAD43" d="M41.212,17.516l7,11.461c4.268-2.393,8.959-4.08,13.914-4.922l-1.73-13.314
			C53.546,11.838,47.066,14.164,41.212,17.516z"/>
		<path fill="#ACAD43" d="M29.933,48.676c3.4-7.338,8.781-13.514,15.398-17.926l-7-11.463c-8.998,5.885-16.287,14.256-20.801,24.229
			L29.933,48.676z"/>
		<path fill="#E3E993" d="M84.03,11.939c-2.713-0.723-5.512-1.248-8.382-1.562L74.57,23.762c1.92,0.229,3.794,0.584,5.624,1.051
			L84.03,11.939z"/>
		<path fill="#ACAD43" d="M28.64,51.805l-12.404-5.164c-1.887,4.936-3.125,10.209-3.568,15.732
			c-0.443,5.527-0.064,10.93,1.008,16.104l13.072-3.115c-0.76-3.832-1.021-7.83-0.693-11.912S27.279,55.467,28.64,51.805z"/>
		<path fill="#E3E993" d="M112.061,58.512c0.756,3.832,1.02,7.826,0.691,11.906c-0.328,4.086-1.225,7.986-2.588,11.65l12.404,5.164
			c1.889-4.938,3.125-10.211,3.57-15.736c0.443-5.525,0.064-10.928-1.01-16.1L112.061,58.512z"/>
		<path fill="#E3E993" d="M107.688,24.865l-8.74,10.197c5.822,5.41,10.148,12.369,12.336,20.154l13.068-3.113
			C121.489,41.539,115.633,32.111,107.688,24.865z"/>
		<path fill="#E3E993" d="M87.274,12.9L83.438,25.77c4.754,1.621,9.121,4.039,12.949,7.08l8.74-10.197
			C99.887,18.412,93.858,15.078,87.274,12.9z"/>
	</g>
</g>
</svg>
