<?xml version="1.0" encoding="utf-8"?>
<!-- Generator: Adobe Illustrator 16.0.0, SVG Export Plug-In . SVG Version: 6.00 Build 0)  -->
<!DOCTYPE svg PUBLIC "-//W3C//DTD SVG 1.1//EN" "http://www.w3.org/Graphics/SVG/1.1/DTD/svg11.dtd">
<svg version="1.1" id="Layer_1" xmlns="http://www.w3.org/2000/svg" xmlns:xlink="http://www.w3.org/1999/xlink" x="0px" y="0px"
	 width="714px" height="240px" viewBox="0 0 714 240" enable-background="new 0 0 714 240" xml:space="preserve">
<g>
	<polygon fill="#414042" points="95.093,194.554 198.044,194.554 454.995,204.306 468.474,198.192 533.857,192.26 554.793,192.26 
		556.941,170.963 154.378,143.221 81.184,145.515 	"/>
	<g>
		<circle fill="#58595B" cx="501.883" cy="192.26" r="37.424"/>
		<circle fill="none" stroke="#F1F2F2" stroke-width="1.7207" stroke-miterlimit="10" cx="501.883" cy="192.26" r="27.96"/>
		<circle fill="#A7A9AC" cx="501.884" cy="192.26" r="24.075"/>
		<circle fill="#939598" cx="501.883" cy="192.26" r="21.297"/>
		<circle fill="#D1D3D4" cx="501.883" cy="192.26" r="5.148"/>
		<path fill="#58595B" d="M507.814,205.413c0,1.534-1.257,2.791-2.79,2.791h-6.282c-1.532,0-2.79-1.257-2.79-2.791
			c0-1.536,1.258-2.792,2.79-2.792h6.282C506.558,202.621,507.814,203.877,507.814,205.413z"/>
		<path fill="#58595B" d="M515.035,186.329c1.535,0,2.79,1.257,2.79,2.791v6.282c0,1.533-1.255,2.791-2.79,2.791
			c-1.537,0-2.791-1.257-2.791-2.791v-6.282C512.244,187.586,513.498,186.329,515.035,186.329z"/>
		<path fill="#58595B" d="M495.952,179.109c0-1.537,1.258-2.792,2.79-2.792h6.282c1.533,0,2.79,1.255,2.79,2.792
			s-1.257,2.791-2.79,2.791h-6.282C497.21,181.899,495.952,180.646,495.952,179.109z"/>
		<path fill="#58595B" d="M488.73,198.192c-1.536,0-2.791-1.257-2.791-2.791v-6.282c0-1.533,1.255-2.791,2.791-2.791
			c1.535,0,2.792,1.257,2.792,2.791v6.282C491.522,196.935,490.266,198.192,488.73,198.192z"/>
		<path opacity="0.4" fill="#FFFFFF" d="M484.508,208.899c4.383,4.574,10.539,7.437,17.375,7.437
			c13.297,0,24.076-10.778,24.076-24.076c0-6.535-2.613-12.452-6.84-16.792L484.508,208.899z"/>
	</g>
	<g>
		<circle fill="#58595B" cx="144.018" cy="192.26" r="37.424"/>
		<circle fill="none" stroke="#F1F2F2" stroke-width="1.7207" stroke-miterlimit="10" cx="144.018" cy="192.26" r="27.96"/>
		<circle fill="#A7A9AC" cx="144.017" cy="192.26" r="24.076"/>
		<circle fill="#939598" cx="144.017" cy="192.26" r="21.296"/>
		<circle fill="#D1D3D4" cx="144.018" cy="192.26" r="5.148"/>
		<path fill="#58595B" d="M149.949,205.413c0,1.534-1.258,2.791-2.792,2.791h-6.279c-1.536,0-2.793-1.257-2.793-2.791
			c0-1.536,1.257-2.792,2.793-2.792h6.279C148.691,202.621,149.949,203.877,149.949,205.413z"/>
		<path fill="#58595B" d="M157.17,186.329c1.536,0,2.79,1.257,2.79,2.791v6.282c0,1.533-1.254,2.791-2.79,2.791
			s-2.792-1.257-2.792-2.791v-6.282C154.378,187.586,155.634,186.329,157.17,186.329z"/>
		<path fill="#58595B" d="M138.085,179.109c0-1.537,1.257-2.792,2.793-2.792h6.279c1.534,0,2.792,1.255,2.792,2.792
			s-1.258,2.791-2.792,2.791h-6.279C139.342,181.899,138.085,180.646,138.085,179.109z"/>
		<path fill="#58595B" d="M130.865,198.192c-1.535,0-2.79-1.257-2.79-2.791v-6.282c0-1.533,1.255-2.791,2.79-2.791
			c1.536,0,2.791,1.257,2.791,2.791v6.282C133.656,196.935,132.401,198.192,130.865,198.192z"/>
		<path opacity="0.4" fill="#FFFFFF" d="M126.644,208.899c4.382,4.574,10.538,7.437,17.373,7.437
			c13.298,0,24.076-10.778,24.076-24.076c0-6.535-2.612-12.452-6.842-16.792L126.644,208.899z"/>
	</g>
	<polygon fill="#F1F2F2" points="233.028,127.938 290.31,85.15 442.916,85.15 488.98,125.054 	"/>
	<polygon fill="#58595B" points="292.312,91.172 248.252,123.435 431.701,121.711 402.06,91.172 	"/>
	
		<line fill="none" stroke="#F1F2F2" stroke-width="6.6414" stroke-miterlimit="10" x1="370.017" y1="89.795" x2="366.413" y2="123.435"/>
	<circle fill="#E4CDA3" cx="68.343" cy="157.425" r="12.84"/>
	<path fill="#EF3A28" d="M60.537,140.64l27.529-11.183l574.267-6.022l-16.346,17.205l14.195,6.883l2.15,28.391l-24.089,18.497
		h-89.902l-1.292-7.743l-82.591-0.339c0,0-9.033,9.373-9.464,17.977H199.479l-39.574-43.448H97.1v36.135l-27.96-37.855
		L60.537,140.64z"/>
	<g>
		<path fill="#AD2217" d="M61.051,140.681c0,0,149.96-2.404,299.95-2.132c18.749,0.081,37.498,0.162,55.954,0.242
			c18.456,0.134,36.619,0.307,54.197,0.548c17.578,0.244,34.57,0.533,50.684,0.908c8.056,0.194,15.893,0.359,23.474,0.604
			c7.58,0.223,14.904,0.43,21.936,0.711c7.03,0.252,13.769,0.502,20.177,0.821c3.204,0.148,6.326,0.292,9.361,0.432
			c3.034,0.172,5.982,0.338,8.838,0.5c2.856,0.166,5.621,0.326,8.29,0.481c2.669,0.193,5.241,0.379,7.712,0.558
			c2.473,0.183,4.844,0.358,7.109,0.526c2.266,0.178,4.427,0.417,6.478,0.605c4.102,0.396,7.764,0.718,10.954,1.188
			c1.595,0.209,3.07,0.404,4.422,0.581c1.352,0.176,2.579,0.323,3.686,0.563c4.418,0.846,6.774,1.297,6.774,1.297l-1.135,4.646
			c0,0-2.243-0.446-6.45-1.281c-1.041-0.237-2.249-0.391-3.574-0.573c-1.324-0.184-2.77-0.385-4.332-0.603
			c-3.111-0.484-6.742-0.831-10.802-1.253c-2.03-0.203-4.163-0.455-6.413-0.648c-2.252-0.184-4.607-0.376-7.064-0.576
			c-2.457-0.196-5.014-0.401-7.666-0.613c-2.658-0.174-5.412-0.354-8.257-0.541c-2.845-0.183-5.781-0.371-8.805-0.565
			c-3.026-0.162-6.14-0.329-9.335-0.5c-6.389-0.367-13.113-0.667-20.132-0.971c-7.016-0.333-14.33-0.596-21.899-0.875
			c-7.568-0.301-15.398-0.526-23.445-0.78c-16.096-0.496-33.075-0.914-50.643-1.289c-17.566-0.373-35.722-0.683-54.17-0.956
			c-18.451-0.219-37.193-0.441-55.937-0.663c-149.957-1.402-299.933-0.128-299.933-0.128L61.051,140.681z"/>
	</g>
	<path fill="#9E2212" d="M662.333,175.914l-1.108-14.642c-66.096-2.556-544.611-3.734-592.882-3.847l0.797,1.713l27.96,37.855
		v-36.135h62.805l39.574,43.448h255.517c0.431-8.604,9.464-17.977,9.464-17.977l82.591,0.339l1.292,7.743h89.902L662.333,175.914z"
		/>
	<path fill="#9E2212" d="M451.551,125.646c0,0,167.767,11.985,194.437,14.995l16.346-17.205L451.551,125.646L451.551,125.646z"/>
	<path fill="#EF3A28" d="M673.088,187.098l-10.755-11.184l-468.877,3.962c-4.253,0-4.33,5.544,0.362,5.544L673.088,187.098z"/>
	<path opacity="0.3" fill="#FFFFFF" d="M673.088,187.098l-10.755-11.184l-468.877,3.962c-4.253,0-4.33,5.544,0.362,5.544
		L673.088,187.098z"/>
	<path fill="#E4CDA3" d="M662.285,151.825c6.652,0,10.324,5.392,10.324,12.044c0,6.654-3.672,12.044-10.324,12.044V151.825z"/>
	
		<line fill="none" stroke="#939598" stroke-width="5.1619" stroke-linecap="round" stroke-miterlimit="10" x1="662.285" y1="149.245" x2="662.285" y2="175.914"/>
	<path fill="#808285" stroke="#808285" stroke-width="3.4413" stroke-miterlimit="10" d="M97.1,173.333H60.537
		c0,0,0.428,23.66,36.562,23.66V173.333z"/>
	
		<line fill="none" stroke="#939598" stroke-width="5.1619" stroke-linecap="round" stroke-miterlimit="10" x1="51.933" y1="169.892" x2="97.1" y2="169.892"/>
	<path opacity="0.1" fill="#FFFFFF" d="M645.987,140.64l16.346-17.205l-160.524,1.683c-80.582,24.98-189.456,58.839-254.857,79.188
		h208.044c0.431-8.604,9.464-17.977,9.464-17.977l82.591,0.339l1.292,7.743h89.902l24.089-18.497l-2.15-28.391L645.987,140.64z"/>
</g>
</svg>
