<?xml version="1.0" encoding="utf-8"?>
<!-- Generator: Adobe Illustrator 16.0.0, SVG Export Plug-In . SVG Version: 6.00 Build 0)  -->
<!DOCTYPE svg PUBLIC "-//W3C//DTD SVG 1.1//EN" "http://www.w3.org/Graphics/SVG/1.1/DTD/svg11.dtd">
<svg version="1.1" xmlns="http://www.w3.org/2000/svg" xmlns:xlink="http://www.w3.org/1999/xlink" x="0px" y="0px"
	 width="449.73px" height="236.335px" viewBox="0 0 449.73 236.335" enable-background="new 0 0 449.73 236.335"
	 xml:space="preserve">
<g id="Layer_3">
	<g>
		<g>
			<g>
				<path fill="#E4EA95" d="M13.342,233.088H4.848l-1.394,3.064H0.132l7.29-16.25h3.345l7.287,16.25h-3.341L13.342,233.088z
					 M9.094,223.313l-3.019,6.918h6.037L9.094,223.313z"/>
				<path fill="#E4EA95" d="M46.063,219.924v9.311c0,4.803-2.948,7.264-7.033,7.264c-3.9,0-7.219-2.369-7.219-7.264v-9.311h3.039
					v9.311c0,2.922,1.672,4.479,4.202,4.479c2.53,0,3.969-1.693,3.969-4.479v-9.311H46.063z"/>
				<path fill="#E4EA95" d="M65.877,222.688h-5.154v-2.785c4.688,0,8.657,0,13.37,0v2.785h-5.154v13.465h-3.062V222.688z"/>
				<path fill="#E4EA95" d="M104.54,228.118c-0.045,4.203-2.623,8.4-8.334,8.4c-5.709,0-8.356-4.105-8.356-8.375
					s2.741-8.564,8.356-8.564C101.8,219.579,104.585,223.874,104.54,228.118z M90.866,228.188c0.071,2.674,1.509,5.525,5.339,5.525
					c3.831,0,5.27-2.877,5.318-5.545c0.045-2.74-1.487-5.805-5.318-5.805C92.375,222.364,90.797,225.448,90.866,228.188z"/>
				<path fill="#E4EA95" d="M133.57,224.381l-5.294,7.059h-0.604l-5.177-7.084v11.816h-3.065v-16.248h3.53l5.085,6.988l5.082-6.988
					h3.504v16.248h-3.062V224.381z"/>
				<path fill="#E4EA95" d="M168.099,228.118c-0.044,4.203-2.623,8.4-8.334,8.4c-5.709,0-8.356-4.105-8.356-8.375
					s2.741-8.564,8.356-8.564C165.359,219.579,168.145,223.874,168.099,228.118z M154.425,228.188
					c0.071,2.674,1.51,5.525,5.339,5.525c3.831,0,5.27-2.877,5.318-5.545c0.046-2.74-1.487-5.805-5.318-5.805
					C155.935,222.364,154.356,225.448,154.425,228.188z"/>
				<path fill="#E4EA95" d="M187.169,222.688h-5.154v-2.785c4.69,0,8.658,0,13.37,0v2.785h-5.154v13.465h-3.062V222.688z"/>
				<path fill="#E4EA95" d="M209.884,236.153v-16.25h3.04v16.25H209.884z"/>
				<path fill="#E4EA95" d="M237.246,236.223h-3.182l-6.751-16.32h3.432l4.9,12.65l4.92-12.65H244L237.246,236.223z"/>
				<path fill="#E4EA95" d="M270.613,236.153h-12.163c0-5.408,0-10.842,0-16.25h12.163v2.969h-9.118v3.74h8.798v2.857h-8.798v3.664
					h9.118V236.153z"/>
				<path fill="#E4EA95" d="M317.329,236.153h-3.645l-4.737-5.434h-2.943v5.434h-3.065v-16.275c2.572,0,5.149,0.025,7.726,0.025
					c3.827,0.021,5.85,2.572,5.85,5.383c0,2.23-1.021,4.482-4.106,5.107l4.92,5.551V236.153z M306.004,222.754v5.205h4.661
					c1.952,0,2.786-1.301,2.786-2.604c0-1.301-0.859-2.602-2.786-2.602H306.004z"/>
				<path fill="#E4EA95" d="M343.316,236.153h-12.163c0-5.408,0-10.842,0-16.25h12.163v2.969h-9.124v3.74h8.798v2.857h-8.798v3.664
					h9.124V236.153z"/>
				<path fill="#E4EA95" d="M365.965,231.37h-4.6v4.783H358.3v-16.25c2.551,0,5.108-0.025,7.665-0.025
					C373.899,219.877,373.925,231.37,365.965,231.37z M361.365,228.559h4.6c3.919,0,3.898-5.758,0-5.758h-4.6V228.559z"/>
				<path fill="#E4EA95" d="M398.148,233.088h-8.493l-1.397,3.064h-3.313l7.288-16.25h3.345l7.283,16.25h-3.339L398.148,233.088z
					 M393.899,223.313l-3.014,6.918h6.033L393.899,223.313z"/>
				<path fill="#E4EA95" d="M416.64,236.153v-16.25h3.039v16.25H416.64z"/>
				<path fill="#E4EA95" d="M449.596,236.153h-3.645l-4.736-5.434h-2.948v5.434h-3.064v-16.275c2.582,0,5.153,0.025,7.73,0.025
					c3.827,0.021,5.85,2.572,5.85,5.383c0,2.23-1.021,4.482-4.106,5.107l4.92,5.551V236.153z M438.267,222.754v5.205h4.666
					c1.951,0,2.785-1.301,2.785-2.604c0-1.301-0.859-2.602-2.785-2.602H438.267z"/>
			</g>
		</g>
		<g>
			<path fill="#E4EA95" d="M52.963,62.562c-27.679,4.879-38.458,17.566-38.458,45.241c0,27.677,10.779,36.556,38.458,31.677
				c27.677-4.884,38.462-17.564,38.462-45.242C91.425,66.562,80.64,57.68,52.963,62.562z M52.963,123.285
				c-18.936,3.339-22.266,0.595-22.266-18.338c0-18.938,3.331-22.854,22.266-26.194c18.939-3.336,22.266-0.597,22.266,18.338
				C75.229,116.032,71.902,119.943,52.963,123.285z"/>
			<path fill="#E4EA95" d="M221.208,109.813c27.672-4.882,38.457-17.563,38.457-45.239V36.443l-16.193-7.266v38.249
				c0,18.941-3.329,22.854-22.264,26.191c-18.94,3.339-22.267,0.6-22.267-18.339V47.149l-16.196-7.266v38.251
				C182.745,105.811,193.528,114.692,221.208,109.813z"/>
			<path fill="#E4EA95" d="M305.725,94.911V78.714c-18.938,3.342-22.267,0.6-22.267-18.338V32.247l-16.193-7.266v38.251
				C267.264,90.908,278.049,99.792,305.725,94.911z"/>
			<path fill="#E4EA95" d="M339.743,38.307l-11.36,2.002c0.976-9.51,5.134-11.026,21.988-13.998l9.611-1.695l10.125-17.979
				l-19.736,3.48c-26.059,4.595-38.46,11.932-38.46,41.193v8.097l27.833-4.907c14.73-2.597,20.529,0.676,21.922,14.351
				l-40.646,7.169l-8.097,17.617l65.282-11.507v-8.097C378.204,54.241,373.828,32.297,339.743,38.307z"/>
			<path fill="#E4EA95" d="M165.998,111.294c6.623-7.289,9.54-17.571,9.54-31.889c0-27.675-10.779-36.558-38.458-31.678
				c-27.676,4.881-38.462,17.568-38.462,45.241c0,27.675,10.786,36.558,38.462,31.676c22.266-3.924,22.266,4.943,22.266,10.245
				c0,14.938-3.365,20.834-22.266,24.168c-13.839,2.439-19.788-0.325-21.607-12.016l-16.854-7.461
				c0.011,19.777,4.408,41.673,38.462,35.67c26.599-4.691,38.458-18.023,38.458-43.213
				C175.538,124.268,173.438,116.042,165.998,111.294z M137.079,108.454c-18.938,3.339-22.266,0.594-22.266-18.339
				c0-18.938,3.328-22.854,22.266-26.196c18.936-3.337,22.266-0.598,22.266,18.343C159.345,101.198,156.015,105.114,137.079,108.454
				z"/>
			<polygon fill="#E4EA95" points="283.493,-0.183 267.264,2.68 267.264,18.91 283.493,16.048 			"/>
		</g>
		<g>
			<g>
				<path fill="#93342F" d="M416.426,146.621c-16.463,0-30.501-11.782-33.378-28.022c-3.263-18.425,9.067-36.075,27.492-39.34
					c1.973-0.348,3.975-0.523,5.957-0.523c15.183,0,28.616,10.227,32.667,24.87c0.229,0.823,0.102,1.713-0.361,2.437
					c-0.457,0.722-1.199,1.223-2.043,1.37l-21.489,3.807l1.377,7.767l19.624-3.477c0.981-0.178,1.993,0.147,2.699,0.864
					c0.701,0.712,1.012,1.723,0.818,2.712c-2.638,13.717-13.652,24.574-27.401,27.008
					C420.416,146.443,418.413,146.621,416.426,146.621z M416.497,84.821c-1.626,0-3.273,0.145-4.89,0.43
					c-15.121,2.681-25.24,17.164-22.567,32.285c2.364,13.323,13.881,22.996,27.386,22.996c1.632,0,3.278-0.147,4.896-0.432
					c9.769-1.728,17.845-8.63,21.25-17.752l-17.855,3.167c-1.656,0.292-3.232-0.813-3.527-2.465l-2.439-13.764
					c-0.143-0.795,0.035-1.611,0.498-2.274c0.463-0.661,1.169-1.113,1.967-1.253l20.986-3.718
					C437.956,91.754,427.821,84.821,416.497,84.821z"/>
			</g>
			<path fill="#93342F" d="M390.855,127.778l-3.63-20.483c-0.137-0.798-0.589-1.504-1.25-1.967s-1.479-0.646-2.271-0.498
				l-152.756,27.062c1.703,1.55,3.171,3.375,4.33,5.413l146.483-25.954l2.572,14.491L237.845,151.8
				c-0.391,2.313-1.139,4.524-2.206,6.567l152.75-27.06C390.047,131.012,391.155,129.435,390.855,127.778z"/>
			<g>
				<path fill="#93342F" d="M216.08,173.279c-12.182,0-22.566-8.711-24.694-20.722c-2.413-13.632,6.712-26.683,20.341-29.1
					c1.451-0.257,2.935-0.386,4.404-0.386c12.178,0,22.563,8.718,24.693,20.724c2.409,13.626-6.714,26.679-20.342,29.093
					C219.028,173.147,217.546,173.279,216.08,173.279z M216.131,129.155c-1.113,0-2.237,0.104-3.342,0.297
					c-10.324,1.833-17.238,11.719-15.409,22.042c1.612,9.093,9.478,15.7,18.7,15.7c1.113,0,2.237-0.106,3.339-0.3
					c10.324-1.83,17.232-11.715,15.412-22.039C233.215,135.764,225.351,129.155,216.131,129.155z"/>
			</g>
			<g>
				<path fill="#93342F" d="M216.092,159.861c-5.669,0-10.503-4.056-11.494-9.642c-1.122-6.348,3.122-12.427,9.466-13.55
					c0.679-0.122,1.365-0.178,2.048-0.178c5.672,0,10.508,4.056,11.497,9.652c1.122,6.338-3.123,12.412-9.469,13.54
					C217.467,159.805,216.776,159.861,216.092,159.861z M216.113,142.575c-0.328,0-0.658,0.025-0.986,0.092
					c-3.04,0.534-5.073,3.446-4.537,6.491c0.534,2.999,3.454,5.067,6.488,4.534c3.04-0.544,5.075-3.451,4.539-6.486
					C221.142,144.521,218.83,142.575,216.113,142.575z"/>
			</g>
		</g>
		<g>
			<path fill="#93342F" d="M449.179,206.618H0.551c-0.378,0-0.686-0.307-0.686-0.688s0.308-0.686,0.686-0.686h448.627
				c0.382,0,0.687,0.305,0.687,0.686S449.561,206.618,449.179,206.618z"/>
		</g>
	</g>
</g>
<g id="Guides">
</g>
</svg>
