<?xml version="1.0" encoding="utf-8"?>
<!-- Generator: Adobe Illustrator 16.0.0, SVG Export Plug-In . SVG Version: 6.00 Build 0)  -->
<!DOCTYPE svg PUBLIC "-//W3C//DTD SVG 1.1//EN" "http://www.w3.org/Graphics/SVG/1.1/DTD/svg11.dtd">
<svg version="1.1" id="Layer_1" xmlns="http://www.w3.org/2000/svg" xmlns:xlink="http://www.w3.org/1999/xlink" x="0px" y="0px"
	 width="308.667px" height="138.667px" viewBox="0 0 308.667 138.667" enable-background="new 0 0 308.667 138.667"
	 xml:space="preserve">
<g>
	<g>
		<path fill="#919EAA" d="M41.326,97.592l6.628,20.102l-28.672,9.455l-6.63-20.102c-1.089-3.303,4.45-8.096,12.365-10.706
			C32.935,93.729,40.238,94.291,41.326,97.592z"/>
		
			<ellipse transform="matrix(-0.3132 -0.9497 0.9497 -0.3132 -72.1161 192.6907)" fill="#B0BFCD" cx="33.618" cy="122.422" rx="6.293" ry="15.095"/>
		<path fill="#717C86" d="M33.623,122.418c5.302-1.746,9.526-4.475,11.416-7.079c-3.068-0.966-8.085-0.647-13.388,1.103
			c-5.303,1.748-9.528,4.477-11.418,7.078C23.301,124.487,28.32,124.17,33.623,122.418z"/>
		<path opacity="0.2" fill="#919EAA" stroke="#FFFFFF" stroke-width="2.2515" stroke-linecap="round" stroke-miterlimit="10" d="
			M16.881,108.489c2.202-2.164,5.86-4.285,10.251-5.732c2.054-0.678,4.063-1.141,5.934-1.4"/>
	</g>
	<g>
		<path fill="#919EAA" d="M296.015,31.622l-6.628-20.104l-28.673,9.458l6.629,20.1c1.091,3.302,8.392,3.863,16.307,1.25
			C291.569,39.715,297.105,34.921,296.015,31.622z"/>
		<path fill="#B0BFCD" d="M277.021,22.221c-7.918,2.611-15.219,2.051-16.308-1.247c-1.088-3.302,4.447-8.096,12.365-10.708
			c7.918-2.609,15.219-2.051,16.308,1.25C290.475,14.817,284.939,19.611,277.021,22.221z"/>
		
			<ellipse transform="matrix(0.3132 0.9497 -0.9497 0.3132 211.3606 -247.8221)" fill="#B0BFCD" cx="277.021" cy="22.221" rx="6.294" ry="15.096"/>
	</g>
	<g>
		<path fill="#919EAA" d="M296.015,31.622l-6.628-20.104l-28.673,9.458l6.629,20.1c1.091,3.302,8.392,3.863,16.307,1.25
			C291.569,39.715,297.105,34.921,296.015,31.622z"/>
		<path fill="#B0BFCD" d="M277.021,22.221c-7.918,2.611-15.219,2.051-16.308-1.247c-1.088-3.302,4.447-8.096,12.365-10.708
			c7.918-2.609,15.219-2.051,16.308,1.25C290.475,14.817,284.939,19.611,277.021,22.221z"/>
		<path fill="#717C86" d="M275.05,16.244c-5.303,1.749-9.526,4.478-11.416,7.082c3.068,0.964,8.085,0.646,13.388-1.104
			c5.303-1.747,9.526-4.478,11.417-7.077C285.37,14.176,280.353,14.495,275.05,16.244z"/>
		<path opacity="0.1" fill="#919EAA" stroke="#FFFFFF" stroke-width="2.2515" stroke-linecap="round" stroke-miterlimit="10" d="
			M291.146,26.994c-2.201,2.165-5.861,4.285-10.251,5.733c-2.055,0.676-4.062,1.14-5.934,1.397"/>
	</g>
	
		<rect x="160.534" y="-11.547" transform="matrix(0.3132 0.9497 -0.9497 0.3132 177.6243 -116.2558)" fill="#525B63" width="17.303" height="152.439"/>
	
		<rect x="248.166" y="23.107" transform="matrix(0.3133 0.9497 -0.9497 0.3133 209.3134 -216.0863)" fill="#B7C2CB" width="11.799" height="27.152"/>
	
		<rect x="64.174" y="69.311" transform="matrix(0.3131 0.9497 -0.9497 0.3131 140.5945 0.3236)" fill="#B7C2CB" width="11.798" height="56.094"/>
	<g>
		<g>
			<path fill="#E3E993" d="M117.659,96.264c-0.128-0.39-0.12-0.83,0.056-1.238c0.381-0.885,1.41-1.292,2.297-0.908
				c2.056,0.893,2.888,0.741,3.037,0.611c1.34-1.205-1.25-9.47-2.641-13.91c-2.511-8.021-4.681-14.952-1.642-17.687
				c2.23-2.01,5.739-0.49,6.894,0.012c0.885,0.383,1.292,1.411,0.907,2.294c-0.381,0.885-1.41,1.292-2.294,0.909
				c-2.061-0.894-2.976-0.796-3.17-0.624c-1.373,1.239,1.235,9.574,2.638,14.053c2.493,7.963,4.65,14.842,1.644,17.546
				c-2.2,1.977-5.633,0.487-6.763-0.002C118.148,97.116,117.81,96.723,117.659,96.264z"/>
		</g>
		<g>
			<path fill="#959B64" d="M125.661,63.144c-0.55-0.236-1.635-0.705-2.86-0.916c-0.481,0.921-0.667,2.082-0.638,3.438
				c0.501,0.084,1.186,0.279,2.11,0.68c0.465,0.202,0.965,0.176,1.395-0.016c-0.147-1.288-0.089-2.256,0.309-2.616
				c0.049-0.043,0.148-0.083,0.3-0.103C126.108,63.418,125.91,63.253,125.661,63.144z"/>
		</g>
		<path fill="#E3E993" d="M129.332,92.655c-0.131,0.121-0.846,0.246-2.518-0.399c0.09,1.386-0.028,2.591-0.421,3.562
			c1.541,0.493,3.718,0.834,5.277-0.568c3.006-2.703,0.85-9.581-1.642-17.545c-1.403-4.479-4.013-12.814-2.638-14.051
			c0.192-0.173,1.109-0.272,3.167,0.621c0.888,0.384,1.916-0.022,2.297-0.908c0.383-0.88-0.021-1.911-0.906-2.294
			c-1.155-0.501-4.664-2.022-6.896-0.012c-3.04,2.735-0.87,9.664,1.643,17.688C128.085,83.186,130.671,91.448,129.332,92.655z"/>
		<path fill="#959B64" d="M126.397,95.815c0.233,0.076,0.483,0.15,0.746,0.213c0.514-0.907,0.728-2.068,0.706-3.432
			c-0.292-0.074-0.646-0.197-1.035-0.345C126.9,93.638,126.786,94.843,126.397,95.815z"/>
		<g>
			<path fill="#959B64" d="M131.947,61.071c-0.552-0.236-1.638-0.705-2.86-0.915c-0.483,0.919-0.669,2.081-0.638,3.438
				c0.5,0.083,1.185,0.278,2.108,0.679c0.465,0.202,0.966,0.176,1.396-0.016c-0.145-1.287-0.088-2.255,0.31-2.616
				c0.05-0.043,0.148-0.083,0.298-0.103C132.395,61.346,132.194,61.18,131.947,61.071z"/>
		</g>
		<path fill="#E3E993" d="M135.618,90.583c-0.133,0.121-0.846,0.245-2.52-0.4c0.089,1.389-0.026,2.591-0.417,3.562
			c1.536,0.492,3.716,0.834,5.272-0.568c3.009-2.704,0.85-9.582-1.642-17.547c-1.402-4.479-4.011-12.813-2.637-14.05
			c0.194-0.172,1.109-0.272,3.169,0.622c0.885,0.383,1.913-0.023,2.295-0.909c0.382-0.881-0.021-1.91-0.907-2.292
			c-1.154-0.502-4.664-2.024-6.896-0.015c-3.04,2.735-0.868,9.666,1.644,17.688C134.369,81.114,136.958,89.375,135.618,90.583z"/>
		<path fill="#959B64" d="M132.682,93.743c0.233,0.076,0.485,0.149,0.746,0.212c0.516-0.907,0.729-2.068,0.706-3.431
			c-0.29-0.075-0.646-0.198-1.035-0.346C133.186,91.565,133.07,92.77,132.682,93.743z"/>
		<g>
			<path fill="#959B64" d="M138.231,59c-0.549-0.238-1.634-0.707-2.86-0.918c-0.481,0.923-0.667,2.084-0.638,3.439
				c0.501,0.084,1.184,0.278,2.11,0.679c0.465,0.204,0.963,0.175,1.395-0.016c-0.147-1.288-0.089-2.256,0.308-2.614
				c0.05-0.045,0.149-0.085,0.301-0.104C138.681,59.273,138.48,59.107,138.231,59z"/>
		</g>
		<path fill="#E3E993" d="M141.902,88.509c-0.131,0.12-0.846,0.245-2.518-0.399c0.087,1.387-0.028,2.59-0.419,3.561
			c1.539,0.494,3.718,0.835,5.275-0.567c3.006-2.704,0.849-9.581-1.642-17.546c-1.403-4.478-4.014-12.812-2.638-14.05
			c0.191-0.173,1.109-0.272,3.167,0.623c0.886,0.381,1.914-0.025,2.297-0.91c0.383-0.881-0.023-1.912-0.907-2.292
			c-1.155-0.501-4.664-2.024-6.896-0.014c-3.04,2.737-0.87,9.664,1.643,17.687C140.656,79.04,143.242,87.301,141.902,88.509z"/>
		<path fill="#959B64" d="M138.966,91.668c0.235,0.077,0.485,0.15,0.746,0.213c0.516-0.906,0.729-2.066,0.71-3.432
			c-0.294-0.074-0.648-0.196-1.04-0.345C139.471,89.493,139.354,90.697,138.966,91.668z"/>
		<g>
			<path fill="#959B64" d="M144.518,56.927c-0.552-0.238-1.637-0.707-2.862-0.917c-0.481,0.922-0.667,2.083-0.636,3.438
				c0.5,0.083,1.184,0.278,2.107,0.682c0.465,0.202,0.966,0.173,1.396-0.019c-0.147-1.286-0.088-2.253,0.31-2.613
				c0.05-0.046,0.148-0.085,0.298-0.105C144.965,57.2,144.765,57.034,144.518,56.927z"/>
		</g>
		<path fill="#E3E993" d="M148.191,86.437c-0.135,0.12-0.848,0.245-2.522-0.4c0.089,1.388-0.028,2.591-0.419,3.562
			c1.539,0.492,3.718,0.834,5.274-0.566c3.007-2.706,0.85-9.583-1.642-17.548c-1.402-4.478-4.014-12.814-2.638-14.051
			c0.195-0.174,1.11-0.272,3.167,0.624c0.888,0.382,1.916-0.025,2.297-0.911c0.383-0.88-0.021-1.91-0.906-2.292
			c-1.155-0.502-4.664-2.024-6.896-0.015c-3.04,2.737-0.868,9.666,1.644,17.688C146.94,76.967,149.529,85.229,148.191,86.437z"/>
		<path fill="#959B64" d="M145.252,89.596c0.233,0.078,0.485,0.15,0.747,0.213c0.516-0.906,0.728-2.066,0.708-3.431
			c-0.292-0.075-0.648-0.196-1.037-0.347C145.757,87.42,145.641,88.625,145.252,89.596z"/>
		<g>
			<path fill="#959B64" d="M150.802,54.854c-0.551-0.238-1.637-0.708-2.86-0.918c-0.481,0.923-0.669,2.083-0.638,3.439
				c0.501,0.086,1.184,0.278,2.107,0.681c0.467,0.202,0.966,0.173,1.397-0.018c-0.147-1.286-0.091-2.253,0.308-2.614
				c0.05-0.045,0.148-0.085,0.298-0.103C151.251,55.127,151.05,54.961,150.802,54.854z"/>
		</g>
		<path fill="#E3E993" d="M154.475,84.364c-0.133,0.12-0.847,0.245-2.522-0.4c0.09,1.389-0.025,2.59-0.417,3.562
			c1.538,0.495,3.718,0.837,5.275-0.565c3.007-2.707,0.851-9.584-1.645-17.548c-1.402-4.476-4.011-12.812-2.637-14.051
			c0.196-0.174,1.111-0.272,3.169,0.624c0.885,0.381,1.913-0.023,2.297-0.908c0.383-0.883-0.022-1.914-0.908-2.295
			c-1.152-0.501-4.663-2.024-6.894-0.014c-3.038,2.738-0.87,9.667,1.642,17.686C153.224,74.896,155.813,83.156,154.475,84.364z"/>
		<path fill="#959B64" d="M151.537,87.523c0.234,0.079,0.485,0.15,0.746,0.213c0.517-0.907,0.729-2.066,0.711-3.431
			c-0.295-0.076-0.649-0.195-1.04-0.346C152.042,85.346,151.924,86.553,151.537,87.523z"/>
		<g>
			<path fill="#959B64" d="M157.087,52.781c-0.548-0.238-1.635-0.707-2.861-0.917c-0.479,0.921-0.667,2.083-0.638,3.438
				c0.5,0.086,1.185,0.279,2.11,0.682c0.465,0.202,0.966,0.174,1.395-0.016c-0.146-1.288-0.09-2.255,0.309-2.616
				c0.052-0.045,0.15-0.085,0.302-0.105C157.536,53.054,157.336,52.888,157.087,52.781z"/>
		</g>
		<path fill="#E3E993" d="M160.76,82.292c-0.134,0.121-0.848,0.244-2.521-0.4c0.09,1.387-0.029,2.592-0.419,3.562
			c1.539,0.493,3.719,0.835,5.274-0.568c3.006-2.703,0.851-9.582-1.644-17.545c-1.4-4.48-4.011-12.814-2.638-14.053
			c0.196-0.172,1.111-0.271,3.171,0.623c0.886,0.384,1.912-0.023,2.294-0.908c0.387-0.882-0.02-1.913-0.905-2.294
			c-1.154-0.501-4.662-2.023-6.894-0.014c-3.041,2.737-0.87,9.667,1.642,17.688C159.511,72.824,162.1,81.084,160.76,82.292z"/>
		<path fill="#959B64" d="M157.823,85.45c0.232,0.08,0.485,0.15,0.746,0.213c0.517-0.906,0.727-2.066,0.708-3.43
			c-0.292-0.076-0.648-0.197-1.037-0.347C158.328,83.276,158.211,84.481,157.823,85.45z"/>
		<g>
			<path fill="#959B64" d="M163.373,50.708c-0.551-0.238-1.635-0.707-2.86-0.916c-0.481,0.921-0.67,2.081-0.638,3.437
				c0.501,0.084,1.186,0.278,2.109,0.681c0.465,0.203,0.964,0.173,1.396-0.016c-0.147-1.288-0.091-2.256,0.308-2.616
				c0.05-0.043,0.148-0.085,0.301-0.103C163.82,50.983,163.622,50.815,163.373,50.708z"/>
		</g>
		<path fill="#E3E993" d="M167.047,80.218c-0.137,0.122-0.848,0.245-2.523-0.398c0.09,1.386-0.026,2.591-0.417,3.562
			c1.539,0.493,3.716,0.834,5.274-0.568c3.004-2.704,0.851-9.584-1.644-17.545c-1.403-4.479-4.011-12.814-2.638-14.053
			c0.196-0.172,1.108-0.27,3.169,0.624c0.885,0.384,1.913-0.021,2.295-0.909c0.385-0.882-0.021-1.913-0.907-2.294
			c-1.154-0.501-4.66-2.023-6.893-0.013c-3.04,2.737-0.87,9.667,1.644,17.688C165.797,70.75,168.384,79.012,167.047,80.218z"/>
		<path fill="#959B64" d="M164.107,83.377c0.235,0.078,0.485,0.15,0.746,0.212c0.517-0.906,0.729-2.065,0.708-3.431
			c-0.291-0.074-0.646-0.195-1.036-0.346C164.614,81.202,164.495,82.407,164.107,83.377z"/>
		<g>
			<path fill="#959B64" d="M169.656,48.635c-0.546-0.237-1.634-0.706-2.859-0.915c-0.479,0.92-0.669,2.081-0.636,3.437
				c0.501,0.084,1.184,0.278,2.107,0.681c0.466,0.202,0.966,0.173,1.396-0.016c-0.146-1.287-0.09-2.255,0.31-2.616
				c0.048-0.044,0.147-0.086,0.299-0.103C170.106,48.911,169.906,48.742,169.656,48.635z"/>
		</g>
		<path fill="#E3E993" d="M173.33,78.147c-0.134,0.119-0.848,0.244-2.521-0.4c0.09,1.389-0.028,2.59-0.418,3.562
			c1.537,0.493,3.717,0.835,5.273-0.567c3.006-2.705,0.851-9.584-1.645-17.546c-1.399-4.479-4.011-12.814-2.637-14.051
			c0.195-0.174,1.108-0.271,3.171,0.622c0.886,0.383,1.911-0.021,2.294-0.906c0.386-0.883-0.02-1.915-0.905-2.296
			c-1.155-0.501-4.663-2.024-6.893-0.014c-3.042,2.737-0.871,9.667,1.641,17.689C172.082,68.678,174.667,76.938,173.33,78.147z"/>
		<path fill="#959B64" d="M170.392,81.306c0.235,0.077,0.484,0.149,0.746,0.212c0.519-0.908,0.731-2.067,0.71-3.432
			c-0.291-0.075-0.647-0.196-1.036-0.346C170.898,79.13,170.781,80.334,170.392,81.306z"/>
		<g>
			<path fill="#959B64" d="M175.943,46.562c-0.55-0.238-1.635-0.707-2.86-0.915c-0.48,0.92-0.669,2.081-0.638,3.436
				c0.501,0.086,1.187,0.279,2.109,0.682c0.466,0.202,0.964,0.173,1.396-0.016c-0.146-1.288-0.092-2.256,0.308-2.616
				c0.051-0.043,0.148-0.083,0.301-0.102C176.391,46.837,176.192,46.669,175.943,46.562z"/>
		</g>
		<path fill="#E3E993" d="M179.616,76.075c-0.136,0.119-0.848,0.244-2.52-0.4c0.087,1.387-0.031,2.59-0.419,3.562
			c1.537,0.493,3.715,0.833,5.271-0.569c3.007-2.703,0.854-9.582-1.641-17.545c-1.403-4.479-4.013-12.812-2.639-14.051
			c0.196-0.174,1.108-0.27,3.17,0.621c0.885,0.384,1.913-0.021,2.294-0.907c0.385-0.882-0.021-1.913-0.906-2.296
			c-1.154-0.501-4.661-2.021-6.893-0.014c-3.04,2.737-0.871,9.667,1.643,17.69C178.368,66.605,180.954,74.866,179.616,76.075z"/>
		<path fill="#959B64" d="M176.678,79.233c0.235,0.077,0.485,0.15,0.746,0.213c0.516-0.908,0.729-2.068,0.709-3.432
			c-0.293-0.076-0.646-0.196-1.037-0.345C177.182,77.057,177.066,78.261,176.678,79.233z"/>
		<g>
			<path fill="#959B64" d="M182.228,44.489c-0.548-0.238-1.634-0.707-2.86-0.913c-0.479,0.919-0.667,2.079-0.635,3.435
				c0.5,0.086,1.184,0.278,2.107,0.681c0.465,0.202,0.965,0.174,1.395-0.014c-0.146-1.29-0.09-2.258,0.311-2.618
				c0.048-0.044,0.146-0.083,0.298-0.103C182.677,44.765,182.477,44.598,182.228,44.489z"/>
		</g>
		<path fill="#E3E993" d="M185.9,74c-0.134,0.121-0.848,0.245-2.52-0.399c0.087,1.388-0.029,2.59-0.42,3.562
			c1.539,0.492,3.719,0.834,5.275-0.568c3.006-2.704,0.851-9.583-1.645-17.546c-1.4-4.479-4.012-12.812-2.639-14.051
			c0.196-0.171,1.11-0.27,3.171,0.622c0.885,0.385,1.912-0.021,2.296-0.906c0.383-0.883-0.023-1.913-0.906-2.296
			c-1.154-0.501-4.664-2.022-6.893-0.012c-3.043,2.734-0.872,9.665,1.641,17.688C184.652,64.532,187.24,72.793,185.9,74z"/>
		<path fill="#959B64" d="M182.962,77.161c0.235,0.076,0.484,0.149,0.746,0.212c0.518-0.905,0.731-2.067,0.711-3.433
			c-0.292-0.072-0.648-0.195-1.04-0.344C183.469,74.984,183.353,76.189,182.962,77.161z"/>
		<g>
			<path fill="#959B64" d="M188.514,42.417c-0.55-0.238-1.637-0.705-2.86-0.913c-0.48,0.918-0.669,2.079-0.637,3.434
				c0.501,0.086,1.184,0.278,2.107,0.682c0.467,0.203,0.966,0.173,1.394-0.015c-0.144-1.289-0.089-2.258,0.312-2.618
				c0.05-0.043,0.148-0.083,0.298-0.103C188.962,42.691,188.763,42.526,188.514,42.417z"/>
		</g>
		<path fill="#E3E993" d="M192.185,71.928c-0.133,0.119-0.846,0.245-2.52-0.4c0.09,1.388-0.028,2.59-0.42,3.561
			c1.541,0.494,3.718,0.837,5.277-0.566c3.004-2.705,0.851-9.583-1.645-17.544c-1.402-4.479-4.014-12.815-2.638-14.053
			c0.196-0.172,1.109-0.27,3.17,0.621c0.885,0.386,1.91-0.021,2.294-0.906c0.386-0.883-0.021-1.913-0.906-2.295
			c-1.154-0.503-4.661-2.023-6.893-0.013c-3.04,2.735-0.87,9.664,1.641,17.687C190.936,62.459,193.524,70.72,192.185,71.928z"/>
		<path fill="#959B64" d="M189.246,75.086c0.238,0.078,0.487,0.15,0.748,0.213c0.517-0.906,0.729-2.068,0.709-3.43
			c-0.293-0.076-0.646-0.197-1.037-0.346C189.753,72.911,189.637,74.116,189.246,75.086z"/>
		<g>
			<path fill="#959B64" d="M194.798,40.345c-0.549-0.24-1.635-0.707-2.86-0.915c-0.478,0.919-0.669,2.081-0.637,3.437
				c0.503,0.084,1.186,0.279,2.109,0.679c0.466,0.202,0.966,0.174,1.395-0.014c-0.147-1.29-0.089-2.258,0.309-2.619
				c0.052-0.043,0.147-0.081,0.301-0.103C195.248,40.619,195.048,40.453,194.798,40.345z"/>
		</g>
		<path fill="#E3E993" d="M198.471,69.856c-0.133,0.121-0.848,0.244-2.52-0.4c0.087,1.386-0.028,2.589-0.419,3.56
			c1.538,0.493,3.716,0.836,5.274-0.568c3.006-2.703,0.85-9.583-1.645-17.543c-1.402-4.478-4.011-12.813-2.639-14.051
			c0.197-0.174,1.112-0.272,3.171,0.62c0.885,0.385,1.913-0.021,2.296-0.906c0.383-0.881-0.022-1.913-0.908-2.294
			c-1.152-0.5-4.662-2.023-6.891-0.014c-3.042,2.735-0.872,9.665,1.641,17.688C197.223,60.386,199.811,68.648,198.471,69.856z"/>
		<path fill="#959B64" d="M195.532,73.014c0.235,0.076,0.485,0.15,0.747,0.213c0.518-0.906,0.728-2.066,0.71-3.433
			c-0.293-0.073-0.647-0.196-1.04-0.344C196.039,70.838,195.923,72.045,195.532,73.014z"/>
		<g>
			<path fill="#959B64" d="M201.082,38.272c-0.548-0.237-1.635-0.707-2.86-0.916c-0.479,0.919-0.667,2.082-0.635,3.437
				c0.501,0.086,1.184,0.278,2.107,0.679c0.465,0.202,0.966,0.175,1.397-0.014c-0.146-1.29-0.093-2.256,0.308-2.618
				c0.05-0.043,0.147-0.081,0.299-0.103C201.532,38.546,201.334,38.38,201.082,38.272z"/>
		</g>
		<path fill="#E3E993" d="M204.755,67.785c-0.133,0.12-0.847,0.242-2.52-0.403c0.089,1.388-0.028,2.589-0.42,3.563
			c1.541,0.493,3.719,0.834,5.277-0.57c3.004-2.702,0.851-9.583-1.646-17.544c-1.4-4.478-4.011-12.814-2.638-14.051
			c0.196-0.174,1.111-0.272,3.173,0.619c0.884,0.386,1.91-0.021,2.294-0.906c0.385-0.881-0.021-1.911-0.907-2.294
			c-1.154-0.501-4.662-2.021-6.894-0.014c-3.039,2.735-0.869,9.665,1.642,17.687C203.507,58.313,206.095,66.577,204.755,67.785z"/>
		<path fill="#959B64" d="M201.816,70.942c0.238,0.076,0.487,0.152,0.749,0.213c0.516-0.907,0.728-2.066,0.708-3.43
			c-0.292-0.076-0.646-0.198-1.037-0.347C202.323,68.766,202.207,69.971,201.816,70.942z"/>
		<g>
			<path fill="#959B64" d="M207.368,36.2c-0.549-0.238-1.635-0.707-2.86-0.915c-0.48,0.918-0.668,2.081-0.638,3.436
				c0.502,0.086,1.187,0.279,2.111,0.679c0.465,0.205,0.965,0.176,1.394-0.014c-0.146-1.29-0.089-2.255,0.31-2.618
				c0.049-0.044,0.146-0.082,0.3-0.103C207.815,36.472,207.617,36.309,207.368,36.2z"/>
		</g>
		<path fill="#E3E993" d="M211.042,65.712c-0.134,0.12-0.848,0.243-2.521-0.4c0.089,1.385-0.027,2.588-0.418,3.562
			c1.538,0.493,3.716,0.833,5.275-0.57c3.005-2.702,0.849-9.582-1.646-17.544c-1.401-4.479-4.011-12.814-2.638-14.051
			c0.196-0.174,1.11-0.272,3.17,0.619c0.886,0.386,1.913-0.021,2.295-0.907c0.385-0.88-0.021-1.91-0.906-2.294
			c-1.153-0.5-4.662-2.021-6.894-0.014c-3.04,2.737-0.87,9.665,1.643,17.688C209.793,56.24,212.381,64.504,211.042,65.712z"/>
		<path fill="#959B64" d="M208.104,68.869c0.237,0.078,0.484,0.152,0.748,0.212c0.516-0.906,0.727-2.066,0.705-3.43
			c-0.291-0.075-0.646-0.198-1.037-0.344C208.61,66.693,208.493,67.9,208.104,68.869z"/>
		<g>
			<path fill="#959B64" d="M213.653,34.126c-0.548-0.237-1.636-0.705-2.861-0.915c-0.479,0.918-0.666,2.081-0.635,3.439
				c0.501,0.084,1.184,0.278,2.107,0.677c0.465,0.204,0.966,0.176,1.396-0.014c-0.146-1.288-0.091-2.256,0.31-2.618
				c0.049-0.043,0.145-0.082,0.298-0.103C214.104,34.4,213.903,34.236,213.653,34.126z"/>
		</g>
		<path fill="#E3E993" d="M217.326,63.639c-0.134,0.12-0.848,0.242-2.521-0.4c0.09,1.386-0.028,2.59-0.419,3.562
			c1.538,0.493,3.718,0.834,5.274-0.568c3.007-2.704,0.853-9.583-1.642-17.546c-1.402-4.479-4.014-12.814-2.639-14.051
			c0.195-0.175,1.11-0.272,3.171,0.62c0.885,0.385,1.91-0.022,2.294-0.907c0.385-0.88-0.021-1.911-0.906-2.294
			c-1.154-0.502-4.664-2.022-6.894-0.014c-3.042,2.737-0.869,9.665,1.642,17.687C216.077,54.167,218.666,62.431,217.326,63.639z"/>
		<path fill="#959B64" d="M214.387,66.798c0.238,0.075,0.485,0.15,0.749,0.211c0.517-0.907,0.729-2.066,0.708-3.431
			c-0.292-0.073-0.648-0.196-1.037-0.344C214.895,64.62,214.778,65.827,214.387,66.798z"/>
		<g>
			<path fill="#959B64" d="M219.939,32.054c-0.55-0.239-1.636-0.705-2.86-0.916c-0.48,0.918-0.669,2.083-0.639,3.438
				c0.502,0.084,1.187,0.279,2.111,0.678c0.464,0.204,0.965,0.178,1.394-0.015c-0.146-1.288-0.089-2.255,0.31-2.616
				c0.049-0.045,0.147-0.083,0.301-0.104C220.387,32.326,220.188,32.163,219.939,32.054z"/>
		</g>
		<path fill="#E3E993" d="M223.612,61.566c-0.136,0.12-0.847,0.243-2.521-0.4c0.088,1.385-0.028,2.59-0.419,3.561
			c1.539,0.494,3.717,0.834,5.275-0.567c3.006-2.705,0.85-9.584-1.645-17.547c-1.4-4.478-4.011-12.814-2.639-14.051
			c0.197-0.174,1.11-0.272,3.171,0.619c0.884,0.386,1.913-0.021,2.294-0.907c0.385-0.88-0.021-1.91-0.904-2.293
			c-1.154-0.501-4.664-2.022-6.896-0.014c-3.04,2.737-0.87,9.667,1.644,17.688C222.364,52.094,224.95,60.357,223.612,61.566z"/>
		<path fill="#959B64" d="M220.674,64.725c0.235,0.075,0.484,0.15,0.746,0.21c0.519-0.906,0.729-2.066,0.708-3.43
			c-0.292-0.073-0.646-0.196-1.037-0.344C221.179,62.546,221.064,63.754,220.674,64.725z"/>
		<g>
			<path fill="#959B64" d="M226.226,29.981c-0.55-0.236-1.637-0.705-2.862-0.916c-0.479,0.919-0.667,2.083-0.637,3.439
				c0.502,0.084,1.185,0.278,2.109,0.677c0.464,0.205,0.964,0.178,1.395-0.014c-0.147-1.288-0.091-2.256,0.311-2.615
				c0.05-0.046,0.146-0.084,0.299-0.105C226.673,30.254,226.473,30.09,226.226,29.981z"/>
		</g>
		<path fill="#E3E993" d="M229.896,59.493c-0.133,0.12-0.844,0.244-2.52-0.4c0.088,1.385-0.028,2.59-0.419,3.562
			c1.539,0.493,3.719,0.834,5.274-0.568c3.006-2.704,0.853-9.581-1.642-17.546c-1.402-4.479-4.013-12.814-2.638-14.051
			c0.194-0.174,1.109-0.272,3.17,0.619c0.882,0.385,1.911-0.021,2.294-0.907c0.383-0.88-0.021-1.911-0.906-2.292
			c-1.154-0.501-4.664-2.024-6.894-0.016c-3.042,2.739-0.872,9.667,1.642,17.688C228.647,50.024,231.236,58.285,229.896,59.493z"/>
		<path fill="#959B64" d="M226.958,62.652c0.237,0.077,0.485,0.15,0.749,0.211c0.516-0.906,0.728-2.066,0.707-3.429
			c-0.292-0.075-0.648-0.198-1.037-0.346C227.465,60.474,227.348,61.681,226.958,62.652z"/>
	</g>
	
		<ellipse transform="matrix(0.3131 0.9497 -0.9497 0.3131 130.6408 31.6535)" fill="#B7C2CB" cx="43.438" cy="106.142" rx="5.899" ry="2.662"/>
	
		<rect x="91.873" y="77.459" transform="matrix(0.3132 0.9497 -0.9497 0.3132 155.4725 -46.5264)" fill="#919EAA" width="36.059" height="13.529"/>
	<g>
		<path opacity="0.3" fill="#FFFFFF" d="M45.471,104.051l50.818-16.758l-1.427-4.321L41.59,100.54
			C42.787,100.145,44.393,101.665,45.471,104.051z"/>
		<path fill="#B7C2CB" d="M41.59,100.54c-1.196,0.395-1.586,2.571-1.031,5.133l4.912-1.621
			C44.393,101.665,42.787,100.145,41.59,100.54z"/>
		<path opacity="0.3" fill="#FFFFFF" d="M41.59,100.54c-1.196,0.395-1.586,2.571-1.031,5.133l4.912-1.621
			C44.393,101.665,42.787,100.145,41.59,100.54z"/>
	</g>
	
		<rect x="223.143" y="34.17" transform="matrix(0.3132 0.9497 -0.9497 0.3132 204.5183 -200.9256)" fill="#919EAA" width="36.06" height="13.529"/>
	
		<rect x="73.164" y="79.089" transform="matrix(0.3132 0.9497 -0.9497 0.3132 149.3199 -27.1771)" fill="#919EAA" width="40.572" height="21.116"/>
	
		<ellipse transform="matrix(0.3131 0.9497 -0.9497 0.3131 214.167 -231.2571)" fill="#B7C2CB" cx="266.958" cy="32.431" rx="5.899" ry="2.662"/>
	<path opacity="0.6" fill="#798188" d="M271.489,30.936c-1.018-3.093-2.978-5.23-4.375-4.768l-2.004,0.66
		c1.396-0.461,3.354,1.677,4.376,4.768c1.02,3.092,0.716,5.976-0.682,6.437l2.004-0.66C272.205,36.91,272.51,34.028,271.489,30.936z
		"/>
	<path opacity="0.6" fill="#798188" d="M38.906,107.636c-1.02-3.092-0.716-5.976,0.679-6.435l2.006-0.662
		c-1.395,0.461-1.699,3.343-0.679,6.437c1.018,3.091,2.979,5.228,4.373,4.769l-2.004,0.662
		C41.886,112.866,39.926,110.727,38.906,107.636z"/>
	
		<rect x="243.429" y="36.423" transform="matrix(0.313 0.9497 -0.9497 0.313 207.5989 -210.524)" opacity="0.6" fill="#798188" width="11.798" height="3.644"/>
	
		<rect x="75.794" y="91.703" transform="matrix(0.3131 0.9497 -0.9497 0.3131 144.9359 -13.3442)" opacity="0.6" fill="#798188" width="11.798" height="3.645"/>
	
		<rect x="87.208" y="83.909" transform="matrix(0.3132 0.9497 -0.9497 0.3132 153.7295 -41.0396)" opacity="0.6" fill="#798188" width="36.059" height="3.706"/>
	<g opacity="0.4">
		<path fill="#FFFFFF" d="M205.419,52.74c-0.495-1.584-1.132-3.625-1.693-5.669l-3.329,1.098c0.501,1.791,1.091,3.691,1.708,5.665
			L205.419,52.74z"/>
		<path fill="#FFFFFF" d="M195.82,55.908l3.314-1.095c-0.495-1.584-1.134-3.625-1.693-5.668l-3.331,1.098
			C194.611,52.032,195.201,53.933,195.82,55.908z"/>
		<path fill="#FFFFFF" d="M212.967,44.026c0.498,1.789,1.092,3.689,1.709,5.663l3.315-1.094c-0.498-1.585-1.134-3.625-1.693-5.669
			L212.967,44.026z"/>
		<path fill="#FFFFFF" d="M189.534,57.979l3.313-1.092c-0.493-1.584-1.132-3.626-1.693-5.669l-3.328,1.096
			C188.327,54.105,188.917,56.006,189.534,57.979z"/>
		<path fill="#FFFFFF" d="M183.25,60.051l3.313-1.092c-0.495-1.584-1.132-3.627-1.693-5.668l-3.33,1.096
			C182.041,56.178,182.633,58.08,183.25,60.051z"/>
		<path fill="#FFFFFF" d="M145.536,72.489l3.318-1.094c-0.496-1.584-1.133-3.628-1.696-5.669l-3.331,1.098
			C144.328,68.616,144.921,70.514,145.536,72.489z"/>
		<path fill="#FFFFFF" d="M206.681,46.096c0.501,1.792,1.092,3.691,1.71,5.666l3.314-1.095c-0.495-1.584-1.132-3.625-1.693-5.668
			L206.681,46.096z"/>
		<path fill="#FFFFFF" d="M123.713,79.684c-0.495-1.584-1.131-3.625-1.693-5.668l-3.335,1.099c0.503,1.792,1.094,3.696,1.713,5.663
			L123.713,79.684z"/>
		<path fill="#FFFFFF" d="M142.57,73.465c-0.499-1.582-1.134-3.625-1.697-5.666l-3.33,1.098c0.5,1.791,1.093,3.691,1.708,5.664
			L142.57,73.465z"/>
		<path fill="#FFFFFF" d="M150.114,64.751c0.501,1.794,1.092,3.691,1.709,5.665l3.318-1.092c-0.498-1.585-1.133-3.628-1.697-5.67
			L150.114,64.751z"/>
		<path fill="#FFFFFF" d="M130,77.612c-0.498-1.585-1.134-3.626-1.696-5.67l-3.331,1.1c0.501,1.791,1.093,3.691,1.708,5.664
			L130,77.612z"/>
		<path fill="#FFFFFF" d="M219.251,41.953c0.501,1.79,1.092,3.689,1.711,5.664l3.314-1.094c-0.496-1.584-1.134-3.626-1.695-5.669
			L219.251,41.953z"/>
		<path fill="#FFFFFF" d="M225.535,39.88c0.501,1.79,1.094,3.691,1.711,5.663l3.313-1.095c-0.495-1.584-1.131-3.625-1.693-5.669
			L225.535,39.88z"/>
		<path fill="#FFFFFF" d="M176.964,62.124l3.315-1.091c-0.495-1.584-1.134-3.628-1.695-5.669l-3.328,1.096
			C175.756,58.251,176.346,60.152,176.964,62.124z"/>
		<path fill="#FFFFFF" d="M136.284,75.539c-0.495-1.584-1.134-3.626-1.696-5.669l-3.331,1.1c0.501,1.79,1.093,3.691,1.711,5.663
			L136.284,75.539z"/>
		<path fill="#FFFFFF" d="M170.679,64.197l3.314-1.092c-0.495-1.584-1.132-3.627-1.693-5.668l-3.33,1.096
			C169.47,60.324,170.062,62.226,170.679,64.197z"/>
		<path fill="#FFFFFF" d="M158.106,68.343l3.316-1.094c-0.496-1.583-1.131-3.627-1.694-5.668l-3.329,1.097
			C156.901,64.473,157.492,66.369,158.106,68.343z"/>
		<path fill="#FFFFFF" d="M164.396,66.271l3.312-1.092c-0.494-1.586-1.133-3.63-1.692-5.671l-3.33,1.098
			C163.186,62.397,163.775,64.298,164.396,66.271z"/>
	</g>
	
		<rect x="90.04" y="75.65" transform="matrix(-0.3131 -0.9497 0.9497 -0.3131 39.3434 200.8707)" opacity="0.2" fill="#FFFFFF" width="4.551" height="21.115"/>
	
		<rect x="106.491" y="74.017" transform="matrix(-0.3132 -0.9497 0.9497 -0.3132 66.1208 209.3793)" opacity="0.1" fill="#FFFFFF" width="4.553" height="13.529"/>
	
		<rect x="237.762" y="30.727" transform="matrix(-0.3135 -0.9496 0.9496 -0.3135 279.6844 277.1839)" opacity="0.3" fill="#FFFFFF" width="4.551" height="13.531"/>
	<path opacity="0.1" fill="#FFFFFF" d="M268.993,30.341c-1.08-2.389-2.686-3.908-3.883-3.513l-19.318,6.371l1.426,4.322
		L268.993,30.341z"/>
</g>
</svg>
