<?xml version="1.0" encoding="utf-8"?>
<!-- Generator: Adobe Illustrator 16.0.0, SVG Export Plug-In . SVG Version: 6.00 Build 0)  -->
<!DOCTYPE svg PUBLIC "-//W3C//DTD SVG 1.1//EN" "http://www.w3.org/Graphics/SVG/1.1/DTD/svg11.dtd">
<svg version="1.1" id="Layer_1" xmlns="http://www.w3.org/2000/svg" xmlns:xlink="http://www.w3.org/1999/xlink" x="0px" y="0px"
	 width="247.333px" height="157px" viewBox="0 0 247.333 157" enable-background="new 0 0 247.333 157" xml:space="preserve">
<g>
	<g>
		<polygon fill="#2D3239" points="19.297,115.472 15.725,108.785 10.976,106.837 14.952,105.671 11.259,97.322 7.363,96.042 
			11.573,95.48 11.139,93.412 9.737,84.822 9.691,83.443 9.636,73.44 9.739,71.981 11.411,62.186 11.583,61.487 7.69,61.274 
			11.525,59.043 14.984,51.333 11.247,50.53 18.717,42.247 18.187,41.145 16.441,40.471 24.057,31.879 23.145,31.35 31.651,23.76 
			31.194,23.389 40.632,17.096 40.39,16.786 51.783,12.51 70.029,7.057 86.056,6.245 97.438,6.145 80.625,16.036 51.614,29.116 
			41.67,45.553 33.971,63.387 27.623,79.388 31.582,93.773 35.854,108.109 47.149,123.074 70.125,138.687 88.323,143.708 
			87.319,150.855 71.599,150.855 61.423,149.173 60.592,148.537 50.57,145.75 51.083,144.82 40.383,140.671 41.332,139.414 
			31.117,134.062 32.378,132.824 23,126.083 24.824,124.763 16.231,116.935 		"/>
		<path fill="#808C98" d="M164.735,83.562l0.002-0.867c0.002-1.398-0.211-7.12-0.338-8.601l-0.072-0.863l-3.791,1.01
			c-0.045-0.721-0.099-1.441-0.164-2.156l4.264,0.096l-0.135-0.855c-0.212-1.371-1.318-6.986-1.677-8.441l-0.206-0.842l-3.586,1.59
			c-0.157-0.703-0.31-1.41-0.487-2.105l4.213-0.568l-0.266-0.828c-0.425-1.318-2.397-6.693-2.979-8.074l-0.334-0.799l-3.299,2.137
			c-0.268-0.672-0.536-1.344-0.824-2.004l4.092-1.227l-0.392-0.775c-0.628-1.236-3.417-6.234-4.206-7.51l-0.457-0.736l-2.932,2.633
			c-0.369-0.623-0.754-1.236-1.141-1.846l3.872-1.863l-0.509-0.701c-0.818-1.131-4.355-5.635-5.329-6.76l-0.565-0.656l-2.486,3.061
			c-0.461-0.559-0.942-1.098-1.421-1.643l3.54-2.449l-0.611-0.615c-0.98-0.984-5.18-4.879-6.322-5.844l-0.661-0.559l-1.985,3.426
			c-0.541-0.479-1.082-0.959-1.641-1.422l3.104-2.965l-0.702-0.51c-1.13-0.828-5.888-4.016-7.157-4.783l-0.741-0.449l-1.421,3.684
			c-0.609-0.387-1.222-0.771-1.844-1.141l2.6-3.412l-0.773-0.395c-1.25-0.639-6.447-3.045-7.816-3.604L120.347,12l-0.82,3.84
			c-0.661-0.289-1.331-0.559-2.003-0.826l2.031-3.768l-0.826-0.268c-1.341-0.438-6.853-2-8.286-2.336l-0.843-0.197l-0.208,3.898
			c-0.695-0.18-1.401-0.33-2.106-0.488l1.415-4.029l-0.858-0.139c-1.388-0.221-7.076-0.904-8.55-1.012l-0.864-0.062l0.405,3.898
			c-0.716-0.068-1.437-0.119-2.16-0.164l0.765-4.203l-0.865-0.004c-1.466,0-7.159,0.215-8.597,0.338l-0.861,0.076l1.004,3.789
			c-0.723,0.045-1.443,0.098-2.16,0.164l0.096-4.264l-0.854,0.131c-1.451,0.219-7.049,1.336-8.438,1.682l-0.837,0.209l1.583,3.58
			c-0.704,0.158-1.412,0.312-2.108,0.49L74.83,8.124l-0.823,0.262c-1.398,0.445-6.753,2.424-8.07,2.982l-0.796,0.334L67.27,15
			c-0.673,0.268-1.344,0.535-2.005,0.824l-1.229-4.09l-0.772,0.387c-1.312,0.66-6.292,3.453-7.503,4.209l-0.733,0.455l2.626,2.934
			c-0.624,0.369-1.238,0.752-1.849,1.141l-1.864-3.869l-0.703,0.504c-1.178,0.844-5.658,4.381-6.751,5.328l-0.653,0.566l3.055,2.486
			c-0.559,0.463-1.1,0.945-1.645,1.424L44.79,23.76l-0.614,0.609c-1.034,1.021-4.905,5.215-5.836,6.318l-0.557,0.662l3.421,1.982
			c-0.481,0.547-0.962,1.088-1.425,1.645l-2.967-3.098L36.3,32.577c-0.861,1.174-4.03,5.922-4.774,7.154l-0.447,0.74l3.679,1.422
			c-0.389,0.609-0.773,1.225-1.143,1.848l-3.412-2.596l-0.396,0.77c-0.671,1.299-3.058,6.486-3.596,7.812l-0.325,0.803l3.832,0.822
			c-0.288,0.662-0.558,1.332-0.826,2.004l-3.766-2.023l-0.271,0.82c-0.46,1.391-2.006,6.885-2.331,8.279l-0.194,0.842l3.892,0.213
			c-0.18,0.695-0.331,1.404-0.489,2.107l-4.026-1.408l-0.142,0.852c-0.237,1.436-0.905,7.107-1.006,8.545l-0.06,0.861l3.89-0.396
			c-0.068,0.715-0.119,1.436-0.165,2.16l-4.199-0.768l-0.006,0.865c-0.009,1.455,0.217,7.161,0.343,8.597l0.074,0.861l3.786-1.004
			c0.045,0.723,0.098,1.443,0.165,2.16l-4.263-0.098l0.13,0.854c0.217,1.432,1.335,7.029,1.683,8.439l0.208,0.838l3.58-1.584
			c0.158,0.707,0.31,1.414,0.489,2.111l-4.21,0.562l0.261,0.824c0.43,1.357,2.409,6.713,2.982,8.074l0.335,0.797l3.295-2.129
			c0.268,0.674,0.538,1.346,0.825,2.008l-4.086,1.221L26,107.611c0.632,1.264,3.423,6.244,4.206,7.508l0.457,0.734l2.929-2.627
			c0.372,0.625,0.755,1.24,1.144,1.852l-3.866,1.857l0.502,0.701c0.817,1.145,4.354,5.627,5.328,6.756l0.565,0.656l2.485-3.055
			c0.463,0.559,0.945,1.102,1.425,1.645l-3.537,2.445l0.608,0.617c1.006,1.02,5.199,4.895,6.319,5.836l0.661,0.559l1.985-3.418
			c0.543,0.48,1.086,0.963,1.646,1.426l-3.102,2.959l0.697,0.512c1.157,0.854,5.905,4.025,7.154,4.779l0.741,0.445l1.422-3.676
			c0.611,0.391,1.225,0.775,1.849,1.145l-2.597,3.404l0.768,0.396c1.282,0.666,6.468,3.053,7.815,3.6l0.801,0.326l0.822-3.83
			c0.664,0.287,1.333,0.559,2.008,0.826l-2.027,3.76l0.819,0.271c1.37,0.455,6.865,2.004,8.283,2.334l0.842,0.197l0.212-3.893
			c0.697,0.18,1.404,0.332,2.109,0.488l-1.412,4.025l0.854,0.141c1.433,0.234,7.104,0.904,8.545,1.008l0.863,0.062l-0.4-3.893
			c0.717,0.068,1.438,0.121,2.16,0.166l-0.765,4.197l0.864,0.004c0.026,0,0.051,0,0.079,0c1.577,0,7.114-0.219,8.52-0.338
			l0.862-0.074l-1.006-3.787c0.724-0.045,1.445-0.098,2.162-0.164l-0.098,4.258l0.854-0.129c1.44-0.221,7.042-1.334,8.44-1.68
			l0.84-0.205l-1.585-3.584c0.706-0.156,1.412-0.309,2.109-0.488l0.568,4.207l0.824-0.262c1.387-0.441,6.743-2.416,8.072-2.977
			l0.796-0.336l-2.128-3.297c0.672-0.268,1.342-0.537,2.004-0.824l1.225,4.086l0.774-0.389c1.332-0.672,6.313-3.461,7.506-4.205
			l0.734-0.455l-2.627-2.932c0.623-0.369,1.237-0.752,1.848-1.143l1.859,3.869l0.703-0.508c1.207-0.869,5.691-4.402,6.758-5.324
			l0.652-0.566l-3.055-2.484c0.559-0.465,1.1-0.945,1.643-1.426l2.447,3.539l0.615-0.611c1.047-1.039,4.924-5.229,5.843-6.316
			l0.558-0.66l-3.422-1.986c0.479-0.545,0.962-1.086,1.426-1.643l2.959,3.098l0.512-0.699c0.869-1.186,4.043-5.934,4.781-7.152
			l0.449-0.74l-3.684-1.424c0.39-0.609,0.774-1.223,1.144-1.846l3.407,2.598l0.397-0.771c0.677-1.32,3.067-6.506,3.603-7.814
			l0.328-0.801l-3.838-0.824c0.289-0.66,0.561-1.332,0.827-2.004l3.761,2.027l0.271-0.824c0.46-1.396,2.011-6.893,2.336-8.279
			l0.199-0.844l-3.897-0.211c0.179-0.695,0.331-1.404,0.487-2.105l4.029,1.41l0.137-0.855c0.219-1.363,0.902-7.045,1.013-8.547
			l0.063-0.865l-3.898,0.404c0.068-0.717,0.119-1.436,0.164-2.158L164.735,83.562z"/>
		<circle fill="none" stroke="#B0BFCD" stroke-width="1.4783" stroke-miterlimit="10" cx="92.376" cy="78.423" r="60.264"/>
		<path opacity="0.5" fill="#404041" d="M164.735,83.562l0.002-0.867c0.002-1.398-0.211-7.12-0.338-8.601l-0.072-0.863l-3.791,1.01
			c-0.045-0.721-0.099-1.441-0.164-2.156l4.264,0.096l-0.135-0.855c-0.212-1.371-1.318-6.986-1.677-8.441l-0.206-0.842l-3.586,1.59
			c-0.157-0.703-0.31-1.41-0.487-2.105l4.213-0.568l-0.266-0.828c-0.425-1.318-2.397-6.693-2.979-8.074l-0.334-0.799l-3.299,2.137
			c-0.268-0.672-0.536-1.344-0.824-2.004l4.092-1.227l-0.392-0.775c-0.628-1.236-3.417-6.234-4.206-7.51l-0.457-0.736l-2.932,2.633
			c-0.369-0.623-0.754-1.236-1.141-1.846l3.872-1.863l-0.509-0.701c-0.818-1.131-4.355-5.635-5.329-6.76l-0.565-0.656l-2.486,3.061
			c-0.461-0.559-0.942-1.098-1.421-1.643l3.54-2.449l-0.611-0.615c-0.98-0.984-5.18-4.879-6.322-5.844l-0.661-0.559l-1.985,3.426
			c-0.541-0.479-1.082-0.959-1.641-1.422l3.104-2.965l-0.702-0.51c-1.13-0.828-5.888-4.016-7.157-4.783l-0.741-0.449l-1.421,3.684
			c-0.609-0.387-1.222-0.771-1.844-1.141l2.6-3.412l-0.773-0.395c-1.25-0.639-6.447-3.045-7.816-3.604L120.347,12l-0.82,3.84
			c-0.661-0.289-1.331-0.559-2.003-0.826l2.031-3.768l-0.826-0.268c-1.341-0.438-6.853-2-8.286-2.336l-0.843-0.197l-0.208,3.898
			c-0.695-0.18-1.401-0.33-2.106-0.488l1.415-4.029l-0.858-0.139c-1.388-0.221-7.076-0.904-8.55-1.012l-0.864-0.062l0.405,3.898
			c-0.716-0.068-1.437-0.119-2.16-0.164l0.765-4.203l-0.865-0.004c-0.295,0-0.768,0.008-1.337,0.023l-9.18,0.08h-0.697h-12.81
			h-1.131l-9.413,1.879h-1.813l-9.778,3.611l3.995-0.01l-0.028,0.01h-3.967h-1.017l-9.008,5.051l0.16,0.205h-1.248l-8.108,6.398
			l0.457,0.371h-1.5l-7.006,7.59l0.912,0.529h-1.884l-5.732,8.592l1.746,0.674h-2.622l-4.317,9.385l3.737,0.803h-4.497L7.69,61.274
			l3.892,0.213l-0.172,0.699H7.067L5.859,72.444h3.847l-0.07,0.996h-4.25l0.41,10.323h3.906l0.036,1.059H5.483l2.021,10.131h3.958
			l0.111,0.527l-4.21,0.562l3.578,9.695h3.788l-3.753,1.1l5.049,9.016h2.473l-2.267,1.082l6.396,8.113h1.803L23,126.083l7.587,7.012
			h1.515l-0.985,0.967l8.592,5.736h1.332l-0.658,0.873l9.384,4.322h1.22l-0.417,0.756l9.944,2.803h0.101l0.809,0.621l10.034,1.686
			l0.152-0.004h2.433c0.012,0.002,0.023,0.002,0.034,0.004c1.959,0,8.097-0.002,11.283-0.004h1.959l0.592-4.211
			c0.058,0.004,0.115,0.01,0.173,0.014l-0.765,4.197l0.864,0.004c0.026,0,0.051,0,0.079,0c1.577,0,7.114-0.219,8.52-0.338
			l0.862-0.074l-1.006-3.787c0.724-0.045,1.445-0.098,2.162-0.164l-0.098,4.258l0.854-0.129c1.44-0.221,7.042-1.334,8.44-1.68
			l0.84-0.205l-1.585-3.584c0.706-0.156,1.412-0.309,2.109-0.488l0.568,4.207l0.824-0.262c1.387-0.441,6.743-2.416,8.072-2.977
			l0.796-0.336l-2.128-3.297c0.672-0.268,1.342-0.537,2.004-0.824l1.225,4.086l0.774-0.389c1.332-0.672,6.313-3.461,7.506-4.205
			l0.734-0.455l-2.627-2.932c0.623-0.369,1.237-0.752,1.848-1.143l1.859,3.869l0.703-0.508c1.207-0.869,5.691-4.402,6.758-5.324
			l0.652-0.566l-3.055-2.484c0.559-0.465,1.1-0.945,1.643-1.426l2.447,3.539l0.615-0.611c1.047-1.039,4.924-5.229,5.843-6.316
			l0.558-0.66l-3.422-1.986c0.479-0.545,0.962-1.086,1.426-1.643l2.959,3.098l0.512-0.699c0.869-1.186,4.043-5.934,4.781-7.152
			l0.449-0.74l-3.684-1.424c0.39-0.609,0.774-1.223,1.144-1.846l3.407,2.598l0.397-0.771c0.677-1.32,3.067-6.506,3.603-7.814
			l0.328-0.801l-3.838-0.824c0.289-0.66,0.561-1.332,0.827-2.004l3.761,2.027l0.271-0.824c0.46-1.396,2.011-6.893,2.336-8.279
			l0.199-0.844l-3.897-0.211c0.179-0.695,0.331-1.404,0.487-2.105l4.029,1.41l0.137-0.855c0.219-1.363,0.902-7.045,1.013-8.547
			l0.063-0.865l-3.898,0.404c0.068-0.717,0.119-1.436,0.164-2.158L164.735,83.562z"/>
		<polygon fill="#414950" points="7.067,62.186 21.706,62.186 20.498,72.444 5.859,72.444 		"/>
		<polygon fill="#414950" points="5.386,73.44 20.024,73.44 20.434,83.763 5.796,83.763 		"/>
		<polygon fill="#414950" points="5.483,84.822 20.122,84.822 22.143,94.953 7.505,94.953 		"/>
		<polygon fill="#414950" points="7.363,96.042 22.001,96.042 25.58,105.738 10.941,105.738 		"/>
		<polygon fill="#414950" points="25.614,106.837 10.976,106.837 16.025,115.853 30.663,115.853 		"/>
		<polygon fill="#414950" points="30.87,116.935 16.231,116.935 22.627,125.048 37.265,125.048 		"/>
		<polygon fill="#414950" points="37.638,126.083 23,126.083 30.587,133.095 45.226,133.095 		"/>
		<polygon fill="#414950" points="31.117,134.062 45.755,134.062 54.347,139.798 39.709,139.798 		"/>
		<polygon fill="#414950" points="40.383,140.671 55.021,140.671 64.406,144.994 49.768,144.994 		"/>
		<polygon fill="#414950" points="65.208,145.75 50.57,145.75 60.514,148.552 75.152,148.552 		"/>
		<polygon fill="#414950" points="61.423,149.173 76.062,149.173 86.323,150.384 71.458,150.859 		"/>
		<polygon fill="#414950" points="7.69,61.274 22.329,61.274 25.125,51.333 10.487,51.333 		"/>
		<polygon fill="#414950" points="11.247,50.53 25.885,50.53 30.203,41.145 15.564,41.145 		"/>
		<polygon fill="#414950" points="16.441,40.471 31.079,40.471 36.812,31.879 22.173,31.879 		"/>
		<polygon fill="#414950" points="23.145,31.35 37.783,31.35 44.79,23.76 30.151,23.76 		"/>
		<polygon fill="#414950" points="45.832,23.389 31.194,23.389 39.302,16.991 53.94,16.991 		"/>
		<polygon fill="#414950" points="40.39,16.786 55.027,16.786 64.036,11.735 49.398,11.735 		"/>
		<polygon fill="#414950" points="65.14,11.702 50.415,11.735 60.192,8.124 74.83,8.124 		"/>
		<polygon fill="#414950" points="75.927,8.266 61.289,8.266 71.418,6.245 86.056,6.245 		"/>
		<path opacity="0.6" fill="#2D3239" d="M70.357,8.266c4.223-0.902,8.576-1.447,13.035-1.568c0.783-0.148,1.436-0.266,1.81-0.322
			l0.157-0.025V6.245h-12.81c-2.889,0.514-5.723,1.182-8.485,2.021c-30.077,9.146-52.028,37.133-52.028,70.157
			c0,30.145,18.298,56.074,44.362,67.326c3.142,1.355,6.39,2.512,9.74,3.424c1.698,0.461,3.427,0.844,5.171,1.184
			c0.178,0.035,0.354,0.068,0.533,0.102c0.585,0.109,1.166,0.238,1.757,0.334c0.158,0.025,0.318,0.043,0.477,0.066
			c1.959,0,8.097-0.002,11.283-0.004v-0.441v-0.098c-0.364-0.029-0.928-0.086-1.609-0.158c-3.543-0.082-7.025-0.406-10.425-0.984
			c-4.411-0.748-8.683-1.908-12.783-3.424c-27.381-10.123-46.961-36.471-46.961-67.326C13.581,43.995,37.96,15.184,70.357,8.266z"/>
	</g>
	<g>
		<polygon fill="#2D3239" points="57.902,115.472 54.33,108.785 49.581,106.837 53.557,105.671 49.864,97.322 45.968,96.042 
			50.178,95.48 49.744,93.412 48.342,84.822 48.296,83.443 48.241,73.44 48.344,71.981 50.016,62.186 50.188,61.487 46.295,61.274 
			50.13,59.043 53.589,51.333 49.853,50.53 57.322,42.247 56.792,41.145 55.046,40.471 62.662,31.879 61.75,31.35 70.256,23.76 
			69.799,23.389 79.237,17.096 78.995,16.786 90.388,12.51 108.634,7.057 124.661,6.245 136.042,6.145 119.229,16.036 
			90.219,29.116 80.275,45.553 72.576,63.387 66.228,79.388 70.187,93.773 74.458,108.109 85.754,123.074 108.73,138.687 
			126.928,143.708 125.923,150.855 110.204,150.855 100.028,149.173 99.197,148.537 89.175,145.75 89.688,144.82 78.988,140.671 
			79.937,139.414 69.722,134.062 70.983,132.824 61.605,126.083 63.429,124.763 54.836,116.935 		"/>
		<path fill="#808C98" d="M203.342,83.562v-0.867c0.004-1.398-0.211-7.12-0.336-8.601l-0.074-0.863l-3.791,1.01
			c-0.045-0.721-0.098-1.441-0.164-2.156l4.266,0.096l-0.135-0.855c-0.213-1.371-1.318-6.986-1.678-8.441l-0.207-0.842l-3.586,1.59
			c-0.156-0.703-0.309-1.41-0.486-2.105l4.213-0.568l-0.266-0.828c-0.424-1.318-2.396-6.693-2.979-8.074l-0.336-0.799l-3.299,2.137
			c-0.266-0.672-0.535-1.344-0.822-2.004l4.092-1.227l-0.393-0.775c-0.627-1.236-3.416-6.234-4.205-7.51l-0.457-0.736l-2.932,2.633
			c-0.371-0.623-0.754-1.236-1.141-1.846l3.871-1.863l-0.508-0.701c-0.82-1.131-4.357-5.635-5.33-6.76l-0.564-0.656l-2.486,3.061
			c-0.463-0.559-0.943-1.098-1.422-1.643l3.541-2.449l-0.613-0.615c-0.98-0.984-5.178-4.879-6.32-5.844l-0.662-0.559l-1.985,3.426
			c-0.541-0.479-1.083-0.959-1.641-1.422l3.103-2.965l-0.702-0.51c-1.129-0.828-5.887-4.016-7.157-4.783l-0.741-0.449l-1.42,3.684
			c-0.609-0.387-1.223-0.771-1.844-1.141l2.6-3.412l-0.773-0.395c-1.25-0.639-6.448-3.045-7.817-3.604L158.951,12l-0.82,3.84
			c-0.661-0.289-1.331-0.559-2.003-0.826l2.031-3.768l-0.826-0.268c-1.342-0.438-6.854-2-8.287-2.336l-0.842-0.197l-0.209,3.898
			c-0.695-0.18-1.401-0.33-2.105-0.488l1.414-4.029l-0.857-0.139c-1.389-0.221-7.076-0.904-8.551-1.012l-0.863-0.062l0.404,3.898
			c-0.715-0.068-1.437-0.119-2.159-0.164l0.765-4.203l-0.864-0.004c-1.466,0-7.159,0.215-8.597,0.338l-0.861,0.076l1.004,3.789
			c-0.723,0.045-1.443,0.098-2.159,0.164l0.097-4.264l-0.854,0.131c-1.451,0.219-7.049,1.336-8.438,1.682l-0.837,0.209l1.583,3.58
			c-0.704,0.158-1.412,0.312-2.108,0.49l-0.571-4.213l-0.823,0.262c-1.398,0.445-6.753,2.424-8.07,2.982l-0.796,0.334l2.13,3.299
			c-0.673,0.268-1.344,0.535-2.005,0.824l-1.229-4.09l-0.772,0.387c-1.312,0.66-6.292,3.453-7.503,4.209l-0.733,0.455l2.626,2.934
			c-0.624,0.369-1.238,0.752-1.849,1.141l-1.864-3.869l-0.703,0.504c-1.178,0.844-5.658,4.381-6.751,5.328l-0.653,0.566l3.055,2.486
			c-0.559,0.463-1.1,0.945-1.645,1.424l-2.453-3.539l-0.614,0.609c-1.034,1.021-4.905,5.215-5.836,6.318l-0.557,0.662l3.421,1.982
			c-0.481,0.547-0.962,1.088-1.425,1.645l-2.967-3.098l-0.512,0.697c-0.861,1.174-4.03,5.922-4.774,7.154l-0.447,0.74l3.679,1.422
			c-0.389,0.609-0.774,1.225-1.144,1.848l-3.412-2.596l-0.396,0.77c-0.671,1.299-3.058,6.486-3.596,7.812L64.49,50.53l3.832,0.822
			c-0.288,0.662-0.558,1.332-0.826,2.004l-3.766-2.023l-0.271,0.82c-0.46,1.391-2.006,6.885-2.331,8.279l-0.194,0.842l3.892,0.213
			c-0.18,0.695-0.331,1.404-0.489,2.107l-4.026-1.408l-0.142,0.852c-0.237,1.436-0.905,7.107-1.006,8.545l-0.06,0.861l3.89-0.396
			c-0.068,0.715-0.119,1.436-0.165,2.16l-4.199-0.768l-0.006,0.865c-0.009,1.455,0.217,7.161,0.343,8.597l0.074,0.861l3.786-1.004
			c0.045,0.723,0.098,1.443,0.165,2.16l-4.263-0.098l0.13,0.854c0.217,1.432,1.335,7.029,1.684,8.439l0.208,0.838l3.58-1.584
			c0.158,0.707,0.31,1.414,0.489,2.111l-4.21,0.562l0.261,0.824c0.43,1.357,2.409,6.713,2.982,8.074l0.335,0.797l3.295-2.129
			c0.268,0.674,0.538,1.346,0.825,2.008l-4.086,1.221l0.386,0.773c0.632,1.264,3.423,6.244,4.206,7.508l0.457,0.734l2.929-2.627
			c0.371,0.625,0.754,1.24,1.143,1.852l-3.866,1.857l0.502,0.701c0.817,1.145,4.354,5.627,5.328,6.756l0.565,0.656l2.485-3.055
			c0.463,0.559,0.945,1.102,1.425,1.645l-3.537,2.445l0.608,0.617c1.006,1.02,5.199,4.895,6.319,5.836l0.661,0.559l1.985-3.418
			c0.543,0.48,1.086,0.963,1.646,1.426l-3.102,2.959l0.697,0.512c1.157,0.854,5.905,4.025,7.154,4.779l0.741,0.445l1.422-3.676
			c0.611,0.391,1.225,0.775,1.849,1.145l-2.597,3.404l0.768,0.396c1.282,0.666,6.468,3.053,7.815,3.6l0.801,0.326l0.822-3.83
			c0.664,0.287,1.333,0.559,2.008,0.826l-2.027,3.76l0.819,0.271c1.37,0.455,6.865,2.004,8.283,2.334l0.842,0.197l0.212-3.893
			c0.697,0.18,1.404,0.332,2.109,0.488l-1.412,4.025l0.854,0.141c1.433,0.234,7.104,0.904,8.545,1.008l0.862,0.062l-0.399-3.893
			c0.717,0.068,1.438,0.121,2.16,0.166l-0.766,4.197l0.865,0.004c0.025,0,0.051,0,0.078,0c1.576,0,7.113-0.219,8.52-0.338
			l0.861-0.074l-1.006-3.787c0.725-0.045,1.445-0.098,2.162-0.164l-0.099,4.258l0.854-0.129c1.44-0.221,7.042-1.334,8.44-1.68
			l0.84-0.205l-1.586-3.584c0.707-0.156,1.412-0.309,2.109-0.488l0.568,4.207l0.824-0.262c1.387-0.441,6.742-2.416,8.072-2.977
			l0.796-0.336l-2.128-3.297c0.672-0.268,1.342-0.537,2.004-0.824l1.225,4.086l0.774-0.389c1.332-0.672,6.313-3.461,7.506-4.205
			l0.734-0.455l-2.626-2.932c0.623-0.369,1.236-0.752,1.848-1.143l1.858,3.869l0.703-0.508c1.207-0.869,5.691-4.402,6.759-5.324
			l0.652-0.566l-3.055-2.484c0.559-0.465,1.1-0.945,1.643-1.426l2.448,3.539l0.615-0.611c1.047-1.039,4.924-5.229,5.842-6.316
			l0.559-0.66l-3.424-1.986c0.48-0.545,0.963-1.086,1.426-1.643l2.961,3.098l0.51-0.699c0.871-1.186,4.045-5.934,4.783-7.152
			l0.449-0.74l-3.684-1.424c0.389-0.609,0.773-1.223,1.143-1.846l3.408,2.598l0.396-0.771c0.678-1.32,3.068-6.506,3.602-7.814
			l0.33-0.801l-3.838-0.824c0.287-0.66,0.559-1.332,0.826-2.004l3.762,2.027l0.271-0.824c0.459-1.396,2.01-6.893,2.336-8.279
			l0.199-0.844l-3.898-0.211c0.18-0.695,0.33-1.404,0.488-2.105l4.029,1.41l0.137-0.855c0.219-1.363,0.902-7.045,1.012-8.547
			l0.064-0.865l-3.898,0.404c0.068-0.717,0.119-1.436,0.164-2.158L203.342,83.562z"/>
		<circle fill="none" stroke="#B0BFCD" stroke-width="1.4783" stroke-miterlimit="10" cx="130.982" cy="78.423" r="60.264"/>
		<polygon fill="#414950" points="45.672,62.186 60.311,62.186 59.103,72.444 44.464,72.444 		"/>
		<polygon fill="#414950" points="43.991,73.44 58.629,73.44 59.039,83.763 44.401,83.763 		"/>
		<polygon fill="#414950" points="44.088,84.822 58.727,84.822 60.748,94.953 46.11,94.953 		"/>
		<polygon fill="#414950" points="45.968,96.042 60.606,96.042 64.185,105.738 49.546,105.738 		"/>
		<polygon fill="#414950" points="64.219,106.837 49.581,106.837 54.63,115.853 69.268,115.853 		"/>
		<polygon fill="#414950" points="69.475,116.935 54.836,116.935 61.232,125.048 75.87,125.048 		"/>
		<polygon fill="#414950" points="76.243,126.083 61.605,126.083 69.192,133.095 83.831,133.095 		"/>
		<polygon fill="#414950" points="69.722,134.062 84.36,134.062 92.952,139.798 78.314,139.798 		"/>
		<polygon fill="#414950" points="78.988,140.671 93.626,140.671 103.011,144.994 88.373,144.994 		"/>
		<polygon fill="#414950" points="103.813,145.75 89.175,145.75 99.119,148.552 113.757,148.552 		"/>
		<polygon fill="#414950" points="100.028,149.173 114.667,149.173 124.928,150.384 110.062,150.859 		"/>
		<polygon fill="#414950" points="46.295,61.274 60.934,61.274 63.73,51.333 49.092,51.333 		"/>
		<polygon fill="#414950" points="49.853,50.53 64.49,50.53 68.808,41.145 54.169,41.145 		"/>
		<polygon fill="#414950" points="55.046,40.471 69.684,40.471 75.417,31.879 60.778,31.879 		"/>
		<polygon fill="#414950" points="61.75,31.35 76.388,31.35 83.395,23.76 68.756,23.76 		"/>
		<polygon fill="#414950" points="84.437,23.389 69.799,23.389 77.907,16.991 92.545,16.991 		"/>
		<polygon fill="#414950" points="78.995,16.786 93.632,16.786 102.641,11.735 88.003,11.735 		"/>
		<polygon fill="#414950" points="103.745,11.702 89.02,11.735 98.797,8.124 113.435,8.124 		"/>
		<polygon fill="#414950" points="114.532,8.266 99.894,8.266 110.023,6.245 124.661,6.245 		"/>
		<path opacity="0.6" fill="#2D3239" d="M108.962,8.266c4.223-0.902,8.576-1.447,13.035-1.568c0.783-0.148,1.435-0.266,1.81-0.322
			l0.156-0.025V6.245h-12.81c-2.889,0.514-5.723,1.182-8.485,2.021c-30.077,9.146-52.028,37.133-52.028,70.157
			c0,30.145,18.298,56.074,44.363,67.326c3.142,1.355,6.389,2.512,9.74,3.424c1.698,0.461,3.427,0.844,5.171,1.184
			c0.178,0.035,0.354,0.068,0.533,0.102c0.585,0.109,1.166,0.238,1.757,0.334c0.158,0.025,0.318,0.043,0.477,0.066
			c1.959,0,8.097-0.002,11.283-0.004v-0.441v-0.098c-0.363-0.029-0.928-0.086-1.609-0.158c-3.543-0.082-7.024-0.406-10.424-0.984
			c-4.411-0.748-8.683-1.908-12.783-3.424c-27.382-10.123-46.961-36.471-46.961-67.326C52.186,43.995,76.565,15.184,108.962,8.266z"
			/>
		<path opacity="0.3" fill="#404041" d="M203.342,83.562v-0.867c0.004-1.398-0.211-7.12-0.336-8.601l-0.074-0.863l-3.791,1.01
			c-0.045-0.721-0.098-1.441-0.164-2.156l4.266,0.096l-0.135-0.855c-0.213-1.371-1.318-6.986-1.678-8.441l-0.207-0.842l-3.586,1.59
			c-0.156-0.703-0.309-1.41-0.486-2.105l4.213-0.568l-0.266-0.828c-0.424-1.318-2.396-6.693-2.979-8.074l-0.336-0.799l-3.299,2.137
			c-0.266-0.672-0.535-1.344-0.822-2.004l4.092-1.227l-0.393-0.775c-0.627-1.236-3.416-6.234-4.205-7.51l-0.457-0.736l-2.932,2.633
			c-0.371-0.623-0.754-1.236-1.141-1.846l3.871-1.863l-0.508-0.701c-0.82-1.131-4.357-5.635-5.33-6.76l-0.564-0.656l-2.486,3.061
			c-0.463-0.559-0.943-1.098-1.422-1.643l3.541-2.449l-0.613-0.615c-0.98-0.984-5.178-4.879-6.32-5.844l-0.662-0.559l-1.985,3.426
			c-0.541-0.479-1.083-0.959-1.641-1.422l3.103-2.965l-0.702-0.51c-1.129-0.828-5.887-4.016-7.157-4.783l-0.741-0.449l-1.42,3.684
			c-0.609-0.387-1.223-0.771-1.844-1.141l2.6-3.412l-0.773-0.395c-1.25-0.639-6.448-3.045-7.817-3.604L158.951,12l-0.82,3.84
			c-0.661-0.289-1.331-0.559-2.003-0.826l2.031-3.768l-0.826-0.268c-1.342-0.438-6.854-2-8.287-2.336l-0.842-0.197l-0.209,3.898
			c-0.695-0.18-1.401-0.33-2.105-0.488l1.414-4.029l-0.857-0.139c-1.389-0.221-7.076-0.904-8.551-1.012l-0.863-0.062l0.404,3.898
			c-0.715-0.068-1.437-0.119-2.159-0.164l0.765-4.203l-0.864-0.004c-0.296,0-0.768,0.008-1.337,0.023l-9.18,0.08h-0.697h-12.81
			h-1.131l-9.413,1.879h-1.813l-9.778,3.611l3.995-0.01l-0.028,0.01H89.02h-1.017l-9.008,5.051l0.16,0.205h-1.248l-8.108,6.398
			l0.457,0.371h-1.5l-7.006,7.59l0.912,0.529h-1.884l-5.732,8.592l1.746,0.674h-2.622l-4.317,9.385l3.736,0.803h-4.497l-2.797,9.941
			l3.892,0.213l-0.172,0.699h-4.343l-1.208,10.258h3.847l-0.07,0.996h-4.25l0.41,10.323h3.906l0.036,1.059h-4.254l2.021,10.131
			h3.958l0.111,0.527l-4.21,0.562l3.578,9.695h3.788l-3.753,1.1l5.049,9.016h2.473l-2.267,1.082l6.396,8.113h1.803l-1.43,1.035
			l7.587,7.012h1.515l-0.985,0.967l8.592,5.736h1.332l-0.658,0.873l9.384,4.322h1.22l-0.417,0.756l9.944,2.803h0.101l0.809,0.621
			l10.034,1.686l0.152-0.004h2.433c0.012,0.002,0.023,0.002,0.034,0.004c1.959,0,8.097-0.002,11.283-0.004h1.959l0.592-4.211
			c0.059,0.004,0.115,0.01,0.174,0.014l-0.766,4.197l0.865,0.004c0.025,0,0.051,0,0.078,0c1.576,0,7.113-0.219,8.52-0.338
			l0.861-0.074l-1.006-3.787c0.725-0.045,1.445-0.098,2.162-0.164l-0.099,4.258l0.854-0.129c1.44-0.221,7.042-1.334,8.44-1.68
			l0.84-0.205l-1.586-3.584c0.707-0.156,1.412-0.309,2.109-0.488l0.568,4.207l0.824-0.262c1.387-0.441,6.742-2.416,8.072-2.977
			l0.796-0.336l-2.128-3.297c0.672-0.268,1.342-0.537,2.004-0.824l1.225,4.086l0.774-0.389c1.332-0.672,6.313-3.461,7.506-4.205
			l0.734-0.455l-2.626-2.932c0.623-0.369,1.236-0.752,1.848-1.143l1.858,3.869l0.703-0.508c1.207-0.869,5.691-4.402,6.759-5.324
			l0.652-0.566l-3.055-2.484c0.559-0.465,1.1-0.945,1.643-1.426l2.448,3.539l0.615-0.611c1.047-1.039,4.924-5.229,5.842-6.316
			l0.559-0.66l-3.424-1.986c0.48-0.545,0.963-1.086,1.426-1.643l2.961,3.098l0.51-0.699c0.871-1.186,4.045-5.934,4.783-7.152
			l0.449-0.74l-3.684-1.424c0.389-0.609,0.773-1.223,1.143-1.846l3.408,2.598l0.396-0.771c0.678-1.32,3.068-6.506,3.602-7.814
			l0.33-0.801l-3.838-0.824c0.287-0.66,0.559-1.332,0.826-2.004l3.762,2.027l0.271-0.824c0.459-1.396,2.01-6.893,2.336-8.279
			l0.199-0.844l-3.898-0.211c0.18-0.695,0.33-1.404,0.488-2.105l4.029,1.41l0.137-0.855c0.219-1.363,0.902-7.045,1.012-8.547
			l0.064-0.865l-3.898,0.404c0.068-0.717,0.119-1.436,0.164-2.158L203.342,83.562z"/>
	</g>
	<g>
		<polygon fill="#2D3239" points="96.507,115.472 92.935,108.785 88.186,106.837 92.162,105.671 88.47,97.322 84.573,96.042 
			88.783,95.48 88.349,93.412 86.947,84.822 86.901,83.443 86.847,73.44 86.949,71.981 88.621,62.186 88.792,61.487 84.9,61.274 
			88.735,59.043 92.194,51.333 88.458,50.53 95.927,42.247 95.396,41.145 93.651,40.471 101.267,31.879 100.355,31.35 
			108.861,23.76 108.404,23.389 117.842,17.096 117.6,16.786 128.992,12.51 147.238,7.057 163.266,6.245 174.647,6.145 
			157.834,16.036 128.823,29.116 118.88,45.553 111.181,63.387 104.833,79.388 108.792,93.773 113.063,108.109 124.358,123.074 
			147.335,138.687 165.532,143.708 164.528,150.855 148.809,150.855 138.633,149.173 137.802,148.537 127.779,145.75 
			128.292,144.82 117.593,140.671 118.542,139.414 108.327,134.062 109.588,132.824 100.21,126.083 102.034,124.763 93.441,116.935 
					"/>
		<path fill="#808C98" d="M241.945,83.562l0.002-0.867c0.004-1.398-0.211-7.12-0.338-8.601l-0.072-0.863l-3.791,1.01
			c-0.045-0.721-0.098-1.441-0.164-2.156l4.264,0.096l-0.133-0.855c-0.213-1.371-1.318-6.986-1.678-8.441l-0.207-0.842l-3.586,1.59
			c-0.156-0.703-0.309-1.41-0.486-2.105l4.213-0.568l-0.266-0.828c-0.426-1.318-2.396-6.693-2.979-8.074l-0.336-0.799l-3.299,2.137
			c-0.268-0.672-0.535-1.344-0.824-2.004l4.094-1.227l-0.393-0.775c-0.627-1.236-3.416-6.234-4.205-7.51l-0.457-0.736l-2.934,2.633
			c-0.369-0.623-0.752-1.236-1.141-1.846l3.873-1.863l-0.508-0.701c-0.82-1.131-4.357-5.635-5.33-6.76l-0.566-0.656l-2.484,3.061
			c-0.463-0.559-0.943-1.098-1.422-1.643l3.541-2.449l-0.613-0.615c-0.98-0.984-5.178-4.879-6.322-5.844l-0.66-0.559l-1.984,3.426
			c-0.543-0.479-1.084-0.959-1.643-1.422l3.104-2.965l-0.701-0.51c-1.131-0.828-5.889-4.016-7.158-4.783l-0.74-0.449l-1.42,3.684
			c-0.611-0.387-1.223-0.771-1.844-1.141l2.598-3.412l-0.773-0.395c-1.248-0.639-6.447-3.045-7.816-3.604L197.557,12l-0.82,3.84
			c-0.66-0.289-1.33-0.559-2.004-0.826l2.033-3.768l-0.828-0.268c-1.34-0.438-6.852-2-8.285-2.336l-0.844-0.197l-0.207,3.898
			c-0.695-0.18-1.402-0.33-2.107-0.488l1.416-4.029l-0.859-0.139c-1.387-0.221-7.075-0.904-8.55-1.012l-0.864-0.062l0.405,3.898
			c-0.716-0.068-1.438-0.119-2.16-0.164l0.766-4.203l-0.865-0.004c-1.466,0-7.158,0.215-8.596,0.338l-0.861,0.076l1.004,3.789
			c-0.723,0.045-1.443,0.098-2.16,0.164l0.097-4.264l-0.854,0.131c-1.451,0.219-7.05,1.336-8.438,1.682l-0.838,0.209l1.584,3.58
			c-0.705,0.158-1.412,0.312-2.109,0.49l-0.57-4.213l-0.824,0.262c-1.398,0.445-6.752,2.424-8.07,2.982l-0.796,0.334l2.13,3.299
			c-0.673,0.268-1.344,0.535-2.005,0.824l-1.229-4.09l-0.771,0.387c-1.312,0.66-6.292,3.453-7.504,4.209l-0.732,0.455l2.625,2.934
			c-0.623,0.369-1.238,0.752-1.849,1.141l-1.864-3.869l-0.703,0.504c-1.178,0.844-5.658,4.381-6.752,5.328l-0.652,0.566l3.055,2.486
			c-0.559,0.463-1.1,0.945-1.645,1.424L122,23.76l-0.614,0.609c-1.034,1.021-4.905,5.215-5.836,6.318l-0.556,0.662l3.421,1.982
			c-0.481,0.547-0.962,1.088-1.425,1.645l-2.967-3.098l-0.512,0.697c-0.861,1.174-4.03,5.922-4.774,7.154l-0.447,0.74l3.679,1.422
			c-0.389,0.609-0.774,1.225-1.144,1.848l-3.412-2.596l-0.396,0.77c-0.671,1.299-3.058,6.486-3.596,7.812l-0.324,0.803l3.831,0.822
			c-0.288,0.662-0.558,1.332-0.826,2.004l-3.766-2.023l-0.271,0.82c-0.46,1.391-2.006,6.885-2.331,8.279l-0.194,0.842l3.892,0.213
			c-0.18,0.695-0.331,1.404-0.489,2.107l-4.026-1.408l-0.142,0.852c-0.237,1.436-0.905,7.107-1.006,8.545l-0.06,0.861l3.89-0.396
			c-0.068,0.715-0.119,1.436-0.165,2.16l-4.199-0.768l-0.006,0.865c-0.009,1.455,0.217,7.161,0.343,8.597l0.074,0.861l3.787-1.004
			c0.045,0.723,0.098,1.443,0.164,2.16l-4.263-0.098l0.13,0.854c0.217,1.432,1.335,7.029,1.684,8.439l0.208,0.838l3.58-1.584
			c0.158,0.707,0.31,1.414,0.489,2.111l-4.21,0.562l0.261,0.824c0.43,1.357,2.409,6.713,2.982,8.074l0.335,0.797l3.295-2.129
			c0.268,0.674,0.538,1.346,0.825,2.008l-4.086,1.221l0.386,0.773c0.632,1.264,3.423,6.244,4.206,7.508l0.457,0.734l2.929-2.627
			c0.371,0.625,0.754,1.24,1.143,1.852l-3.866,1.857l0.502,0.701c0.817,1.145,4.354,5.627,5.328,6.756l0.565,0.656l2.485-3.055
			c0.463,0.559,0.945,1.102,1.425,1.645l-3.537,2.445l0.608,0.617c1.006,1.02,5.199,4.895,6.319,5.836l0.661,0.559l1.985-3.418
			c0.543,0.48,1.086,0.963,1.645,1.426l-3.101,2.959l0.696,0.512c1.157,0.854,5.906,4.025,7.154,4.779l0.741,0.445l1.423-3.676
			c0.61,0.391,1.225,0.775,1.849,1.145l-2.597,3.404l0.768,0.396c1.281,0.666,6.468,3.053,7.814,3.6l0.802,0.326l0.821-3.83
			c0.664,0.287,1.334,0.559,2.008,0.826l-2.027,3.76l0.82,0.271c1.369,0.455,6.864,2.004,8.282,2.334l0.842,0.197l0.212-3.893
			c0.697,0.18,1.404,0.332,2.109,0.488l-1.412,4.025l0.854,0.141c1.434,0.234,7.104,0.904,8.546,1.008l0.862,0.062l-0.399-3.893
			c0.717,0.068,1.438,0.121,2.16,0.166l-0.765,4.197l0.864,0.004c0.026,0,0.052,0,0.079,0c1.576,0,7.113-0.219,8.52-0.338
			l0.861-0.074l-1.006-3.787c0.724-0.045,1.445-0.098,2.161-0.164l-0.099,4.258l0.854-0.129c1.442-0.221,7.044-1.334,8.44-1.68
			l0.842-0.205l-1.586-3.584c0.705-0.156,1.412-0.309,2.109-0.488l0.568,4.207l0.822-0.262c1.387-0.441,6.744-2.416,8.072-2.977
			l0.797-0.336l-2.129-3.297c0.674-0.268,1.344-0.537,2.006-0.824l1.225,4.086l0.773-0.389c1.332-0.672,6.314-3.461,7.506-4.205
			l0.734-0.455l-2.625-2.932c0.623-0.369,1.236-0.752,1.848-1.143l1.857,3.869l0.703-0.508c1.207-0.869,5.691-4.402,6.758-5.324
			l0.654-0.566l-3.055-2.484c0.557-0.465,1.1-0.945,1.643-1.426l2.445,3.539l0.617-0.611c1.047-1.039,4.924-5.229,5.842-6.316
			l0.557-0.66l-3.422-1.986c0.48-0.545,0.963-1.086,1.426-1.643l2.959,3.098l0.512-0.699c0.871-1.186,4.045-5.934,4.781-7.152
			l0.451-0.74l-3.684-1.424c0.389-0.609,0.773-1.223,1.143-1.846l3.408,2.598l0.396-0.771c0.678-1.32,3.068-6.506,3.602-7.814
			l0.328-0.801l-3.836-0.824c0.287-0.66,0.559-1.332,0.826-2.004l3.76,2.027l0.271-0.824c0.461-1.396,2.012-6.893,2.338-8.279
			l0.199-0.844l-3.898-0.211c0.18-0.695,0.33-1.404,0.486-2.105l4.029,1.41l0.139-0.855c0.219-1.363,0.9-7.045,1.012-8.547
			l0.062-0.865l-3.898,0.404c0.068-0.717,0.121-1.436,0.166-2.158L241.945,83.562z"/>
		<circle fill="none" stroke="#B0BFCD" stroke-width="1.4783" stroke-miterlimit="10" cx="169.587" cy="78.423" r="60.265"/>
		<polygon fill="#414950" points="84.277,62.186 98.916,62.186 97.708,72.444 83.069,72.444 		"/>
		<polygon fill="#414950" points="82.596,73.44 97.234,73.44 97.644,83.763 83.006,83.763 		"/>
		<polygon fill="#414950" points="82.693,84.822 97.332,84.822 99.353,94.953 84.715,94.953 		"/>
		<polygon fill="#414950" points="84.573,96.042 99.211,96.042 102.79,105.738 88.151,105.738 		"/>
		<polygon fill="#414950" points="102.824,106.837 88.186,106.837 93.235,115.853 107.873,115.853 		"/>
		<polygon fill="#414950" points="108.08,116.935 93.441,116.935 99.837,125.048 114.475,125.048 		"/>
		<polygon fill="#414950" points="114.848,126.083 100.21,126.083 107.797,133.095 122.436,133.095 		"/>
		<polygon fill="#414950" points="108.327,134.062 122.965,134.062 131.557,139.798 116.919,139.798 		"/>
		<polygon fill="#414950" points="117.593,140.671 132.231,140.671 141.615,144.994 126.978,144.994 		"/>
		<polygon fill="#414950" points="142.417,145.75 127.779,145.75 137.724,148.552 152.361,148.552 		"/>
		<polygon fill="#414950" points="138.633,149.173 153.271,149.173 163.532,150.384 148.667,150.859 		"/>
		<polygon fill="#414950" points="84.9,61.274 99.539,61.274 102.335,51.333 87.697,51.333 		"/>
		<polygon fill="#414950" points="88.458,50.53 103.096,50.53 107.413,41.145 92.774,41.145 		"/>
		<polygon fill="#414950" points="93.651,40.471 108.289,40.471 114.021,31.879 99.383,31.879 		"/>
		<polygon fill="#414950" points="100.355,31.35 114.993,31.35 122,23.76 107.361,23.76 		"/>
		<polygon fill="#414950" points="123.042,23.389 108.404,23.389 116.512,16.991 131.149,16.991 		"/>
		<polygon fill="#414950" points="117.6,16.786 132.237,16.786 141.245,11.735 126.607,11.735 		"/>
		<polygon fill="#414950" points="142.35,11.702 127.624,11.735 137.401,8.124 152.04,8.124 		"/>
		<polygon fill="#414950" points="153.136,8.266 138.499,8.266 148.628,6.245 163.266,6.245 		"/>
		<path opacity="0.6" fill="#2D3239" d="M147.567,8.266c4.223-0.902,8.576-1.447,13.035-1.568c0.782-0.148,1.436-0.266,1.81-0.322
			l0.157-0.025V6.245h-12.811c-2.889,0.514-5.723,1.182-8.484,2.021c-30.077,9.146-52.028,37.133-52.028,70.157
			c0,30.145,18.298,56.074,44.362,67.326c3.142,1.355,6.389,2.512,9.74,3.424c1.697,0.461,3.427,0.844,5.17,1.184
			c0.179,0.035,0.355,0.068,0.533,0.102c0.586,0.109,1.166,0.238,1.758,0.334c0.158,0.025,0.318,0.043,0.477,0.066
			c1.959,0,8.098-0.002,11.283-0.004v-0.441v-0.098c-0.364-0.029-0.928-0.086-1.609-0.158c-3.544-0.082-7.025-0.406-10.426-0.984
			c-4.41-0.748-8.683-1.908-12.782-3.424c-27.381-10.123-46.961-36.471-46.961-67.326C90.791,43.995,115.17,15.184,147.567,8.266z"
			/>
		<g>
			<circle fill="#E3E993" cx="169.587" cy="78.423" r="51.404"/>
			<path fill="#ACAD58" d="M122.188,78.423c0-27.718,21.94-50.298,49.401-51.353c-0.664-0.023-1.332-0.049-2.002-0.049
				c-28.39,0-51.404,23.014-51.404,51.401c0,28.389,23.014,51.404,51.404,51.404c0.67,0,1.338-0.027,2.002-0.051
				C144.128,128.722,122.188,106.14,122.188,78.423z"/>
			<g>
				<g>
					<path fill="#888B46" d="M179.539,73.917c-0.164-0.002-0.229,0.027-0.377,0.072l-0.004-0.006l-0.746,0.41l-0.316,0.717
						c-0.025,0.098-0.037,0.203-0.039,0.309c0,0.105,0.006,0.211,0.025,0.314l-0.016,0.572l0.881,0.543
						c0.021,0.012,0.051,0.016,0.068,0.027l0.125,0.047l0.004-0.002c0.133,0.039,0.18,0.066,0.322,0.068
						c0.852,0.02,1.553-0.654,1.574-1.498C181.059,74.637,180.387,73.938,179.539,73.917z"/>
					<path fill="#D1D16A" d="M179.805,75.459c-0.016,0.604-0.512,1.074-1.113,1.061c-0.6-0.018-1.074-0.512-1.06-1.109
						c0.012-0.602,0.511-1.076,1.11-1.062C179.344,74.366,179.816,74.86,179.805,75.459z"/>
					<path opacity="0.3" fill="#FFFFFF" d="M178.742,74.348c-0.6-0.014-1.099,0.461-1.11,1.062c-0.007,0.277,0.1,0.527,0.268,0.723
						l1.634-1.402C179.342,74.51,179.062,74.36,178.742,74.348z"/>
				</g>
				<g>
					<path fill="#888B46" d="M170.018,76.68c-0.257,0-0.356,0.049-0.589,0.125l-0.008-0.012l-1.15,0.674l-0.477,1.138
						c-0.035,0.158-0.051,0.32-0.051,0.49c0,0.166,0.016,0.33,0.051,0.488v0.9l1.398,0.822c0.038,0.018,0.078,0.027,0.115,0.041
						l0.189,0.07l0.012-0.006c0.209,0.057,0.284,0.1,0.509,0.1c1.335,0,2.415-1.082,2.415-2.416
						C172.433,77.758,171.353,76.68,170.018,76.68z"/>
					<path fill="#D1D16A" d="M170.488,79.095c0,0.941-0.762,1.705-1.704,1.705c-0.945,0-1.709-0.764-1.709-1.705
						c0-0.942,0.764-1.706,1.709-1.706C169.727,77.389,170.488,78.153,170.488,79.095z"/>
					<path opacity="0.3" fill="#FFFFFF" d="M168.784,77.389c-0.945,0-1.709,0.764-1.709,1.706c0,0.436,0.178,0.824,0.446,1.127
						l2.517-2.259C169.727,77.618,169.284,77.389,168.784,77.389z"/>
				</g>
				<g>
					<path fill="#888B46" d="M169.923,68.016c-0.164,0-0.229,0.031-0.376,0.076l-0.005-0.004l-0.73,0.43l-0.304,0.723
						c-0.022,0.102-0.032,0.205-0.032,0.311c0,0.109,0.01,0.211,0.032,0.312v0.574l0.89,0.523c0.023,0.01,0.049,0.018,0.071,0.025
						l0.122,0.045l0.008-0.004c0.133,0.035,0.181,0.062,0.324,0.062c0.85,0,1.539-0.688,1.539-1.539
						C171.462,68.704,170.772,68.016,169.923,68.016z"/>
					<circle fill="#D1D16A" cx="169.135" cy="69.551" r="1.086"/>
					<path opacity="0.3" fill="#FFFFFF" d="M169.137,68.467c-0.601,0-1.088,0.484-1.088,1.084c0,0.277,0.114,0.527,0.286,0.719
						l1.602-1.438C169.735,68.612,169.455,68.467,169.137,68.467z"/>
				</g>
				<g>
					<path fill="#888B46" d="M161.601,75.356c-0.163-0.027-0.229-0.008-0.383,0.018l-0.004-0.008l-0.793,0.307l-0.416,0.662
						c-0.038,0.096-0.064,0.197-0.082,0.303c-0.017,0.104-0.023,0.209-0.018,0.312l-0.094,0.564l0.793,0.662
						c0.023,0.013,0.047,0.023,0.066,0.037l0.113,0.062l0.008-0.004c0.127,0.061,0.168,0.091,0.31,0.115
						c0.84,0.139,1.63-0.427,1.767-1.265C163.008,76.282,162.44,75.493,161.601,75.356z"/>
					<circle fill="#D1D16A" cx="160.575" cy="76.745" r="1.085"/>
					<path opacity="0.3" fill="#FFFFFF" d="M160.751,75.672c-0.592-0.098-1.148,0.303-1.247,0.896
						c-0.044,0.273,0.025,0.537,0.164,0.752l1.813-1.158C161.321,75.913,161.067,75.723,160.751,75.672z"/>
				</g>
				<g>
					<path fill="#888B46" d="M166.065,85.82c-0.154-0.047-0.227-0.033-0.381-0.031l-0.002-0.006l-0.825,0.205l-0.495,0.609
						c-0.048,0.088-0.089,0.186-0.117,0.285c-0.029,0.104-0.051,0.207-0.059,0.311l-0.162,0.549l0.708,0.754
						c0.019,0.016,0.044,0.029,0.058,0.045l0.109,0.078l0.004-0.002c0.119,0.072,0.158,0.109,0.293,0.152
						c0.818,0.24,1.67-0.229,1.912-1.041C167.348,86.912,166.88,86.058,166.065,85.82z"/>
					<path fill="#D1D16A" d="M165.921,87.378c-0.171,0.578-0.773,0.904-1.349,0.736c-0.577-0.172-0.905-0.773-0.735-1.35
						c0.168-0.574,0.773-0.902,1.348-0.736C165.761,86.201,166.089,86.802,165.921,87.378z"/>
					<path opacity="0.3" fill="#FFFFFF" d="M165.185,86.029c-0.574-0.166-1.18,0.162-1.348,0.736
						c-0.079,0.268-0.041,0.535,0.07,0.768l1.942-0.928C165.722,86.337,165.491,86.121,165.185,86.029z"/>
				</g>
				<g>
					<path fill="#888B46" d="M177.055,84.882c-0.159-0.023-0.228,0-0.38,0.027l-0.005-0.004l-0.782,0.328l-0.397,0.678
						c-0.033,0.096-0.056,0.195-0.069,0.301c-0.014,0.109-0.02,0.213-0.01,0.316l-0.078,0.566l0.814,0.635
						c0.023,0.016,0.051,0.025,0.068,0.039l0.118,0.057h0.005c0.126,0.051,0.172,0.084,0.312,0.102
						c0.845,0.111,1.617-0.482,1.729-1.32C178.49,85.763,177.897,84.992,177.055,84.882z"/>
					<path fill="#D1D16A" d="M177.151,86.445c-0.078,0.596-0.623,1.012-1.219,0.934c-0.596-0.08-1.012-0.625-0.933-1.219
						c0.074-0.596,0.622-1.014,1.218-0.936C176.812,85.304,177.229,85.849,177.151,86.445z"/>
					<path opacity="0.3" fill="#FFFFFF" d="M176.218,85.224c-0.596-0.078-1.144,0.34-1.218,0.936
						c-0.038,0.275,0.041,0.535,0.186,0.746l1.777-1.215C176.796,85.449,176.532,85.267,176.218,85.224z"/>
				</g>
			</g>
			<path fill="#D1D16A" d="M156.222,45.506c-2.192-2.189-1.449-3.982,1.648-3.982h23.565c3.096,0,3.84,1.793,1.648,3.982
				l-9.448,9.447c-2.189,2.191-5.773,2.191-7.966,0L156.222,45.506z"/>
			<path fill="#D1D16A" d="M133.601,82.38c-2.76,1.406-4.234,0.146-3.279-2.801l7.283-22.411c0.956-2.945,2.891-3.098,4.297-0.338
				l6.064,11.904c1.407,2.762,0.3,6.17-2.461,7.576L133.601,82.38z"/>
			<path fill="#ACAD58" d="M132.632,80.042l7.283-22.411c0.312-0.961,0.733-1.592,1.201-1.955c-1.275-1.432-2.723-0.936-3.512,1.492
				l-7.283,22.411c-0.839,2.59,0.197,3.871,2.334,3.195C132.278,82.205,132.229,81.285,132.632,80.042z"/>
			<path fill="#D1D16A" d="M161.679,115.287c0.484,3.059-1.17,4.072-3.678,2.252l-19.062-13.85c-2.506-1.82-2.056-3.709,1.006-4.193
				l13.199-2.092c3.059-0.482,5.959,1.623,6.443,4.684L161.679,115.287z"/>
			<path fill="#D1D16A" d="M201.654,98.751c3.061,0.482,3.512,2.369,1.008,4.189l-19.066,13.854
				c-2.506,1.82-4.158,0.807-3.674-2.254l2.088-13.195c0.484-3.061,3.383-5.168,6.443-4.684L201.654,98.751z"/>
			<g>
				<path fill="#ACAD58" d="M182.076,113.886l1.301-13.295c0.125-1.289,0.699-2.42,1.529-3.295
					c-1.488,0.809-2.613,2.254-2.896,4.049l-2.088,13.195c-0.471,2.977,1.088,3.994,3.477,2.375
					C182.438,116.763,181.898,115.718,182.076,113.886z"/>
			</g>
			<path fill="#D1D16A" d="M198.281,55.625c1.406-2.76,3.34-2.609,4.297,0.338l7.281,22.407c0.957,2.945-0.518,4.207-3.279,2.801
				l-11.902-6.063c-2.762-1.404-3.869-4.814-2.465-7.574L198.281,55.625z"/>
			<g>
				<path fill="#ACAD58" d="M167.526,54.696L158.8,44.579c-1.104-1.279-1.32-2.361-0.812-3.055h-0.117
					c-3.098,0-3.841,1.793-1.648,3.982l9.448,9.447c1.348,1.346,3.22,1.857,4.971,1.551
					C169.47,56.258,168.363,55.668,167.526,54.696z"/>
			</g>
			<g>
				<path fill="#ACAD58" d="M193.07,69.198l6.928-11.43c0.855-1.412,1.795-1.961,2.602-1.738l-0.021-0.066
					c-0.957-2.947-2.891-3.098-4.297-0.338l-6.068,11.908c-0.885,1.738-0.77,3.73,0.123,5.32
					C192.17,71.624,192.381,70.336,193.07,69.198z"/>
			</g>
			<path fill="#888B46" d="M171.893,63.354c-0.272,0-0.543,0.027-0.814,0.041c7.943,0.428,14.256,6.982,14.256,15.028
				c0,8.047-6.312,14.602-14.256,15.029c0.271,0.016,0.542,0.039,0.814,0.039c8.324,0,15.07-6.746,15.07-15.068
				C186.963,70.102,180.217,63.354,171.893,63.354z"/>
			<path opacity="0.2" fill="#FFFFFF" d="M125.8,106.929c9.341,14.297,25.474,23.77,43.787,23.77
				c28.825,0,52.276-23.449,52.276-52.275c0-12.638-4.512-24.241-12.004-33.29C182.807,64.971,149.229,89.677,125.8,106.929z"/>
			<path fill="#ACAD58" d="M141.76,104.951c-2.507-1.82-2.056-3.707,1.005-4.191l13.199-2.092c0.568-0.09,1.123-0.064,1.666,0.016
				c-1.208-1.016-2.816-1.543-4.486-1.279l-13.199,2.092c-3.062,0.484-3.512,2.373-1.006,4.193l19.062,13.85
				c0.9,0.654,1.686,0.93,2.307,0.889L141.76,104.951z"/>
		</g>
	</g>
</g>
</svg>
