<?xml version="1.0" encoding="utf-8"?>
<!-- Generator: Adobe Illustrator 16.0.0, SVG Export Plug-In . SVG Version: 6.00 Build 0)  -->
<!DOCTYPE svg PUBLIC "-//W3C//DTD SVG 1.1//EN" "http://www.w3.org/Graphics/SVG/1.1/DTD/svg11.dtd">
<svg version="1.1" id="Layer_1" xmlns="http://www.w3.org/2000/svg" xmlns:xlink="http://www.w3.org/1999/xlink" x="0px" y="0px"
	 width="355.667px" height="124.333px" viewBox="0 0 355.667 124.333" enable-background="new 0 0 355.667 124.333"
	 xml:space="preserve">
<g>
	<path fill="#C1D1E0" d="M294.296,48.409h44.937c4.72,0,8.542,6.16,8.542,13.757c0,7.596-3.822,13.756-8.542,13.756h-44.937"/>
	<path fill="#A0AEBB" d="M294.296,75.922h44.937c4.72,0,8.542-6.16,8.542-13.756h-53.479V75.922z"/>
	<path fill="#D1D383" d="M292.781,24.747h13.18c12.827,0,23.228,16.752,23.228,37.419c0,20.664-10.4,37.418-23.228,37.418h-13.18"/>
	<g>
		<path fill="#ACAD43" d="M311.574,41.411l15.639,4.574l-0.98-4.53l-17.145-5.021C309.996,37.981,310.835,39.632,311.574,41.411z"/>
		<path fill="#ACAD43" d="M305.308,31.226l17.748,5.209l-2.982-5.082l-22.396-6.605h-4.916v0.043
			C297.41,24.952,301.72,27.286,305.308,31.226z"/>
		<path fill="#ACAD43" d="M314.328,50.571l14.732,4.297v-4.224l-15.889-4.659C313.613,47.466,314.009,48.989,314.328,50.571z"/>
		<path fill="#ACAD43" d="M330.004,59.282l-14.979-4.414c0.18,1.424,0.289,2.877,0.359,4.354l14.041,4.121L330.004,59.282z"/>
		<path fill="#ACAD43" d="M315.445,63.342c-0.031,1.416-0.113,2.811-0.23,4.184l13.602,3.965l1.041-3.898L315.445,63.342z"/>
		<path fill="#ACAD43" d="M314.722,71.491c-0.217,1.369-0.479,2.711-0.787,4.016l12.961,3.801l1.629-3.749L314.722,71.491z"/>
		<path fill="#ACAD43" d="M312.884,79.307c-0.426,1.324-0.885,2.617-1.402,3.84l12.303,3.596l2.348-3.536L312.884,79.307z"/>
		<path fill="#ACAD43" d="M309.74,86.743c-0.697,1.279-1.441,2.482-2.234,3.598l11.467,3.312l3.297-3.306L309.74,86.743z"/>
		<path fill="#ACAD43" d="M301.017,96.805l8.695,2.521l6.554-2.312l-11.497-3.361C303.587,94.874,302.337,95.94,301.017,96.805z"/>
	</g>
	<path opacity="0.1" fill="#626C76" d="M329.188,62.167c0,4.859-0.581,9.496-1.628,13.756h4.204
		c1.047-4.26,1.628-8.896,1.628-13.756c0-4.859-0.581-9.498-1.628-13.757h-4.203C328.607,52.669,329.188,57.308,329.188,62.167z"/>
	<path opacity="0.6" fill="#DEE4EA" d="M315.1,51.856h-19.558c0.393,3.342,0.601,6.783,0.601,10.31c0,1.684-0.055,3.346-0.145,4.992
		h19.558c0.092-1.646,0.144-3.309,0.144-4.992C315.7,58.64,315.491,55.198,315.1,51.856z"/>
	<path fill="#A0AEBB" d="M261.685,6.657h19.558c19.031,0,34.457,24.85,34.457,55.509c0,30.656-15.426,55.51-34.457,55.51h-19.558"/>
	<path opacity="0.3" fill="#818330" d="M311.333,98.567c5.262-9.748,8.454-22.469,8.454-36.4c0-13.933-3.192-26.656-8.454-36.402
		c-1.49-0.568-3.036-0.904-4.622-0.986c5.583,9.865,8.988,22.984,8.988,37.388c0,14.402-3.405,27.521-8.989,37.387
		C308.297,99.471,309.843,99.135,311.333,98.567z"/>
	<ellipse fill="#B7C2CB" cx="261.682" cy="62.167" rx="34.461" ry="55.51"/>
	<path fill="#C1D1E0" d="M218.763,48.409h49.332c4.718,0,8.544,6.16,8.544,13.757c0,7.596-3.826,13.756-8.544,13.756h-49.332"/>
	<path opacity="0.1" fill="#626C76" d="M221.859,53.401h49.339c4.714,0,8.54,6.16,8.54,13.757c0,7.598-3.826,13.758-8.54,13.758
		h-49.339"/>
	<path fill="#D1D383" d="M208.975,24.747h13.18c12.827,0,23.228,16.752,23.228,37.419c0,20.664-10.4,37.418-23.228,37.418h-13.18"/>
	<path opacity="0.1" fill="#626C76" d="M235.109,26.821c-0.484,0.945-0.944,1.924-1.392,2.922
		c6.966,6.461,11.665,18.547,11.665,32.423c0,13.875-4.699,25.961-11.665,32.422c0.447,0.994,0.907,1.977,1.392,2.922
		c9.104-5.062,15.659-18.953,15.659-35.344C250.768,45.774,244.213,31.882,235.109,26.821z"/>
	<path fill="#A0AEBB" d="M195.279,24.747h13.185c12.826,0,23.227,16.752,23.227,37.419c0,20.664-10.4,37.418-23.227,37.418h-13.185"
		/>
	<path fill="#B7C2CB" d="M218.509,62.167c0,20.664-10.404,37.418-23.23,37.418c-12.832,0-23.23-16.754-23.23-37.418
		c0-20.667,10.398-37.419,23.23-37.419C208.105,24.747,218.509,41.499,218.509,62.167z"/>
	<path fill="#C1D1E0" d="M147.41,48.409h47.151c4.716,0,8.54,6.16,8.54,13.757c0,7.596-3.824,13.756-8.54,13.756H147.41"/>
	<path opacity="0.1" fill="#626C76" d="M172.048,62.167c0,15.004,5.497,27.912,13.412,33.873c4.491-9.375,7.168-21.117,7.168-33.873
		c0-12.759-2.677-24.503-7.17-33.876C177.545,34.253,172.048,47.159,172.048,62.167z"/>
	<path opacity="0.1" fill="#626C76" d="M149.748,52.175h47.148c4.717,0,8.541,6.158,8.541,13.753c0,7.6-3.824,13.758-8.541,13.758
		h-47.148"/>
	<g>
		<path fill="#ACAD43" d="M227.787,41.411l15.639,4.574l-0.98-4.53L225.3,36.435C226.208,37.981,227.048,39.632,227.787,41.411z"/>
		<path fill="#ACAD43" d="M221.521,31.226l17.748,5.209l-2.982-5.082l-22.396-6.605h-4.916v0.043
			C213.623,24.952,217.933,27.286,221.521,31.226z"/>
		<path fill="#ACAD43" d="M230.541,50.571l14.732,4.297v-4.224l-15.889-4.659C229.826,47.466,230.222,48.989,230.541,50.571z"/>
		<path fill="#ACAD43" d="M246.217,59.282l-14.979-4.414c0.18,1.424,0.289,2.877,0.359,4.354l14.041,4.121L246.217,59.282z"/>
		<path fill="#ACAD43" d="M231.658,63.342c-0.031,1.416-0.113,2.811-0.23,4.184l13.602,3.965l1.041-3.898L231.658,63.342z"/>
		<path fill="#ACAD43" d="M230.935,71.491c-0.217,1.369-0.479,2.711-0.787,4.016l12.961,3.801l1.629-3.749L230.935,71.491z"/>
		<path fill="#ACAD43" d="M229.097,79.307c-0.426,1.324-0.885,2.617-1.402,3.84l12.303,3.596l2.348-3.536L229.097,79.307z"/>
		<path fill="#ACAD43" d="M225.953,86.743c-0.697,1.279-1.441,2.482-2.234,3.598l11.467,3.312l3.297-3.306L225.953,86.743z"/>
		<path fill="#ACAD43" d="M217.23,96.805l8.695,2.521l6.554-2.312l-11.497-3.361C219.8,94.874,218.55,95.94,217.23,96.805z"/>
	</g>
	<path opacity="0.3" fill="#818330" d="M212.444,24.747h-3.98c12.826,0,23.227,16.752,23.227,37.419
		c0,20.664-10.4,37.418-23.227,37.418h3.98c12.825,0,23.226-16.754,23.226-37.418C235.669,41.499,225.269,24.747,212.444,24.747z"/>
	<path fill="#D1D383" d="M131.924,6.657h19.557c19.028,0,34.456,24.85,34.456,55.509c0,30.656-15.428,55.51-34.456,55.51h-19.557"/>
	<path fill="#A0AEBB" d="M111.609,6.657h19.555c19.03,0,34.461,24.85,34.461,55.509c0,30.656-15.431,55.51-34.461,55.51h-19.555"/>
	<g>
		<path fill="#ACAD43" d="M141.536,6.657h-9.611v0.029c6.492,0.225,12.543,3.35,17.672,8.592l27.288,7.834l-4.642-7.633
			L141.536,6.657z"/>
		<path fill="#ACAD43" d="M159.458,30.515l23.697,6.818l-1.058-6.653l-26.459-7.567C157.045,25.394,158.315,27.872,159.458,30.515z"
			/>
		<path fill="#ACAD43" d="M163.756,44.144l22.181,6.391l0.473-6.187l-24.431-7.015C162.664,39.524,163.255,41.798,163.756,44.144z"
			/>
		<path fill="#ACAD43" d="M165.472,57.009l21.231,6.132l1.309-6.186l-23.154-6.421C165.139,52.651,165.344,54.812,165.472,57.009z"
			/>
		<path fill="#ACAD43" d="M165.325,69.356l20.393,5.9l2.24-5.945l-22.352-6.17C165.583,65.245,165.492,67.317,165.325,69.356z"/>
		<path fill="#ACAD43" d="M163.534,81.233l19.815,5.729l2.454-5.539l-21.153-6.166C164.347,77.295,163.975,79.288,163.534,81.233z"
			/>
		<path fill="#ACAD43" d="M159.98,92.598l18.561,5.371l3.32-5.252l-19.845-5.83C161.404,88.86,160.726,90.77,159.98,92.598z"/>
		<path fill="#ACAD43" d="M154.257,103.34l17.228,4.955l4.973-4.904l-18.979-5.422C156.481,99.877,155.405,101.67,154.257,103.34z"
			/>
		<path fill="#ACAD43" d="M144.935,113.042l15.018,3.361l7.416-3.133l-17.062-4.975C148.618,110.12,146.822,111.717,144.935,113.042
			z"/>
	</g>
	<path opacity="0.3" fill="#818330" d="M136.283,6.657h-5.119c19.03,0,34.461,24.85,34.461,55.509
		c0,30.656-15.431,55.51-34.461,55.51h5.119c19.028,0,34.459-24.854,34.459-55.51C170.742,31.507,155.311,6.657,136.283,6.657z"/>
	<path fill="#B7C2CB" d="M146.063,62.167c0,30.656-15.425,55.51-34.454,55.51c-19.038,0-34.468-24.854-34.468-55.51
		c0-30.66,15.43-55.509,34.468-55.509C130.638,6.657,146.063,31.507,146.063,62.167z"/>
	<path fill="#C1D1E0" d="M110,48.409h8.017c4.721,0,8.543,6.16,8.543,13.757c0,7.596-3.822,13.756-8.543,13.756H110"/>
	<path opacity="0.1" fill="#626C76" d="M107.807,51.067h11.863c4.715,0,8.536,6.158,8.536,13.757c0,7.596-3.821,13.756-8.536,13.756
		h-14.422L107.807,51.067z"/>
	<path opacity="0.1" fill="#626C76" d="M90.095,20.343h-1.138C81.72,30.519,77.141,45.474,77.141,62.167
		c0,16.691,4.579,31.648,11.816,41.822h1.138c14.341,0,25.964-18.725,25.964-41.822C116.059,39.067,104.436,20.343,90.095,20.343z"
		/>
	<path fill="#D1D383" d="M75.303,24.747h13.182c12.826,0,23.231,16.752,23.231,37.419c0,20.664-10.405,37.418-23.231,37.418H75.303"
		/>
	<g>
		<path fill="#ACAD43" d="M94.116,41.411l15.638,4.574l-0.98-4.53l-17.145-5.021C92.538,37.981,93.377,39.632,94.116,41.411z"/>
		<path fill="#ACAD43" d="M87.85,31.226l17.747,5.209l-2.981-5.082l-22.397-6.605h-4.915v0.043
			C79.951,24.952,84.262,27.286,87.85,31.226z"/>
		<path fill="#ACAD43" d="M96.869,50.571l14.733,4.297v-4.224l-15.89-4.659C96.154,47.466,96.55,48.989,96.869,50.571z"/>
		<path fill="#ACAD43" d="M112.546,59.282l-14.979-4.414c0.18,1.424,0.289,2.877,0.358,4.354l14.042,4.121L112.546,59.282z"/>
		<path fill="#ACAD43" d="M97.986,63.342c-0.03,1.416-0.112,2.811-0.229,4.184l13.601,3.965l1.042-3.898L97.986,63.342z"/>
		<path fill="#ACAD43" d="M97.264,71.491c-0.218,1.369-0.479,2.711-0.787,4.016l12.96,3.801l1.629-3.749L97.264,71.491z"/>
		<path fill="#ACAD43" d="M95.426,79.307c-0.427,1.324-0.885,2.617-1.402,3.84l12.302,3.596l2.348-3.536L95.426,79.307z"/>
		<path fill="#ACAD43" d="M92.281,86.743c-0.696,1.279-1.44,2.482-2.234,3.598l11.468,3.312l3.296-3.306L92.281,86.743z"/>
		<path fill="#ACAD43" d="M83.559,96.805l8.695,2.521l6.554-2.312l-11.497-3.361C86.129,94.874,84.878,95.94,83.559,96.805z"/>
	</g>
	<path fill="#ABBAC7" d="M61.61,24.747h13.187c12.823,0,23.223,16.752,23.223,37.419c0,20.664-10.399,37.418-23.223,37.418H61.61"/>
	<path opacity="0.3" fill="#818330" d="M79.815,24.747h-5.019c12.823,0,23.223,16.752,23.223,37.419
		c0,20.664-10.399,37.418-23.223,37.418h5.019c12.826,0,23.228-16.754,23.228-37.418C103.042,41.499,92.641,24.747,79.815,24.747z"
		/>
	<path fill="#C1D1E0" d="M84.837,62.167c0,20.664-10.397,37.418-23.228,37.418c-12.835,0-23.235-16.754-23.235-37.418
		c0-20.667,10.4-37.419,23.235-37.419C74.44,24.747,84.837,41.499,84.837,62.167z"/>
	<path fill="#CFDAE4" d="M61.61,24.747c-12.835,0-23.235,16.752-23.235,37.419h46.463C84.837,41.499,74.44,24.747,61.61,24.747z"/>
	<path fill="#AEBDCB" d="M62.74,48.411H40.021c-1.051,4.26-1.646,8.893-1.646,13.755c0,5.666,0.811,11.02,2.206,15.832H62.74
		c5.072,0,9.185-6.623,9.185-14.795C71.924,55.032,67.812,48.411,62.74,48.411z"/>
	<path fill="#DEE4EA" d="M16.427,48.409h44.94c4.718,0,8.538,6.16,8.538,13.757c0,7.596-3.82,13.756-8.538,13.756h-44.94"/>
	<path fill="#EAECEE" d="M61.368,48.409h-44.94v13.757h53.479C69.906,54.569,66.085,48.409,61.368,48.409z"/>
	<path fill="#AEBDCB" d="M24.97,62.167c0,7.596-3.823,13.756-8.543,13.756c-4.715,0-8.536-6.16-8.536-13.756
		c0-7.597,3.821-13.757,8.536-13.757C21.147,48.409,24.97,54.569,24.97,62.167z"/>
	<path opacity="0.6" fill="#DEE4EA" d="M165.023,51.856h-19.561c0.394,3.342,0.601,6.783,0.601,10.31
		c0,1.684-0.051,3.346-0.145,4.992h19.559c0.094-1.646,0.147-3.309,0.147-4.992C165.625,58.64,165.414,55.198,165.023,51.856z"/>
	<path opacity="0.8" fill="#DEE4EA" d="M83.01,47.591h13.184c-0.598-2.27-1.336-4.424-2.182-6.441H80.827
		C81.68,43.167,82.415,45.321,83.01,47.591z"/>
</g>
</svg>
