<?xml version="1.0" encoding="utf-8"?>
<!-- Generator: Adobe Illustrator 16.0.0, SVG Export Plug-In . SVG Version: 6.00 Build 0)  -->
<!DOCTYPE svg PUBLIC "-//W3C//DTD SVG 1.1//EN" "http://www.w3.org/Graphics/SVG/1.1/DTD/svg11.dtd">
<svg version="1.1" id="Layer_1" xmlns="http://www.w3.org/2000/svg" xmlns:xlink="http://www.w3.org/1999/xlink" x="0px" y="0px"
	 width="722px" height="240px" viewBox="0 0 722 240" enable-background="new 0 0 722 240" xml:space="preserve">
<g>
	<path fill="#414042" d="M75.919,181.468h6.335v-7.318l23.105-3.679l49.504,46.311c0,0,14.905-3.436,25.383-19.962h301.505
		c0,0,12.468,22.904,33.096,23.403c20.626,0.499,55.554-47.323,55.554-47.323h23.451l-5.653-50.017l-182.959-5.497H104.859
		l-36.17,34.811L75.919,181.468z"/>
	<circle fill="#58595B" cx="536.51" cy="188.164" r="41.521"/>
	
		<circle fill="none" stroke="#F1F2F2" stroke-width="0.9979" stroke-linecap="round" stroke-miterlimit="10" cx="536.509" cy="188.164" r="28.618"/>
	<circle fill="#58595B" cx="536.617" cy="188.058" r="21.769"/>
	<circle fill="#BCBEC0" cx="534.398" cy="190.275" r="20.55"/>
	<polygon fill="#414042" points="411.895,79.012 588.197,79.012 665.456,87.495 409.564,91.652 	"/>
	<g>
		<g>
			<path fill="#3E6682" d="M665.559,152.195l-79.355,1.995c-0.297-0.797-9.98-15.968-18.63-21.123
				c-8.76-5.221-36.734-4.011-51.229-3.159c-16.964,0.998-29.708,17.096-34.593,28.275H178.708c0,0-5.54-10.188-7.318-12.308
				c-8.649-10.314-18.295-18.445-42.912-18.445c-29.606,0-39.147,9.957-45.205,13.658l6.867,0.296c0,0,11.497-5.727,19.164-7.234
				c26.629-5.239,46.748,6.342,55.183,17.963c11.892,16.382,3.243,40.666,19.709,40.666c0,0,286.91,0,294.644,0
				s9.218-10.631,11.477-22.204c1.994-10.229,11.984-32.251,26.953-33.749c14.971-1.497,38.162-0.68,42.652,1.065
				c4.491,1.749,16.218,10.481,19.461,19.462c3.242,8.981,6.485,17.214,11.975,17.214c5.488,0,71.604,0,71.604,0L665.559,152.195
				L665.559,152.195z"/>
		</g>
	</g>
	<polygon fill="#2D4F66" points="178.708,158.182 182.367,165.833 479.421,165.833 481.752,158.182 	"/>
	<path fill="#DDE8EE" d="M56.317,108.701c-0.905,9.898-1.183,25.369,4.883,31.436l22.072,0.95
		c6.058-3.701,15.6-13.658,45.206-13.658c24.616,0,34.262,8.131,42.912,18.445c1.779,2.12,7.318,12.308,7.318,12.308h303.044
		c4.885-11.179,17.629-27.277,34.593-28.275c14.494-0.852,42.469-2.062,51.229,3.159c8.649,5.155,18.333,20.326,18.63,21.123
		l79.355,0.333l5.055-45.821H56.317z"/>
	<g>
		<path fill="#5386A9" d="M665.456,87.495c-7.235,0-250.234,0-250.234,0s-0.5-41.665-9.982-62.871H261.786l-47.153,57.049
			C145.11,85.992,79.56,86.527,71.078,89.521c-8.482,2.995-13.645,10.363-13.645,10.363s-0.643,3.65-1.115,8.817h614.296
			l-0.001,0.011l0.58-5.001C671.192,103.711,672.689,87.495,665.456,87.495z"/>
	</g>
	<path fill="#5B90B0" d="M77.445,89.03l131.052-12.895c0,0,0.789,0.222,8.332,5.938L77.445,89.03z"/>
	<path fill="#E6E7E8" d="M208.312,73.689c0,0-3.991,3.001,6.321,7.984l47.153-57.049L208.312,73.689z"/>
	<g>
		<path fill="#E6E7E8" d="M271.517,31.775c-3.842,0-9.034,2.385-11.538,5.299l-35.472,41.296c-2.503,2.914-1.408,5.299,2.434,5.299
			h90.148c3.842,0,6.986-3.144,6.986-6.985V38.761c0-3.842-3.144-6.985-6.986-6.985H271.517z"/>
		<path fill="none" stroke="#939598" stroke-width="1.9959" stroke-miterlimit="10" d="M271.517,31.775
			c-3.842,0-9.034,2.385-11.538,5.299l-35.472,41.296c-2.503,2.914-1.408,5.299,2.434,5.299h90.148c3.842,0,6.986-3.144,6.986-6.985
			V38.761c0-3.842-3.144-6.985-6.986-6.985H271.517z"/>
	</g>
	<g>
		<path fill="#E6E7E8" d="M356.01,31.775c-3.842,0-6.881,3.142-6.753,6.982l1.531,45.913c0.128,3.84,3.376,6.982,7.218,6.982h33.263
			c3.842,0,6.57-3.116,6.063-6.924L391.195,38.7c-0.507-3.809-4.066-6.924-7.908-6.924H356.01z"/>
		<path fill="none" stroke="#939598" stroke-width="1.9959" stroke-miterlimit="10" d="M356.01,31.775
			c-3.842,0-6.881,3.142-6.753,6.982l1.531,45.913c0.128,3.84,3.376,6.982,7.218,6.982h33.263c3.842,0,6.57-3.116,6.063-6.924
			L391.195,38.7c-0.507-3.809-4.066-6.924-7.908-6.924H356.01z"/>
	</g>
	
		<line fill="none" stroke="#244459" stroke-width="1.9959" stroke-linecap="round" stroke-miterlimit="10" x1="73.294" y1="104.862" x2="671.192" y2="104.862"/>
	<g>
		<path fill="none" stroke="#244459" stroke-width="0.9979" stroke-miterlimit="10" d="M612.146,137.557
			c0,2.195-1.797,3.992-3.992,3.992h-7.98c-2.195,0-3.992-1.796-3.992-3.992v-8.979c0-2.195,1.797-3.992,3.992-3.992h7.98
			c2.195,0,3.992,1.796,3.992,3.992V137.557z"/>
	</g>
	<g>
		<path fill="none" stroke="#244459" stroke-width="0.9979" stroke-miterlimit="10" d="M473.768,137.557
			c0,2.195-1.797,3.992-3.992,3.992h-7.984c-2.195,0-3.992-1.796-3.992-3.992v-8.979c0-2.195,1.797-3.992,3.992-3.992h7.984
			c2.195,0,3.992,1.796,3.992,3.992V137.557z"/>
	</g>
	
		<line fill="none" stroke="#AAB8C0" stroke-width="1.9959" stroke-linecap="round" stroke-miterlimit="10" x1="61.616" y1="112.278" x2="670.149" y2="112.278"/>
	
		<line fill="none" stroke="#AAB8C0" stroke-width="1.9959" stroke-linecap="round" stroke-miterlimit="10" x1="182.367" y1="152.195" x2="204.654" y2="152.195"/>
	
		<line fill="none" stroke="#AAB8C0" stroke-width="1.9959" stroke-linecap="round" stroke-miterlimit="10" x1="342.494" y1="152.195" x2="411.895" y2="152.195"/>
	
		<line fill="none" stroke="#AAB8C0" stroke-width="1.9959" stroke-linecap="round" stroke-miterlimit="10" x1="423.538" y1="152.195" x2="479.421" y2="152.195"/>
	
		<line fill="none" stroke="#AAB8C0" stroke-width="1.9959" stroke-linecap="round" stroke-miterlimit="10" x1="213.47" y1="152.195" x2="335.22" y2="152.195"/>
	
		<line fill="none" stroke="#AAB8C0" stroke-width="1.9959" stroke-linecap="round" stroke-miterlimit="10" x1="182.367" y1="148.535" x2="203.655" y2="148.535"/>
	
		<line fill="none" stroke="#AAB8C0" stroke-width="1.9959" stroke-linecap="round" stroke-miterlimit="10" x1="342.494" y1="148.535" x2="411.895" y2="148.535"/>
	
		<line fill="none" stroke="#AAB8C0" stroke-width="1.9959" stroke-linecap="round" stroke-miterlimit="10" x1="423.538" y1="148.535" x2="479.421" y2="148.535"/>
	
		<line fill="none" stroke="#AAB8C0" stroke-width="1.9959" stroke-linecap="round" stroke-miterlimit="10" x1="588.199" y1="150.199" x2="659.051" y2="150.199"/>
	
		<line fill="none" stroke="#AAB8C0" stroke-width="1.9959" stroke-linecap="round" stroke-miterlimit="10" x1="588.199" y1="146.539" x2="659.051" y2="146.539"/>
	
		<line fill="none" stroke="#AAB8C0" stroke-width="1.9959" stroke-linecap="round" stroke-miterlimit="10" x1="213.47" y1="148.535" x2="335.22" y2="148.535"/>
	
		<line fill="none" stroke="#244459" stroke-width="2.9938" stroke-miterlimit="10" x1="416.655" y1="80.708" x2="416.655" y2="174.149"/>
	<path fill="none" stroke="#244459" stroke-width="0.9979" stroke-miterlimit="10" d="M330.395,24.624
		c0,0,7.984,51.893,7.984,84.077c0,32.184,0,65.448,0,65.448"/>
	<path fill="none" stroke="#244459" stroke-width="0.9979" stroke-miterlimit="10" d="M214.633,81.673
		c0,0-8.644,15.593-9.646,36.591c-1.996,41.838,20.624,74.513,20.624,74.513"/>
	<path fill="#244459" d="M180.247,191.467c1.157,0.837,2.454,1.31,3.949,1.31c0,0,286.91,0,294.644,0
		c2.595,0,4.485-1.201,5.938-3.23l0,0c-8.615-4.56-8.682-15.397-8.682-15.397H417.55H188.354L180.247,191.467z"/>
	<path fill="#0C293B" d="M420.862,192.777c1.104,0,2.192,0,3.274,0c0-0.278-0.074-0.559-0.235-0.81l-5.749-8.942v-8.876h-1.497
		h-1.496v9.755L420.862,192.777z"/>
	<path fill="#0C293B" d="M215.776,174.149c0,0,2.573,6.74,4.179,9.315c1.607,2.572,122.539,1.993,122.539,1.993
		s-8.108-7.979-2.451-11.309H215.776z"/>
	
		<line fill="none" stroke="#0C293B" stroke-width="3.9918" stroke-linecap="round" stroke-miterlimit="10" x1="345.032" y1="179.832" x2="409.134" y2="179.832"/>
	
		<line fill="none" stroke="#0C293B" stroke-width="3.9918" stroke-linecap="round" stroke-miterlimit="10" x1="423.203" y1="179.832" x2="471.439" y2="179.832"/>
	
		<line fill="none" stroke="#0C293B" stroke-width="0.9979" stroke-linecap="round" stroke-miterlimit="10" x1="185.287" y1="188.164" x2="477.648" y2="188.164"/>
	
		<line fill="none" stroke="#4E7E9F" stroke-width="3.9918" stroke-linecap="round" stroke-miterlimit="10" x1="261.786" y1="24.624" x2="405.24" y2="24.624"/>
	<path fill="#BCBEC0" d="M98.772,138.206H55.025c0,0-9.875,6.542-8.039,12.168c1.838,5.628,4.708,20.096,13.895,20.096
		c9.185,0,15.615,0,15.615,0S80.4,141.074,98.772,138.206z"/>
	<path fill="#808285" d="M47.542,152.195c1.884,6.42,5.023,18.275,13.339,18.275c9.185,0,15.615,0,15.615,0
		s1.271-9.536,5.757-18.275H47.542z"/>
	<polygon fill="#58595B" points="60.881,170.47 68.269,181.468 75.919,181.468 76.497,170.47 	"/>
	<path fill="#E6E7E8" d="M67.958,102.949c-0.271-1.624-1.842-2.954-3.489-2.954h-5.428c-1.646,0-3.105,1.344-3.243,2.985
		c0,0-0.373,4.46-0.677,7.793c-0.634,6.933,0.342,21.014,0.342,21.014c0.114,1.641,1.554,2.987,3.201,2.987H70.3
		c1.646,0,2.771-1.331,2.499-2.953L67.958,102.949z"/>
	<path fill="#DCC09E" d="M55.463,131.787c0.114,1.641,1.554,2.987,3.201,2.987H70.3c1.646,0,2.771-1.331,2.499-2.953l-1.499-8.94
		H55.019C55.181,127.72,55.463,131.787,55.463,131.787z"/>
	<g>
		<path fill="#BCBEC0" d="M64.469,100.993c1.165,0,2.312,0.971,2.504,2.12l4.841,28.874c0.083,0.491-0.026,0.944-0.307,1.275
			c-0.28,0.332-0.709,0.514-1.207,0.514H58.664c-1.118,0-2.128-0.942-2.205-2.058c-0.01-0.14-0.963-14.08-0.344-20.854
			c0.305-3.337,0.678-7.803,0.678-7.803c0.094-1.121,1.124-2.068,2.249-2.068H64.469 M64.469,99.995h-5.428
			c-1.646,0-3.106,1.342-3.243,2.983c0,0-0.373,4.461-0.677,7.795c-0.634,6.933,0.342,21.014,0.342,21.014
			c0.114,1.643,1.554,2.987,3.201,2.987h11.637c1.646,0,2.771-1.329,2.499-2.953l-4.841-28.874
			C67.686,101.324,66.116,99.995,64.469,99.995L64.469,99.995z"/>
	</g>
	<g>
		<g>
			<path fill="none" stroke="#AAB8C0" stroke-width="1.9959" stroke-linecap="round" stroke-miterlimit="10" d="M97.794,137.935
				c3.655-1.509,7.985-3.092,11.509-3.786c26.629-5.239,46.748,6.342,55.183,17.963c11.892,16.382,3.243,40.666,19.709,40.666
				h255.786"/>
		</g>
	</g>
	<g>
		<g>
			<path fill="none" stroke="#AAB8C0" stroke-width="1.9959" stroke-linecap="round" stroke-miterlimit="10" d="M439.981,192.777
				h38.858c7.734,0,9.218-10.631,11.477-22.204c1.994-10.229,11.984-32.251,26.953-33.749c14.971-1.497,38.162-0.68,42.652,1.065
				c4.491,1.749,16.218,10.481,19.461,19.462c3.242,8.981,6.485,17.214,11.975,17.214h74.099"/>
		</g>
	</g>
	<g>
		<path fill="#808285" d="M675.075,174.67c-0.352,1.04-1.537,1.891-2.635,1.891h-8.233c-1.098,0-1.874-0.89-1.725-1.978
			l2.805-20.412c0.149-1.088,1.17-1.978,2.268-1.978h13.119c1.098,0,1.709,0.851,1.357,1.891L675.075,174.67z"/>
	</g>
	<path opacity="0.3" fill="#FFFFFF" d="M318.415,31.907c-16.73,15.779-40.036,37.814-54.785,51.762h53.459
		c3.842,0,6.985-3.144,6.985-6.986V38.762C324.075,35.372,321.627,32.53,318.415,31.907z"/>
	<path opacity="0.3" fill="#FFFFFF" d="M391.818,43.377l-39.673,45.229c1.324,1.834,3.476,3.045,5.861,3.045h33.264
		c3.842,0,6.57-3.116,6.062-6.924L391.818,43.377z"/>
	<path opacity="0.3" fill="#FFFFFF" d="M380.927,108.701l-58.016,49.481h158.84c4.885-11.179,17.629-27.277,34.593-28.275
		c14.494-0.852,42.469-2.062,51.229,3.159c8.649,5.155,18.333,20.326,18.63,21.123l79.355,0.333l5.055-45.821H380.927z"/>
	<g>
		<path fill="#ED1C24" d="M664.231,102.482c-1.778,0-3.368,1.449-3.532,3.221l-3.013,32.624c-0.164,1.772,1.157,3.221,2.937,3.221
			h5.558c1.778,0,3.411-1.445,3.628-3.21l3.997-32.645c0.217-1.766-1.062-3.211-2.841-3.211H664.231z"/>
		<path fill="none" stroke="#BCBEC0" stroke-width="1.0782" stroke-miterlimit="10" d="M664.231,102.482
			c-1.778,0-3.368,1.449-3.532,3.221l-3.013,32.624c-0.164,1.772,1.157,3.221,2.937,3.221h5.558c1.778,0,3.411-1.445,3.628-3.21
			l3.997-32.645c0.217-1.766-1.062-3.211-2.841-3.211H664.231z"/>
	</g>
	<path fill="#58595B" d="M541.191,188.164c0,2.586-2.095,4.682-4.681,4.682c-2.589,0-4.684-2.095-4.684-4.682
		c0-2.587,2.095-4.684,4.684-4.684C539.097,183.48,541.191,185.576,541.191,188.164z"/>
	<circle fill="#58595B" cx="536.51" cy="174.149" r="1.253"/>
	<circle fill="#58595B" cx="546.418" cy="178.254" r="1.253"/>
	<circle fill="#58595B" cx="550.521" cy="188.163" r="1.252"/>
	<path fill="#58595B" d="M545.531,198.956c-0.489-0.489-0.489-1.279,0-1.767c0.488-0.492,1.284-0.492,1.773-0.003
		c0.488,0.487,0.485,1.281-0.003,1.771C546.812,199.447,546.02,199.446,545.531,198.956z"/>
	<circle fill="#58595B" cx="536.51" cy="202.176" r="1.253"/>
	<path fill="#58595B" d="M525.715,197.188c0.488-0.491,1.278-0.491,1.771-0.002c0.489,0.487,0.49,1.283,0.001,1.771
		c-0.486,0.489-1.283,0.489-1.771-0.001C525.224,198.466,525.226,197.673,525.715,197.188z"/>
	<path fill="#58595B" d="M522.495,186.911c0.692,0,1.252,0.557,1.254,1.252c0,0.691-0.562,1.251-1.254,1.251
		c-0.689,0-1.251-0.561-1.251-1.253C521.244,187.468,521.806,186.911,522.495,186.911z"/>
	<circle fill="#58595B" cx="526.6" cy="178.254" r="1.252"/>
	<path opacity="0.3" fill="#FFFFFF" d="M549.44,170.47c-6.885,8.604-18.866,23.657-27.615,34.661
		c3.442,2.924,7.892,4.694,12.763,4.694c0.261,0,0.512-0.028,0.77-0.038c0.417,0.023,0.835,0.038,1.26,0.038
		c12.023,0,21.769-9.747,21.769-21.768C558.386,180.83,554.863,174.429,549.44,170.47z"/>
	<circle fill="#58595B" cx="124.795" cy="188.164" r="41.522"/>
	
		<circle fill="none" stroke="#F1F2F2" stroke-width="0.9979" stroke-linecap="round" stroke-miterlimit="10" cx="124.796" cy="188.164" r="28.618"/>
	<circle fill="#58595B" cx="124.903" cy="188.058" r="21.77"/>
	<circle fill="#BCBEC0" cx="122.684" cy="190.275" r="20.55"/>
	<circle fill="#58595B" cx="124.795" cy="188.164" r="4.683"/>
	<circle fill="#58595B" cx="124.795" cy="174.149" r="1.252"/>
	<circle fill="#58595B" cx="134.704" cy="178.254" r="1.253"/>
	<circle fill="#58595B" cx="138.808" cy="188.163" r="1.252"/>
	<path fill="#58595B" d="M133.818,198.956c-0.489-0.489-0.49-1.279,0-1.767c0.489-0.492,1.283-0.492,1.772-0.003
		c0.489,0.487,0.487,1.281-0.001,1.771C135.098,199.447,134.307,199.446,133.818,198.956z"/>
	<circle fill="#58595B" cx="124.795" cy="202.176" r="1.253"/>
	<path fill="#58595B" d="M114,197.188c0.49-0.491,1.279-0.491,1.771-0.002c0.489,0.487,0.49,1.283,0.001,1.771
		c-0.489,0.489-1.282,0.489-1.772-0.001C113.511,198.466,113.512,197.673,114,197.188z"/>
	<circle fill="#58595B" cx="110.782" cy="188.163" r="1.252"/>
	<circle fill="#58595B" cx="114.885" cy="178.254" r="1.253"/>
	<path opacity="0.3" fill="#FFFFFF" d="M137.727,170.47c-6.885,8.604-18.865,23.657-27.616,34.661
		c3.442,2.924,7.893,4.694,12.763,4.694c0.26,0,0.512-0.028,0.769-0.038c0.418,0.023,0.835,0.038,1.258,0.038
		c12.024,0,21.771-9.747,21.771-21.768C146.673,180.83,143.149,174.429,137.727,170.47z"/>
</g>
</svg>
