<?xml version="1.0" encoding="utf-8"?>
<!-- Generator: Adobe Illustrator 16.0.0, SVG Export Plug-In . SVG Version: 6.00 Build 0)  -->
<!DOCTYPE svg PUBLIC "-//W3C//DTD SVG 1.1//EN" "http://www.w3.org/Graphics/SVG/1.1/DTD/svg11.dtd">
<svg version="1.1" id="Layer_1" xmlns="http://www.w3.org/2000/svg" xmlns:xlink="http://www.w3.org/1999/xlink" x="0px" y="0px"
	 width="308.667px" height="177px" viewBox="0 0 308.667 177" enable-background="new 0 0 308.667 177" xml:space="preserve">
<g>
	<g>
		<path fill="#9BA5AD" d="M24.357,67.285l-5.417-4.256l26.537-33.772c6.942-8.837,21.185-15.761,32.425-15.761h50.514v6.888H77.902
			c-9.049,0-21.417,6.012-27.008,13.128L24.357,67.285z"/>
	</g>
	<path fill="#E3E993" d="M128.416,10.051v0.025c-3.85,0-6.972,3.121-6.972,6.971c0,3.851,3.122,6.971,6.972,6.971h88.973V10.051
		H128.416z"/>
	<circle fill="#C0C071" cx="217.281" cy="17.047" r="6.971"/>
	<g>
		<path fill="#9BA5AD" d="M265.604,68.601c-0.744,0-1.495-0.239-2.125-0.735c-1.496-1.174-1.756-3.341-0.581-4.836l26.537-33.772
			c2.068-2.631,2.92-5.146,2.229-6.568c-0.69-1.422-3.196-2.305-6.54-2.305h-67.734c-1.901,0-3.443-1.543-3.443-3.444
			s1.542-3.444,3.443-3.444h67.734c8.468,0,11.615,3.872,12.736,6.179c1.123,2.31,2.224,7.178-3.007,13.837l-26.537,33.773
			C267.636,68.15,266.625,68.601,265.604,68.601z"/>
	</g>
	<rect x="9.872" y="58.269" fill="#B7C2CB" width="212.673" height="108.68"/>
	<rect x="222.545" y="58.269" fill="#89929A" width="60.463" height="108.68"/>
	<polygon opacity="0.6" fill="#B6B89F" points="222.545,82.184 267.761,58.269 222.545,58.269 	"/>
	<polygon opacity="0.6" fill="#F6F6D1" points="222.545,58.269 169.501,58.269 9.872,142.402 9.872,166.949 61.785,166.949 
		222.545,82.221 	"/>
	<g>
		<rect x="64.89" y="48.858" fill="#D1D383" width="25.338" height="9.411"/>
		<path fill="#E3E993" d="M70.485,40.392c0-3.908,3.166-7.074,7.072-7.074c3.906,0,7.075,3.166,7.075,7.074v8.467H70.485V40.392z"/>
		<rect x="70.485" y="43.268" fill="#C0C071" width="14.146" height="5.59"/>
		<g>
			<rect x="66.825" y="48.858" fill="#C0C071" width="1.66" height="9.411"/>
			<rect x="70.787" y="48.858" fill="#C0C071" width="1.66" height="9.411"/>
			<rect x="74.747" y="48.858" fill="#C0C071" width="1.661" height="9.411"/>
			<rect x="78.709" y="48.858" fill="#C0C071" width="1.661" height="9.411"/>
			<rect x="82.668" y="48.858" fill="#C0C071" width="1.661" height="9.411"/>
			<rect x="86.633" y="48.858" fill="#C0C071" width="1.661" height="9.411"/>
		</g>
	</g>
	<g>
		<rect x="209.877" y="48.858" fill="#89929A" width="25.338" height="9.411"/>
		<path fill="#B7C2CB" d="M215.471,40.392c0-3.908,3.167-7.074,7.072-7.074c3.906,0,7.074,3.166,7.074,7.074v8.467h-14.146V40.392z"
			/>
		<rect x="215.471" y="43.268" fill="#89929A" width="14.146" height="5.59"/>
		<g>
			
				<line fill="none" stroke="#697178" stroke-width="1.661" stroke-miterlimit="10" x1="212.642" y1="48.858" x2="212.642" y2="58.269"/>
			
				<line fill="none" stroke="#697178" stroke-width="1.661" stroke-miterlimit="10" x1="216.604" y1="48.858" x2="216.604" y2="58.269"/>
			
				<line fill="none" stroke="#697178" stroke-width="1.661" stroke-miterlimit="10" x1="220.564" y1="48.858" x2="220.564" y2="58.269"/>
			
				<line fill="none" stroke="#697178" stroke-width="1.661" stroke-miterlimit="10" x1="224.526" y1="48.858" x2="224.526" y2="58.269"/>
			
				<line fill="none" stroke="#697178" stroke-width="1.661" stroke-miterlimit="10" x1="228.486" y1="48.858" x2="228.486" y2="58.269"/>
			
				<line fill="none" stroke="#697178" stroke-width="1.661" stroke-miterlimit="10" x1="232.449" y1="48.858" x2="232.449" y2="58.269"/>
		</g>
	</g>
</g>
</svg>
