<?xml version="1.0" encoding="utf-8"?>
<!-- Generator: Adobe Illustrator 16.0.0, SVG Export Plug-In . SVG Version: 6.00 Build 0)  -->
<!DOCTYPE svg PUBLIC "-//W3C//DTD SVG 1.1//EN" "http://www.w3.org/Graphics/SVG/1.1/DTD/svg11.dtd">
<svg version="1.1" id="Layer_1" xmlns="http://www.w3.org/2000/svg" xmlns:xlink="http://www.w3.org/1999/xlink" x="0px" y="0px"
	 width="648px" height="240px" viewBox="0 0 648 240" enable-background="new 0 0 648 240" xml:space="preserve">
<g>
	<path fill="#414042" d="M458.583,214.404c0,0-14.848-7.92-19.875-18.285c-5.028-10.365-251.253,0.507-251.253,0.507
		s-3.741,9.704-15.55,13.095c-11.808,3.391-70.149-10.756-70.149-10.756l-11.589-3.244l-11.56-13.181l38.23-51.035l70.15,0.817
		l209.79,14.062l109.23-23.167c0,0,35.32,11.324,35.935,11.938c0.612,0.611,13.473,30.013,13.065,30.625
		c-0.407,0.611-16.31,32.178-16.31,32.178l-13.702,1.51L458.583,214.404z"/>
	<circle fill="#58595B" cx="138.295" cy="189.26" r="40.426"/>
	<circle fill="#808285" cx="138.295" cy="189.26" r="26.134"/>
	<path fill="#BCBEC0" d="M122.216,192.482c4.127-1.773,4.261-4.955,0.298-7.069l-8.898-4.752c0.503-1.445,1.129-2.832,1.867-4.149
		l9.163,3.656c4.172,1.664,6.517-0.49,5.211-4.789l-2.934-9.654c1.357-0.656,2.781-1.192,4.256-1.609l3.894,9.066
		c1.773,4.125,4.955,4.26,7.07,0.297l4.749-8.896c1.446,0.502,2.832,1.127,4.15,1.865l-3.656,9.162
		c-1.665,4.173,0.49,6.517,4.787,5.211l9.656-2.935c0.657,1.357,1.193,2.781,1.609,4.255l-9.065,3.896
		c-4.127,1.774-4.262,4.955-0.298,7.069l8.899,4.75c-0.504,1.446-1.129,2.834-1.867,4.15l-9.165-3.656
		c-4.171-1.666-6.516,0.489-5.209,4.787l2.935,9.657c-1.356,0.658-2.78,1.192-4.255,1.61l-3.895-9.064
		c-1.773-4.128-4.955-4.263-7.069-0.3l-4.752,8.899c-1.444-0.504-2.832-1.129-4.149-1.865l3.655-9.166
		c1.664-4.172-0.489-6.518-4.788-5.21l-9.656,2.935c-0.657-1.355-1.193-2.781-1.61-4.256L122.216,192.482z"/>
	<path fill="#D27948" d="M51.458,135.818c3.175-4.989,10.887-23.132,15.877-30.392c4.99-7.257,55.34-26.309,55.34-26.309h22.227
		c0,0,45.361-40.372,63.96-54.434C227.46,10.623,254.449,8.67,254.449,8.67h282.976l6.516,2.859l15.422,1.919
		c25.399,5.896,23.273,123.731,23.273,123.731l3.628,6.35v26.309c6.352,4.989,11.793,12.702,9.073,21.32l-56.642,6.798
		c0.363-2.412,0.554-4.881,0.554-7.396c0-27.049-21.926-48.978-48.977-48.978c-27.048,0-48.978,21.929-48.978,48.978
		c0,2.518,0.191,4.987,0.559,7.401H186.202c0.765-3.437,1.18-7.003,1.18-10.668c0-27.049-21.927-48.978-48.977-48.978
		c-27.049,0-48.977,21.929-48.977,48.978c0,2.875,0.262,5.685,0.738,8.424l-1.059-0.024c-16.331-0.905-33.567-7.711-37.196-12.246
		c-3.629-4.537-5.897-19.053-6.351-26.764C45.107,148.975,48.283,140.811,51.458,135.818z"/>
	<path fill="#E9A082" d="M582.637,137.182l3.628,6.35v26.309c6.352,4.989,11.794,12.702,9.073,21.32l-56.642,6.798
		c0.364-2.412,0.554-4.881,0.554-7.396c0-27.049-21.926-48.978-48.977-48.978c-27.049,0-48.978,21.929-48.978,48.978
		c0,2.518,0.191,4.987,0.559,7.401H186.202c0.765-3.437,1.18-7.003,1.18-10.668c0-27.049-21.927-48.978-48.977-48.978
		c-27.049,0-48.977,21.929-48.977,48.978c0,2.875,0.262,5.685,0.738,8.425l-1.059-0.025c-16.331-0.905-33.567-7.711-37.196-12.246
		c-3.629-4.537-5.897-19.053-6.351-26.764c-0.453-7.713,2.722-15.875,5.897-20.867c3.126-4.916,10.655-22.585,15.649-30.05h515.116
		C582.877,123.766,582.637,137.182,582.637,137.182z"/>
	<path fill="#7D7471" d="M305.306,75.74c0,4.043,3.308,7.351,7.351,7.351h225.812c4.042,0,6.912-3.278,6.376-7.285l-6.625-49.539
		c-0.537-4.007-4.282-7.286-8.325-7.286H312.657c-4.043,0-7.351,3.308-7.351,7.351V75.74z"/>
	<g>
		<path fill="#A05C35" d="M533.926,168.359L533.926,168.359c0.002,0.005,0.004,0.01,0.008,0.015l52.332-0.229v1.694
			c6.352,4.989,11.793,12.702,9.073,21.32l-56.642,6.798c0.363-2.412,0.554-4.881,0.554-7.395
			C539.25,182.566,537.323,175.025,533.926,168.359z"/>
		<path fill="#A05C35" d="M184.797,171.604h260.307c-2.451,5.832-3.807,12.237-3.807,18.959c0,2.518,0.191,4.987,0.559,7.401
			H186.202c0.765-3.437,1.18-7.003,1.18-10.668C187.382,181.807,186.464,176.531,184.797,171.604z"/>
	</g>
	<g>
		<path fill="#E6E7E8" d="M446.184,72.475c0,3.593,2.94,6.533,6.534,6.533h77.585c3.594,0,6.221-2.923,5.839-6.497l-4.327-40.5
			c-0.383-3.573-3.635-6.497-7.229-6.497h-71.868c-3.594,0-6.534,2.94-6.534,6.534V72.475z"/>
	</g>
	<g>
		<path fill="#E6E7E8" d="M310.615,72.475c0,3.593,2.94,6.533,6.534,6.533h98.002c3.593,0,6.532-2.94,6.532-6.533V32.048
			c0-3.594-2.939-6.534-6.532-6.534h-98.002c-3.594,0-6.534,2.94-6.534,6.534V72.475z"/>
	</g>
	<g>
		<path fill="#E6E7E8" d="M166.062,82.361c-0.13,0-0.247-0.004-0.351-0.01c0.074-0.075,0.158-0.155,0.255-0.242l0.099-0.088
			l0.086-0.101c0.405-0.471,40.824-47.179,67.18-56.94c8.188-3.033,33.407-3.361,43.87-3.361c3.465,0,5.64,0.035,5.649,0.035
			l0.129,0.002l0.129-0.014c0.135-0.015,0.269-0.022,0.398-0.022c0.759,0,1.382,0.251,1.802,0.727
			c0.44,0.498,0.626,1.229,0.523,2.056l-6.751,54.073c-0.263,2.106-2.277,3.885-4.399,3.885H166.062L166.062,82.361z"/>
		<path fill="#7D7471" d="M277.205,23.661c3.41,0,5.59,0.034,5.611,0.035l0.259,0.004l0.257-0.028
			c0.061-0.007,0.119-0.01,0.173-0.01c0.178,0,0.258,0.035,0.268,0.035h0.001c0.02,0.035,0.063,0.182,0.03,0.453l-6.751,54.074
			c-0.134,1.077-1.288,2.096-2.373,2.096H170.292c9.316-10.393,41.688-45.254,63.749-53.424c5.466-2.025,21.6-3.233,43.163-3.233
			h0.001 M277.201,19.578c-11.286,0-36.159,0.369-44.579,3.488c-27.164,10.06-68.018,57.522-68.018,57.522
			c-2.342,2.098-1.685,3.814,1.458,3.814H274.68c3.145,0,6.036-2.553,6.425-5.674l6.751-54.074c0.362-2.909-1.557-5.077-4.351-5.077
			c-0.204,0-0.412,0.012-0.624,0.035C282.882,19.613,280.693,19.578,277.201,19.578L277.201,19.578z"/>
	</g>
	
		<line opacity="0.7" fill="none" stroke="#A05C35" stroke-width="1.6334" stroke-linecap="round" stroke-miterlimit="10" enable-background="new    " x1="430.258" y1="174.15" x2="190.971" y2="174.15"/>
	
		<line opacity="0.7" fill="none" stroke="#F1F2F2" stroke-width="4.0834" stroke-linecap="round" stroke-miterlimit="10" enable-background="new    " x1="430.258" y1="177.009" x2="190.971" y2="177.009"/>
	<g>
		<path fill="#BB6B3F" d="M96.235,151.866c-2.041-2.522-2.041-6.707-2.041-9.158c0-2.032,0-15.856,0-25.177h64.924h411.717
			c0.446,14.753,0.708,31.49,0.708,50.494l-37.611,0.349c-0.004-0.005-0.006-0.01-0.008-0.015c-0.757-1.48-1.582-2.918-2.478-4.305
			c-0.007-0.009-0.011-0.017-0.018-0.022c-1.192-1.849-2.504-3.609-3.929-5.273c-0.029-0.034-0.061-0.071-0.091-0.106
			c-1.017-1.18-2.085-2.312-3.209-3.389c-0.101-0.098-0.2-0.193-0.302-0.291c-1.053-0.996-2.148-1.943-3.287-2.842
			c-0.164-0.13-0.329-0.262-0.496-0.391c-0.333-0.256-0.67-0.51-1.012-0.758c-0.2-0.148-0.404-0.291-0.609-0.435
			c-0.54-0.382-1.087-0.752-1.641-1.112c-0.265-0.17-0.526-0.343-0.795-0.508c-0.306-0.189-0.614-0.375-0.925-0.558
			c-0.296-0.177-0.594-0.347-0.896-0.515c-0.286-0.162-0.573-0.326-0.863-0.483c-0.537-0.286-1.078-0.563-1.624-0.831
			c-0.263-0.127-0.529-0.25-0.794-0.374c-0.379-0.177-0.761-0.351-1.146-0.519c-0.262-0.113-0.522-0.228-0.785-0.338
			c-0.596-0.246-1.194-0.485-1.801-0.709c-0.175-0.063-0.354-0.123-0.529-0.186c-0.5-0.177-1.001-0.35-1.51-0.512
			c-0.236-0.073-0.474-0.147-0.711-0.221c-0.531-0.162-1.065-0.312-1.604-0.455c-0.151-0.041-0.304-0.086-0.457-0.125
			c-0.672-0.172-1.354-0.326-2.039-0.47c-0.206-0.044-0.412-0.083-0.619-0.124c-0.546-0.105-1.092-0.205-1.645-0.294
			c-0.188-0.03-0.376-0.063-0.565-0.091c-0.712-0.105-1.427-0.198-2.147-0.273c-0.15-0.016-0.301-0.025-0.448-0.039
			c-0.604-0.059-1.204-0.104-1.812-0.139c-0.206-0.012-0.413-0.023-0.62-0.033c-0.744-0.033-1.492-0.058-2.245-0.058
			c-0.863,0-1.722,0.024-2.574,0.067c-0.274,0.015-0.542,0.043-0.813,0.062c-0.58,0.04-1.156,0.078-1.729,0.139
			c-0.316,0.031-0.625,0.08-0.938,0.117c-0.524,0.065-1.051,0.127-1.571,0.208c-0.322,0.05-0.639,0.115-0.958,0.171
			c-0.505,0.09-1.012,0.176-1.512,0.28c-0.315,0.067-0.628,0.146-0.94,0.22c-0.498,0.114-0.997,0.228-1.488,0.357
			c-0.305,0.08-0.604,0.17-0.905,0.258c-0.495,0.141-0.989,0.283-1.477,0.438c-0.292,0.093-0.576,0.195-0.864,0.293
			c-0.493,0.166-0.986,0.336-1.473,0.521c-0.273,0.103-0.542,0.212-0.811,0.321c-0.496,0.195-0.988,0.396-1.476,0.607
			c-0.253,0.11-0.502,0.227-0.752,0.34c-0.497,0.228-0.991,0.459-1.479,0.701c-0.232,0.114-0.461,0.234-0.691,0.354
			c-0.499,0.258-0.995,0.521-1.482,0.797c-0.211,0.118-0.421,0.238-0.629,0.361c-0.5,0.289-0.994,0.587-1.483,0.895
			c-0.189,0.12-0.379,0.242-0.566,0.364c-0.5,0.323-0.992,0.657-1.479,0.998c-0.168,0.118-0.337,0.237-0.503,0.356
			c-0.5,0.359-0.993,0.729-1.478,1.107c-0.145,0.113-0.29,0.227-0.436,0.343c-0.498,0.397-0.987,0.804-1.468,1.22
			c-0.125,0.107-0.249,0.215-0.373,0.323c-0.496,0.437-0.979,0.882-1.455,1.337c-0.103,0.1-0.209,0.196-0.312,0.295
			c-0.49,0.478-0.969,0.965-1.438,1.459c-0.055,0.06-0.112,0.112-0.167,0.17h0.006c-3.957,4.215-7.182,9.125-9.455,14.537H184.797
			c-1.02-3.017-2.325-5.902-3.885-8.623c-0.007-0.014-0.014-0.025-0.021-0.039c-1.237-2.151-2.63-4.201-4.169-6.133
			c-0.021-0.027-0.042-0.054-0.064-0.082c-0.354-0.443-0.716-0.877-1.085-1.307c-0.068-0.083-0.139-0.163-0.21-0.244
			c-0.366-0.421-0.737-0.838-1.117-1.247c-0.026-0.026-0.053-0.054-0.079-0.083c-1.168-1.25-2.403-2.435-3.696-3.556
			c-0.145-0.127-0.289-0.253-0.436-0.378c-0.352-0.299-0.708-0.588-1.067-0.877c-0.188-0.151-0.379-0.299-0.569-0.447
			c-0.352-0.271-0.703-0.542-1.06-0.807c-0.202-0.147-0.408-0.289-0.612-0.435c-0.623-0.442-1.257-0.87-1.902-1.284
			c-0.256-0.166-0.511-0.334-0.772-0.496c-0.317-0.194-0.64-0.381-0.962-0.57c-0.299-0.174-0.597-0.348-0.9-0.516
			c-0.315-0.176-0.632-0.348-0.95-0.515c-0.33-0.176-0.663-0.344-0.998-0.512c-0.301-0.149-0.601-0.302-0.905-0.445
			c-0.427-0.202-0.858-0.394-1.29-0.584c-0.278-0.123-0.556-0.246-0.837-0.362c-0.577-0.24-1.161-0.471-1.749-0.689
			c-0.26-0.098-0.522-0.186-0.785-0.277c-0.434-0.152-0.87-0.302-1.31-0.443c-0.276-0.088-0.555-0.174-0.833-0.258
			c-0.453-0.137-0.908-0.266-1.366-0.388c-0.256-0.069-0.51-0.14-0.769-0.205c-0.629-0.157-1.261-0.305-1.9-0.438
			c-0.085-0.019-0.169-0.039-0.253-0.057c-0.721-0.146-1.447-0.273-2.178-0.39c-0.234-0.037-0.47-0.065-0.705-0.101
			c-0.518-0.074-1.037-0.142-1.56-0.199c-0.264-0.027-0.528-0.055-0.793-0.079c-0.526-0.05-1.055-0.089-1.585-0.12
			c-0.239-0.016-0.478-0.033-0.719-0.044c-0.763-0.036-1.53-0.06-2.301-0.06c-0.9,0-1.792,0.029-2.679,0.076
			c-0.289,0.016-0.573,0.045-0.86,0.065c-0.597,0.043-1.193,0.087-1.784,0.151c-0.337,0.037-0.668,0.084-1.003,0.127
			c-0.538,0.07-1.076,0.144-1.609,0.229c-0.344,0.056-0.686,0.121-1.029,0.185c-0.518,0.097-1.033,0.197-1.546,0.31
			c-0.339,0.073-0.675,0.151-1.011,0.231c-0.515,0.125-1.026,0.258-1.534,0.398c-0.322,0.088-0.641,0.178-0.958,0.271
			c-0.527,0.156-1.049,0.326-1.569,0.5c-0.288,0.097-0.577,0.19-0.862,0.293c-0.573,0.203-1.138,0.422-1.7,0.647
			c-0.223,0.088-0.449,0.171-0.67,0.265c-0.742,0.309-1.476,0.635-2.198,0.979c-0.037,0.018-0.074,0.033-0.109,0.049
			c-0.794,0.381-1.575,0.782-2.344,1.202c-0.018,0.01-0.034,0.019-0.05,0.028c-0.726,0.398-1.439,0.815-2.141,1.25
			c-0.149,0.091-0.293,0.188-0.442,0.283c-0.567,0.358-1.13,0.726-1.682,1.107c-0.181,0.125-0.357,0.254-0.537,0.381
			c-0.513,0.365-1.021,0.737-1.521,1.123c-0.183,0.143-0.363,0.284-0.544,0.428c-0.49,0.389-0.974,0.786-1.448,1.192
			c-0.17,0.146-0.339,0.291-0.506,0.438c-0.486,0.428-0.961,0.864-1.43,1.311c-0.143,0.136-0.286,0.27-0.426,0.406
			c-0.502,0.49-0.993,0.994-1.474,1.504c-0.095,0.102-0.193,0.199-0.287,0.301c-0.57,0.617-1.127,1.246-1.667,1.893h-0.003
			C100.78,155.945,97.815,153.816,96.235,151.866z"/>
	</g>
	<circle fill="#8E512D" cx="318.062" cy="95.729" r="7.05"/>
	
		<line fill="none" stroke="#5C5653" stroke-width="4.0834" stroke-linecap="round" stroke-miterlimit="10" x1="307.356" y1="96.512" x2="332.162" y2="96.512"/>
	<circle fill="#8E512D" cx="273.801" cy="95.729" r="7.05"/>
	
		<line fill="none" stroke="#5C5653" stroke-width="4.0834" stroke-linecap="round" stroke-miterlimit="10" x1="263.094" y1="96.512" x2="287.9" y2="96.512"/>
	<path fill="#F1F2F2" d="M65.436,108.474h28.759v21.984H54.341C57.508,124.107,61.857,114.624,65.436,108.474z"/>
	<g>
		<path fill="#7D7471" d="M51.458,135.818c0.748-1.176,1.751-3.09,2.909-5.411c-0.009,0.015-0.018,0.034-0.025,0.05h39.853
			c0,5.929,0,11.072,0,12.25c0,2.451,0,6.635,2.041,9.158c1.58,1.949,4.544,4.08,4.544,4.08h0.003c0.048-0.059,0.1-0.11,0.149-0.168
			c-7.175,8.517-11.503,19.51-11.503,31.52c0,2.875,0.262,5.686,0.738,8.424l-1.059-0.023c-16.331-0.906-33.567-7.711-37.196-12.247
			c-3.629-4.537-5.897-19.052-6.351-26.765C45.107,148.975,48.283,140.811,51.458,135.818z"/>
	</g>
	
		<line opacity="0.3" fill="none" stroke="#474340" stroke-width="1.6334" stroke-miterlimit="10" enable-background="new    " x1="82.352" y1="174.15" x2="48.206" y2="174.15"/>
	<path opacity="0.3" fill="none" stroke="#474340" stroke-width="1.6334" stroke-miterlimit="10" enable-background="new    " d="
		M48.189,142.3h29.263c2.695,0,3.9,1.966,2.678,4.368l-2.498,4.91c-1.222,2.4-4.427,4.367-7.122,4.367H46.009"/>
	<path fill="none" stroke="#A05C35" stroke-width="0.8167" stroke-miterlimit="10" d="M435.566,83.091
		c0,0,1.634,61.104,1.634,114.874"/>
	
		<line fill="none" stroke="#5C5653" stroke-width="0.8167" stroke-miterlimit="10" x1="435.566" y1="83.091" x2="435.566" y2="18.981"/>
	<path fill="none" stroke="#A05C35" stroke-width="0.8167" stroke-miterlimit="10" d="M543.105,84.402
		c4.209,0,7.194-3.413,6.636-7.583l-6.896-54.343c-0.559-4.171-4.458-7.583-8.665-7.583H308.057h-57.469
		c0,0-17.558-0.812-38.383,15.113c-20.826,15.926-38.792,34.25-38.792,34.25"/>
	
		<line fill="none" stroke="#A05C35" stroke-width="0.8167" stroke-miterlimit="10" x1="569.51" y1="88.855" x2="436.384" y2="88.855"/>
	<path opacity="0.6" fill="#F1F2F2" enable-background="new    " d="M164.604,80.588c0,0,31.462-36.549,57.525-52.299l32.49,56.114
		h-88.556C162.918,84.402,162.262,82.686,164.604,80.588z"/>
	<path fill="#E4CDA3" d="M94.194,121.721v8.737H54.341c1.27-2.546,2.731-5.599,4.255-8.737H94.194z"/>
	<path fill="none" stroke="#A05C35" stroke-width="0.8167" stroke-miterlimit="10" d="M559.362,13.45
		c0,0,12.414,59.872,12.182,92.319"/>
	<path fill="#7D7471" stroke="#7D7471" stroke-width="1.6334" stroke-linejoin="round" stroke-miterlimit="10" d="M153.042,87.959
		c0,0,12.734-16.251,29.762-33.592v38.391h-27.928C150.923,92.757,150.097,90.598,153.042,87.959z"/>
	<path fill="none" stroke="#A05C35" stroke-width="0.8167" stroke-miterlimit="10" d="M144.901,79.118
		c0,0-7.014,7.833-17.632,11.619c-10.617,3.787-20.417,8.687-24.5,10.729c-4.084,2.041-8.575,2.858-8.575,11.024
		c0,8.167,0,27.768,0,30.217c0,2.451,0,6.635,2.041,9.158c1.58,1.949,4.544,4.08,4.544,4.08"/>
	<path fill="#5C5653" d="M189.017,59.355c-6.863,0-12.425,6.849-12.425,15.295c0,8.447,5.562,15.295,12.425,15.295V59.355z"/>
	<path opacity="0.6" fill="#5C5653" enable-background="new    " d="M183.632,61.759c-5.208,0-9.431,6.847-9.431,15.295
		c0,8.446,4.222,15.295,9.431,15.295V61.759z"/>
	<path opacity="0.2" fill="#F1F2F2" enable-background="new    " d="M159.119,117.532h142.466l73.233,54.071H184.797
		c-1.02-3.017-2.325-5.901-3.885-8.623c-0.007-0.014-0.014-0.025-0.021-0.039c-1.237-2.151-2.63-4.201-4.169-6.133
		c-0.021-0.026-0.042-0.054-0.064-0.082c-0.354-0.442-0.716-0.877-1.085-1.307c-0.068-0.083-0.139-0.163-0.21-0.244
		c-0.366-0.421-0.737-0.838-1.117-1.246c-0.026-0.027-0.053-0.055-0.079-0.084c-1.168-1.25-2.403-2.435-3.696-3.556
		c-0.145-0.127-0.289-0.253-0.436-0.378c-0.352-0.298-0.708-0.588-1.067-0.877c-0.188-0.151-0.379-0.299-0.569-0.447
		c-0.352-0.271-0.703-0.542-1.06-0.806c-0.202-0.148-0.408-0.289-0.612-0.435c-0.623-0.442-1.257-0.871-1.902-1.285
		c-0.256-0.166-0.511-0.334-0.772-0.496c-0.317-0.194-0.64-0.381-0.962-0.57c-0.299-0.174-0.597-0.348-0.9-0.516
		c-0.315-0.176-0.632-0.348-0.95-0.515c-0.33-0.176-0.663-0.344-0.998-0.512c-0.301-0.149-0.601-0.302-0.905-0.445
		c-0.427-0.202-0.858-0.394-1.29-0.584c-0.278-0.123-0.556-0.245-0.837-0.362c-0.577-0.239-1.161-0.471-1.749-0.689
		c-0.26-0.098-0.522-0.186-0.785-0.277c-0.434-0.152-0.87-0.302-1.31-0.443c-0.276-0.088-0.555-0.174-0.833-0.258
		c-0.453-0.137-0.908-0.266-1.366-0.388c-0.256-0.069-0.51-0.14-0.769-0.205c-0.629-0.157-1.261-0.305-1.9-0.438
		c-0.085-0.019-0.169-0.04-0.253-0.058c-0.721-0.146-1.447-0.273-2.178-0.39c-0.234-0.037-0.47-0.065-0.705-0.101
		c-0.518-0.074-1.037-0.142-1.56-0.198c-0.264-0.028-0.528-0.056-0.793-0.08c-0.526-0.049-1.055-0.088-1.585-0.12
		c-0.239-0.016-0.478-0.033-0.719-0.044c-0.763-0.036-1.53-0.06-2.301-0.06c-0.9,0-1.792,0.029-2.679,0.076
		c-0.289,0.017-0.573,0.045-0.86,0.065c-0.597,0.043-1.193,0.087-1.784,0.151c-0.337,0.037-0.668,0.084-1.003,0.127
		c-0.538,0.07-1.076,0.144-1.609,0.229c-0.344,0.056-0.686,0.121-1.029,0.185c-0.518,0.097-1.033,0.197-1.546,0.31
		c-0.339,0.074-0.675,0.151-1.011,0.231c-0.515,0.125-1.026,0.259-1.534,0.398c-0.322,0.088-0.641,0.178-0.958,0.271
		c-0.527,0.156-1.049,0.326-1.569,0.5c-0.288,0.097-0.577,0.19-0.862,0.293c-0.573,0.203-1.138,0.423-1.7,0.647
		c-0.223,0.089-0.449,0.171-0.67,0.265c-0.742,0.309-1.476,0.636-2.198,0.979c-0.037,0.018-0.074,0.033-0.109,0.049
		c-0.794,0.381-1.575,0.782-2.344,1.202c-0.018,0.011-0.034,0.019-0.05,0.029c-0.726,0.397-1.439,0.815-2.141,1.249
		c-0.149,0.091-0.293,0.188-0.442,0.283c-0.567,0.358-1.13,0.726-1.682,1.107c-0.181,0.125-0.357,0.254-0.537,0.381
		c-0.513,0.365-1.021,0.737-1.521,1.123c-0.183,0.143-0.363,0.284-0.544,0.428c-0.49,0.39-0.974,0.787-1.448,1.192
		c-0.17,0.146-0.339,0.291-0.506,0.438c-0.486,0.428-0.961,0.865-1.43,1.311c-0.143,0.137-0.286,0.27-0.426,0.407
		c-0.502,0.489-0.993,0.993-1.474,1.503c-0.095,0.102-0.193,0.199-0.287,0.301c-0.57,0.617-1.127,1.246-1.667,1.893h-0.003
		c0,0-2.964-2.129-4.544-4.08c-2.041-2.522-2.041-6.707-2.041-9.158c0-2.032,0-15.857,0-25.177h64.922V117.532z"/>
	
		<line fill="none" stroke="#A05C35" stroke-width="0.8167" stroke-miterlimit="10" x1="298.773" y1="14.893" x2="298.773" y2="197.965"/>
	<circle fill="#F1F2F2" cx="138.295" cy="189.26" r="4.083"/>
	<circle fill="#58595B" cx="138.295" cy="181.306" r="1.233"/>
	<circle fill="#58595B" cx="132.67" cy="183.636" r="1.233"/>
	<circle fill="#58595B" cx="130.34" cy="189.26" r="1.234"/>
	<circle fill="#58595B" cx="132.67" cy="194.886" r="1.234"/>
	<path fill="#58595B" d="M139.528,197.216c0.001-0.682-0.553-1.235-1.234-1.237c-0.678,0.002-1.232,0.556-1.232,1.237
		c0,0.679,0.552,1.233,1.232,1.233C138.977,198.449,139.529,197.895,139.528,197.216z"/>
	<path fill="#58595B" d="M144.793,194.014c-0.482-0.481-1.265-0.481-1.747-0.002c-0.48,0.481-0.48,1.264,0.001,1.747
		c0.482,0.48,1.263,0.481,1.745,0C145.275,195.275,145.273,194.493,144.793,194.014z"/>
	<circle fill="#58595B" cx="146.25" cy="189.26" r="1.234"/>
	<circle fill="#58595B" cx="143.92" cy="183.636" r="1.234"/>
	<path opacity="0.3" fill="#FFFFFF" enable-background="new    " d="M124.606,166.998l28.891,43.512
		c-4.284,3.071-9.53,4.885-15.203,4.885c-14.432,0-26.133-11.701-26.133-26.135C112.161,179.846,117.14,171.598,124.606,166.998z"/>
	<circle fill="#58595B" cx="489.061" cy="189.26" r="40.426"/>
	<circle fill="#808285" cx="489.061" cy="189.26" r="26.135"/>
	<path fill="#BCBEC0" d="M472.98,192.482c4.125-1.773,4.262-4.955,0.299-7.069l-8.898-4.752c0.502-1.445,1.129-2.832,1.867-4.149
		l9.165,3.656c4.171,1.664,6.516-0.49,5.21-4.789l-2.934-9.654c1.354-0.656,2.781-1.192,4.254-1.609l3.895,9.066
		c1.773,4.125,4.954,4.26,7.069,0.297l4.751-8.896c1.445,0.502,2.832,1.127,4.148,1.865l-3.654,9.162
		c-1.666,4.173,0.488,6.517,4.787,5.211l9.654-2.935c0.658,1.357,1.193,2.781,1.611,4.255l-9.066,3.896
		c-4.126,1.774-4.261,4.955-0.299,7.069l8.9,4.75c-0.504,1.446-1.129,2.834-1.866,4.15l-9.166-3.656
		c-4.172-1.666-6.516,0.489-5.21,4.787l2.935,9.657c-1.354,0.658-2.78,1.192-4.255,1.61l-3.895-9.064
		c-1.773-4.128-4.954-4.263-7.069-0.3l-4.752,8.899c-1.446-0.504-2.833-1.129-4.149-1.865l3.656-9.166
		c1.666-4.172-0.49-6.518-4.789-5.21l-9.654,2.935c-0.657-1.355-1.193-2.781-1.61-4.256L472.98,192.482z"/>
	<circle fill="#F1F2F2" cx="489.061" cy="189.26" r="4.083"/>
	<circle fill="#58595B" cx="489.061" cy="181.306" r="1.234"/>
	<circle fill="#58595B" cx="483.436" cy="183.636" r="1.233"/>
	<path fill="#58595B" d="M481.104,190.494c0.684,0,1.236-0.553,1.236-1.234c0-0.68-0.553-1.232-1.236-1.232
		c-0.679,0-1.232,0.553-1.232,1.232C479.871,189.941,480.424,190.495,481.104,190.494z"/>
	<circle fill="#58595B" cx="483.436" cy="194.886" r="1.233"/>
	<path fill="#58595B" d="M490.293,197.216c0-0.682-0.553-1.235-1.234-1.237c-0.68,0.002-1.231,0.556-1.231,1.237
		c0,0.679,0.552,1.233,1.231,1.233C489.742,198.449,490.293,197.895,490.293,197.216z"/>
	<path fill="#58595B" d="M495.557,194.014c-0.48-0.481-1.264-0.481-1.746-0.002c-0.48,0.481-0.48,1.264,0.002,1.747
		c0.48,0.48,1.262,0.481,1.743,0C496.039,195.275,496.038,194.493,495.557,194.014z"/>
	<circle fill="#58595B" cx="497.015" cy="189.26" r="1.234"/>
	<g>
		<path fill="#A05C35" d="M567.876,135.768c0,1.795,1.47,3.267,3.267,3.267h10.202c1.796,0,3.268-1.47,3.268-3.267v-25.101
			c0-1.796-1.47-3.267-3.268-3.267h-10.202c-1.796,0-3.267,1.47-3.267,3.267V135.768z"/>
	</g>
	<circle fill="#58595B" cx="494.686" cy="183.636" r="1.233"/>
	<path opacity="0.3" fill="#FFFFFF" enable-background="new    " d="M475.37,166.998l28.892,43.512
		c-4.283,3.071-9.529,4.885-15.201,4.885c-14.434,0-26.136-11.701-26.136-26.135C462.925,179.846,467.904,171.598,475.37,166.998z"
		/>
	<path fill="#E6E7E8" d="M569.51,134.134c0,1.798,1.473,3.267,3.269,3.267h10.2c1.798,0,3.267-1.469,3.267-3.267v-25.099
		c0-1.796-1.469-3.266-3.267-3.266h-10.2c-1.796,0-3.269,1.47-3.269,3.266V134.134z"/>
	<path fill="#E4CDA3" d="M586.244,134.134c0,1.798-1.469,3.267-3.266,3.267h-10.201c-1.797,0-3.269-1.469-3.269-3.267v-4.493h16.734
		L586.244,134.134L586.244,134.134z"/>
	<path fill="#ED1C24" d="M572.777,105.769h10.201c1.797,0,3.266,1.47,3.266,3.266v12.55H569.51v-12.55
		C569.51,107.239,570.98,105.769,572.777,105.769z"/>
	<polygon fill="#E6E7E8" points="211.824,22.596 133.395,74.65 144.901,79.118 	"/>
	<path fill="#A05C35" d="M144.901,79.118l-11.506-4.468c0,0-2.655-1.295-5.105,0s-5.615,4.468-5.615,4.468H144.901z"/>
	<path opacity="0.6" fill="#F1F2F2" enable-background="new    " d="M317.148,25.514h30.542l73.005,50.392
		c-1.156,1.856-3.208,3.102-5.544,3.102h-98.001c-3.594,0-6.533-2.94-6.533-6.534V32.048
		C310.615,28.455,313.554,25.514,317.148,25.514z"/>
	<path opacity="0.6" fill="#F1F2F2" enable-background="new    " d="M452.718,25.514h30.746l52.233,42.838l0.443,4.159
		c0.383,3.573-2.246,6.497-5.84,6.497h-77.583c-3.595,0-6.534-2.94-6.534-6.534V32.048
		C446.184,28.455,449.123,25.514,452.718,25.514z"/>
</g>
</svg>
