<?xml version="1.0" encoding="utf-8"?>
<!-- Generator: Adobe Illustrator 16.0.0, SVG Export Plug-In . SVG Version: 6.00 Build 0)  -->
<!DOCTYPE svg PUBLIC "-//W3C//DTD SVG 1.1//EN" "http://www.w3.org/Graphics/SVG/1.1/DTD/svg11.dtd">
<svg version="1.1" id="Layer_1" xmlns="http://www.w3.org/2000/svg" xmlns:xlink="http://www.w3.org/1999/xlink" x="0px" y="0px"
	 width="55px" height="55px" viewBox="0 0 55 55" enable-background="new 0 0 55 55" xml:space="preserve">
<g>
	<path fill="#FFFFFF" d="M0,0v55h55V0H0z M50.926,50.926H4.074V4.074h46.852V50.926z"/>
	<path fill="#FFFFFF" d="M22.804,34.233c0.944,0,1.843-0.196,2.659-0.55v4.162c-0.026,1.466-1.25,2.677-2.707,2.61
		c-1.466-0.026-2.637-1.241-2.611-2.706l-4.073-0.074c-0.067,3.711,2.898,6.786,6.611,6.854c0.04,0,0.08,0.001,0.12,0.001
		c3.657,0,6.667-2.942,6.733-6.649V27.5V17.156c0.025-1.45,1.213-2.611,2.658-2.611c0.016,0,0.031,0,0.049,0.001
		c1.465,0.025,2.637,1.24,2.611,2.706l4.072,0.074c0.066-3.713-2.898-6.787-6.611-6.854c-0.041,0-0.082-0.001-0.123-0.001
		c-3.656,0-6.664,2.942-6.73,6.649v4.197c-0.816-0.353-1.715-0.549-2.659-0.549c-3.713,0-6.734,3.02-6.734,6.731
		C16.07,31.213,19.091,34.233,22.804,34.233z M22.804,24.842c1.466,0,2.659,1.193,2.659,2.658c0,1.466-1.192,2.66-2.659,2.66
		s-2.66-1.194-2.66-2.66C20.145,26.035,21.338,24.842,22.804,24.842z"/>
</g>
</svg>
